G04 #@! TF.GenerationSoftware,KiCad,Pcbnew,(5.1.10)-1*
G04 #@! TF.CreationDate,2022-01-06T01:02:44-05:00*
G04 #@! TF.ProjectId,Charge_Pump,43686172-6765-45f5-9075-6d702e6b6963,rev?*
G04 #@! TF.SameCoordinates,Original*
G04 #@! TF.FileFunction,Legend,Top*
G04 #@! TF.FilePolarity,Positive*
%FSLAX46Y46*%
G04 Gerber Fmt 4.6, Leading zero omitted, Abs format (unit mm)*
G04 Created by KiCad (PCBNEW (5.1.10)-1) date 2022-01-06 01:02:44*
%MOMM*%
%LPD*%
G01*
G04 APERTURE LIST*
%ADD10C,0.152400*%
%ADD11C,0.120000*%
%ADD12C,0.150000*%
%ADD13C,0.127000*%
%ADD14O,1.700000X1.700000*%
%ADD15R,1.700000X1.700000*%
%ADD16R,1.220000X0.650000*%
%ADD17C,1.600000*%
%ADD18R,1.600000X1.600000*%
%ADD19O,1.905000X2.000000*%
%ADD20R,1.905000X2.000000*%
%ADD21R,2.500000X1.430000*%
%ADD22O,1.700000X1.350000*%
%ADD23O,1.500000X1.100000*%
%ADD24R,1.650000X0.400000*%
%ADD25R,1.500000X2.000000*%
%ADD26R,0.700000X1.825000*%
%ADD27R,2.000000X1.350000*%
%ADD28R,1.100000X1.100000*%
%ADD29R,4.250000X3.820000*%
%ADD30R,2.590000X2.000000*%
%ADD31R,0.400000X1.500000*%
G04 APERTURE END LIST*
D10*
X158394619Y-85058238D02*
X158394619Y-85638809D01*
X158394619Y-85348523D02*
X157378619Y-85348523D01*
X157523761Y-85445285D01*
X157620523Y-85542047D01*
X157668904Y-85638809D01*
X157475380Y-84671190D02*
X157427000Y-84622809D01*
X157378619Y-84526047D01*
X157378619Y-84284142D01*
X157427000Y-84187380D01*
X157475380Y-84139000D01*
X157572142Y-84090619D01*
X157668904Y-84090619D01*
X157814047Y-84139000D01*
X158394619Y-84719571D01*
X158394619Y-84090619D01*
X157378619Y-83800333D02*
X158394619Y-83461666D01*
X157378619Y-83123000D01*
X157427000Y-80703952D02*
X157378619Y-80800714D01*
X157378619Y-80945857D01*
X157427000Y-81091000D01*
X157523761Y-81187761D01*
X157620523Y-81236142D01*
X157814047Y-81284523D01*
X157959190Y-81284523D01*
X158152714Y-81236142D01*
X158249476Y-81187761D01*
X158346238Y-81091000D01*
X158394619Y-80945857D01*
X158394619Y-80849095D01*
X158346238Y-80703952D01*
X158297857Y-80655571D01*
X157959190Y-80655571D01*
X157959190Y-80849095D01*
X158394619Y-80220142D02*
X157378619Y-80220142D01*
X158394619Y-79639571D01*
X157378619Y-79639571D01*
X158394619Y-79155761D02*
X157378619Y-79155761D01*
X157378619Y-78913857D01*
X157427000Y-78768714D01*
X157523761Y-78671952D01*
X157620523Y-78623571D01*
X157814047Y-78575190D01*
X157959190Y-78575190D01*
X158152714Y-78623571D01*
X158249476Y-78671952D01*
X158346238Y-78768714D01*
X158394619Y-78913857D01*
X158394619Y-79155761D01*
X158007571Y-129272380D02*
X158007571Y-128498285D01*
X158394619Y-127482285D02*
X158394619Y-128062857D01*
X158394619Y-127772571D02*
X157378619Y-127772571D01*
X157523761Y-127869333D01*
X157620523Y-127966095D01*
X157668904Y-128062857D01*
X157475380Y-127095238D02*
X157427000Y-127046857D01*
X157378619Y-126950095D01*
X157378619Y-126708190D01*
X157427000Y-126611428D01*
X157475380Y-126563047D01*
X157572142Y-126514666D01*
X157668904Y-126514666D01*
X157814047Y-126563047D01*
X158394619Y-127143619D01*
X158394619Y-126514666D01*
X157378619Y-126224380D02*
X158394619Y-125885714D01*
X157378619Y-125547047D01*
X157427000Y-123128000D02*
X157378619Y-123224761D01*
X157378619Y-123369904D01*
X157427000Y-123515047D01*
X157523761Y-123611809D01*
X157620523Y-123660190D01*
X157814047Y-123708571D01*
X157959190Y-123708571D01*
X158152714Y-123660190D01*
X158249476Y-123611809D01*
X158346238Y-123515047D01*
X158394619Y-123369904D01*
X158394619Y-123273142D01*
X158346238Y-123128000D01*
X158297857Y-123079619D01*
X157959190Y-123079619D01*
X157959190Y-123273142D01*
X158394619Y-122644190D02*
X157378619Y-122644190D01*
X158394619Y-122063619D01*
X157378619Y-122063619D01*
X158394619Y-121579809D02*
X157378619Y-121579809D01*
X157378619Y-121337904D01*
X157427000Y-121192761D01*
X157523761Y-121096000D01*
X157620523Y-121047619D01*
X157814047Y-120999238D01*
X157959190Y-120999238D01*
X158152714Y-121047619D01*
X158249476Y-121096000D01*
X158346238Y-121192761D01*
X158394619Y-121337904D01*
X158394619Y-121579809D01*
D11*
X168157000Y-101509000D02*
X169917000Y-101509000D01*
X169917000Y-98439000D02*
X167487000Y-98439000D01*
X176229000Y-120822000D02*
G75*
G03*
X176229000Y-120822000I-2620000J0D01*
G01*
X176189000Y-120822000D02*
X171029000Y-120822000D01*
X176189000Y-120862000D02*
X171029000Y-120862000D01*
X176188000Y-120902000D02*
X171030000Y-120902000D01*
X176187000Y-120942000D02*
X171031000Y-120942000D01*
X176185000Y-120982000D02*
X171033000Y-120982000D01*
X176182000Y-121022000D02*
X171036000Y-121022000D01*
X176178000Y-121062000D02*
X174649000Y-121062000D01*
X172569000Y-121062000D02*
X171040000Y-121062000D01*
X176174000Y-121102000D02*
X174649000Y-121102000D01*
X172569000Y-121102000D02*
X171044000Y-121102000D01*
X176170000Y-121142000D02*
X174649000Y-121142000D01*
X172569000Y-121142000D02*
X171048000Y-121142000D01*
X176165000Y-121182000D02*
X174649000Y-121182000D01*
X172569000Y-121182000D02*
X171053000Y-121182000D01*
X176159000Y-121222000D02*
X174649000Y-121222000D01*
X172569000Y-121222000D02*
X171059000Y-121222000D01*
X176152000Y-121262000D02*
X174649000Y-121262000D01*
X172569000Y-121262000D02*
X171066000Y-121262000D01*
X176145000Y-121302000D02*
X174649000Y-121302000D01*
X172569000Y-121302000D02*
X171073000Y-121302000D01*
X176137000Y-121342000D02*
X174649000Y-121342000D01*
X172569000Y-121342000D02*
X171081000Y-121342000D01*
X176129000Y-121382000D02*
X174649000Y-121382000D01*
X172569000Y-121382000D02*
X171089000Y-121382000D01*
X176120000Y-121422000D02*
X174649000Y-121422000D01*
X172569000Y-121422000D02*
X171098000Y-121422000D01*
X176110000Y-121462000D02*
X174649000Y-121462000D01*
X172569000Y-121462000D02*
X171108000Y-121462000D01*
X176100000Y-121502000D02*
X174649000Y-121502000D01*
X172569000Y-121502000D02*
X171118000Y-121502000D01*
X176089000Y-121543000D02*
X174649000Y-121543000D01*
X172569000Y-121543000D02*
X171129000Y-121543000D01*
X176077000Y-121583000D02*
X174649000Y-121583000D01*
X172569000Y-121583000D02*
X171141000Y-121583000D01*
X176064000Y-121623000D02*
X174649000Y-121623000D01*
X172569000Y-121623000D02*
X171154000Y-121623000D01*
X176051000Y-121663000D02*
X174649000Y-121663000D01*
X172569000Y-121663000D02*
X171167000Y-121663000D01*
X176037000Y-121703000D02*
X174649000Y-121703000D01*
X172569000Y-121703000D02*
X171181000Y-121703000D01*
X176023000Y-121743000D02*
X174649000Y-121743000D01*
X172569000Y-121743000D02*
X171195000Y-121743000D01*
X176007000Y-121783000D02*
X174649000Y-121783000D01*
X172569000Y-121783000D02*
X171211000Y-121783000D01*
X175991000Y-121823000D02*
X174649000Y-121823000D01*
X172569000Y-121823000D02*
X171227000Y-121823000D01*
X175974000Y-121863000D02*
X174649000Y-121863000D01*
X172569000Y-121863000D02*
X171244000Y-121863000D01*
X175957000Y-121903000D02*
X174649000Y-121903000D01*
X172569000Y-121903000D02*
X171261000Y-121903000D01*
X175938000Y-121943000D02*
X174649000Y-121943000D01*
X172569000Y-121943000D02*
X171280000Y-121943000D01*
X175919000Y-121983000D02*
X174649000Y-121983000D01*
X172569000Y-121983000D02*
X171299000Y-121983000D01*
X175899000Y-122023000D02*
X174649000Y-122023000D01*
X172569000Y-122023000D02*
X171319000Y-122023000D01*
X175877000Y-122063000D02*
X174649000Y-122063000D01*
X172569000Y-122063000D02*
X171341000Y-122063000D01*
X175856000Y-122103000D02*
X174649000Y-122103000D01*
X172569000Y-122103000D02*
X171362000Y-122103000D01*
X175833000Y-122143000D02*
X174649000Y-122143000D01*
X172569000Y-122143000D02*
X171385000Y-122143000D01*
X175809000Y-122183000D02*
X174649000Y-122183000D01*
X172569000Y-122183000D02*
X171409000Y-122183000D01*
X175784000Y-122223000D02*
X174649000Y-122223000D01*
X172569000Y-122223000D02*
X171434000Y-122223000D01*
X175758000Y-122263000D02*
X174649000Y-122263000D01*
X172569000Y-122263000D02*
X171460000Y-122263000D01*
X175731000Y-122303000D02*
X174649000Y-122303000D01*
X172569000Y-122303000D02*
X171487000Y-122303000D01*
X175704000Y-122343000D02*
X174649000Y-122343000D01*
X172569000Y-122343000D02*
X171514000Y-122343000D01*
X175674000Y-122383000D02*
X174649000Y-122383000D01*
X172569000Y-122383000D02*
X171544000Y-122383000D01*
X175644000Y-122423000D02*
X174649000Y-122423000D01*
X172569000Y-122423000D02*
X171574000Y-122423000D01*
X175613000Y-122463000D02*
X174649000Y-122463000D01*
X172569000Y-122463000D02*
X171605000Y-122463000D01*
X175580000Y-122503000D02*
X174649000Y-122503000D01*
X172569000Y-122503000D02*
X171638000Y-122503000D01*
X175546000Y-122543000D02*
X174649000Y-122543000D01*
X172569000Y-122543000D02*
X171672000Y-122543000D01*
X175510000Y-122583000D02*
X174649000Y-122583000D01*
X172569000Y-122583000D02*
X171708000Y-122583000D01*
X175473000Y-122623000D02*
X174649000Y-122623000D01*
X172569000Y-122623000D02*
X171745000Y-122623000D01*
X175435000Y-122663000D02*
X174649000Y-122663000D01*
X172569000Y-122663000D02*
X171783000Y-122663000D01*
X175394000Y-122703000D02*
X174649000Y-122703000D01*
X172569000Y-122703000D02*
X171824000Y-122703000D01*
X175352000Y-122743000D02*
X174649000Y-122743000D01*
X172569000Y-122743000D02*
X171866000Y-122743000D01*
X175308000Y-122783000D02*
X174649000Y-122783000D01*
X172569000Y-122783000D02*
X171910000Y-122783000D01*
X175262000Y-122823000D02*
X174649000Y-122823000D01*
X172569000Y-122823000D02*
X171956000Y-122823000D01*
X175214000Y-122863000D02*
X174649000Y-122863000D01*
X172569000Y-122863000D02*
X172004000Y-122863000D01*
X175163000Y-122903000D02*
X174649000Y-122903000D01*
X172569000Y-122903000D02*
X172055000Y-122903000D01*
X175109000Y-122943000D02*
X174649000Y-122943000D01*
X172569000Y-122943000D02*
X172109000Y-122943000D01*
X175052000Y-122983000D02*
X174649000Y-122983000D01*
X172569000Y-122983000D02*
X172166000Y-122983000D01*
X174992000Y-123023000D02*
X174649000Y-123023000D01*
X172569000Y-123023000D02*
X172226000Y-123023000D01*
X174928000Y-123063000D02*
X174649000Y-123063000D01*
X172569000Y-123063000D02*
X172290000Y-123063000D01*
X174860000Y-123103000D02*
X174649000Y-123103000D01*
X172569000Y-123103000D02*
X172358000Y-123103000D01*
X174787000Y-123143000D02*
X172431000Y-123143000D01*
X174707000Y-123183000D02*
X172511000Y-123183000D01*
X174620000Y-123223000D02*
X172598000Y-123223000D01*
X174524000Y-123263000D02*
X172694000Y-123263000D01*
X174414000Y-123303000D02*
X172804000Y-123303000D01*
X174286000Y-123343000D02*
X172932000Y-123343000D01*
X174127000Y-123383000D02*
X173091000Y-123383000D01*
X173893000Y-123423000D02*
X173325000Y-123423000D01*
X175084000Y-118017225D02*
X175084000Y-118517225D01*
X175334000Y-118267225D02*
X174834000Y-118267225D01*
X194070000Y-83970000D02*
X196730000Y-83970000D01*
X194070000Y-81370000D02*
X194070000Y-83970000D01*
X196730000Y-81370000D02*
X196730000Y-83970000D01*
X194070000Y-81370000D02*
X196730000Y-81370000D01*
X194070000Y-80100000D02*
X194070000Y-78770000D01*
X194070000Y-78770000D02*
X195400000Y-78770000D01*
X192699000Y-123158000D02*
X182459000Y-123158000D01*
X192699000Y-118517000D02*
X182459000Y-118517000D01*
X192699000Y-123158000D02*
X192699000Y-118517000D01*
X182459000Y-123158000D02*
X182459000Y-118517000D01*
X192699000Y-121648000D02*
X182459000Y-121648000D01*
X189429000Y-123158000D02*
X189429000Y-121648000D01*
X185728000Y-123158000D02*
X185728000Y-121648000D01*
X182459000Y-84614000D02*
X192699000Y-84614000D01*
X182459000Y-89255000D02*
X192699000Y-89255000D01*
X182459000Y-84614000D02*
X182459000Y-89255000D01*
X192699000Y-84614000D02*
X192699000Y-89255000D01*
X182459000Y-86124000D02*
X192699000Y-86124000D01*
X185729000Y-84614000D02*
X185729000Y-86124000D01*
X189430000Y-84614000D02*
X189430000Y-86124000D01*
X159704000Y-100092000D02*
X161254000Y-100092000D01*
X159704000Y-100092000D02*
X159704000Y-100392000D01*
X156904000Y-100392000D02*
X159704000Y-100392000D01*
X159704000Y-108392000D02*
X161254000Y-108392000D01*
X159704000Y-108092000D02*
X159704000Y-108392000D01*
X156904000Y-108092000D02*
X159704000Y-108092000D01*
X162954000Y-103342000D02*
X162504000Y-102942000D01*
X162954000Y-102542000D02*
X162954000Y-103342000D01*
X162504000Y-102942000D02*
X162954000Y-102542000D01*
X192192000Y-94218000D02*
X192192000Y-92218000D01*
X192192000Y-92218000D02*
X188342000Y-92218000D01*
X192192000Y-94218000D02*
X188342000Y-94218000D01*
X187538000Y-112665000D02*
X187538000Y-114665000D01*
X187538000Y-114665000D02*
X191388000Y-114665000D01*
X187538000Y-112665000D02*
X191388000Y-112665000D01*
X187620000Y-94218000D02*
X187620000Y-92218000D01*
X187620000Y-92218000D02*
X183770000Y-92218000D01*
X187620000Y-94218000D02*
X183770000Y-94218000D01*
X182966000Y-112665000D02*
X182966000Y-114665000D01*
X182966000Y-114665000D02*
X186816000Y-114665000D01*
X182966000Y-112665000D02*
X186816000Y-112665000D01*
X183048000Y-94218000D02*
X183048000Y-92218000D01*
X183048000Y-92218000D02*
X179198000Y-92218000D01*
X183048000Y-94218000D02*
X179198000Y-94218000D01*
X178394000Y-112665000D02*
X178394000Y-114665000D01*
X178394000Y-114665000D02*
X182244000Y-114665000D01*
X178394000Y-112665000D02*
X182244000Y-112665000D01*
X182794000Y-116951000D02*
X182794000Y-114951000D01*
X182794000Y-114951000D02*
X178944000Y-114951000D01*
X182794000Y-116951000D02*
X178944000Y-116951000D01*
X178476000Y-94218000D02*
X178476000Y-92218000D01*
X178476000Y-92218000D02*
X174626000Y-92218000D01*
X178476000Y-94218000D02*
X174626000Y-94218000D01*
X192299000Y-96189748D02*
X192299000Y-97612252D01*
X190479000Y-96189748D02*
X190479000Y-97612252D01*
X192299000Y-109270748D02*
X192299000Y-110693252D01*
X190479000Y-109270748D02*
X190479000Y-110693252D01*
X188616000Y-96189748D02*
X188616000Y-97612252D01*
X186796000Y-96189748D02*
X186796000Y-97612252D01*
X188362000Y-109270748D02*
X188362000Y-110693252D01*
X186542000Y-109270748D02*
X186542000Y-110693252D01*
X184044000Y-96189748D02*
X184044000Y-97612252D01*
X182224000Y-96189748D02*
X182224000Y-97612252D01*
X183864000Y-109270748D02*
X183864000Y-110693252D01*
X182044000Y-109270748D02*
X182044000Y-110693252D01*
X180435000Y-109335748D02*
X180435000Y-110758252D01*
X178615000Y-109335748D02*
X178615000Y-110758252D01*
X179472000Y-96189748D02*
X179472000Y-97612252D01*
X177652000Y-96189748D02*
X177652000Y-97612252D01*
X169589267Y-101979000D02*
X169246733Y-101979000D01*
X169589267Y-102999000D02*
X169246733Y-102999000D01*
X168865733Y-97919000D02*
X169208267Y-97919000D01*
X168865733Y-96899000D02*
X169208267Y-96899000D01*
X166499000Y-100793733D02*
X166499000Y-101136267D01*
X165479000Y-100793733D02*
X165479000Y-101136267D01*
X165788000Y-89340775D02*
X166288000Y-89340775D01*
X166038000Y-89590775D02*
X166038000Y-89090775D01*
X167229000Y-84185000D02*
X167797000Y-84185000D01*
X166995000Y-84225000D02*
X168031000Y-84225000D01*
X166836000Y-84265000D02*
X168190000Y-84265000D01*
X166708000Y-84305000D02*
X168318000Y-84305000D01*
X166598000Y-84345000D02*
X168428000Y-84345000D01*
X166502000Y-84385000D02*
X168524000Y-84385000D01*
X166415000Y-84425000D02*
X168611000Y-84425000D01*
X166335000Y-84465000D02*
X168691000Y-84465000D01*
X168553000Y-84505000D02*
X168764000Y-84505000D01*
X166262000Y-84505000D02*
X166473000Y-84505000D01*
X168553000Y-84545000D02*
X168832000Y-84545000D01*
X166194000Y-84545000D02*
X166473000Y-84545000D01*
X168553000Y-84585000D02*
X168896000Y-84585000D01*
X166130000Y-84585000D02*
X166473000Y-84585000D01*
X168553000Y-84625000D02*
X168956000Y-84625000D01*
X166070000Y-84625000D02*
X166473000Y-84625000D01*
X168553000Y-84665000D02*
X169013000Y-84665000D01*
X166013000Y-84665000D02*
X166473000Y-84665000D01*
X168553000Y-84705000D02*
X169067000Y-84705000D01*
X165959000Y-84705000D02*
X166473000Y-84705000D01*
X168553000Y-84745000D02*
X169118000Y-84745000D01*
X165908000Y-84745000D02*
X166473000Y-84745000D01*
X168553000Y-84785000D02*
X169166000Y-84785000D01*
X165860000Y-84785000D02*
X166473000Y-84785000D01*
X168553000Y-84825000D02*
X169212000Y-84825000D01*
X165814000Y-84825000D02*
X166473000Y-84825000D01*
X168553000Y-84865000D02*
X169256000Y-84865000D01*
X165770000Y-84865000D02*
X166473000Y-84865000D01*
X168553000Y-84905000D02*
X169298000Y-84905000D01*
X165728000Y-84905000D02*
X166473000Y-84905000D01*
X168553000Y-84945000D02*
X169339000Y-84945000D01*
X165687000Y-84945000D02*
X166473000Y-84945000D01*
X168553000Y-84985000D02*
X169377000Y-84985000D01*
X165649000Y-84985000D02*
X166473000Y-84985000D01*
X168553000Y-85025000D02*
X169414000Y-85025000D01*
X165612000Y-85025000D02*
X166473000Y-85025000D01*
X168553000Y-85065000D02*
X169450000Y-85065000D01*
X165576000Y-85065000D02*
X166473000Y-85065000D01*
X168553000Y-85105000D02*
X169484000Y-85105000D01*
X165542000Y-85105000D02*
X166473000Y-85105000D01*
X168553000Y-85145000D02*
X169517000Y-85145000D01*
X165509000Y-85145000D02*
X166473000Y-85145000D01*
X168553000Y-85185000D02*
X169548000Y-85185000D01*
X165478000Y-85185000D02*
X166473000Y-85185000D01*
X168553000Y-85225000D02*
X169578000Y-85225000D01*
X165448000Y-85225000D02*
X166473000Y-85225000D01*
X168553000Y-85265000D02*
X169608000Y-85265000D01*
X165418000Y-85265000D02*
X166473000Y-85265000D01*
X168553000Y-85305000D02*
X169635000Y-85305000D01*
X165391000Y-85305000D02*
X166473000Y-85305000D01*
X168553000Y-85345000D02*
X169662000Y-85345000D01*
X165364000Y-85345000D02*
X166473000Y-85345000D01*
X168553000Y-85385000D02*
X169688000Y-85385000D01*
X165338000Y-85385000D02*
X166473000Y-85385000D01*
X168553000Y-85425000D02*
X169713000Y-85425000D01*
X165313000Y-85425000D02*
X166473000Y-85425000D01*
X168553000Y-85465000D02*
X169737000Y-85465000D01*
X165289000Y-85465000D02*
X166473000Y-85465000D01*
X168553000Y-85505000D02*
X169760000Y-85505000D01*
X165266000Y-85505000D02*
X166473000Y-85505000D01*
X168553000Y-85545000D02*
X169781000Y-85545000D01*
X165245000Y-85545000D02*
X166473000Y-85545000D01*
X168553000Y-85585000D02*
X169803000Y-85585000D01*
X165223000Y-85585000D02*
X166473000Y-85585000D01*
X168553000Y-85625000D02*
X169823000Y-85625000D01*
X165203000Y-85625000D02*
X166473000Y-85625000D01*
X168553000Y-85665000D02*
X169842000Y-85665000D01*
X165184000Y-85665000D02*
X166473000Y-85665000D01*
X168553000Y-85705000D02*
X169861000Y-85705000D01*
X165165000Y-85705000D02*
X166473000Y-85705000D01*
X168553000Y-85745000D02*
X169878000Y-85745000D01*
X165148000Y-85745000D02*
X166473000Y-85745000D01*
X168553000Y-85785000D02*
X169895000Y-85785000D01*
X165131000Y-85785000D02*
X166473000Y-85785000D01*
X168553000Y-85825000D02*
X169911000Y-85825000D01*
X165115000Y-85825000D02*
X166473000Y-85825000D01*
X168553000Y-85865000D02*
X169927000Y-85865000D01*
X165099000Y-85865000D02*
X166473000Y-85865000D01*
X168553000Y-85905000D02*
X169941000Y-85905000D01*
X165085000Y-85905000D02*
X166473000Y-85905000D01*
X168553000Y-85945000D02*
X169955000Y-85945000D01*
X165071000Y-85945000D02*
X166473000Y-85945000D01*
X168553000Y-85985000D02*
X169968000Y-85985000D01*
X165058000Y-85985000D02*
X166473000Y-85985000D01*
X168553000Y-86025000D02*
X169981000Y-86025000D01*
X165045000Y-86025000D02*
X166473000Y-86025000D01*
X168553000Y-86065000D02*
X169993000Y-86065000D01*
X165033000Y-86065000D02*
X166473000Y-86065000D01*
X168553000Y-86106000D02*
X170004000Y-86106000D01*
X165022000Y-86106000D02*
X166473000Y-86106000D01*
X168553000Y-86146000D02*
X170014000Y-86146000D01*
X165012000Y-86146000D02*
X166473000Y-86146000D01*
X168553000Y-86186000D02*
X170024000Y-86186000D01*
X165002000Y-86186000D02*
X166473000Y-86186000D01*
X168553000Y-86226000D02*
X170033000Y-86226000D01*
X164993000Y-86226000D02*
X166473000Y-86226000D01*
X168553000Y-86266000D02*
X170041000Y-86266000D01*
X164985000Y-86266000D02*
X166473000Y-86266000D01*
X168553000Y-86306000D02*
X170049000Y-86306000D01*
X164977000Y-86306000D02*
X166473000Y-86306000D01*
X168553000Y-86346000D02*
X170056000Y-86346000D01*
X164970000Y-86346000D02*
X166473000Y-86346000D01*
X168553000Y-86386000D02*
X170063000Y-86386000D01*
X164963000Y-86386000D02*
X166473000Y-86386000D01*
X168553000Y-86426000D02*
X170069000Y-86426000D01*
X164957000Y-86426000D02*
X166473000Y-86426000D01*
X168553000Y-86466000D02*
X170074000Y-86466000D01*
X164952000Y-86466000D02*
X166473000Y-86466000D01*
X168553000Y-86506000D02*
X170078000Y-86506000D01*
X164948000Y-86506000D02*
X166473000Y-86506000D01*
X168553000Y-86546000D02*
X170082000Y-86546000D01*
X164944000Y-86546000D02*
X166473000Y-86546000D01*
X164940000Y-86586000D02*
X170086000Y-86586000D01*
X164937000Y-86626000D02*
X170089000Y-86626000D01*
X164935000Y-86666000D02*
X170091000Y-86666000D01*
X164934000Y-86706000D02*
X170092000Y-86706000D01*
X164933000Y-86746000D02*
X170093000Y-86746000D01*
X164933000Y-86786000D02*
X170093000Y-86786000D01*
X170133000Y-86786000D02*
G75*
G03*
X170133000Y-86786000I-2620000J0D01*
G01*
X169492000Y-118267225D02*
X168992000Y-118267225D01*
X169242000Y-118017225D02*
X169242000Y-118517225D01*
X168051000Y-123423000D02*
X167483000Y-123423000D01*
X168285000Y-123383000D02*
X167249000Y-123383000D01*
X168444000Y-123343000D02*
X167090000Y-123343000D01*
X168572000Y-123303000D02*
X166962000Y-123303000D01*
X168682000Y-123263000D02*
X166852000Y-123263000D01*
X168778000Y-123223000D02*
X166756000Y-123223000D01*
X168865000Y-123183000D02*
X166669000Y-123183000D01*
X168945000Y-123143000D02*
X166589000Y-123143000D01*
X166727000Y-123103000D02*
X166516000Y-123103000D01*
X169018000Y-123103000D02*
X168807000Y-123103000D01*
X166727000Y-123063000D02*
X166448000Y-123063000D01*
X169086000Y-123063000D02*
X168807000Y-123063000D01*
X166727000Y-123023000D02*
X166384000Y-123023000D01*
X169150000Y-123023000D02*
X168807000Y-123023000D01*
X166727000Y-122983000D02*
X166324000Y-122983000D01*
X169210000Y-122983000D02*
X168807000Y-122983000D01*
X166727000Y-122943000D02*
X166267000Y-122943000D01*
X169267000Y-122943000D02*
X168807000Y-122943000D01*
X166727000Y-122903000D02*
X166213000Y-122903000D01*
X169321000Y-122903000D02*
X168807000Y-122903000D01*
X166727000Y-122863000D02*
X166162000Y-122863000D01*
X169372000Y-122863000D02*
X168807000Y-122863000D01*
X166727000Y-122823000D02*
X166114000Y-122823000D01*
X169420000Y-122823000D02*
X168807000Y-122823000D01*
X166727000Y-122783000D02*
X166068000Y-122783000D01*
X169466000Y-122783000D02*
X168807000Y-122783000D01*
X166727000Y-122743000D02*
X166024000Y-122743000D01*
X169510000Y-122743000D02*
X168807000Y-122743000D01*
X166727000Y-122703000D02*
X165982000Y-122703000D01*
X169552000Y-122703000D02*
X168807000Y-122703000D01*
X166727000Y-122663000D02*
X165941000Y-122663000D01*
X169593000Y-122663000D02*
X168807000Y-122663000D01*
X166727000Y-122623000D02*
X165903000Y-122623000D01*
X169631000Y-122623000D02*
X168807000Y-122623000D01*
X166727000Y-122583000D02*
X165866000Y-122583000D01*
X169668000Y-122583000D02*
X168807000Y-122583000D01*
X166727000Y-122543000D02*
X165830000Y-122543000D01*
X169704000Y-122543000D02*
X168807000Y-122543000D01*
X166727000Y-122503000D02*
X165796000Y-122503000D01*
X169738000Y-122503000D02*
X168807000Y-122503000D01*
X166727000Y-122463000D02*
X165763000Y-122463000D01*
X169771000Y-122463000D02*
X168807000Y-122463000D01*
X166727000Y-122423000D02*
X165732000Y-122423000D01*
X169802000Y-122423000D02*
X168807000Y-122423000D01*
X166727000Y-122383000D02*
X165702000Y-122383000D01*
X169832000Y-122383000D02*
X168807000Y-122383000D01*
X166727000Y-122343000D02*
X165672000Y-122343000D01*
X169862000Y-122343000D02*
X168807000Y-122343000D01*
X166727000Y-122303000D02*
X165645000Y-122303000D01*
X169889000Y-122303000D02*
X168807000Y-122303000D01*
X166727000Y-122263000D02*
X165618000Y-122263000D01*
X169916000Y-122263000D02*
X168807000Y-122263000D01*
X166727000Y-122223000D02*
X165592000Y-122223000D01*
X169942000Y-122223000D02*
X168807000Y-122223000D01*
X166727000Y-122183000D02*
X165567000Y-122183000D01*
X169967000Y-122183000D02*
X168807000Y-122183000D01*
X166727000Y-122143000D02*
X165543000Y-122143000D01*
X169991000Y-122143000D02*
X168807000Y-122143000D01*
X166727000Y-122103000D02*
X165520000Y-122103000D01*
X170014000Y-122103000D02*
X168807000Y-122103000D01*
X166727000Y-122063000D02*
X165499000Y-122063000D01*
X170035000Y-122063000D02*
X168807000Y-122063000D01*
X166727000Y-122023000D02*
X165477000Y-122023000D01*
X170057000Y-122023000D02*
X168807000Y-122023000D01*
X166727000Y-121983000D02*
X165457000Y-121983000D01*
X170077000Y-121983000D02*
X168807000Y-121983000D01*
X166727000Y-121943000D02*
X165438000Y-121943000D01*
X170096000Y-121943000D02*
X168807000Y-121943000D01*
X166727000Y-121903000D02*
X165419000Y-121903000D01*
X170115000Y-121903000D02*
X168807000Y-121903000D01*
X166727000Y-121863000D02*
X165402000Y-121863000D01*
X170132000Y-121863000D02*
X168807000Y-121863000D01*
X166727000Y-121823000D02*
X165385000Y-121823000D01*
X170149000Y-121823000D02*
X168807000Y-121823000D01*
X166727000Y-121783000D02*
X165369000Y-121783000D01*
X170165000Y-121783000D02*
X168807000Y-121783000D01*
X166727000Y-121743000D02*
X165353000Y-121743000D01*
X170181000Y-121743000D02*
X168807000Y-121743000D01*
X166727000Y-121703000D02*
X165339000Y-121703000D01*
X170195000Y-121703000D02*
X168807000Y-121703000D01*
X166727000Y-121663000D02*
X165325000Y-121663000D01*
X170209000Y-121663000D02*
X168807000Y-121663000D01*
X166727000Y-121623000D02*
X165312000Y-121623000D01*
X170222000Y-121623000D02*
X168807000Y-121623000D01*
X166727000Y-121583000D02*
X165299000Y-121583000D01*
X170235000Y-121583000D02*
X168807000Y-121583000D01*
X166727000Y-121543000D02*
X165287000Y-121543000D01*
X170247000Y-121543000D02*
X168807000Y-121543000D01*
X166727000Y-121502000D02*
X165276000Y-121502000D01*
X170258000Y-121502000D02*
X168807000Y-121502000D01*
X166727000Y-121462000D02*
X165266000Y-121462000D01*
X170268000Y-121462000D02*
X168807000Y-121462000D01*
X166727000Y-121422000D02*
X165256000Y-121422000D01*
X170278000Y-121422000D02*
X168807000Y-121422000D01*
X166727000Y-121382000D02*
X165247000Y-121382000D01*
X170287000Y-121382000D02*
X168807000Y-121382000D01*
X166727000Y-121342000D02*
X165239000Y-121342000D01*
X170295000Y-121342000D02*
X168807000Y-121342000D01*
X166727000Y-121302000D02*
X165231000Y-121302000D01*
X170303000Y-121302000D02*
X168807000Y-121302000D01*
X166727000Y-121262000D02*
X165224000Y-121262000D01*
X170310000Y-121262000D02*
X168807000Y-121262000D01*
X166727000Y-121222000D02*
X165217000Y-121222000D01*
X170317000Y-121222000D02*
X168807000Y-121222000D01*
X166727000Y-121182000D02*
X165211000Y-121182000D01*
X170323000Y-121182000D02*
X168807000Y-121182000D01*
X166727000Y-121142000D02*
X165206000Y-121142000D01*
X170328000Y-121142000D02*
X168807000Y-121142000D01*
X166727000Y-121102000D02*
X165202000Y-121102000D01*
X170332000Y-121102000D02*
X168807000Y-121102000D01*
X166727000Y-121062000D02*
X165198000Y-121062000D01*
X170336000Y-121062000D02*
X168807000Y-121062000D01*
X170340000Y-121022000D02*
X165194000Y-121022000D01*
X170343000Y-120982000D02*
X165191000Y-120982000D01*
X170345000Y-120942000D02*
X165189000Y-120942000D01*
X170346000Y-120902000D02*
X165188000Y-120902000D01*
X170347000Y-120862000D02*
X165187000Y-120862000D01*
X170347000Y-120822000D02*
X165187000Y-120822000D01*
X170387000Y-120822000D02*
G75*
G03*
X170387000Y-120822000I-2620000J0D01*
G01*
X175975000Y-86786000D02*
G75*
G03*
X175975000Y-86786000I-2620000J0D01*
G01*
X170775000Y-86786000D02*
X175935000Y-86786000D01*
X170775000Y-86746000D02*
X175935000Y-86746000D01*
X170776000Y-86706000D02*
X175934000Y-86706000D01*
X170777000Y-86666000D02*
X175933000Y-86666000D01*
X170779000Y-86626000D02*
X175931000Y-86626000D01*
X170782000Y-86586000D02*
X175928000Y-86586000D01*
X170786000Y-86546000D02*
X172315000Y-86546000D01*
X174395000Y-86546000D02*
X175924000Y-86546000D01*
X170790000Y-86506000D02*
X172315000Y-86506000D01*
X174395000Y-86506000D02*
X175920000Y-86506000D01*
X170794000Y-86466000D02*
X172315000Y-86466000D01*
X174395000Y-86466000D02*
X175916000Y-86466000D01*
X170799000Y-86426000D02*
X172315000Y-86426000D01*
X174395000Y-86426000D02*
X175911000Y-86426000D01*
X170805000Y-86386000D02*
X172315000Y-86386000D01*
X174395000Y-86386000D02*
X175905000Y-86386000D01*
X170812000Y-86346000D02*
X172315000Y-86346000D01*
X174395000Y-86346000D02*
X175898000Y-86346000D01*
X170819000Y-86306000D02*
X172315000Y-86306000D01*
X174395000Y-86306000D02*
X175891000Y-86306000D01*
X170827000Y-86266000D02*
X172315000Y-86266000D01*
X174395000Y-86266000D02*
X175883000Y-86266000D01*
X170835000Y-86226000D02*
X172315000Y-86226000D01*
X174395000Y-86226000D02*
X175875000Y-86226000D01*
X170844000Y-86186000D02*
X172315000Y-86186000D01*
X174395000Y-86186000D02*
X175866000Y-86186000D01*
X170854000Y-86146000D02*
X172315000Y-86146000D01*
X174395000Y-86146000D02*
X175856000Y-86146000D01*
X170864000Y-86106000D02*
X172315000Y-86106000D01*
X174395000Y-86106000D02*
X175846000Y-86106000D01*
X170875000Y-86065000D02*
X172315000Y-86065000D01*
X174395000Y-86065000D02*
X175835000Y-86065000D01*
X170887000Y-86025000D02*
X172315000Y-86025000D01*
X174395000Y-86025000D02*
X175823000Y-86025000D01*
X170900000Y-85985000D02*
X172315000Y-85985000D01*
X174395000Y-85985000D02*
X175810000Y-85985000D01*
X170913000Y-85945000D02*
X172315000Y-85945000D01*
X174395000Y-85945000D02*
X175797000Y-85945000D01*
X170927000Y-85905000D02*
X172315000Y-85905000D01*
X174395000Y-85905000D02*
X175783000Y-85905000D01*
X170941000Y-85865000D02*
X172315000Y-85865000D01*
X174395000Y-85865000D02*
X175769000Y-85865000D01*
X170957000Y-85825000D02*
X172315000Y-85825000D01*
X174395000Y-85825000D02*
X175753000Y-85825000D01*
X170973000Y-85785000D02*
X172315000Y-85785000D01*
X174395000Y-85785000D02*
X175737000Y-85785000D01*
X170990000Y-85745000D02*
X172315000Y-85745000D01*
X174395000Y-85745000D02*
X175720000Y-85745000D01*
X171007000Y-85705000D02*
X172315000Y-85705000D01*
X174395000Y-85705000D02*
X175703000Y-85705000D01*
X171026000Y-85665000D02*
X172315000Y-85665000D01*
X174395000Y-85665000D02*
X175684000Y-85665000D01*
X171045000Y-85625000D02*
X172315000Y-85625000D01*
X174395000Y-85625000D02*
X175665000Y-85625000D01*
X171065000Y-85585000D02*
X172315000Y-85585000D01*
X174395000Y-85585000D02*
X175645000Y-85585000D01*
X171087000Y-85545000D02*
X172315000Y-85545000D01*
X174395000Y-85545000D02*
X175623000Y-85545000D01*
X171108000Y-85505000D02*
X172315000Y-85505000D01*
X174395000Y-85505000D02*
X175602000Y-85505000D01*
X171131000Y-85465000D02*
X172315000Y-85465000D01*
X174395000Y-85465000D02*
X175579000Y-85465000D01*
X171155000Y-85425000D02*
X172315000Y-85425000D01*
X174395000Y-85425000D02*
X175555000Y-85425000D01*
X171180000Y-85385000D02*
X172315000Y-85385000D01*
X174395000Y-85385000D02*
X175530000Y-85385000D01*
X171206000Y-85345000D02*
X172315000Y-85345000D01*
X174395000Y-85345000D02*
X175504000Y-85345000D01*
X171233000Y-85305000D02*
X172315000Y-85305000D01*
X174395000Y-85305000D02*
X175477000Y-85305000D01*
X171260000Y-85265000D02*
X172315000Y-85265000D01*
X174395000Y-85265000D02*
X175450000Y-85265000D01*
X171290000Y-85225000D02*
X172315000Y-85225000D01*
X174395000Y-85225000D02*
X175420000Y-85225000D01*
X171320000Y-85185000D02*
X172315000Y-85185000D01*
X174395000Y-85185000D02*
X175390000Y-85185000D01*
X171351000Y-85145000D02*
X172315000Y-85145000D01*
X174395000Y-85145000D02*
X175359000Y-85145000D01*
X171384000Y-85105000D02*
X172315000Y-85105000D01*
X174395000Y-85105000D02*
X175326000Y-85105000D01*
X171418000Y-85065000D02*
X172315000Y-85065000D01*
X174395000Y-85065000D02*
X175292000Y-85065000D01*
X171454000Y-85025000D02*
X172315000Y-85025000D01*
X174395000Y-85025000D02*
X175256000Y-85025000D01*
X171491000Y-84985000D02*
X172315000Y-84985000D01*
X174395000Y-84985000D02*
X175219000Y-84985000D01*
X171529000Y-84945000D02*
X172315000Y-84945000D01*
X174395000Y-84945000D02*
X175181000Y-84945000D01*
X171570000Y-84905000D02*
X172315000Y-84905000D01*
X174395000Y-84905000D02*
X175140000Y-84905000D01*
X171612000Y-84865000D02*
X172315000Y-84865000D01*
X174395000Y-84865000D02*
X175098000Y-84865000D01*
X171656000Y-84825000D02*
X172315000Y-84825000D01*
X174395000Y-84825000D02*
X175054000Y-84825000D01*
X171702000Y-84785000D02*
X172315000Y-84785000D01*
X174395000Y-84785000D02*
X175008000Y-84785000D01*
X171750000Y-84745000D02*
X172315000Y-84745000D01*
X174395000Y-84745000D02*
X174960000Y-84745000D01*
X171801000Y-84705000D02*
X172315000Y-84705000D01*
X174395000Y-84705000D02*
X174909000Y-84705000D01*
X171855000Y-84665000D02*
X172315000Y-84665000D01*
X174395000Y-84665000D02*
X174855000Y-84665000D01*
X171912000Y-84625000D02*
X172315000Y-84625000D01*
X174395000Y-84625000D02*
X174798000Y-84625000D01*
X171972000Y-84585000D02*
X172315000Y-84585000D01*
X174395000Y-84585000D02*
X174738000Y-84585000D01*
X172036000Y-84545000D02*
X172315000Y-84545000D01*
X174395000Y-84545000D02*
X174674000Y-84545000D01*
X172104000Y-84505000D02*
X172315000Y-84505000D01*
X174395000Y-84505000D02*
X174606000Y-84505000D01*
X172177000Y-84465000D02*
X174533000Y-84465000D01*
X172257000Y-84425000D02*
X174453000Y-84425000D01*
X172344000Y-84385000D02*
X174366000Y-84385000D01*
X172440000Y-84345000D02*
X174270000Y-84345000D01*
X172550000Y-84305000D02*
X174160000Y-84305000D01*
X172678000Y-84265000D02*
X174032000Y-84265000D01*
X172837000Y-84225000D02*
X173873000Y-84225000D01*
X173071000Y-84185000D02*
X173639000Y-84185000D01*
X171880000Y-89590775D02*
X171880000Y-89090775D01*
X171630000Y-89340775D02*
X172130000Y-89340775D01*
X168865733Y-96268000D02*
X169208267Y-96268000D01*
X168865733Y-95248000D02*
X169208267Y-95248000D01*
X164763267Y-118112000D02*
X164420733Y-118112000D01*
X164763267Y-117092000D02*
X164420733Y-117092000D01*
X177726000Y-123478775D02*
X178226000Y-123478775D01*
X177976000Y-123728775D02*
X177976000Y-123228775D01*
X179167000Y-118323000D02*
X179735000Y-118323000D01*
X178933000Y-118363000D02*
X179969000Y-118363000D01*
X178774000Y-118403000D02*
X180128000Y-118403000D01*
X178646000Y-118443000D02*
X180256000Y-118443000D01*
X178536000Y-118483000D02*
X180366000Y-118483000D01*
X178440000Y-118523000D02*
X180462000Y-118523000D01*
X178353000Y-118563000D02*
X180549000Y-118563000D01*
X178273000Y-118603000D02*
X180629000Y-118603000D01*
X180491000Y-118643000D02*
X180702000Y-118643000D01*
X178200000Y-118643000D02*
X178411000Y-118643000D01*
X180491000Y-118683000D02*
X180770000Y-118683000D01*
X178132000Y-118683000D02*
X178411000Y-118683000D01*
X180491000Y-118723000D02*
X180834000Y-118723000D01*
X178068000Y-118723000D02*
X178411000Y-118723000D01*
X180491000Y-118763000D02*
X180894000Y-118763000D01*
X178008000Y-118763000D02*
X178411000Y-118763000D01*
X180491000Y-118803000D02*
X180951000Y-118803000D01*
X177951000Y-118803000D02*
X178411000Y-118803000D01*
X180491000Y-118843000D02*
X181005000Y-118843000D01*
X177897000Y-118843000D02*
X178411000Y-118843000D01*
X180491000Y-118883000D02*
X181056000Y-118883000D01*
X177846000Y-118883000D02*
X178411000Y-118883000D01*
X180491000Y-118923000D02*
X181104000Y-118923000D01*
X177798000Y-118923000D02*
X178411000Y-118923000D01*
X180491000Y-118963000D02*
X181150000Y-118963000D01*
X177752000Y-118963000D02*
X178411000Y-118963000D01*
X180491000Y-119003000D02*
X181194000Y-119003000D01*
X177708000Y-119003000D02*
X178411000Y-119003000D01*
X180491000Y-119043000D02*
X181236000Y-119043000D01*
X177666000Y-119043000D02*
X178411000Y-119043000D01*
X180491000Y-119083000D02*
X181277000Y-119083000D01*
X177625000Y-119083000D02*
X178411000Y-119083000D01*
X180491000Y-119123000D02*
X181315000Y-119123000D01*
X177587000Y-119123000D02*
X178411000Y-119123000D01*
X180491000Y-119163000D02*
X181352000Y-119163000D01*
X177550000Y-119163000D02*
X178411000Y-119163000D01*
X180491000Y-119203000D02*
X181388000Y-119203000D01*
X177514000Y-119203000D02*
X178411000Y-119203000D01*
X180491000Y-119243000D02*
X181422000Y-119243000D01*
X177480000Y-119243000D02*
X178411000Y-119243000D01*
X180491000Y-119283000D02*
X181455000Y-119283000D01*
X177447000Y-119283000D02*
X178411000Y-119283000D01*
X180491000Y-119323000D02*
X181486000Y-119323000D01*
X177416000Y-119323000D02*
X178411000Y-119323000D01*
X180491000Y-119363000D02*
X181516000Y-119363000D01*
X177386000Y-119363000D02*
X178411000Y-119363000D01*
X180491000Y-119403000D02*
X181546000Y-119403000D01*
X177356000Y-119403000D02*
X178411000Y-119403000D01*
X180491000Y-119443000D02*
X181573000Y-119443000D01*
X177329000Y-119443000D02*
X178411000Y-119443000D01*
X180491000Y-119483000D02*
X181600000Y-119483000D01*
X177302000Y-119483000D02*
X178411000Y-119483000D01*
X180491000Y-119523000D02*
X181626000Y-119523000D01*
X177276000Y-119523000D02*
X178411000Y-119523000D01*
X180491000Y-119563000D02*
X181651000Y-119563000D01*
X177251000Y-119563000D02*
X178411000Y-119563000D01*
X180491000Y-119603000D02*
X181675000Y-119603000D01*
X177227000Y-119603000D02*
X178411000Y-119603000D01*
X180491000Y-119643000D02*
X181698000Y-119643000D01*
X177204000Y-119643000D02*
X178411000Y-119643000D01*
X180491000Y-119683000D02*
X181719000Y-119683000D01*
X177183000Y-119683000D02*
X178411000Y-119683000D01*
X180491000Y-119723000D02*
X181741000Y-119723000D01*
X177161000Y-119723000D02*
X178411000Y-119723000D01*
X180491000Y-119763000D02*
X181761000Y-119763000D01*
X177141000Y-119763000D02*
X178411000Y-119763000D01*
X180491000Y-119803000D02*
X181780000Y-119803000D01*
X177122000Y-119803000D02*
X178411000Y-119803000D01*
X180491000Y-119843000D02*
X181799000Y-119843000D01*
X177103000Y-119843000D02*
X178411000Y-119843000D01*
X180491000Y-119883000D02*
X181816000Y-119883000D01*
X177086000Y-119883000D02*
X178411000Y-119883000D01*
X180491000Y-119923000D02*
X181833000Y-119923000D01*
X177069000Y-119923000D02*
X178411000Y-119923000D01*
X180491000Y-119963000D02*
X181849000Y-119963000D01*
X177053000Y-119963000D02*
X178411000Y-119963000D01*
X180491000Y-120003000D02*
X181865000Y-120003000D01*
X177037000Y-120003000D02*
X178411000Y-120003000D01*
X180491000Y-120043000D02*
X181879000Y-120043000D01*
X177023000Y-120043000D02*
X178411000Y-120043000D01*
X180491000Y-120083000D02*
X181893000Y-120083000D01*
X177009000Y-120083000D02*
X178411000Y-120083000D01*
X180491000Y-120123000D02*
X181906000Y-120123000D01*
X176996000Y-120123000D02*
X178411000Y-120123000D01*
X180491000Y-120163000D02*
X181919000Y-120163000D01*
X176983000Y-120163000D02*
X178411000Y-120163000D01*
X180491000Y-120203000D02*
X181931000Y-120203000D01*
X176971000Y-120203000D02*
X178411000Y-120203000D01*
X180491000Y-120244000D02*
X181942000Y-120244000D01*
X176960000Y-120244000D02*
X178411000Y-120244000D01*
X180491000Y-120284000D02*
X181952000Y-120284000D01*
X176950000Y-120284000D02*
X178411000Y-120284000D01*
X180491000Y-120324000D02*
X181962000Y-120324000D01*
X176940000Y-120324000D02*
X178411000Y-120324000D01*
X180491000Y-120364000D02*
X181971000Y-120364000D01*
X176931000Y-120364000D02*
X178411000Y-120364000D01*
X180491000Y-120404000D02*
X181979000Y-120404000D01*
X176923000Y-120404000D02*
X178411000Y-120404000D01*
X180491000Y-120444000D02*
X181987000Y-120444000D01*
X176915000Y-120444000D02*
X178411000Y-120444000D01*
X180491000Y-120484000D02*
X181994000Y-120484000D01*
X176908000Y-120484000D02*
X178411000Y-120484000D01*
X180491000Y-120524000D02*
X182001000Y-120524000D01*
X176901000Y-120524000D02*
X178411000Y-120524000D01*
X180491000Y-120564000D02*
X182007000Y-120564000D01*
X176895000Y-120564000D02*
X178411000Y-120564000D01*
X180491000Y-120604000D02*
X182012000Y-120604000D01*
X176890000Y-120604000D02*
X178411000Y-120604000D01*
X180491000Y-120644000D02*
X182016000Y-120644000D01*
X176886000Y-120644000D02*
X178411000Y-120644000D01*
X180491000Y-120684000D02*
X182020000Y-120684000D01*
X176882000Y-120684000D02*
X178411000Y-120684000D01*
X176878000Y-120724000D02*
X182024000Y-120724000D01*
X176875000Y-120764000D02*
X182027000Y-120764000D01*
X176873000Y-120804000D02*
X182029000Y-120804000D01*
X176872000Y-120844000D02*
X182030000Y-120844000D01*
X176871000Y-120884000D02*
X182031000Y-120884000D01*
X176871000Y-120924000D02*
X182031000Y-120924000D01*
X182071000Y-120924000D02*
G75*
G03*
X182071000Y-120924000I-2620000J0D01*
G01*
X181817000Y-86761000D02*
G75*
G03*
X181817000Y-86761000I-2620000J0D01*
G01*
X176617000Y-86761000D02*
X181777000Y-86761000D01*
X176617000Y-86721000D02*
X181777000Y-86721000D01*
X176618000Y-86681000D02*
X181776000Y-86681000D01*
X176619000Y-86641000D02*
X181775000Y-86641000D01*
X176621000Y-86601000D02*
X181773000Y-86601000D01*
X176624000Y-86561000D02*
X181770000Y-86561000D01*
X176628000Y-86521000D02*
X178157000Y-86521000D01*
X180237000Y-86521000D02*
X181766000Y-86521000D01*
X176632000Y-86481000D02*
X178157000Y-86481000D01*
X180237000Y-86481000D02*
X181762000Y-86481000D01*
X176636000Y-86441000D02*
X178157000Y-86441000D01*
X180237000Y-86441000D02*
X181758000Y-86441000D01*
X176641000Y-86401000D02*
X178157000Y-86401000D01*
X180237000Y-86401000D02*
X181753000Y-86401000D01*
X176647000Y-86361000D02*
X178157000Y-86361000D01*
X180237000Y-86361000D02*
X181747000Y-86361000D01*
X176654000Y-86321000D02*
X178157000Y-86321000D01*
X180237000Y-86321000D02*
X181740000Y-86321000D01*
X176661000Y-86281000D02*
X178157000Y-86281000D01*
X180237000Y-86281000D02*
X181733000Y-86281000D01*
X176669000Y-86241000D02*
X178157000Y-86241000D01*
X180237000Y-86241000D02*
X181725000Y-86241000D01*
X176677000Y-86201000D02*
X178157000Y-86201000D01*
X180237000Y-86201000D02*
X181717000Y-86201000D01*
X176686000Y-86161000D02*
X178157000Y-86161000D01*
X180237000Y-86161000D02*
X181708000Y-86161000D01*
X176696000Y-86121000D02*
X178157000Y-86121000D01*
X180237000Y-86121000D02*
X181698000Y-86121000D01*
X176706000Y-86081000D02*
X178157000Y-86081000D01*
X180237000Y-86081000D02*
X181688000Y-86081000D01*
X176717000Y-86040000D02*
X178157000Y-86040000D01*
X180237000Y-86040000D02*
X181677000Y-86040000D01*
X176729000Y-86000000D02*
X178157000Y-86000000D01*
X180237000Y-86000000D02*
X181665000Y-86000000D01*
X176742000Y-85960000D02*
X178157000Y-85960000D01*
X180237000Y-85960000D02*
X181652000Y-85960000D01*
X176755000Y-85920000D02*
X178157000Y-85920000D01*
X180237000Y-85920000D02*
X181639000Y-85920000D01*
X176769000Y-85880000D02*
X178157000Y-85880000D01*
X180237000Y-85880000D02*
X181625000Y-85880000D01*
X176783000Y-85840000D02*
X178157000Y-85840000D01*
X180237000Y-85840000D02*
X181611000Y-85840000D01*
X176799000Y-85800000D02*
X178157000Y-85800000D01*
X180237000Y-85800000D02*
X181595000Y-85800000D01*
X176815000Y-85760000D02*
X178157000Y-85760000D01*
X180237000Y-85760000D02*
X181579000Y-85760000D01*
X176832000Y-85720000D02*
X178157000Y-85720000D01*
X180237000Y-85720000D02*
X181562000Y-85720000D01*
X176849000Y-85680000D02*
X178157000Y-85680000D01*
X180237000Y-85680000D02*
X181545000Y-85680000D01*
X176868000Y-85640000D02*
X178157000Y-85640000D01*
X180237000Y-85640000D02*
X181526000Y-85640000D01*
X176887000Y-85600000D02*
X178157000Y-85600000D01*
X180237000Y-85600000D02*
X181507000Y-85600000D01*
X176907000Y-85560000D02*
X178157000Y-85560000D01*
X180237000Y-85560000D02*
X181487000Y-85560000D01*
X176929000Y-85520000D02*
X178157000Y-85520000D01*
X180237000Y-85520000D02*
X181465000Y-85520000D01*
X176950000Y-85480000D02*
X178157000Y-85480000D01*
X180237000Y-85480000D02*
X181444000Y-85480000D01*
X176973000Y-85440000D02*
X178157000Y-85440000D01*
X180237000Y-85440000D02*
X181421000Y-85440000D01*
X176997000Y-85400000D02*
X178157000Y-85400000D01*
X180237000Y-85400000D02*
X181397000Y-85400000D01*
X177022000Y-85360000D02*
X178157000Y-85360000D01*
X180237000Y-85360000D02*
X181372000Y-85360000D01*
X177048000Y-85320000D02*
X178157000Y-85320000D01*
X180237000Y-85320000D02*
X181346000Y-85320000D01*
X177075000Y-85280000D02*
X178157000Y-85280000D01*
X180237000Y-85280000D02*
X181319000Y-85280000D01*
X177102000Y-85240000D02*
X178157000Y-85240000D01*
X180237000Y-85240000D02*
X181292000Y-85240000D01*
X177132000Y-85200000D02*
X178157000Y-85200000D01*
X180237000Y-85200000D02*
X181262000Y-85200000D01*
X177162000Y-85160000D02*
X178157000Y-85160000D01*
X180237000Y-85160000D02*
X181232000Y-85160000D01*
X177193000Y-85120000D02*
X178157000Y-85120000D01*
X180237000Y-85120000D02*
X181201000Y-85120000D01*
X177226000Y-85080000D02*
X178157000Y-85080000D01*
X180237000Y-85080000D02*
X181168000Y-85080000D01*
X177260000Y-85040000D02*
X178157000Y-85040000D01*
X180237000Y-85040000D02*
X181134000Y-85040000D01*
X177296000Y-85000000D02*
X178157000Y-85000000D01*
X180237000Y-85000000D02*
X181098000Y-85000000D01*
X177333000Y-84960000D02*
X178157000Y-84960000D01*
X180237000Y-84960000D02*
X181061000Y-84960000D01*
X177371000Y-84920000D02*
X178157000Y-84920000D01*
X180237000Y-84920000D02*
X181023000Y-84920000D01*
X177412000Y-84880000D02*
X178157000Y-84880000D01*
X180237000Y-84880000D02*
X180982000Y-84880000D01*
X177454000Y-84840000D02*
X178157000Y-84840000D01*
X180237000Y-84840000D02*
X180940000Y-84840000D01*
X177498000Y-84800000D02*
X178157000Y-84800000D01*
X180237000Y-84800000D02*
X180896000Y-84800000D01*
X177544000Y-84760000D02*
X178157000Y-84760000D01*
X180237000Y-84760000D02*
X180850000Y-84760000D01*
X177592000Y-84720000D02*
X178157000Y-84720000D01*
X180237000Y-84720000D02*
X180802000Y-84720000D01*
X177643000Y-84680000D02*
X178157000Y-84680000D01*
X180237000Y-84680000D02*
X180751000Y-84680000D01*
X177697000Y-84640000D02*
X178157000Y-84640000D01*
X180237000Y-84640000D02*
X180697000Y-84640000D01*
X177754000Y-84600000D02*
X178157000Y-84600000D01*
X180237000Y-84600000D02*
X180640000Y-84600000D01*
X177814000Y-84560000D02*
X178157000Y-84560000D01*
X180237000Y-84560000D02*
X180580000Y-84560000D01*
X177878000Y-84520000D02*
X178157000Y-84520000D01*
X180237000Y-84520000D02*
X180516000Y-84520000D01*
X177946000Y-84480000D02*
X178157000Y-84480000D01*
X180237000Y-84480000D02*
X180448000Y-84480000D01*
X178019000Y-84440000D02*
X180375000Y-84440000D01*
X178099000Y-84400000D02*
X180295000Y-84400000D01*
X178186000Y-84360000D02*
X180208000Y-84360000D01*
X178282000Y-84320000D02*
X180112000Y-84320000D01*
X178392000Y-84280000D02*
X180002000Y-84280000D01*
X178520000Y-84240000D02*
X179874000Y-84240000D01*
X178679000Y-84200000D02*
X179715000Y-84200000D01*
X178913000Y-84160000D02*
X179481000Y-84160000D01*
X177722000Y-89565775D02*
X177722000Y-89065775D01*
X177472000Y-89315775D02*
X177972000Y-89315775D01*
X190798267Y-116588000D02*
X190455733Y-116588000D01*
X190798267Y-115568000D02*
X190455733Y-115568000D01*
X183305267Y-89660000D02*
X182962733Y-89660000D01*
X183305267Y-90680000D02*
X182962733Y-90680000D01*
X186264733Y-89660000D02*
X186607267Y-89660000D01*
X186264733Y-90680000D02*
X186607267Y-90680000D01*
X189147267Y-118112000D02*
X188804733Y-118112000D01*
X189147267Y-117092000D02*
X188804733Y-117092000D01*
X192534000Y-82975267D02*
X192534000Y-82632733D01*
X191514000Y-82975267D02*
X191514000Y-82632733D01*
X185718267Y-123569000D02*
X185375733Y-123569000D01*
X185718267Y-124589000D02*
X185375733Y-124589000D01*
X189990000Y-82975267D02*
X189990000Y-82632733D01*
X191010000Y-82975267D02*
X191010000Y-82632733D01*
X185718267Y-125093000D02*
X185375733Y-125093000D01*
X185718267Y-126113000D02*
X185375733Y-126113000D01*
X189310000Y-81300000D02*
G75*
G03*
X189310000Y-81300000I-2620000J0D01*
G01*
X184110000Y-81300000D02*
X189270000Y-81300000D01*
X184110000Y-81260000D02*
X189270000Y-81260000D01*
X184111000Y-81220000D02*
X189269000Y-81220000D01*
X184112000Y-81180000D02*
X189268000Y-81180000D01*
X184114000Y-81140000D02*
X189266000Y-81140000D01*
X184117000Y-81100000D02*
X189263000Y-81100000D01*
X184121000Y-81060000D02*
X185650000Y-81060000D01*
X187730000Y-81060000D02*
X189259000Y-81060000D01*
X184125000Y-81020000D02*
X185650000Y-81020000D01*
X187730000Y-81020000D02*
X189255000Y-81020000D01*
X184129000Y-80980000D02*
X185650000Y-80980000D01*
X187730000Y-80980000D02*
X189251000Y-80980000D01*
X184134000Y-80940000D02*
X185650000Y-80940000D01*
X187730000Y-80940000D02*
X189246000Y-80940000D01*
X184140000Y-80900000D02*
X185650000Y-80900000D01*
X187730000Y-80900000D02*
X189240000Y-80900000D01*
X184147000Y-80860000D02*
X185650000Y-80860000D01*
X187730000Y-80860000D02*
X189233000Y-80860000D01*
X184154000Y-80820000D02*
X185650000Y-80820000D01*
X187730000Y-80820000D02*
X189226000Y-80820000D01*
X184162000Y-80780000D02*
X185650000Y-80780000D01*
X187730000Y-80780000D02*
X189218000Y-80780000D01*
X184170000Y-80740000D02*
X185650000Y-80740000D01*
X187730000Y-80740000D02*
X189210000Y-80740000D01*
X184179000Y-80700000D02*
X185650000Y-80700000D01*
X187730000Y-80700000D02*
X189201000Y-80700000D01*
X184189000Y-80660000D02*
X185650000Y-80660000D01*
X187730000Y-80660000D02*
X189191000Y-80660000D01*
X184199000Y-80620000D02*
X185650000Y-80620000D01*
X187730000Y-80620000D02*
X189181000Y-80620000D01*
X184210000Y-80579000D02*
X185650000Y-80579000D01*
X187730000Y-80579000D02*
X189170000Y-80579000D01*
X184222000Y-80539000D02*
X185650000Y-80539000D01*
X187730000Y-80539000D02*
X189158000Y-80539000D01*
X184235000Y-80499000D02*
X185650000Y-80499000D01*
X187730000Y-80499000D02*
X189145000Y-80499000D01*
X184248000Y-80459000D02*
X185650000Y-80459000D01*
X187730000Y-80459000D02*
X189132000Y-80459000D01*
X184262000Y-80419000D02*
X185650000Y-80419000D01*
X187730000Y-80419000D02*
X189118000Y-80419000D01*
X184276000Y-80379000D02*
X185650000Y-80379000D01*
X187730000Y-80379000D02*
X189104000Y-80379000D01*
X184292000Y-80339000D02*
X185650000Y-80339000D01*
X187730000Y-80339000D02*
X189088000Y-80339000D01*
X184308000Y-80299000D02*
X185650000Y-80299000D01*
X187730000Y-80299000D02*
X189072000Y-80299000D01*
X184325000Y-80259000D02*
X185650000Y-80259000D01*
X187730000Y-80259000D02*
X189055000Y-80259000D01*
X184342000Y-80219000D02*
X185650000Y-80219000D01*
X187730000Y-80219000D02*
X189038000Y-80219000D01*
X184361000Y-80179000D02*
X185650000Y-80179000D01*
X187730000Y-80179000D02*
X189019000Y-80179000D01*
X184380000Y-80139000D02*
X185650000Y-80139000D01*
X187730000Y-80139000D02*
X189000000Y-80139000D01*
X184400000Y-80099000D02*
X185650000Y-80099000D01*
X187730000Y-80099000D02*
X188980000Y-80099000D01*
X184422000Y-80059000D02*
X185650000Y-80059000D01*
X187730000Y-80059000D02*
X188958000Y-80059000D01*
X184443000Y-80019000D02*
X185650000Y-80019000D01*
X187730000Y-80019000D02*
X188937000Y-80019000D01*
X184466000Y-79979000D02*
X185650000Y-79979000D01*
X187730000Y-79979000D02*
X188914000Y-79979000D01*
X184490000Y-79939000D02*
X185650000Y-79939000D01*
X187730000Y-79939000D02*
X188890000Y-79939000D01*
X184515000Y-79899000D02*
X185650000Y-79899000D01*
X187730000Y-79899000D02*
X188865000Y-79899000D01*
X184541000Y-79859000D02*
X185650000Y-79859000D01*
X187730000Y-79859000D02*
X188839000Y-79859000D01*
X184568000Y-79819000D02*
X185650000Y-79819000D01*
X187730000Y-79819000D02*
X188812000Y-79819000D01*
X184595000Y-79779000D02*
X185650000Y-79779000D01*
X187730000Y-79779000D02*
X188785000Y-79779000D01*
X184625000Y-79739000D02*
X185650000Y-79739000D01*
X187730000Y-79739000D02*
X188755000Y-79739000D01*
X184655000Y-79699000D02*
X185650000Y-79699000D01*
X187730000Y-79699000D02*
X188725000Y-79699000D01*
X184686000Y-79659000D02*
X185650000Y-79659000D01*
X187730000Y-79659000D02*
X188694000Y-79659000D01*
X184719000Y-79619000D02*
X185650000Y-79619000D01*
X187730000Y-79619000D02*
X188661000Y-79619000D01*
X184753000Y-79579000D02*
X185650000Y-79579000D01*
X187730000Y-79579000D02*
X188627000Y-79579000D01*
X184789000Y-79539000D02*
X185650000Y-79539000D01*
X187730000Y-79539000D02*
X188591000Y-79539000D01*
X184826000Y-79499000D02*
X185650000Y-79499000D01*
X187730000Y-79499000D02*
X188554000Y-79499000D01*
X184864000Y-79459000D02*
X185650000Y-79459000D01*
X187730000Y-79459000D02*
X188516000Y-79459000D01*
X184905000Y-79419000D02*
X185650000Y-79419000D01*
X187730000Y-79419000D02*
X188475000Y-79419000D01*
X184947000Y-79379000D02*
X185650000Y-79379000D01*
X187730000Y-79379000D02*
X188433000Y-79379000D01*
X184991000Y-79339000D02*
X185650000Y-79339000D01*
X187730000Y-79339000D02*
X188389000Y-79339000D01*
X185037000Y-79299000D02*
X185650000Y-79299000D01*
X187730000Y-79299000D02*
X188343000Y-79299000D01*
X185085000Y-79259000D02*
X185650000Y-79259000D01*
X187730000Y-79259000D02*
X188295000Y-79259000D01*
X185136000Y-79219000D02*
X185650000Y-79219000D01*
X187730000Y-79219000D02*
X188244000Y-79219000D01*
X185190000Y-79179000D02*
X185650000Y-79179000D01*
X187730000Y-79179000D02*
X188190000Y-79179000D01*
X185247000Y-79139000D02*
X185650000Y-79139000D01*
X187730000Y-79139000D02*
X188133000Y-79139000D01*
X185307000Y-79099000D02*
X185650000Y-79099000D01*
X187730000Y-79099000D02*
X188073000Y-79099000D01*
X185371000Y-79059000D02*
X185650000Y-79059000D01*
X187730000Y-79059000D02*
X188009000Y-79059000D01*
X185439000Y-79019000D02*
X185650000Y-79019000D01*
X187730000Y-79019000D02*
X187941000Y-79019000D01*
X185512000Y-78979000D02*
X187868000Y-78979000D01*
X185592000Y-78939000D02*
X187788000Y-78939000D01*
X185679000Y-78899000D02*
X187701000Y-78899000D01*
X185775000Y-78859000D02*
X187605000Y-78859000D01*
X185885000Y-78819000D02*
X187495000Y-78819000D01*
X186013000Y-78779000D02*
X187367000Y-78779000D01*
X186172000Y-78739000D02*
X187208000Y-78739000D01*
X186406000Y-78699000D02*
X186974000Y-78699000D01*
X185215000Y-84104775D02*
X185215000Y-83604775D01*
X184965000Y-83854775D02*
X185465000Y-83854775D01*
X192352000Y-123917225D02*
X191852000Y-123917225D01*
X192102000Y-123667225D02*
X192102000Y-124167225D01*
X190911000Y-129073000D02*
X190343000Y-129073000D01*
X191145000Y-129033000D02*
X190109000Y-129033000D01*
X191304000Y-128993000D02*
X189950000Y-128993000D01*
X191432000Y-128953000D02*
X189822000Y-128953000D01*
X191542000Y-128913000D02*
X189712000Y-128913000D01*
X191638000Y-128873000D02*
X189616000Y-128873000D01*
X191725000Y-128833000D02*
X189529000Y-128833000D01*
X191805000Y-128793000D02*
X189449000Y-128793000D01*
X189587000Y-128753000D02*
X189376000Y-128753000D01*
X191878000Y-128753000D02*
X191667000Y-128753000D01*
X189587000Y-128713000D02*
X189308000Y-128713000D01*
X191946000Y-128713000D02*
X191667000Y-128713000D01*
X189587000Y-128673000D02*
X189244000Y-128673000D01*
X192010000Y-128673000D02*
X191667000Y-128673000D01*
X189587000Y-128633000D02*
X189184000Y-128633000D01*
X192070000Y-128633000D02*
X191667000Y-128633000D01*
X189587000Y-128593000D02*
X189127000Y-128593000D01*
X192127000Y-128593000D02*
X191667000Y-128593000D01*
X189587000Y-128553000D02*
X189073000Y-128553000D01*
X192181000Y-128553000D02*
X191667000Y-128553000D01*
X189587000Y-128513000D02*
X189022000Y-128513000D01*
X192232000Y-128513000D02*
X191667000Y-128513000D01*
X189587000Y-128473000D02*
X188974000Y-128473000D01*
X192280000Y-128473000D02*
X191667000Y-128473000D01*
X189587000Y-128433000D02*
X188928000Y-128433000D01*
X192326000Y-128433000D02*
X191667000Y-128433000D01*
X189587000Y-128393000D02*
X188884000Y-128393000D01*
X192370000Y-128393000D02*
X191667000Y-128393000D01*
X189587000Y-128353000D02*
X188842000Y-128353000D01*
X192412000Y-128353000D02*
X191667000Y-128353000D01*
X189587000Y-128313000D02*
X188801000Y-128313000D01*
X192453000Y-128313000D02*
X191667000Y-128313000D01*
X189587000Y-128273000D02*
X188763000Y-128273000D01*
X192491000Y-128273000D02*
X191667000Y-128273000D01*
X189587000Y-128233000D02*
X188726000Y-128233000D01*
X192528000Y-128233000D02*
X191667000Y-128233000D01*
X189587000Y-128193000D02*
X188690000Y-128193000D01*
X192564000Y-128193000D02*
X191667000Y-128193000D01*
X189587000Y-128153000D02*
X188656000Y-128153000D01*
X192598000Y-128153000D02*
X191667000Y-128153000D01*
X189587000Y-128113000D02*
X188623000Y-128113000D01*
X192631000Y-128113000D02*
X191667000Y-128113000D01*
X189587000Y-128073000D02*
X188592000Y-128073000D01*
X192662000Y-128073000D02*
X191667000Y-128073000D01*
X189587000Y-128033000D02*
X188562000Y-128033000D01*
X192692000Y-128033000D02*
X191667000Y-128033000D01*
X189587000Y-127993000D02*
X188532000Y-127993000D01*
X192722000Y-127993000D02*
X191667000Y-127993000D01*
X189587000Y-127953000D02*
X188505000Y-127953000D01*
X192749000Y-127953000D02*
X191667000Y-127953000D01*
X189587000Y-127913000D02*
X188478000Y-127913000D01*
X192776000Y-127913000D02*
X191667000Y-127913000D01*
X189587000Y-127873000D02*
X188452000Y-127873000D01*
X192802000Y-127873000D02*
X191667000Y-127873000D01*
X189587000Y-127833000D02*
X188427000Y-127833000D01*
X192827000Y-127833000D02*
X191667000Y-127833000D01*
X189587000Y-127793000D02*
X188403000Y-127793000D01*
X192851000Y-127793000D02*
X191667000Y-127793000D01*
X189587000Y-127753000D02*
X188380000Y-127753000D01*
X192874000Y-127753000D02*
X191667000Y-127753000D01*
X189587000Y-127713000D02*
X188359000Y-127713000D01*
X192895000Y-127713000D02*
X191667000Y-127713000D01*
X189587000Y-127673000D02*
X188337000Y-127673000D01*
X192917000Y-127673000D02*
X191667000Y-127673000D01*
X189587000Y-127633000D02*
X188317000Y-127633000D01*
X192937000Y-127633000D02*
X191667000Y-127633000D01*
X189587000Y-127593000D02*
X188298000Y-127593000D01*
X192956000Y-127593000D02*
X191667000Y-127593000D01*
X189587000Y-127553000D02*
X188279000Y-127553000D01*
X192975000Y-127553000D02*
X191667000Y-127553000D01*
X189587000Y-127513000D02*
X188262000Y-127513000D01*
X192992000Y-127513000D02*
X191667000Y-127513000D01*
X189587000Y-127473000D02*
X188245000Y-127473000D01*
X193009000Y-127473000D02*
X191667000Y-127473000D01*
X189587000Y-127433000D02*
X188229000Y-127433000D01*
X193025000Y-127433000D02*
X191667000Y-127433000D01*
X189587000Y-127393000D02*
X188213000Y-127393000D01*
X193041000Y-127393000D02*
X191667000Y-127393000D01*
X189587000Y-127353000D02*
X188199000Y-127353000D01*
X193055000Y-127353000D02*
X191667000Y-127353000D01*
X189587000Y-127313000D02*
X188185000Y-127313000D01*
X193069000Y-127313000D02*
X191667000Y-127313000D01*
X189587000Y-127273000D02*
X188172000Y-127273000D01*
X193082000Y-127273000D02*
X191667000Y-127273000D01*
X189587000Y-127233000D02*
X188159000Y-127233000D01*
X193095000Y-127233000D02*
X191667000Y-127233000D01*
X189587000Y-127193000D02*
X188147000Y-127193000D01*
X193107000Y-127193000D02*
X191667000Y-127193000D01*
X189587000Y-127152000D02*
X188136000Y-127152000D01*
X193118000Y-127152000D02*
X191667000Y-127152000D01*
X189587000Y-127112000D02*
X188126000Y-127112000D01*
X193128000Y-127112000D02*
X191667000Y-127112000D01*
X189587000Y-127072000D02*
X188116000Y-127072000D01*
X193138000Y-127072000D02*
X191667000Y-127072000D01*
X189587000Y-127032000D02*
X188107000Y-127032000D01*
X193147000Y-127032000D02*
X191667000Y-127032000D01*
X189587000Y-126992000D02*
X188099000Y-126992000D01*
X193155000Y-126992000D02*
X191667000Y-126992000D01*
X189587000Y-126952000D02*
X188091000Y-126952000D01*
X193163000Y-126952000D02*
X191667000Y-126952000D01*
X189587000Y-126912000D02*
X188084000Y-126912000D01*
X193170000Y-126912000D02*
X191667000Y-126912000D01*
X189587000Y-126872000D02*
X188077000Y-126872000D01*
X193177000Y-126872000D02*
X191667000Y-126872000D01*
X189587000Y-126832000D02*
X188071000Y-126832000D01*
X193183000Y-126832000D02*
X191667000Y-126832000D01*
X189587000Y-126792000D02*
X188066000Y-126792000D01*
X193188000Y-126792000D02*
X191667000Y-126792000D01*
X189587000Y-126752000D02*
X188062000Y-126752000D01*
X193192000Y-126752000D02*
X191667000Y-126752000D01*
X189587000Y-126712000D02*
X188058000Y-126712000D01*
X193196000Y-126712000D02*
X191667000Y-126712000D01*
X193200000Y-126672000D02*
X188054000Y-126672000D01*
X193203000Y-126632000D02*
X188051000Y-126632000D01*
X193205000Y-126592000D02*
X188049000Y-126592000D01*
X193206000Y-126552000D02*
X188048000Y-126552000D01*
X193207000Y-126512000D02*
X188047000Y-126512000D01*
X193207000Y-126472000D02*
X188047000Y-126472000D01*
X193247000Y-126472000D02*
G75*
G03*
X193247000Y-126472000I-2620000J0D01*
G01*
X170451000Y-114492000D02*
X170451000Y-113092000D01*
X168131000Y-113092000D02*
X168131000Y-114992000D01*
D12*
X165301095Y-98196380D02*
X165301095Y-99005904D01*
X165348714Y-99101142D01*
X165396333Y-99148761D01*
X165491571Y-99196380D01*
X165682047Y-99196380D01*
X165777285Y-99148761D01*
X165824904Y-99101142D01*
X165872523Y-99005904D01*
X165872523Y-98196380D01*
X166872523Y-99196380D02*
X166301095Y-99196380D01*
X166586809Y-99196380D02*
X166586809Y-98196380D01*
X166491571Y-98339238D01*
X166396333Y-98434476D01*
X166301095Y-98482095D01*
X173040142Y-124755142D02*
X172992523Y-124802761D01*
X172849666Y-124850380D01*
X172754428Y-124850380D01*
X172611571Y-124802761D01*
X172516333Y-124707523D01*
X172468714Y-124612285D01*
X172421095Y-124421809D01*
X172421095Y-124278952D01*
X172468714Y-124088476D01*
X172516333Y-123993238D01*
X172611571Y-123898000D01*
X172754428Y-123850380D01*
X172849666Y-123850380D01*
X172992523Y-123898000D01*
X173040142Y-123945619D01*
X173421095Y-123945619D02*
X173468714Y-123898000D01*
X173563952Y-123850380D01*
X173802047Y-123850380D01*
X173897285Y-123898000D01*
X173944904Y-123945619D01*
X173992523Y-124040857D01*
X173992523Y-124136095D01*
X173944904Y-124278952D01*
X173373476Y-124850380D01*
X173992523Y-124850380D01*
X174563952Y-124278952D02*
X174468714Y-124231333D01*
X174421095Y-124183714D01*
X174373476Y-124088476D01*
X174373476Y-124040857D01*
X174421095Y-123945619D01*
X174468714Y-123898000D01*
X174563952Y-123850380D01*
X174754428Y-123850380D01*
X174849666Y-123898000D01*
X174897285Y-123945619D01*
X174944904Y-124040857D01*
X174944904Y-124088476D01*
X174897285Y-124183714D01*
X174849666Y-124231333D01*
X174754428Y-124278952D01*
X174563952Y-124278952D01*
X174468714Y-124326571D01*
X174421095Y-124374190D01*
X174373476Y-124469428D01*
X174373476Y-124659904D01*
X174421095Y-124755142D01*
X174468714Y-124802761D01*
X174563952Y-124850380D01*
X174754428Y-124850380D01*
X174849666Y-124802761D01*
X174897285Y-124755142D01*
X174944904Y-124659904D01*
X174944904Y-124469428D01*
X174897285Y-124374190D01*
X174849666Y-124326571D01*
X174754428Y-124278952D01*
X186637095Y-121945380D02*
X186637095Y-122754904D01*
X186684714Y-122850142D01*
X186732333Y-122897761D01*
X186827571Y-122945380D01*
X187018047Y-122945380D01*
X187113285Y-122897761D01*
X187160904Y-122850142D01*
X187208523Y-122754904D01*
X187208523Y-121945380D01*
X188113285Y-122278714D02*
X188113285Y-122945380D01*
X187875190Y-121897761D02*
X187637095Y-122612047D01*
X188256142Y-122612047D01*
X186764095Y-84861380D02*
X186764095Y-85670904D01*
X186811714Y-85766142D01*
X186859333Y-85813761D01*
X186954571Y-85861380D01*
X187145047Y-85861380D01*
X187240285Y-85813761D01*
X187287904Y-85766142D01*
X187335523Y-85670904D01*
X187335523Y-84861380D01*
X187716476Y-84861380D02*
X188335523Y-84861380D01*
X188002190Y-85242333D01*
X188145047Y-85242333D01*
X188240285Y-85289952D01*
X188287904Y-85337571D01*
X188335523Y-85432809D01*
X188335523Y-85670904D01*
X188287904Y-85766142D01*
X188240285Y-85813761D01*
X188145047Y-85861380D01*
X187859333Y-85861380D01*
X187764095Y-85813761D01*
X187716476Y-85766142D01*
X189327904Y-91957380D02*
X189327904Y-90957380D01*
X189566000Y-90957380D01*
X189708857Y-91005000D01*
X189804095Y-91100238D01*
X189851714Y-91195476D01*
X189899333Y-91385952D01*
X189899333Y-91528809D01*
X189851714Y-91719285D01*
X189804095Y-91814523D01*
X189708857Y-91909761D01*
X189566000Y-91957380D01*
X189327904Y-91957380D01*
X190470761Y-91385952D02*
X190375523Y-91338333D01*
X190327904Y-91290714D01*
X190280285Y-91195476D01*
X190280285Y-91147857D01*
X190327904Y-91052619D01*
X190375523Y-91005000D01*
X190470761Y-90957380D01*
X190661238Y-90957380D01*
X190756476Y-91005000D01*
X190804095Y-91052619D01*
X190851714Y-91147857D01*
X190851714Y-91195476D01*
X190804095Y-91290714D01*
X190756476Y-91338333D01*
X190661238Y-91385952D01*
X190470761Y-91385952D01*
X190375523Y-91433571D01*
X190327904Y-91481190D01*
X190280285Y-91576428D01*
X190280285Y-91766904D01*
X190327904Y-91862142D01*
X190375523Y-91909761D01*
X190470761Y-91957380D01*
X190661238Y-91957380D01*
X190756476Y-91909761D01*
X190804095Y-91862142D01*
X190851714Y-91766904D01*
X190851714Y-91576428D01*
X190804095Y-91481190D01*
X190756476Y-91433571D01*
X190661238Y-91385952D01*
X187295904Y-115960380D02*
X187295904Y-114960380D01*
X187534000Y-114960380D01*
X187676857Y-115008000D01*
X187772095Y-115103238D01*
X187819714Y-115198476D01*
X187867333Y-115388952D01*
X187867333Y-115531809D01*
X187819714Y-115722285D01*
X187772095Y-115817523D01*
X187676857Y-115912761D01*
X187534000Y-115960380D01*
X187295904Y-115960380D01*
X188200666Y-114960380D02*
X188867333Y-114960380D01*
X188438761Y-115960380D01*
X184628904Y-91957380D02*
X184628904Y-90957380D01*
X184867000Y-90957380D01*
X185009857Y-91005000D01*
X185105095Y-91100238D01*
X185152714Y-91195476D01*
X185200333Y-91385952D01*
X185200333Y-91528809D01*
X185152714Y-91719285D01*
X185105095Y-91814523D01*
X185009857Y-91909761D01*
X184867000Y-91957380D01*
X184628904Y-91957380D01*
X186057476Y-90957380D02*
X185867000Y-90957380D01*
X185771761Y-91005000D01*
X185724142Y-91052619D01*
X185628904Y-91195476D01*
X185581285Y-91385952D01*
X185581285Y-91766904D01*
X185628904Y-91862142D01*
X185676523Y-91909761D01*
X185771761Y-91957380D01*
X185962238Y-91957380D01*
X186057476Y-91909761D01*
X186105095Y-91862142D01*
X186152714Y-91766904D01*
X186152714Y-91528809D01*
X186105095Y-91433571D01*
X186057476Y-91385952D01*
X185962238Y-91338333D01*
X185771761Y-91338333D01*
X185676523Y-91385952D01*
X185628904Y-91433571D01*
X185581285Y-91528809D01*
X184300904Y-115960380D02*
X184300904Y-114960380D01*
X184539000Y-114960380D01*
X184681857Y-115008000D01*
X184777095Y-115103238D01*
X184824714Y-115198476D01*
X184872333Y-115388952D01*
X184872333Y-115531809D01*
X184824714Y-115722285D01*
X184777095Y-115817523D01*
X184681857Y-115912761D01*
X184539000Y-115960380D01*
X184300904Y-115960380D01*
X185777095Y-114960380D02*
X185300904Y-114960380D01*
X185253285Y-115436571D01*
X185300904Y-115388952D01*
X185396142Y-115341333D01*
X185634238Y-115341333D01*
X185729476Y-115388952D01*
X185777095Y-115436571D01*
X185824714Y-115531809D01*
X185824714Y-115769904D01*
X185777095Y-115865142D01*
X185729476Y-115912761D01*
X185634238Y-115960380D01*
X185396142Y-115960380D01*
X185300904Y-115912761D01*
X185253285Y-115865142D01*
X179929904Y-91957380D02*
X179929904Y-90957380D01*
X180168000Y-90957380D01*
X180310857Y-91005000D01*
X180406095Y-91100238D01*
X180453714Y-91195476D01*
X180501333Y-91385952D01*
X180501333Y-91528809D01*
X180453714Y-91719285D01*
X180406095Y-91814523D01*
X180310857Y-91909761D01*
X180168000Y-91957380D01*
X179929904Y-91957380D01*
X181358476Y-91290714D02*
X181358476Y-91957380D01*
X181120380Y-90909761D02*
X180882285Y-91624047D01*
X181501333Y-91624047D01*
X176500904Y-114055380D02*
X176500904Y-113055380D01*
X176739000Y-113055380D01*
X176881857Y-113103000D01*
X176977095Y-113198238D01*
X177024714Y-113293476D01*
X177072333Y-113483952D01*
X177072333Y-113626809D01*
X177024714Y-113817285D01*
X176977095Y-113912523D01*
X176881857Y-114007761D01*
X176739000Y-114055380D01*
X176500904Y-114055380D01*
X177405666Y-113055380D02*
X178024714Y-113055380D01*
X177691380Y-113436333D01*
X177834238Y-113436333D01*
X177929476Y-113483952D01*
X177977095Y-113531571D01*
X178024714Y-113626809D01*
X178024714Y-113864904D01*
X177977095Y-113960142D01*
X177929476Y-114007761D01*
X177834238Y-114055380D01*
X177548523Y-114055380D01*
X177453285Y-114007761D01*
X177405666Y-113960142D01*
X176500904Y-116595380D02*
X176500904Y-115595380D01*
X176739000Y-115595380D01*
X176881857Y-115643000D01*
X176977095Y-115738238D01*
X177024714Y-115833476D01*
X177072333Y-116023952D01*
X177072333Y-116166809D01*
X177024714Y-116357285D01*
X176977095Y-116452523D01*
X176881857Y-116547761D01*
X176739000Y-116595380D01*
X176500904Y-116595380D01*
X177453285Y-115690619D02*
X177500904Y-115643000D01*
X177596142Y-115595380D01*
X177834238Y-115595380D01*
X177929476Y-115643000D01*
X177977095Y-115690619D01*
X178024714Y-115785857D01*
X178024714Y-115881095D01*
X177977095Y-116023952D01*
X177405666Y-116595380D01*
X178024714Y-116595380D01*
X175484904Y-91957380D02*
X175484904Y-90957380D01*
X175723000Y-90957380D01*
X175865857Y-91005000D01*
X175961095Y-91100238D01*
X176008714Y-91195476D01*
X176056333Y-91385952D01*
X176056333Y-91528809D01*
X176008714Y-91719285D01*
X175961095Y-91814523D01*
X175865857Y-91909761D01*
X175723000Y-91957380D01*
X175484904Y-91957380D01*
X177008714Y-91957380D02*
X176437285Y-91957380D01*
X176723000Y-91957380D02*
X176723000Y-90957380D01*
X176627761Y-91100238D01*
X176532523Y-91195476D01*
X176437285Y-91243095D01*
X191820142Y-101164857D02*
X191867761Y-101212476D01*
X191915380Y-101355333D01*
X191915380Y-101450571D01*
X191867761Y-101593428D01*
X191772523Y-101688666D01*
X191677285Y-101736285D01*
X191486809Y-101783904D01*
X191343952Y-101783904D01*
X191153476Y-101736285D01*
X191058238Y-101688666D01*
X190963000Y-101593428D01*
X190915380Y-101450571D01*
X190915380Y-101355333D01*
X190963000Y-101212476D01*
X191010619Y-101164857D01*
X191915380Y-100212476D02*
X191915380Y-100783904D01*
X191915380Y-100498190D02*
X190915380Y-100498190D01*
X191058238Y-100593428D01*
X191153476Y-100688666D01*
X191201095Y-100783904D01*
X190915380Y-99307714D02*
X190915380Y-99783904D01*
X191391571Y-99831523D01*
X191343952Y-99783904D01*
X191296333Y-99688666D01*
X191296333Y-99450571D01*
X191343952Y-99355333D01*
X191391571Y-99307714D01*
X191486809Y-99260095D01*
X191724904Y-99260095D01*
X191820142Y-99307714D01*
X191867761Y-99355333D01*
X191915380Y-99450571D01*
X191915380Y-99688666D01*
X191867761Y-99783904D01*
X191820142Y-99831523D01*
X191693142Y-106879857D02*
X191740761Y-106927476D01*
X191788380Y-107070333D01*
X191788380Y-107165571D01*
X191740761Y-107308428D01*
X191645523Y-107403666D01*
X191550285Y-107451285D01*
X191359809Y-107498904D01*
X191216952Y-107498904D01*
X191026476Y-107451285D01*
X190931238Y-107403666D01*
X190836000Y-107308428D01*
X190788380Y-107165571D01*
X190788380Y-107070333D01*
X190836000Y-106927476D01*
X190883619Y-106879857D01*
X191788380Y-105927476D02*
X191788380Y-106498904D01*
X191788380Y-106213190D02*
X190788380Y-106213190D01*
X190931238Y-106308428D01*
X191026476Y-106403666D01*
X191074095Y-106498904D01*
X191121714Y-105070333D02*
X191788380Y-105070333D01*
X190740761Y-105308428D02*
X191455047Y-105546523D01*
X191455047Y-104927476D01*
X189913142Y-97543857D02*
X189960761Y-97591476D01*
X190008380Y-97734333D01*
X190008380Y-97829571D01*
X189960761Y-97972428D01*
X189865523Y-98067666D01*
X189770285Y-98115285D01*
X189579809Y-98162904D01*
X189436952Y-98162904D01*
X189246476Y-98115285D01*
X189151238Y-98067666D01*
X189056000Y-97972428D01*
X189008380Y-97829571D01*
X189008380Y-97734333D01*
X189056000Y-97591476D01*
X189103619Y-97543857D01*
X190008380Y-96591476D02*
X190008380Y-97162904D01*
X190008380Y-96877190D02*
X189008380Y-96877190D01*
X189151238Y-96972428D01*
X189246476Y-97067666D01*
X189294095Y-97162904D01*
X189008380Y-96258142D02*
X189008380Y-95639095D01*
X189389333Y-95972428D01*
X189389333Y-95829571D01*
X189436952Y-95734333D01*
X189484571Y-95686714D01*
X189579809Y-95639095D01*
X189817904Y-95639095D01*
X189913142Y-95686714D01*
X189960761Y-95734333D01*
X190008380Y-95829571D01*
X190008380Y-96115285D01*
X189960761Y-96210523D01*
X189913142Y-96258142D01*
X189659142Y-110624857D02*
X189706761Y-110672476D01*
X189754380Y-110815333D01*
X189754380Y-110910571D01*
X189706761Y-111053428D01*
X189611523Y-111148666D01*
X189516285Y-111196285D01*
X189325809Y-111243904D01*
X189182952Y-111243904D01*
X188992476Y-111196285D01*
X188897238Y-111148666D01*
X188802000Y-111053428D01*
X188754380Y-110910571D01*
X188754380Y-110815333D01*
X188802000Y-110672476D01*
X188849619Y-110624857D01*
X189754380Y-109672476D02*
X189754380Y-110243904D01*
X189754380Y-109958190D02*
X188754380Y-109958190D01*
X188897238Y-110053428D01*
X188992476Y-110148666D01*
X189040095Y-110243904D01*
X188849619Y-109291523D02*
X188802000Y-109243904D01*
X188754380Y-109148666D01*
X188754380Y-108910571D01*
X188802000Y-108815333D01*
X188849619Y-108767714D01*
X188944857Y-108720095D01*
X189040095Y-108720095D01*
X189182952Y-108767714D01*
X189754380Y-109339142D01*
X189754380Y-108720095D01*
X185341142Y-97543857D02*
X185388761Y-97591476D01*
X185436380Y-97734333D01*
X185436380Y-97829571D01*
X185388761Y-97972428D01*
X185293523Y-98067666D01*
X185198285Y-98115285D01*
X185007809Y-98162904D01*
X184864952Y-98162904D01*
X184674476Y-98115285D01*
X184579238Y-98067666D01*
X184484000Y-97972428D01*
X184436380Y-97829571D01*
X184436380Y-97734333D01*
X184484000Y-97591476D01*
X184531619Y-97543857D01*
X185436380Y-96591476D02*
X185436380Y-97162904D01*
X185436380Y-96877190D02*
X184436380Y-96877190D01*
X184579238Y-96972428D01*
X184674476Y-97067666D01*
X184722095Y-97162904D01*
X185436380Y-95639095D02*
X185436380Y-96210523D01*
X185436380Y-95924809D02*
X184436380Y-95924809D01*
X184579238Y-96020047D01*
X184674476Y-96115285D01*
X184722095Y-96210523D01*
X185161142Y-110624857D02*
X185208761Y-110672476D01*
X185256380Y-110815333D01*
X185256380Y-110910571D01*
X185208761Y-111053428D01*
X185113523Y-111148666D01*
X185018285Y-111196285D01*
X184827809Y-111243904D01*
X184684952Y-111243904D01*
X184494476Y-111196285D01*
X184399238Y-111148666D01*
X184304000Y-111053428D01*
X184256380Y-110910571D01*
X184256380Y-110815333D01*
X184304000Y-110672476D01*
X184351619Y-110624857D01*
X185256380Y-109672476D02*
X185256380Y-110243904D01*
X185256380Y-109958190D02*
X184256380Y-109958190D01*
X184399238Y-110053428D01*
X184494476Y-110148666D01*
X184542095Y-110243904D01*
X184256380Y-109053428D02*
X184256380Y-108958190D01*
X184304000Y-108862952D01*
X184351619Y-108815333D01*
X184446857Y-108767714D01*
X184637333Y-108720095D01*
X184875428Y-108720095D01*
X185065904Y-108767714D01*
X185161142Y-108815333D01*
X185208761Y-108862952D01*
X185256380Y-108958190D01*
X185256380Y-109053428D01*
X185208761Y-109148666D01*
X185161142Y-109196285D01*
X185065904Y-109243904D01*
X184875428Y-109291523D01*
X184637333Y-109291523D01*
X184446857Y-109243904D01*
X184351619Y-109196285D01*
X184304000Y-109148666D01*
X184256380Y-109053428D01*
X181732142Y-110213666D02*
X181779761Y-110261285D01*
X181827380Y-110404142D01*
X181827380Y-110499380D01*
X181779761Y-110642238D01*
X181684523Y-110737476D01*
X181589285Y-110785095D01*
X181398809Y-110832714D01*
X181255952Y-110832714D01*
X181065476Y-110785095D01*
X180970238Y-110737476D01*
X180875000Y-110642238D01*
X180827380Y-110499380D01*
X180827380Y-110404142D01*
X180875000Y-110261285D01*
X180922619Y-110213666D01*
X181827380Y-109737476D02*
X181827380Y-109547000D01*
X181779761Y-109451761D01*
X181732142Y-109404142D01*
X181589285Y-109308904D01*
X181398809Y-109261285D01*
X181017857Y-109261285D01*
X180922619Y-109308904D01*
X180875000Y-109356523D01*
X180827380Y-109451761D01*
X180827380Y-109642238D01*
X180875000Y-109737476D01*
X180922619Y-109785095D01*
X181017857Y-109832714D01*
X181255952Y-109832714D01*
X181351190Y-109785095D01*
X181398809Y-109737476D01*
X181446428Y-109642238D01*
X181446428Y-109451761D01*
X181398809Y-109356523D01*
X181351190Y-109308904D01*
X181255952Y-109261285D01*
X180769142Y-97067666D02*
X180816761Y-97115285D01*
X180864380Y-97258142D01*
X180864380Y-97353380D01*
X180816761Y-97496238D01*
X180721523Y-97591476D01*
X180626285Y-97639095D01*
X180435809Y-97686714D01*
X180292952Y-97686714D01*
X180102476Y-97639095D01*
X180007238Y-97591476D01*
X179912000Y-97496238D01*
X179864380Y-97353380D01*
X179864380Y-97258142D01*
X179912000Y-97115285D01*
X179959619Y-97067666D01*
X180292952Y-96496238D02*
X180245333Y-96591476D01*
X180197714Y-96639095D01*
X180102476Y-96686714D01*
X180054857Y-96686714D01*
X179959619Y-96639095D01*
X179912000Y-96591476D01*
X179864380Y-96496238D01*
X179864380Y-96305761D01*
X179912000Y-96210523D01*
X179959619Y-96162904D01*
X180054857Y-96115285D01*
X180102476Y-96115285D01*
X180197714Y-96162904D01*
X180245333Y-96210523D01*
X180292952Y-96305761D01*
X180292952Y-96496238D01*
X180340571Y-96591476D01*
X180388190Y-96639095D01*
X180483428Y-96686714D01*
X180673904Y-96686714D01*
X180769142Y-96639095D01*
X180816761Y-96591476D01*
X180864380Y-96496238D01*
X180864380Y-96305761D01*
X180816761Y-96210523D01*
X180769142Y-96162904D01*
X180673904Y-96115285D01*
X180483428Y-96115285D01*
X180388190Y-96162904D01*
X180340571Y-96210523D01*
X180292952Y-96305761D01*
X169251333Y-104371380D02*
X168918000Y-103895190D01*
X168679904Y-104371380D02*
X168679904Y-103371380D01*
X169060857Y-103371380D01*
X169156095Y-103419000D01*
X169203714Y-103466619D01*
X169251333Y-103561857D01*
X169251333Y-103704714D01*
X169203714Y-103799952D01*
X169156095Y-103847571D01*
X169060857Y-103895190D01*
X168679904Y-103895190D01*
X170203714Y-104371380D02*
X169632285Y-104371380D01*
X169918000Y-104371380D02*
X169918000Y-103371380D01*
X169822761Y-103514238D01*
X169727523Y-103609476D01*
X169632285Y-103657095D01*
X165896333Y-97704142D02*
X165848714Y-97751761D01*
X165705857Y-97799380D01*
X165610619Y-97799380D01*
X165467761Y-97751761D01*
X165372523Y-97656523D01*
X165324904Y-97561285D01*
X165277285Y-97370809D01*
X165277285Y-97227952D01*
X165324904Y-97037476D01*
X165372523Y-96942238D01*
X165467761Y-96847000D01*
X165610619Y-96799380D01*
X165705857Y-96799380D01*
X165848714Y-96847000D01*
X165896333Y-96894619D01*
X166848714Y-97799380D02*
X166277285Y-97799380D01*
X166563000Y-97799380D02*
X166563000Y-96799380D01*
X166467761Y-96942238D01*
X166372523Y-97037476D01*
X166277285Y-97085095D01*
X164118333Y-101387142D02*
X164070714Y-101434761D01*
X163927857Y-101482380D01*
X163832619Y-101482380D01*
X163689761Y-101434761D01*
X163594523Y-101339523D01*
X163546904Y-101244285D01*
X163499285Y-101053809D01*
X163499285Y-100910952D01*
X163546904Y-100720476D01*
X163594523Y-100625238D01*
X163689761Y-100530000D01*
X163832619Y-100482380D01*
X163927857Y-100482380D01*
X164070714Y-100530000D01*
X164118333Y-100577619D01*
X164499285Y-100577619D02*
X164546904Y-100530000D01*
X164642142Y-100482380D01*
X164880238Y-100482380D01*
X164975476Y-100530000D01*
X165023095Y-100577619D01*
X165070714Y-100672857D01*
X165070714Y-100768095D01*
X165023095Y-100910952D01*
X164451666Y-101482380D01*
X165070714Y-101482380D01*
X167293333Y-83099142D02*
X167245714Y-83146761D01*
X167102857Y-83194380D01*
X167007619Y-83194380D01*
X166864761Y-83146761D01*
X166769523Y-83051523D01*
X166721904Y-82956285D01*
X166674285Y-82765809D01*
X166674285Y-82622952D01*
X166721904Y-82432476D01*
X166769523Y-82337238D01*
X166864761Y-82242000D01*
X167007619Y-82194380D01*
X167102857Y-82194380D01*
X167245714Y-82242000D01*
X167293333Y-82289619D01*
X167626666Y-82194380D02*
X168245714Y-82194380D01*
X167912380Y-82575333D01*
X168055238Y-82575333D01*
X168150476Y-82622952D01*
X168198095Y-82670571D01*
X168245714Y-82765809D01*
X168245714Y-83003904D01*
X168198095Y-83099142D01*
X168150476Y-83146761D01*
X168055238Y-83194380D01*
X167769523Y-83194380D01*
X167674285Y-83146761D01*
X167626666Y-83099142D01*
X167547333Y-124628142D02*
X167499714Y-124675761D01*
X167356857Y-124723380D01*
X167261619Y-124723380D01*
X167118761Y-124675761D01*
X167023523Y-124580523D01*
X166975904Y-124485285D01*
X166928285Y-124294809D01*
X166928285Y-124151952D01*
X166975904Y-123961476D01*
X167023523Y-123866238D01*
X167118761Y-123771000D01*
X167261619Y-123723380D01*
X167356857Y-123723380D01*
X167499714Y-123771000D01*
X167547333Y-123818619D01*
X168404476Y-124056714D02*
X168404476Y-124723380D01*
X168166380Y-123675761D02*
X167928285Y-124390047D01*
X168547333Y-124390047D01*
X173262333Y-83099142D02*
X173214714Y-83146761D01*
X173071857Y-83194380D01*
X172976619Y-83194380D01*
X172833761Y-83146761D01*
X172738523Y-83051523D01*
X172690904Y-82956285D01*
X172643285Y-82765809D01*
X172643285Y-82622952D01*
X172690904Y-82432476D01*
X172738523Y-82337238D01*
X172833761Y-82242000D01*
X172976619Y-82194380D01*
X173071857Y-82194380D01*
X173214714Y-82242000D01*
X173262333Y-82289619D01*
X174167095Y-82194380D02*
X173690904Y-82194380D01*
X173643285Y-82670571D01*
X173690904Y-82622952D01*
X173786142Y-82575333D01*
X174024238Y-82575333D01*
X174119476Y-82622952D01*
X174167095Y-82670571D01*
X174214714Y-82765809D01*
X174214714Y-83003904D01*
X174167095Y-83099142D01*
X174119476Y-83146761D01*
X174024238Y-83194380D01*
X173786142Y-83194380D01*
X173690904Y-83146761D01*
X173643285Y-83099142D01*
X165896333Y-96053142D02*
X165848714Y-96100761D01*
X165705857Y-96148380D01*
X165610619Y-96148380D01*
X165467761Y-96100761D01*
X165372523Y-96005523D01*
X165324904Y-95910285D01*
X165277285Y-95719809D01*
X165277285Y-95576952D01*
X165324904Y-95386476D01*
X165372523Y-95291238D01*
X165467761Y-95196000D01*
X165610619Y-95148380D01*
X165705857Y-95148380D01*
X165848714Y-95196000D01*
X165896333Y-95243619D01*
X166753476Y-95148380D02*
X166563000Y-95148380D01*
X166467761Y-95196000D01*
X166420142Y-95243619D01*
X166324904Y-95386476D01*
X166277285Y-95576952D01*
X166277285Y-95957904D01*
X166324904Y-96053142D01*
X166372523Y-96100761D01*
X166467761Y-96148380D01*
X166658238Y-96148380D01*
X166753476Y-96100761D01*
X166801095Y-96053142D01*
X166848714Y-95957904D01*
X166848714Y-95719809D01*
X166801095Y-95624571D01*
X166753476Y-95576952D01*
X166658238Y-95529333D01*
X166467761Y-95529333D01*
X166372523Y-95576952D01*
X166324904Y-95624571D01*
X166277285Y-95719809D01*
X164425333Y-119389142D02*
X164377714Y-119436761D01*
X164234857Y-119484380D01*
X164139619Y-119484380D01*
X163996761Y-119436761D01*
X163901523Y-119341523D01*
X163853904Y-119246285D01*
X163806285Y-119055809D01*
X163806285Y-118912952D01*
X163853904Y-118722476D01*
X163901523Y-118627238D01*
X163996761Y-118532000D01*
X164139619Y-118484380D01*
X164234857Y-118484380D01*
X164377714Y-118532000D01*
X164425333Y-118579619D01*
X164758666Y-118484380D02*
X165425333Y-118484380D01*
X164996761Y-119484380D01*
X178755142Y-124882142D02*
X178707523Y-124929761D01*
X178564666Y-124977380D01*
X178469428Y-124977380D01*
X178326571Y-124929761D01*
X178231333Y-124834523D01*
X178183714Y-124739285D01*
X178136095Y-124548809D01*
X178136095Y-124405952D01*
X178183714Y-124215476D01*
X178231333Y-124120238D01*
X178326571Y-124025000D01*
X178469428Y-123977380D01*
X178564666Y-123977380D01*
X178707523Y-124025000D01*
X178755142Y-124072619D01*
X179707523Y-124977380D02*
X179136095Y-124977380D01*
X179421809Y-124977380D02*
X179421809Y-123977380D01*
X179326571Y-124120238D01*
X179231333Y-124215476D01*
X179136095Y-124263095D01*
X180564666Y-123977380D02*
X180374190Y-123977380D01*
X180278952Y-124025000D01*
X180231333Y-124072619D01*
X180136095Y-124215476D01*
X180088476Y-124405952D01*
X180088476Y-124786904D01*
X180136095Y-124882142D01*
X180183714Y-124929761D01*
X180278952Y-124977380D01*
X180469428Y-124977380D01*
X180564666Y-124929761D01*
X180612285Y-124882142D01*
X180659904Y-124786904D01*
X180659904Y-124548809D01*
X180612285Y-124453571D01*
X180564666Y-124405952D01*
X180469428Y-124358333D01*
X180278952Y-124358333D01*
X180183714Y-124405952D01*
X180136095Y-124453571D01*
X180088476Y-124548809D01*
X178501142Y-82972142D02*
X178453523Y-83019761D01*
X178310666Y-83067380D01*
X178215428Y-83067380D01*
X178072571Y-83019761D01*
X177977333Y-82924523D01*
X177929714Y-82829285D01*
X177882095Y-82638809D01*
X177882095Y-82495952D01*
X177929714Y-82305476D01*
X177977333Y-82210238D01*
X178072571Y-82115000D01*
X178215428Y-82067380D01*
X178310666Y-82067380D01*
X178453523Y-82115000D01*
X178501142Y-82162619D01*
X179453523Y-83067380D02*
X178882095Y-83067380D01*
X179167809Y-83067380D02*
X179167809Y-82067380D01*
X179072571Y-82210238D01*
X178977333Y-82305476D01*
X178882095Y-82353095D01*
X179786857Y-82067380D02*
X180453523Y-82067380D01*
X180024952Y-83067380D01*
D13*
X190936857Y-118029857D02*
X190888476Y-118078238D01*
X190743333Y-118126619D01*
X190646571Y-118126619D01*
X190501428Y-118078238D01*
X190404666Y-117981476D01*
X190356285Y-117884714D01*
X190307904Y-117691190D01*
X190307904Y-117546047D01*
X190356285Y-117352523D01*
X190404666Y-117255761D01*
X190501428Y-117159000D01*
X190646571Y-117110619D01*
X190743333Y-117110619D01*
X190888476Y-117159000D01*
X190936857Y-117207380D01*
X191904476Y-118126619D02*
X191323904Y-118126619D01*
X191614190Y-118126619D02*
X191614190Y-117110619D01*
X191517428Y-117255761D01*
X191420666Y-117352523D01*
X191323904Y-117400904D01*
X192485047Y-117546047D02*
X192388285Y-117497666D01*
X192339904Y-117449285D01*
X192291523Y-117352523D01*
X192291523Y-117304142D01*
X192339904Y-117207380D01*
X192388285Y-117159000D01*
X192485047Y-117110619D01*
X192678571Y-117110619D01*
X192775333Y-117159000D01*
X192823714Y-117207380D01*
X192872095Y-117304142D01*
X192872095Y-117352523D01*
X192823714Y-117449285D01*
X192775333Y-117497666D01*
X192678571Y-117546047D01*
X192485047Y-117546047D01*
X192388285Y-117594428D01*
X192339904Y-117642809D01*
X192291523Y-117739571D01*
X192291523Y-117933095D01*
X192339904Y-118029857D01*
X192388285Y-118078238D01*
X192485047Y-118126619D01*
X192678571Y-118126619D01*
X192775333Y-118078238D01*
X192823714Y-118029857D01*
X192872095Y-117933095D01*
X192872095Y-117739571D01*
X192823714Y-117642809D01*
X192775333Y-117594428D01*
X192678571Y-117546047D01*
D12*
X179390142Y-90465142D02*
X179342523Y-90512761D01*
X179199666Y-90560380D01*
X179104428Y-90560380D01*
X178961571Y-90512761D01*
X178866333Y-90417523D01*
X178818714Y-90322285D01*
X178771095Y-90131809D01*
X178771095Y-89988952D01*
X178818714Y-89798476D01*
X178866333Y-89703238D01*
X178961571Y-89608000D01*
X179104428Y-89560380D01*
X179199666Y-89560380D01*
X179342523Y-89608000D01*
X179390142Y-89655619D01*
X180342523Y-90560380D02*
X179771095Y-90560380D01*
X180056809Y-90560380D02*
X180056809Y-89560380D01*
X179961571Y-89703238D01*
X179866333Y-89798476D01*
X179771095Y-89846095D01*
X180818714Y-90560380D02*
X181009190Y-90560380D01*
X181104428Y-90512761D01*
X181152047Y-90465142D01*
X181247285Y-90322285D01*
X181294904Y-90131809D01*
X181294904Y-89750857D01*
X181247285Y-89655619D01*
X181199666Y-89608000D01*
X181104428Y-89560380D01*
X180913952Y-89560380D01*
X180818714Y-89608000D01*
X180771095Y-89655619D01*
X180723476Y-89750857D01*
X180723476Y-89988952D01*
X180771095Y-90084190D01*
X180818714Y-90131809D01*
X180913952Y-90179428D01*
X181104428Y-90179428D01*
X181199666Y-90131809D01*
X181247285Y-90084190D01*
X181294904Y-89988952D01*
X188788142Y-90465142D02*
X188740523Y-90512761D01*
X188597666Y-90560380D01*
X188502428Y-90560380D01*
X188359571Y-90512761D01*
X188264333Y-90417523D01*
X188216714Y-90322285D01*
X188169095Y-90131809D01*
X188169095Y-89988952D01*
X188216714Y-89798476D01*
X188264333Y-89703238D01*
X188359571Y-89608000D01*
X188502428Y-89560380D01*
X188597666Y-89560380D01*
X188740523Y-89608000D01*
X188788142Y-89655619D01*
X189169095Y-89655619D02*
X189216714Y-89608000D01*
X189311952Y-89560380D01*
X189550047Y-89560380D01*
X189645285Y-89608000D01*
X189692904Y-89655619D01*
X189740523Y-89750857D01*
X189740523Y-89846095D01*
X189692904Y-89988952D01*
X189121476Y-90560380D01*
X189740523Y-90560380D01*
X190359571Y-89560380D02*
X190454809Y-89560380D01*
X190550047Y-89608000D01*
X190597666Y-89655619D01*
X190645285Y-89750857D01*
X190692904Y-89941333D01*
X190692904Y-90179428D01*
X190645285Y-90369904D01*
X190597666Y-90465142D01*
X190550047Y-90512761D01*
X190454809Y-90560380D01*
X190359571Y-90560380D01*
X190264333Y-90512761D01*
X190216714Y-90465142D01*
X190169095Y-90369904D01*
X190121476Y-90179428D01*
X190121476Y-89941333D01*
X190169095Y-89750857D01*
X190216714Y-89655619D01*
X190264333Y-89608000D01*
X190359571Y-89560380D01*
X185486142Y-118024142D02*
X185438523Y-118071761D01*
X185295666Y-118119380D01*
X185200428Y-118119380D01*
X185057571Y-118071761D01*
X184962333Y-117976523D01*
X184914714Y-117881285D01*
X184867095Y-117690809D01*
X184867095Y-117547952D01*
X184914714Y-117357476D01*
X184962333Y-117262238D01*
X185057571Y-117167000D01*
X185200428Y-117119380D01*
X185295666Y-117119380D01*
X185438523Y-117167000D01*
X185486142Y-117214619D01*
X185867095Y-117214619D02*
X185914714Y-117167000D01*
X186009952Y-117119380D01*
X186248047Y-117119380D01*
X186343285Y-117167000D01*
X186390904Y-117214619D01*
X186438523Y-117309857D01*
X186438523Y-117405095D01*
X186390904Y-117547952D01*
X185819476Y-118119380D01*
X186438523Y-118119380D01*
X187390904Y-118119380D02*
X186819476Y-118119380D01*
X187105190Y-118119380D02*
X187105190Y-117119380D01*
X187009952Y-117262238D01*
X186914714Y-117357476D01*
X186819476Y-117405095D01*
X192328142Y-80590857D02*
X192375761Y-80638476D01*
X192423380Y-80781333D01*
X192423380Y-80876571D01*
X192375761Y-81019428D01*
X192280523Y-81114666D01*
X192185285Y-81162285D01*
X191994809Y-81209904D01*
X191851952Y-81209904D01*
X191661476Y-81162285D01*
X191566238Y-81114666D01*
X191471000Y-81019428D01*
X191423380Y-80876571D01*
X191423380Y-80781333D01*
X191471000Y-80638476D01*
X191518619Y-80590857D01*
X191518619Y-80209904D02*
X191471000Y-80162285D01*
X191423380Y-80067047D01*
X191423380Y-79828952D01*
X191471000Y-79733714D01*
X191518619Y-79686095D01*
X191613857Y-79638476D01*
X191709095Y-79638476D01*
X191851952Y-79686095D01*
X192423380Y-80257523D01*
X192423380Y-79638476D01*
X191518619Y-79257523D02*
X191471000Y-79209904D01*
X191423380Y-79114666D01*
X191423380Y-78876571D01*
X191471000Y-78781333D01*
X191518619Y-78733714D01*
X191613857Y-78686095D01*
X191709095Y-78686095D01*
X191851952Y-78733714D01*
X192423380Y-79305142D01*
X192423380Y-78686095D01*
X181930142Y-124501142D02*
X181882523Y-124548761D01*
X181739666Y-124596380D01*
X181644428Y-124596380D01*
X181501571Y-124548761D01*
X181406333Y-124453523D01*
X181358714Y-124358285D01*
X181311095Y-124167809D01*
X181311095Y-124024952D01*
X181358714Y-123834476D01*
X181406333Y-123739238D01*
X181501571Y-123644000D01*
X181644428Y-123596380D01*
X181739666Y-123596380D01*
X181882523Y-123644000D01*
X181930142Y-123691619D01*
X182311095Y-123691619D02*
X182358714Y-123644000D01*
X182453952Y-123596380D01*
X182692047Y-123596380D01*
X182787285Y-123644000D01*
X182834904Y-123691619D01*
X182882523Y-123786857D01*
X182882523Y-123882095D01*
X182834904Y-124024952D01*
X182263476Y-124596380D01*
X182882523Y-124596380D01*
X183215857Y-123596380D02*
X183834904Y-123596380D01*
X183501571Y-123977333D01*
X183644428Y-123977333D01*
X183739666Y-124024952D01*
X183787285Y-124072571D01*
X183834904Y-124167809D01*
X183834904Y-124405904D01*
X183787285Y-124501142D01*
X183739666Y-124548761D01*
X183644428Y-124596380D01*
X183358714Y-124596380D01*
X183263476Y-124548761D01*
X183215857Y-124501142D01*
X190931142Y-80590857D02*
X190978761Y-80638476D01*
X191026380Y-80781333D01*
X191026380Y-80876571D01*
X190978761Y-81019428D01*
X190883523Y-81114666D01*
X190788285Y-81162285D01*
X190597809Y-81209904D01*
X190454952Y-81209904D01*
X190264476Y-81162285D01*
X190169238Y-81114666D01*
X190074000Y-81019428D01*
X190026380Y-80876571D01*
X190026380Y-80781333D01*
X190074000Y-80638476D01*
X190121619Y-80590857D01*
X190121619Y-80209904D02*
X190074000Y-80162285D01*
X190026380Y-80067047D01*
X190026380Y-79828952D01*
X190074000Y-79733714D01*
X190121619Y-79686095D01*
X190216857Y-79638476D01*
X190312095Y-79638476D01*
X190454952Y-79686095D01*
X191026380Y-80257523D01*
X191026380Y-79638476D01*
X190359714Y-78781333D02*
X191026380Y-78781333D01*
X189978761Y-79019428D02*
X190693047Y-79257523D01*
X190693047Y-78638476D01*
X181930142Y-125898142D02*
X181882523Y-125945761D01*
X181739666Y-125993380D01*
X181644428Y-125993380D01*
X181501571Y-125945761D01*
X181406333Y-125850523D01*
X181358714Y-125755285D01*
X181311095Y-125564809D01*
X181311095Y-125421952D01*
X181358714Y-125231476D01*
X181406333Y-125136238D01*
X181501571Y-125041000D01*
X181644428Y-124993380D01*
X181739666Y-124993380D01*
X181882523Y-125041000D01*
X181930142Y-125088619D01*
X182311095Y-125088619D02*
X182358714Y-125041000D01*
X182453952Y-124993380D01*
X182692047Y-124993380D01*
X182787285Y-125041000D01*
X182834904Y-125088619D01*
X182882523Y-125183857D01*
X182882523Y-125279095D01*
X182834904Y-125421952D01*
X182263476Y-125993380D01*
X182882523Y-125993380D01*
X183787285Y-124993380D02*
X183311095Y-124993380D01*
X183263476Y-125469571D01*
X183311095Y-125421952D01*
X183406333Y-125374333D01*
X183644428Y-125374333D01*
X183739666Y-125421952D01*
X183787285Y-125469571D01*
X183834904Y-125564809D01*
X183834904Y-125802904D01*
X183787285Y-125898142D01*
X183739666Y-125945761D01*
X183644428Y-125993380D01*
X183406333Y-125993380D01*
X183311095Y-125945761D01*
X183263476Y-125898142D01*
X183297142Y-81942857D02*
X183344761Y-81990476D01*
X183392380Y-82133333D01*
X183392380Y-82228571D01*
X183344761Y-82371428D01*
X183249523Y-82466666D01*
X183154285Y-82514285D01*
X182963809Y-82561904D01*
X182820952Y-82561904D01*
X182630476Y-82514285D01*
X182535238Y-82466666D01*
X182440000Y-82371428D01*
X182392380Y-82228571D01*
X182392380Y-82133333D01*
X182440000Y-81990476D01*
X182487619Y-81942857D01*
X182487619Y-81561904D02*
X182440000Y-81514285D01*
X182392380Y-81419047D01*
X182392380Y-81180952D01*
X182440000Y-81085714D01*
X182487619Y-81038095D01*
X182582857Y-80990476D01*
X182678095Y-80990476D01*
X182820952Y-81038095D01*
X183392380Y-81609523D01*
X183392380Y-80990476D01*
X182392380Y-80133333D02*
X182392380Y-80323809D01*
X182440000Y-80419047D01*
X182487619Y-80466666D01*
X182630476Y-80561904D01*
X182820952Y-80609523D01*
X183201904Y-80609523D01*
X183297142Y-80561904D01*
X183344761Y-80514285D01*
X183392380Y-80419047D01*
X183392380Y-80228571D01*
X183344761Y-80133333D01*
X183297142Y-80085714D01*
X183201904Y-80038095D01*
X182963809Y-80038095D01*
X182868571Y-80085714D01*
X182820952Y-80133333D01*
X182773333Y-80228571D01*
X182773333Y-80419047D01*
X182820952Y-80514285D01*
X182868571Y-80561904D01*
X182963809Y-80609523D01*
X186248142Y-128946142D02*
X186200523Y-128993761D01*
X186057666Y-129041380D01*
X185962428Y-129041380D01*
X185819571Y-128993761D01*
X185724333Y-128898523D01*
X185676714Y-128803285D01*
X185629095Y-128612809D01*
X185629095Y-128469952D01*
X185676714Y-128279476D01*
X185724333Y-128184238D01*
X185819571Y-128089000D01*
X185962428Y-128041380D01*
X186057666Y-128041380D01*
X186200523Y-128089000D01*
X186248142Y-128136619D01*
X186629095Y-128136619D02*
X186676714Y-128089000D01*
X186771952Y-128041380D01*
X187010047Y-128041380D01*
X187105285Y-128089000D01*
X187152904Y-128136619D01*
X187200523Y-128231857D01*
X187200523Y-128327095D01*
X187152904Y-128469952D01*
X186581476Y-129041380D01*
X187200523Y-129041380D01*
X187533857Y-128041380D02*
X188200523Y-128041380D01*
X187771952Y-129041380D01*
X177143761Y-101069619D02*
X177048523Y-101022000D01*
X176953285Y-100926761D01*
X176810428Y-100783904D01*
X176715190Y-100736285D01*
X176619952Y-100736285D01*
X176667571Y-100974380D02*
X176572333Y-100926761D01*
X176477095Y-100831523D01*
X176429476Y-100641047D01*
X176429476Y-100307714D01*
X176477095Y-100117238D01*
X176572333Y-100022000D01*
X176667571Y-99974380D01*
X176858047Y-99974380D01*
X176953285Y-100022000D01*
X177048523Y-100117238D01*
X177096142Y-100307714D01*
X177096142Y-100641047D01*
X177048523Y-100831523D01*
X176953285Y-100926761D01*
X176858047Y-100974380D01*
X176667571Y-100974380D01*
X178048523Y-100974380D02*
X177477095Y-100974380D01*
X177762809Y-100974380D02*
X177762809Y-99974380D01*
X177667571Y-100117238D01*
X177572333Y-100212476D01*
X177477095Y-100260095D01*
X177143761Y-111864619D02*
X177048523Y-111817000D01*
X176953285Y-111721761D01*
X176810428Y-111578904D01*
X176715190Y-111531285D01*
X176619952Y-111531285D01*
X176667571Y-111769380D02*
X176572333Y-111721761D01*
X176477095Y-111626523D01*
X176429476Y-111436047D01*
X176429476Y-111102714D01*
X176477095Y-110912238D01*
X176572333Y-110817000D01*
X176667571Y-110769380D01*
X176858047Y-110769380D01*
X176953285Y-110817000D01*
X177048523Y-110912238D01*
X177096142Y-111102714D01*
X177096142Y-111436047D01*
X177048523Y-111626523D01*
X176953285Y-111721761D01*
X176858047Y-111769380D01*
X176667571Y-111769380D01*
X177477095Y-110864619D02*
X177524714Y-110817000D01*
X177619952Y-110769380D01*
X177858047Y-110769380D01*
X177953285Y-110817000D01*
X178000904Y-110864619D01*
X178048523Y-110959857D01*
X178048523Y-111055095D01*
X178000904Y-111197952D01*
X177429476Y-111769380D01*
X178048523Y-111769380D01*
X177143761Y-103609619D02*
X177048523Y-103562000D01*
X176953285Y-103466761D01*
X176810428Y-103323904D01*
X176715190Y-103276285D01*
X176619952Y-103276285D01*
X176667571Y-103514380D02*
X176572333Y-103466761D01*
X176477095Y-103371523D01*
X176429476Y-103181047D01*
X176429476Y-102847714D01*
X176477095Y-102657238D01*
X176572333Y-102562000D01*
X176667571Y-102514380D01*
X176858047Y-102514380D01*
X176953285Y-102562000D01*
X177048523Y-102657238D01*
X177096142Y-102847714D01*
X177096142Y-103181047D01*
X177048523Y-103371523D01*
X176953285Y-103466761D01*
X176858047Y-103514380D01*
X176667571Y-103514380D01*
X177429476Y-102514380D02*
X178048523Y-102514380D01*
X177715190Y-102895333D01*
X177858047Y-102895333D01*
X177953285Y-102942952D01*
X178000904Y-102990571D01*
X178048523Y-103085809D01*
X178048523Y-103323904D01*
X178000904Y-103419142D01*
X177953285Y-103466761D01*
X177858047Y-103514380D01*
X177572333Y-103514380D01*
X177477095Y-103466761D01*
X177429476Y-103419142D01*
X177143761Y-109451619D02*
X177048523Y-109404000D01*
X176953285Y-109308761D01*
X176810428Y-109165904D01*
X176715190Y-109118285D01*
X176619952Y-109118285D01*
X176667571Y-109356380D02*
X176572333Y-109308761D01*
X176477095Y-109213523D01*
X176429476Y-109023047D01*
X176429476Y-108689714D01*
X176477095Y-108499238D01*
X176572333Y-108404000D01*
X176667571Y-108356380D01*
X176858047Y-108356380D01*
X176953285Y-108404000D01*
X177048523Y-108499238D01*
X177096142Y-108689714D01*
X177096142Y-109023047D01*
X177048523Y-109213523D01*
X176953285Y-109308761D01*
X176858047Y-109356380D01*
X176667571Y-109356380D01*
X177953285Y-108689714D02*
X177953285Y-109356380D01*
X177715190Y-108308761D02*
X177477095Y-109023047D01*
X178096142Y-109023047D01*
X166743380Y-114553904D02*
X167552904Y-114553904D01*
X167648142Y-114506285D01*
X167695761Y-114458666D01*
X167743380Y-114363428D01*
X167743380Y-114172952D01*
X167695761Y-114077714D01*
X167648142Y-114030095D01*
X167552904Y-113982476D01*
X166743380Y-113982476D01*
X166838619Y-113553904D02*
X166791000Y-113506285D01*
X166743380Y-113411047D01*
X166743380Y-113172952D01*
X166791000Y-113077714D01*
X166838619Y-113030095D01*
X166933857Y-112982476D01*
X167029095Y-112982476D01*
X167171952Y-113030095D01*
X167743380Y-113601523D01*
X167743380Y-112982476D01*
%LPC*%
D14*
X195400000Y-127700000D03*
D15*
X195400000Y-125160000D03*
D16*
X170347000Y-98999000D03*
X170347000Y-100899000D03*
X167727000Y-100899000D03*
X167727000Y-99949000D03*
X167727000Y-98999000D03*
D17*
X173609000Y-122072000D03*
D18*
X173609000Y-119572000D03*
D14*
X195400000Y-82640000D03*
D15*
X195400000Y-80100000D03*
D19*
X185039000Y-119888000D03*
X187579000Y-119888000D03*
D20*
X190119000Y-119888000D03*
D19*
X190119000Y-87884000D03*
X187579000Y-87884000D03*
D20*
X185039000Y-87884000D03*
D21*
X158254000Y-105202000D03*
X158254000Y-103282000D03*
D22*
X158524000Y-106972000D03*
X158524000Y-101512000D03*
D23*
X161524000Y-106662000D03*
X161524000Y-101822000D03*
D24*
X161404000Y-105542000D03*
X161404000Y-104892000D03*
X161404000Y-104242000D03*
X161404000Y-103592000D03*
X161404000Y-102942000D03*
D25*
X161524000Y-107142000D03*
X161504000Y-101392000D03*
D26*
X160204000Y-107242000D03*
X160204000Y-101292000D03*
D27*
X159454000Y-101512000D03*
X159454000Y-106992000D03*
D28*
X188592000Y-93218000D03*
X191392000Y-93218000D03*
X191138000Y-113665000D03*
X188338000Y-113665000D03*
X184020000Y-93218000D03*
X186820000Y-93218000D03*
X186566000Y-113665000D03*
X183766000Y-113665000D03*
X179448000Y-93218000D03*
X182248000Y-93218000D03*
X181994000Y-113665000D03*
X179194000Y-113665000D03*
X179194000Y-115951000D03*
X181994000Y-115951000D03*
X174876000Y-93218000D03*
X177676000Y-93218000D03*
G36*
G01*
X190738999Y-97801000D02*
X192039001Y-97801000D01*
G75*
G02*
X192289000Y-98050999I0J-249999D01*
G01*
X192289000Y-98876001D01*
G75*
G02*
X192039001Y-99126000I-249999J0D01*
G01*
X190738999Y-99126000D01*
G75*
G02*
X190489000Y-98876001I0J249999D01*
G01*
X190489000Y-98050999D01*
G75*
G02*
X190738999Y-97801000I249999J0D01*
G01*
G37*
G36*
G01*
X190738999Y-94676000D02*
X192039001Y-94676000D01*
G75*
G02*
X192289000Y-94925999I0J-249999D01*
G01*
X192289000Y-95751001D01*
G75*
G02*
X192039001Y-96001000I-249999J0D01*
G01*
X190738999Y-96001000D01*
G75*
G02*
X190489000Y-95751001I0J249999D01*
G01*
X190489000Y-94925999D01*
G75*
G02*
X190738999Y-94676000I249999J0D01*
G01*
G37*
G36*
G01*
X190738999Y-110882000D02*
X192039001Y-110882000D01*
G75*
G02*
X192289000Y-111131999I0J-249999D01*
G01*
X192289000Y-111957001D01*
G75*
G02*
X192039001Y-112207000I-249999J0D01*
G01*
X190738999Y-112207000D01*
G75*
G02*
X190489000Y-111957001I0J249999D01*
G01*
X190489000Y-111131999D01*
G75*
G02*
X190738999Y-110882000I249999J0D01*
G01*
G37*
G36*
G01*
X190738999Y-107757000D02*
X192039001Y-107757000D01*
G75*
G02*
X192289000Y-108006999I0J-249999D01*
G01*
X192289000Y-108832001D01*
G75*
G02*
X192039001Y-109082000I-249999J0D01*
G01*
X190738999Y-109082000D01*
G75*
G02*
X190489000Y-108832001I0J249999D01*
G01*
X190489000Y-108006999D01*
G75*
G02*
X190738999Y-107757000I249999J0D01*
G01*
G37*
G36*
G01*
X187055999Y-97801000D02*
X188356001Y-97801000D01*
G75*
G02*
X188606000Y-98050999I0J-249999D01*
G01*
X188606000Y-98876001D01*
G75*
G02*
X188356001Y-99126000I-249999J0D01*
G01*
X187055999Y-99126000D01*
G75*
G02*
X186806000Y-98876001I0J249999D01*
G01*
X186806000Y-98050999D01*
G75*
G02*
X187055999Y-97801000I249999J0D01*
G01*
G37*
G36*
G01*
X187055999Y-94676000D02*
X188356001Y-94676000D01*
G75*
G02*
X188606000Y-94925999I0J-249999D01*
G01*
X188606000Y-95751001D01*
G75*
G02*
X188356001Y-96001000I-249999J0D01*
G01*
X187055999Y-96001000D01*
G75*
G02*
X186806000Y-95751001I0J249999D01*
G01*
X186806000Y-94925999D01*
G75*
G02*
X187055999Y-94676000I249999J0D01*
G01*
G37*
G36*
G01*
X186801999Y-110882000D02*
X188102001Y-110882000D01*
G75*
G02*
X188352000Y-111131999I0J-249999D01*
G01*
X188352000Y-111957001D01*
G75*
G02*
X188102001Y-112207000I-249999J0D01*
G01*
X186801999Y-112207000D01*
G75*
G02*
X186552000Y-111957001I0J249999D01*
G01*
X186552000Y-111131999D01*
G75*
G02*
X186801999Y-110882000I249999J0D01*
G01*
G37*
G36*
G01*
X186801999Y-107757000D02*
X188102001Y-107757000D01*
G75*
G02*
X188352000Y-108006999I0J-249999D01*
G01*
X188352000Y-108832001D01*
G75*
G02*
X188102001Y-109082000I-249999J0D01*
G01*
X186801999Y-109082000D01*
G75*
G02*
X186552000Y-108832001I0J249999D01*
G01*
X186552000Y-108006999D01*
G75*
G02*
X186801999Y-107757000I249999J0D01*
G01*
G37*
G36*
G01*
X182483999Y-97801000D02*
X183784001Y-97801000D01*
G75*
G02*
X184034000Y-98050999I0J-249999D01*
G01*
X184034000Y-98876001D01*
G75*
G02*
X183784001Y-99126000I-249999J0D01*
G01*
X182483999Y-99126000D01*
G75*
G02*
X182234000Y-98876001I0J249999D01*
G01*
X182234000Y-98050999D01*
G75*
G02*
X182483999Y-97801000I249999J0D01*
G01*
G37*
G36*
G01*
X182483999Y-94676000D02*
X183784001Y-94676000D01*
G75*
G02*
X184034000Y-94925999I0J-249999D01*
G01*
X184034000Y-95751001D01*
G75*
G02*
X183784001Y-96001000I-249999J0D01*
G01*
X182483999Y-96001000D01*
G75*
G02*
X182234000Y-95751001I0J249999D01*
G01*
X182234000Y-94925999D01*
G75*
G02*
X182483999Y-94676000I249999J0D01*
G01*
G37*
G36*
G01*
X182303999Y-110882000D02*
X183604001Y-110882000D01*
G75*
G02*
X183854000Y-111131999I0J-249999D01*
G01*
X183854000Y-111957001D01*
G75*
G02*
X183604001Y-112207000I-249999J0D01*
G01*
X182303999Y-112207000D01*
G75*
G02*
X182054000Y-111957001I0J249999D01*
G01*
X182054000Y-111131999D01*
G75*
G02*
X182303999Y-110882000I249999J0D01*
G01*
G37*
G36*
G01*
X182303999Y-107757000D02*
X183604001Y-107757000D01*
G75*
G02*
X183854000Y-108006999I0J-249999D01*
G01*
X183854000Y-108832001D01*
G75*
G02*
X183604001Y-109082000I-249999J0D01*
G01*
X182303999Y-109082000D01*
G75*
G02*
X182054000Y-108832001I0J249999D01*
G01*
X182054000Y-108006999D01*
G75*
G02*
X182303999Y-107757000I249999J0D01*
G01*
G37*
G36*
G01*
X178874999Y-110947000D02*
X180175001Y-110947000D01*
G75*
G02*
X180425000Y-111196999I0J-249999D01*
G01*
X180425000Y-112022001D01*
G75*
G02*
X180175001Y-112272000I-249999J0D01*
G01*
X178874999Y-112272000D01*
G75*
G02*
X178625000Y-112022001I0J249999D01*
G01*
X178625000Y-111196999D01*
G75*
G02*
X178874999Y-110947000I249999J0D01*
G01*
G37*
G36*
G01*
X178874999Y-107822000D02*
X180175001Y-107822000D01*
G75*
G02*
X180425000Y-108071999I0J-249999D01*
G01*
X180425000Y-108897001D01*
G75*
G02*
X180175001Y-109147000I-249999J0D01*
G01*
X178874999Y-109147000D01*
G75*
G02*
X178625000Y-108897001I0J249999D01*
G01*
X178625000Y-108071999D01*
G75*
G02*
X178874999Y-107822000I249999J0D01*
G01*
G37*
G36*
G01*
X177911999Y-97801000D02*
X179212001Y-97801000D01*
G75*
G02*
X179462000Y-98050999I0J-249999D01*
G01*
X179462000Y-98876001D01*
G75*
G02*
X179212001Y-99126000I-249999J0D01*
G01*
X177911999Y-99126000D01*
G75*
G02*
X177662000Y-98876001I0J249999D01*
G01*
X177662000Y-98050999D01*
G75*
G02*
X177911999Y-97801000I249999J0D01*
G01*
G37*
G36*
G01*
X177911999Y-94676000D02*
X179212001Y-94676000D01*
G75*
G02*
X179462000Y-94925999I0J-249999D01*
G01*
X179462000Y-95751001D01*
G75*
G02*
X179212001Y-96001000I-249999J0D01*
G01*
X177911999Y-96001000D01*
G75*
G02*
X177662000Y-95751001I0J249999D01*
G01*
X177662000Y-94925999D01*
G75*
G02*
X177911999Y-94676000I249999J0D01*
G01*
G37*
G36*
G01*
X170818000Y-102251500D02*
X170818000Y-102726500D01*
G75*
G02*
X170580500Y-102964000I-237500J0D01*
G01*
X170005500Y-102964000D01*
G75*
G02*
X169768000Y-102726500I0J237500D01*
G01*
X169768000Y-102251500D01*
G75*
G02*
X170005500Y-102014000I237500J0D01*
G01*
X170580500Y-102014000D01*
G75*
G02*
X170818000Y-102251500I0J-237500D01*
G01*
G37*
G36*
G01*
X169068000Y-102251500D02*
X169068000Y-102726500D01*
G75*
G02*
X168830500Y-102964000I-237500J0D01*
G01*
X168255500Y-102964000D01*
G75*
G02*
X168018000Y-102726500I0J237500D01*
G01*
X168018000Y-102251500D01*
G75*
G02*
X168255500Y-102014000I237500J0D01*
G01*
X168830500Y-102014000D01*
G75*
G02*
X169068000Y-102251500I0J-237500D01*
G01*
G37*
G36*
G01*
X167637000Y-97646500D02*
X167637000Y-97171500D01*
G75*
G02*
X167874500Y-96934000I237500J0D01*
G01*
X168449500Y-96934000D01*
G75*
G02*
X168687000Y-97171500I0J-237500D01*
G01*
X168687000Y-97646500D01*
G75*
G02*
X168449500Y-97884000I-237500J0D01*
G01*
X167874500Y-97884000D01*
G75*
G02*
X167637000Y-97646500I0J237500D01*
G01*
G37*
G36*
G01*
X169387000Y-97646500D02*
X169387000Y-97171500D01*
G75*
G02*
X169624500Y-96934000I237500J0D01*
G01*
X170199500Y-96934000D01*
G75*
G02*
X170437000Y-97171500I0J-237500D01*
G01*
X170437000Y-97646500D01*
G75*
G02*
X170199500Y-97884000I-237500J0D01*
G01*
X169624500Y-97884000D01*
G75*
G02*
X169387000Y-97646500I0J237500D01*
G01*
G37*
G36*
G01*
X165751500Y-101315000D02*
X166226500Y-101315000D01*
G75*
G02*
X166464000Y-101552500I0J-237500D01*
G01*
X166464000Y-102127500D01*
G75*
G02*
X166226500Y-102365000I-237500J0D01*
G01*
X165751500Y-102365000D01*
G75*
G02*
X165514000Y-102127500I0J237500D01*
G01*
X165514000Y-101552500D01*
G75*
G02*
X165751500Y-101315000I237500J0D01*
G01*
G37*
G36*
G01*
X165751500Y-99565000D02*
X166226500Y-99565000D01*
G75*
G02*
X166464000Y-99802500I0J-237500D01*
G01*
X166464000Y-100377500D01*
G75*
G02*
X166226500Y-100615000I-237500J0D01*
G01*
X165751500Y-100615000D01*
G75*
G02*
X165514000Y-100377500I0J237500D01*
G01*
X165514000Y-99802500D01*
G75*
G02*
X165751500Y-99565000I237500J0D01*
G01*
G37*
D18*
X167513000Y-88036000D03*
D17*
X167513000Y-85536000D03*
D18*
X167767000Y-119572000D03*
D17*
X167767000Y-122072000D03*
X173355000Y-85536000D03*
D18*
X173355000Y-88036000D03*
G36*
G01*
X167637000Y-95995500D02*
X167637000Y-95520500D01*
G75*
G02*
X167874500Y-95283000I237500J0D01*
G01*
X168449500Y-95283000D01*
G75*
G02*
X168687000Y-95520500I0J-237500D01*
G01*
X168687000Y-95995500D01*
G75*
G02*
X168449500Y-96233000I-237500J0D01*
G01*
X167874500Y-96233000D01*
G75*
G02*
X167637000Y-95995500I0J237500D01*
G01*
G37*
G36*
G01*
X169387000Y-95995500D02*
X169387000Y-95520500D01*
G75*
G02*
X169624500Y-95283000I237500J0D01*
G01*
X170199500Y-95283000D01*
G75*
G02*
X170437000Y-95520500I0J-237500D01*
G01*
X170437000Y-95995500D01*
G75*
G02*
X170199500Y-96233000I-237500J0D01*
G01*
X169624500Y-96233000D01*
G75*
G02*
X169387000Y-95995500I0J237500D01*
G01*
G37*
G36*
G01*
X164242000Y-117364500D02*
X164242000Y-117839500D01*
G75*
G02*
X164004500Y-118077000I-237500J0D01*
G01*
X163429500Y-118077000D01*
G75*
G02*
X163192000Y-117839500I0J237500D01*
G01*
X163192000Y-117364500D01*
G75*
G02*
X163429500Y-117127000I237500J0D01*
G01*
X164004500Y-117127000D01*
G75*
G02*
X164242000Y-117364500I0J-237500D01*
G01*
G37*
G36*
G01*
X165992000Y-117364500D02*
X165992000Y-117839500D01*
G75*
G02*
X165754500Y-118077000I-237500J0D01*
G01*
X165179500Y-118077000D01*
G75*
G02*
X164942000Y-117839500I0J237500D01*
G01*
X164942000Y-117364500D01*
G75*
G02*
X165179500Y-117127000I237500J0D01*
G01*
X165754500Y-117127000D01*
G75*
G02*
X165992000Y-117364500I0J-237500D01*
G01*
G37*
X179451000Y-122174000D03*
D17*
X179451000Y-119674000D03*
X179197000Y-85511000D03*
D18*
X179197000Y-88011000D03*
G36*
G01*
X190277000Y-115840500D02*
X190277000Y-116315500D01*
G75*
G02*
X190039500Y-116553000I-237500J0D01*
G01*
X189464500Y-116553000D01*
G75*
G02*
X189227000Y-116315500I0J237500D01*
G01*
X189227000Y-115840500D01*
G75*
G02*
X189464500Y-115603000I237500J0D01*
G01*
X190039500Y-115603000D01*
G75*
G02*
X190277000Y-115840500I0J-237500D01*
G01*
G37*
G36*
G01*
X192027000Y-115840500D02*
X192027000Y-116315500D01*
G75*
G02*
X191789500Y-116553000I-237500J0D01*
G01*
X191214500Y-116553000D01*
G75*
G02*
X190977000Y-116315500I0J237500D01*
G01*
X190977000Y-115840500D01*
G75*
G02*
X191214500Y-115603000I237500J0D01*
G01*
X191789500Y-115603000D01*
G75*
G02*
X192027000Y-115840500I0J-237500D01*
G01*
G37*
G36*
G01*
X184534000Y-89932500D02*
X184534000Y-90407500D01*
G75*
G02*
X184296500Y-90645000I-237500J0D01*
G01*
X183721500Y-90645000D01*
G75*
G02*
X183484000Y-90407500I0J237500D01*
G01*
X183484000Y-89932500D01*
G75*
G02*
X183721500Y-89695000I237500J0D01*
G01*
X184296500Y-89695000D01*
G75*
G02*
X184534000Y-89932500I0J-237500D01*
G01*
G37*
G36*
G01*
X182784000Y-89932500D02*
X182784000Y-90407500D01*
G75*
G02*
X182546500Y-90645000I-237500J0D01*
G01*
X181971500Y-90645000D01*
G75*
G02*
X181734000Y-90407500I0J237500D01*
G01*
X181734000Y-89932500D01*
G75*
G02*
X181971500Y-89695000I237500J0D01*
G01*
X182546500Y-89695000D01*
G75*
G02*
X182784000Y-89932500I0J-237500D01*
G01*
G37*
G36*
G01*
X186786000Y-90407500D02*
X186786000Y-89932500D01*
G75*
G02*
X187023500Y-89695000I237500J0D01*
G01*
X187598500Y-89695000D01*
G75*
G02*
X187836000Y-89932500I0J-237500D01*
G01*
X187836000Y-90407500D01*
G75*
G02*
X187598500Y-90645000I-237500J0D01*
G01*
X187023500Y-90645000D01*
G75*
G02*
X186786000Y-90407500I0J237500D01*
G01*
G37*
G36*
G01*
X185036000Y-90407500D02*
X185036000Y-89932500D01*
G75*
G02*
X185273500Y-89695000I237500J0D01*
G01*
X185848500Y-89695000D01*
G75*
G02*
X186086000Y-89932500I0J-237500D01*
G01*
X186086000Y-90407500D01*
G75*
G02*
X185848500Y-90645000I-237500J0D01*
G01*
X185273500Y-90645000D01*
G75*
G02*
X185036000Y-90407500I0J237500D01*
G01*
G37*
G36*
G01*
X188626000Y-117364500D02*
X188626000Y-117839500D01*
G75*
G02*
X188388500Y-118077000I-237500J0D01*
G01*
X187813500Y-118077000D01*
G75*
G02*
X187576000Y-117839500I0J237500D01*
G01*
X187576000Y-117364500D01*
G75*
G02*
X187813500Y-117127000I237500J0D01*
G01*
X188388500Y-117127000D01*
G75*
G02*
X188626000Y-117364500I0J-237500D01*
G01*
G37*
G36*
G01*
X190376000Y-117364500D02*
X190376000Y-117839500D01*
G75*
G02*
X190138500Y-118077000I-237500J0D01*
G01*
X189563500Y-118077000D01*
G75*
G02*
X189326000Y-117839500I0J237500D01*
G01*
X189326000Y-117364500D01*
G75*
G02*
X189563500Y-117127000I237500J0D01*
G01*
X190138500Y-117127000D01*
G75*
G02*
X190376000Y-117364500I0J-237500D01*
G01*
G37*
G36*
G01*
X192261500Y-84204000D02*
X191786500Y-84204000D01*
G75*
G02*
X191549000Y-83966500I0J237500D01*
G01*
X191549000Y-83391500D01*
G75*
G02*
X191786500Y-83154000I237500J0D01*
G01*
X192261500Y-83154000D01*
G75*
G02*
X192499000Y-83391500I0J-237500D01*
G01*
X192499000Y-83966500D01*
G75*
G02*
X192261500Y-84204000I-237500J0D01*
G01*
G37*
G36*
G01*
X192261500Y-82454000D02*
X191786500Y-82454000D01*
G75*
G02*
X191549000Y-82216500I0J237500D01*
G01*
X191549000Y-81641500D01*
G75*
G02*
X191786500Y-81404000I237500J0D01*
G01*
X192261500Y-81404000D01*
G75*
G02*
X192499000Y-81641500I0J-237500D01*
G01*
X192499000Y-82216500D01*
G75*
G02*
X192261500Y-82454000I-237500J0D01*
G01*
G37*
G36*
G01*
X186947000Y-123841500D02*
X186947000Y-124316500D01*
G75*
G02*
X186709500Y-124554000I-237500J0D01*
G01*
X186134500Y-124554000D01*
G75*
G02*
X185897000Y-124316500I0J237500D01*
G01*
X185897000Y-123841500D01*
G75*
G02*
X186134500Y-123604000I237500J0D01*
G01*
X186709500Y-123604000D01*
G75*
G02*
X186947000Y-123841500I0J-237500D01*
G01*
G37*
G36*
G01*
X185197000Y-123841500D02*
X185197000Y-124316500D01*
G75*
G02*
X184959500Y-124554000I-237500J0D01*
G01*
X184384500Y-124554000D01*
G75*
G02*
X184147000Y-124316500I0J237500D01*
G01*
X184147000Y-123841500D01*
G75*
G02*
X184384500Y-123604000I237500J0D01*
G01*
X184959500Y-123604000D01*
G75*
G02*
X185197000Y-123841500I0J-237500D01*
G01*
G37*
G36*
G01*
X190737500Y-82454000D02*
X190262500Y-82454000D01*
G75*
G02*
X190025000Y-82216500I0J237500D01*
G01*
X190025000Y-81641500D01*
G75*
G02*
X190262500Y-81404000I237500J0D01*
G01*
X190737500Y-81404000D01*
G75*
G02*
X190975000Y-81641500I0J-237500D01*
G01*
X190975000Y-82216500D01*
G75*
G02*
X190737500Y-82454000I-237500J0D01*
G01*
G37*
G36*
G01*
X190737500Y-84204000D02*
X190262500Y-84204000D01*
G75*
G02*
X190025000Y-83966500I0J237500D01*
G01*
X190025000Y-83391500D01*
G75*
G02*
X190262500Y-83154000I237500J0D01*
G01*
X190737500Y-83154000D01*
G75*
G02*
X190975000Y-83391500I0J-237500D01*
G01*
X190975000Y-83966500D01*
G75*
G02*
X190737500Y-84204000I-237500J0D01*
G01*
G37*
G36*
G01*
X186947000Y-125365500D02*
X186947000Y-125840500D01*
G75*
G02*
X186709500Y-126078000I-237500J0D01*
G01*
X186134500Y-126078000D01*
G75*
G02*
X185897000Y-125840500I0J237500D01*
G01*
X185897000Y-125365500D01*
G75*
G02*
X186134500Y-125128000I237500J0D01*
G01*
X186709500Y-125128000D01*
G75*
G02*
X186947000Y-125365500I0J-237500D01*
G01*
G37*
G36*
G01*
X185197000Y-125365500D02*
X185197000Y-125840500D01*
G75*
G02*
X184959500Y-126078000I-237500J0D01*
G01*
X184384500Y-126078000D01*
G75*
G02*
X184147000Y-125840500I0J237500D01*
G01*
X184147000Y-125365500D01*
G75*
G02*
X184384500Y-125128000I237500J0D01*
G01*
X184959500Y-125128000D01*
G75*
G02*
X185197000Y-125365500I0J-237500D01*
G01*
G37*
D17*
X186690000Y-80050000D03*
D18*
X186690000Y-82550000D03*
X190627000Y-125222000D03*
D17*
X190627000Y-127722000D03*
D29*
X173990000Y-98460000D03*
G36*
G01*
X171885000Y-100825000D02*
X171885000Y-100325000D01*
G75*
G02*
X171925000Y-100285000I40000J0D01*
G01*
X172245000Y-100285000D01*
G75*
G02*
X172285000Y-100325000I0J-40000D01*
G01*
X172285000Y-100825000D01*
G75*
G02*
X172245000Y-100865000I-40000J0D01*
G01*
X171925000Y-100865000D01*
G75*
G02*
X171885000Y-100825000I0J40000D01*
G01*
G37*
G36*
G01*
X173155000Y-100825000D02*
X173155000Y-100325000D01*
G75*
G02*
X173195000Y-100285000I40000J0D01*
G01*
X173515000Y-100285000D01*
G75*
G02*
X173555000Y-100325000I0J-40000D01*
G01*
X173555000Y-100825000D01*
G75*
G02*
X173515000Y-100865000I-40000J0D01*
G01*
X173195000Y-100865000D01*
G75*
G02*
X173155000Y-100825000I0J40000D01*
G01*
G37*
G36*
G01*
X174425000Y-100825000D02*
X174425000Y-100325000D01*
G75*
G02*
X174465000Y-100285000I40000J0D01*
G01*
X174785000Y-100285000D01*
G75*
G02*
X174825000Y-100325000I0J-40000D01*
G01*
X174825000Y-100825000D01*
G75*
G02*
X174785000Y-100865000I-40000J0D01*
G01*
X174465000Y-100865000D01*
G75*
G02*
X174425000Y-100825000I0J40000D01*
G01*
G37*
G36*
G01*
X175695000Y-100825000D02*
X175695000Y-100325000D01*
G75*
G02*
X175735000Y-100285000I40000J0D01*
G01*
X176055000Y-100285000D01*
G75*
G02*
X176095000Y-100325000I0J-40000D01*
G01*
X176095000Y-100825000D01*
G75*
G02*
X176055000Y-100865000I-40000J0D01*
G01*
X175735000Y-100865000D01*
G75*
G02*
X175695000Y-100825000I0J40000D01*
G01*
G37*
G36*
G01*
X171885000Y-95255000D02*
X171885000Y-94755000D01*
G75*
G02*
X171925000Y-94715000I40000J0D01*
G01*
X172245000Y-94715000D01*
G75*
G02*
X172285000Y-94755000I0J-40000D01*
G01*
X172285000Y-95255000D01*
G75*
G02*
X172245000Y-95295000I-40000J0D01*
G01*
X171925000Y-95295000D01*
G75*
G02*
X171885000Y-95255000I0J40000D01*
G01*
G37*
G36*
G01*
X173155000Y-95255000D02*
X173155000Y-94755000D01*
G75*
G02*
X173195000Y-94715000I40000J0D01*
G01*
X173515000Y-94715000D01*
G75*
G02*
X173555000Y-94755000I0J-40000D01*
G01*
X173555000Y-95255000D01*
G75*
G02*
X173515000Y-95295000I-40000J0D01*
G01*
X173195000Y-95295000D01*
G75*
G02*
X173155000Y-95255000I0J40000D01*
G01*
G37*
G36*
G01*
X174425000Y-95255000D02*
X174425000Y-94755000D01*
G75*
G02*
X174465000Y-94715000I40000J0D01*
G01*
X174785000Y-94715000D01*
G75*
G02*
X174825000Y-94755000I0J-40000D01*
G01*
X174825000Y-95255000D01*
G75*
G02*
X174785000Y-95295000I-40000J0D01*
G01*
X174465000Y-95295000D01*
G75*
G02*
X174425000Y-95255000I0J40000D01*
G01*
G37*
G36*
G01*
X175695000Y-95255000D02*
X175695000Y-94755000D01*
G75*
G02*
X175735000Y-94715000I40000J0D01*
G01*
X176055000Y-94715000D01*
G75*
G02*
X176095000Y-94755000I0J-40000D01*
G01*
X176095000Y-95255000D01*
G75*
G02*
X176055000Y-95295000I-40000J0D01*
G01*
X175735000Y-95295000D01*
G75*
G02*
X175695000Y-95255000I0J40000D01*
G01*
G37*
G36*
G01*
X172285000Y-116235000D02*
X172285000Y-116735000D01*
G75*
G02*
X172245000Y-116775000I-40000J0D01*
G01*
X171925000Y-116775000D01*
G75*
G02*
X171885000Y-116735000I0J40000D01*
G01*
X171885000Y-116235000D01*
G75*
G02*
X171925000Y-116195000I40000J0D01*
G01*
X172245000Y-116195000D01*
G75*
G02*
X172285000Y-116235000I0J-40000D01*
G01*
G37*
G36*
G01*
X173555000Y-116235000D02*
X173555000Y-116735000D01*
G75*
G02*
X173515000Y-116775000I-40000J0D01*
G01*
X173195000Y-116775000D01*
G75*
G02*
X173155000Y-116735000I0J40000D01*
G01*
X173155000Y-116235000D01*
G75*
G02*
X173195000Y-116195000I40000J0D01*
G01*
X173515000Y-116195000D01*
G75*
G02*
X173555000Y-116235000I0J-40000D01*
G01*
G37*
G36*
G01*
X174825000Y-116235000D02*
X174825000Y-116735000D01*
G75*
G02*
X174785000Y-116775000I-40000J0D01*
G01*
X174465000Y-116775000D01*
G75*
G02*
X174425000Y-116735000I0J40000D01*
G01*
X174425000Y-116235000D01*
G75*
G02*
X174465000Y-116195000I40000J0D01*
G01*
X174785000Y-116195000D01*
G75*
G02*
X174825000Y-116235000I0J-40000D01*
G01*
G37*
G36*
G01*
X176095000Y-116235000D02*
X176095000Y-116735000D01*
G75*
G02*
X176055000Y-116775000I-40000J0D01*
G01*
X175735000Y-116775000D01*
G75*
G02*
X175695000Y-116735000I0J40000D01*
G01*
X175695000Y-116235000D01*
G75*
G02*
X175735000Y-116195000I40000J0D01*
G01*
X176055000Y-116195000D01*
G75*
G02*
X176095000Y-116235000I0J-40000D01*
G01*
G37*
G36*
G01*
X172285000Y-110665000D02*
X172285000Y-111165000D01*
G75*
G02*
X172245000Y-111205000I-40000J0D01*
G01*
X171925000Y-111205000D01*
G75*
G02*
X171885000Y-111165000I0J40000D01*
G01*
X171885000Y-110665000D01*
G75*
G02*
X171925000Y-110625000I40000J0D01*
G01*
X172245000Y-110625000D01*
G75*
G02*
X172285000Y-110665000I0J-40000D01*
G01*
G37*
G36*
G01*
X173555000Y-110665000D02*
X173555000Y-111165000D01*
G75*
G02*
X173515000Y-111205000I-40000J0D01*
G01*
X173195000Y-111205000D01*
G75*
G02*
X173155000Y-111165000I0J40000D01*
G01*
X173155000Y-110665000D01*
G75*
G02*
X173195000Y-110625000I40000J0D01*
G01*
X173515000Y-110625000D01*
G75*
G02*
X173555000Y-110665000I0J-40000D01*
G01*
G37*
G36*
G01*
X174825000Y-110665000D02*
X174825000Y-111165000D01*
G75*
G02*
X174785000Y-111205000I-40000J0D01*
G01*
X174465000Y-111205000D01*
G75*
G02*
X174425000Y-111165000I0J40000D01*
G01*
X174425000Y-110665000D01*
G75*
G02*
X174465000Y-110625000I40000J0D01*
G01*
X174785000Y-110625000D01*
G75*
G02*
X174825000Y-110665000I0J-40000D01*
G01*
G37*
G36*
G01*
X176095000Y-110665000D02*
X176095000Y-111165000D01*
G75*
G02*
X176055000Y-111205000I-40000J0D01*
G01*
X175735000Y-111205000D01*
G75*
G02*
X175695000Y-111165000I0J40000D01*
G01*
X175695000Y-110665000D01*
G75*
G02*
X175735000Y-110625000I40000J0D01*
G01*
X176055000Y-110625000D01*
G75*
G02*
X176095000Y-110665000I0J-40000D01*
G01*
G37*
X173990000Y-113030000D03*
D30*
X173990000Y-102997000D03*
G36*
G01*
X175140000Y-101547000D02*
X175140000Y-101977000D01*
G75*
G02*
X175105000Y-102012000I-35000J0D01*
G01*
X174825000Y-102012000D01*
G75*
G02*
X174790000Y-101977000I0J35000D01*
G01*
X174790000Y-101547000D01*
G75*
G02*
X174825000Y-101512000I35000J0D01*
G01*
X175105000Y-101512000D01*
G75*
G02*
X175140000Y-101547000I0J-35000D01*
G01*
G37*
G36*
G01*
X174490000Y-101547000D02*
X174490000Y-101977000D01*
G75*
G02*
X174455000Y-102012000I-35000J0D01*
G01*
X174175000Y-102012000D01*
G75*
G02*
X174140000Y-101977000I0J35000D01*
G01*
X174140000Y-101547000D01*
G75*
G02*
X174175000Y-101512000I35000J0D01*
G01*
X174455000Y-101512000D01*
G75*
G02*
X174490000Y-101547000I0J-35000D01*
G01*
G37*
G36*
G01*
X173840000Y-101547000D02*
X173840000Y-101977000D01*
G75*
G02*
X173805000Y-102012000I-35000J0D01*
G01*
X173525000Y-102012000D01*
G75*
G02*
X173490000Y-101977000I0J35000D01*
G01*
X173490000Y-101547000D01*
G75*
G02*
X173525000Y-101512000I35000J0D01*
G01*
X173805000Y-101512000D01*
G75*
G02*
X173840000Y-101547000I0J-35000D01*
G01*
G37*
G36*
G01*
X173190000Y-101547000D02*
X173190000Y-101977000D01*
G75*
G02*
X173155000Y-102012000I-35000J0D01*
G01*
X172875000Y-102012000D01*
G75*
G02*
X172840000Y-101977000I0J35000D01*
G01*
X172840000Y-101547000D01*
G75*
G02*
X172875000Y-101512000I35000J0D01*
G01*
X173155000Y-101512000D01*
G75*
G02*
X173190000Y-101547000I0J-35000D01*
G01*
G37*
G36*
G01*
X175140000Y-104497000D02*
X175140000Y-104927000D01*
G75*
G02*
X175105000Y-104962000I-35000J0D01*
G01*
X174825000Y-104962000D01*
G75*
G02*
X174790000Y-104927000I0J35000D01*
G01*
X174790000Y-104497000D01*
G75*
G02*
X174825000Y-104462000I35000J0D01*
G01*
X175105000Y-104462000D01*
G75*
G02*
X175140000Y-104497000I0J-35000D01*
G01*
G37*
G36*
G01*
X174490000Y-104497000D02*
X174490000Y-104927000D01*
G75*
G02*
X174455000Y-104962000I-35000J0D01*
G01*
X174175000Y-104962000D01*
G75*
G02*
X174140000Y-104927000I0J35000D01*
G01*
X174140000Y-104497000D01*
G75*
G02*
X174175000Y-104462000I35000J0D01*
G01*
X174455000Y-104462000D01*
G75*
G02*
X174490000Y-104497000I0J-35000D01*
G01*
G37*
G36*
G01*
X173840000Y-104497000D02*
X173840000Y-104927000D01*
G75*
G02*
X173805000Y-104962000I-35000J0D01*
G01*
X173525000Y-104962000D01*
G75*
G02*
X173490000Y-104927000I0J35000D01*
G01*
X173490000Y-104497000D01*
G75*
G02*
X173525000Y-104462000I35000J0D01*
G01*
X173805000Y-104462000D01*
G75*
G02*
X173840000Y-104497000I0J-35000D01*
G01*
G37*
G36*
G01*
X173190000Y-104497000D02*
X173190000Y-104927000D01*
G75*
G02*
X173155000Y-104962000I-35000J0D01*
G01*
X172875000Y-104962000D01*
G75*
G02*
X172840000Y-104927000I0J35000D01*
G01*
X172840000Y-104497000D01*
G75*
G02*
X172875000Y-104462000I35000J0D01*
G01*
X173155000Y-104462000D01*
G75*
G02*
X173190000Y-104497000I0J-35000D01*
G01*
G37*
G36*
G01*
X174790000Y-107085000D02*
X174790000Y-106655000D01*
G75*
G02*
X174825000Y-106620000I35000J0D01*
G01*
X175105000Y-106620000D01*
G75*
G02*
X175140000Y-106655000I0J-35000D01*
G01*
X175140000Y-107085000D01*
G75*
G02*
X175105000Y-107120000I-35000J0D01*
G01*
X174825000Y-107120000D01*
G75*
G02*
X174790000Y-107085000I0J35000D01*
G01*
G37*
G36*
G01*
X174140000Y-107085000D02*
X174140000Y-106655000D01*
G75*
G02*
X174175000Y-106620000I35000J0D01*
G01*
X174455000Y-106620000D01*
G75*
G02*
X174490000Y-106655000I0J-35000D01*
G01*
X174490000Y-107085000D01*
G75*
G02*
X174455000Y-107120000I-35000J0D01*
G01*
X174175000Y-107120000D01*
G75*
G02*
X174140000Y-107085000I0J35000D01*
G01*
G37*
G36*
G01*
X173490000Y-107085000D02*
X173490000Y-106655000D01*
G75*
G02*
X173525000Y-106620000I35000J0D01*
G01*
X173805000Y-106620000D01*
G75*
G02*
X173840000Y-106655000I0J-35000D01*
G01*
X173840000Y-107085000D01*
G75*
G02*
X173805000Y-107120000I-35000J0D01*
G01*
X173525000Y-107120000D01*
G75*
G02*
X173490000Y-107085000I0J35000D01*
G01*
G37*
G36*
G01*
X172840000Y-107085000D02*
X172840000Y-106655000D01*
G75*
G02*
X172875000Y-106620000I35000J0D01*
G01*
X173155000Y-106620000D01*
G75*
G02*
X173190000Y-106655000I0J-35000D01*
G01*
X173190000Y-107085000D01*
G75*
G02*
X173155000Y-107120000I-35000J0D01*
G01*
X172875000Y-107120000D01*
G75*
G02*
X172840000Y-107085000I0J35000D01*
G01*
G37*
G36*
G01*
X174790000Y-110035000D02*
X174790000Y-109605000D01*
G75*
G02*
X174825000Y-109570000I35000J0D01*
G01*
X175105000Y-109570000D01*
G75*
G02*
X175140000Y-109605000I0J-35000D01*
G01*
X175140000Y-110035000D01*
G75*
G02*
X175105000Y-110070000I-35000J0D01*
G01*
X174825000Y-110070000D01*
G75*
G02*
X174790000Y-110035000I0J35000D01*
G01*
G37*
G36*
G01*
X174140000Y-110035000D02*
X174140000Y-109605000D01*
G75*
G02*
X174175000Y-109570000I35000J0D01*
G01*
X174455000Y-109570000D01*
G75*
G02*
X174490000Y-109605000I0J-35000D01*
G01*
X174490000Y-110035000D01*
G75*
G02*
X174455000Y-110070000I-35000J0D01*
G01*
X174175000Y-110070000D01*
G75*
G02*
X174140000Y-110035000I0J35000D01*
G01*
G37*
G36*
G01*
X173490000Y-110035000D02*
X173490000Y-109605000D01*
G75*
G02*
X173525000Y-109570000I35000J0D01*
G01*
X173805000Y-109570000D01*
G75*
G02*
X173840000Y-109605000I0J-35000D01*
G01*
X173840000Y-110035000D01*
G75*
G02*
X173805000Y-110070000I-35000J0D01*
G01*
X173525000Y-110070000D01*
G75*
G02*
X173490000Y-110035000I0J35000D01*
G01*
G37*
G36*
G01*
X172840000Y-110035000D02*
X172840000Y-109605000D01*
G75*
G02*
X172875000Y-109570000I35000J0D01*
G01*
X173155000Y-109570000D01*
G75*
G02*
X173190000Y-109605000I0J-35000D01*
G01*
X173190000Y-110035000D01*
G75*
G02*
X173155000Y-110070000I-35000J0D01*
G01*
X172875000Y-110070000D01*
G75*
G02*
X172840000Y-110035000I0J35000D01*
G01*
G37*
X173990000Y-108585000D03*
D31*
X168641000Y-115122000D03*
X169291000Y-115122000D03*
X169941000Y-115122000D03*
X169941000Y-112462000D03*
X168641000Y-112462000D03*
M02*
