G04 #@! TF.GenerationSoftware,KiCad,Pcbnew,(5.1.10)-1*
G04 #@! TF.CreationDate,2022-01-06T01:02:44-05:00*
G04 #@! TF.ProjectId,Charge_Pump,43686172-6765-45f5-9075-6d702e6b6963,rev?*
G04 #@! TF.SameCoordinates,Original*
G04 #@! TF.FileFunction,Legend,Bot*
G04 #@! TF.FilePolarity,Positive*
%FSLAX46Y46*%
G04 Gerber Fmt 4.6, Leading zero omitted, Abs format (unit mm)*
G04 Created by KiCad (PCBNEW (5.1.10)-1) date 2022-01-06 01:02:44*
%MOMM*%
%LPD*%
G01*
G04 APERTURE LIST*
%ADD10C,0.150000*%
%ADD11O,1.700000X1.700000*%
%ADD12R,1.700000X1.700000*%
%ADD13C,1.600000*%
%ADD14R,1.600000X1.600000*%
%ADD15O,1.905000X2.000000*%
%ADD16R,1.905000X2.000000*%
%ADD17O,1.700000X1.350000*%
%ADD18O,1.500000X1.100000*%
G04 APERTURE END LIST*
D10*
X184104761Y-125687380D02*
X184104761Y-126496904D01*
X184057142Y-126592142D01*
X184009523Y-126639761D01*
X183914285Y-126687380D01*
X183723809Y-126687380D01*
X183628571Y-126639761D01*
X183580952Y-126592142D01*
X183533333Y-126496904D01*
X183533333Y-125687380D01*
X183104761Y-126639761D02*
X182961904Y-126687380D01*
X182723809Y-126687380D01*
X182628571Y-126639761D01*
X182580952Y-126592142D01*
X182533333Y-126496904D01*
X182533333Y-126401666D01*
X182580952Y-126306428D01*
X182628571Y-126258809D01*
X182723809Y-126211190D01*
X182914285Y-126163571D01*
X183009523Y-126115952D01*
X183057142Y-126068333D01*
X183104761Y-125973095D01*
X183104761Y-125877857D01*
X183057142Y-125782619D01*
X183009523Y-125735000D01*
X182914285Y-125687380D01*
X182676190Y-125687380D01*
X182533333Y-125735000D01*
X181771428Y-126163571D02*
X181628571Y-126211190D01*
X181580952Y-126258809D01*
X181533333Y-126354047D01*
X181533333Y-126496904D01*
X181580952Y-126592142D01*
X181628571Y-126639761D01*
X181723809Y-126687380D01*
X182104761Y-126687380D01*
X182104761Y-125687380D01*
X181771428Y-125687380D01*
X181676190Y-125735000D01*
X181628571Y-125782619D01*
X181580952Y-125877857D01*
X181580952Y-125973095D01*
X181628571Y-126068333D01*
X181676190Y-126115952D01*
X181771428Y-126163571D01*
X182104761Y-126163571D01*
X180342857Y-126687380D02*
X180342857Y-125687380D01*
X180104761Y-125687380D01*
X179961904Y-125735000D01*
X179866666Y-125830238D01*
X179819047Y-125925476D01*
X179771428Y-126115952D01*
X179771428Y-126258809D01*
X179819047Y-126449285D01*
X179866666Y-126544523D01*
X179961904Y-126639761D01*
X180104761Y-126687380D01*
X180342857Y-126687380D01*
X179342857Y-125687380D02*
X179342857Y-126496904D01*
X179295238Y-126592142D01*
X179247619Y-126639761D01*
X179152380Y-126687380D01*
X178961904Y-126687380D01*
X178866666Y-126639761D01*
X178819047Y-126592142D01*
X178771428Y-126496904D01*
X178771428Y-125687380D01*
X178342857Y-126401666D02*
X177866666Y-126401666D01*
X178438095Y-126687380D02*
X178104761Y-125687380D01*
X177771428Y-126687380D01*
X176961904Y-126687380D02*
X177438095Y-126687380D01*
X177438095Y-125687380D01*
X175342857Y-126687380D02*
X175914285Y-126687380D01*
X175628571Y-126687380D02*
X175628571Y-125687380D01*
X175723809Y-125830238D01*
X175819047Y-125925476D01*
X175914285Y-125973095D01*
X174961904Y-125782619D02*
X174914285Y-125735000D01*
X174819047Y-125687380D01*
X174580952Y-125687380D01*
X174485714Y-125735000D01*
X174438095Y-125782619D01*
X174390476Y-125877857D01*
X174390476Y-125973095D01*
X174438095Y-126115952D01*
X175009523Y-126687380D01*
X174390476Y-126687380D01*
X174104761Y-125687380D02*
X173771428Y-126687380D01*
X173438095Y-125687380D01*
X172342857Y-126687380D02*
X172342857Y-125687380D01*
X171961904Y-125687380D01*
X171866666Y-125735000D01*
X171819047Y-125782619D01*
X171771428Y-125877857D01*
X171771428Y-126020714D01*
X171819047Y-126115952D01*
X171866666Y-126163571D01*
X171961904Y-126211190D01*
X172342857Y-126211190D01*
X171152380Y-125687380D02*
X170961904Y-125687380D01*
X170866666Y-125735000D01*
X170771428Y-125830238D01*
X170723809Y-126020714D01*
X170723809Y-126354047D01*
X170771428Y-126544523D01*
X170866666Y-126639761D01*
X170961904Y-126687380D01*
X171152380Y-126687380D01*
X171247619Y-126639761D01*
X171342857Y-126544523D01*
X171390476Y-126354047D01*
X171390476Y-126020714D01*
X171342857Y-125830238D01*
X171247619Y-125735000D01*
X171152380Y-125687380D01*
X170390476Y-125687380D02*
X170152380Y-126687380D01*
X169961904Y-125973095D01*
X169771428Y-126687380D01*
X169533333Y-125687380D01*
X169152380Y-126163571D02*
X168819047Y-126163571D01*
X168676190Y-126687380D02*
X169152380Y-126687380D01*
X169152380Y-125687380D01*
X168676190Y-125687380D01*
X167676190Y-126687380D02*
X168009523Y-126211190D01*
X168247619Y-126687380D02*
X168247619Y-125687380D01*
X167866666Y-125687380D01*
X167771428Y-125735000D01*
X167723809Y-125782619D01*
X167676190Y-125877857D01*
X167676190Y-126020714D01*
X167723809Y-126115952D01*
X167771428Y-126163571D01*
X167866666Y-126211190D01*
X168247619Y-126211190D01*
X166533333Y-126639761D02*
X166390476Y-126687380D01*
X166152380Y-126687380D01*
X166057142Y-126639761D01*
X166009523Y-126592142D01*
X165961904Y-126496904D01*
X165961904Y-126401666D01*
X166009523Y-126306428D01*
X166057142Y-126258809D01*
X166152380Y-126211190D01*
X166342857Y-126163571D01*
X166438095Y-126115952D01*
X166485714Y-126068333D01*
X166533333Y-125973095D01*
X166533333Y-125877857D01*
X166485714Y-125782619D01*
X166438095Y-125735000D01*
X166342857Y-125687380D01*
X166104761Y-125687380D01*
X165961904Y-125735000D01*
X165533333Y-125687380D02*
X165533333Y-126496904D01*
X165485714Y-126592142D01*
X165438095Y-126639761D01*
X165342857Y-126687380D01*
X165152380Y-126687380D01*
X165057142Y-126639761D01*
X165009523Y-126592142D01*
X164961904Y-126496904D01*
X164961904Y-125687380D01*
X164485714Y-126687380D02*
X164485714Y-125687380D01*
X164104761Y-125687380D01*
X164009523Y-125735000D01*
X163961904Y-125782619D01*
X163914285Y-125877857D01*
X163914285Y-126020714D01*
X163961904Y-126115952D01*
X164009523Y-126163571D01*
X164104761Y-126211190D01*
X164485714Y-126211190D01*
X163485714Y-126687380D02*
X163485714Y-125687380D01*
X163104761Y-125687380D01*
X163009523Y-125735000D01*
X162961904Y-125782619D01*
X162914285Y-125877857D01*
X162914285Y-126020714D01*
X162961904Y-126115952D01*
X163009523Y-126163571D01*
X163104761Y-126211190D01*
X163485714Y-126211190D01*
X162009523Y-126687380D02*
X162485714Y-126687380D01*
X162485714Y-125687380D01*
X161485714Y-126211190D02*
X161485714Y-126687380D01*
X161819047Y-125687380D02*
X161485714Y-126211190D01*
X161152380Y-125687380D01*
X176652380Y-128337380D02*
X176652380Y-127337380D01*
X176319047Y-128051666D01*
X175985714Y-127337380D01*
X175985714Y-128337380D01*
X175509523Y-128337380D02*
X175509523Y-127337380D01*
X175271428Y-127337380D01*
X175128571Y-127385000D01*
X175033333Y-127480238D01*
X174985714Y-127575476D01*
X174938095Y-127765952D01*
X174938095Y-127908809D01*
X174985714Y-128099285D01*
X175033333Y-128194523D01*
X175128571Y-128289761D01*
X175271428Y-128337380D01*
X175509523Y-128337380D01*
X174509523Y-127337380D02*
X174509523Y-128146904D01*
X174461904Y-128242142D01*
X174414285Y-128289761D01*
X174319047Y-128337380D01*
X174128571Y-128337380D01*
X174033333Y-128289761D01*
X173985714Y-128242142D01*
X173938095Y-128146904D01*
X173938095Y-127337380D01*
X173461904Y-128337380D02*
X173461904Y-127337380D01*
X172890476Y-128337380D01*
X172890476Y-127337380D01*
X172414285Y-128337380D02*
X172414285Y-127337380D01*
X171842857Y-128337380D02*
X172271428Y-127765952D01*
X171842857Y-127337380D02*
X172414285Y-127908809D01*
X170604761Y-127337380D02*
X170700000Y-127527857D01*
X170223809Y-127432619D02*
X170176190Y-127385000D01*
X170080952Y-127337380D01*
X169842857Y-127337380D01*
X169747619Y-127385000D01*
X169700000Y-127432619D01*
X169652380Y-127527857D01*
X169652380Y-127623095D01*
X169700000Y-127765952D01*
X170271428Y-128337380D01*
X169652380Y-128337380D01*
X169271428Y-127432619D02*
X169223809Y-127385000D01*
X169128571Y-127337380D01*
X168890476Y-127337380D01*
X168795238Y-127385000D01*
X168747619Y-127432619D01*
X168700000Y-127527857D01*
X168700000Y-127623095D01*
X168747619Y-127765952D01*
X169319047Y-128337380D01*
X168700000Y-128337380D01*
%LPC*%
D11*
X195400000Y-127700000D03*
D12*
X195400000Y-125160000D03*
D13*
X173609000Y-122072000D03*
D14*
X173609000Y-119572000D03*
D11*
X195400000Y-82640000D03*
D12*
X195400000Y-80100000D03*
D15*
X185039000Y-119888000D03*
X187579000Y-119888000D03*
D16*
X190119000Y-119888000D03*
D15*
X190119000Y-87884000D03*
X187579000Y-87884000D03*
D16*
X185039000Y-87884000D03*
D17*
X158524000Y-106972000D03*
X158524000Y-101512000D03*
D18*
X161524000Y-106662000D03*
X161524000Y-101822000D03*
D14*
X167513000Y-88036000D03*
D13*
X167513000Y-85536000D03*
D14*
X167767000Y-119572000D03*
D13*
X167767000Y-122072000D03*
X173355000Y-85536000D03*
D14*
X173355000Y-88036000D03*
X179451000Y-122174000D03*
D13*
X179451000Y-119674000D03*
X179197000Y-85511000D03*
D14*
X179197000Y-88011000D03*
D13*
X186690000Y-80050000D03*
D14*
X186690000Y-82550000D03*
X190627000Y-125222000D03*
D13*
X190627000Y-127722000D03*
M02*
