M48
; DRILL file {KiCad (5.1.10)-1} date 01/06/22 01:00:45
; FORMAT={-:-/ absolute / metric / decimal}
; #@! TF.CreationDate,2022-01-06T01:00:45-05:00
; #@! TF.GenerationSoftware,Kicad,Pcbnew,(5.1.10)-1
; #@! TF.FileFunction,Plated,1,2,PTH
FMAT,2
METRIC
T1C0.400
T2C0.650
T3C0.700
T4C0.800
T5C1.000
T6C1.100
%
G90
G05
T1
X165.936Y-98.744
X165.936Y-103.443
X166.7Y-113.56
X167.46Y-83.631
X167.714Y-124.144
X169.873Y-94.426
X170.381Y-105.856
X170.762Y-104.713
X171.397Y-105.729
X171.905Y-104.713
X173.429Y-83.631
X173.683Y-124.144
X175.715Y-105.729
X176.096Y-104.586
X176.096Y-106.999
X177.366Y-104.586
X177.366Y-105.856
X177.366Y-106.999
X179.144Y-83.504
X179.525Y-124.398
X184.478Y-80.075
X187.526Y-85.917
X188.288Y-124.017
X188.288Y-125.541
X188.669Y-90.108
X188.923Y-79.948
X190.193Y-121.858
X190.701Y-123.382
X191.209Y-79.948
X191.336Y-100.141
X191.336Y-106.745
X193.114Y-79.948
X193.114Y-125.16
T4
X167.513Y-85.536
X167.513Y-88.036
X167.767Y-119.572
X167.767Y-122.072
X173.355Y-85.536
X173.355Y-88.036
X173.609Y-119.572
X173.609Y-122.072
X179.197Y-85.511
X179.197Y-88.011
X179.451Y-119.674
X179.451Y-122.174
X186.69Y-80.05
X186.69Y-82.55
X190.627Y-125.222
X190.627Y-127.722
T5
X195.4Y-80.1
X195.4Y-82.64
X195.4Y-125.16
X195.4Y-127.7
T6
X185.039Y-87.884
X185.039Y-119.888
X187.579Y-87.884
X187.579Y-119.888
X190.119Y-87.884
X190.119Y-119.888
T2
X161.324Y-101.822G85X161.724Y-101.822
G05
X161.324Y-106.662G85X161.724Y-106.662
G05
T3
X158.274Y-101.512G85X158.774Y-101.512
G05
X158.274Y-106.972G85X158.774Y-106.972
G05
T0
M30
