%FSLAX45Y45*%
G04 Gerber Fmt 4.5, Leading zero omitted, Abs format (unit mm)*
G04 Created by KiCad (PCBNEW (5.1.10)-1) date 2022-01-06 01:00:44*
%MOMM*%
%LPD*%
G01*
G04 APERTURE LIST*
%TA.AperFunction,Profile*%
%ADD10C,0.050000*%
%TD*%
%ADD11C,0.200000*%
%ADD12C,0.300000*%
G04 APERTURE END LIST*
D10*
X15679200Y-7817000D02*
X15679200Y-12954000D01*
X19723100Y-7823200D02*
X15679200Y-7817000D01*
X19723100Y-8445500D02*
X19723100Y-7823200D01*
X19291300Y-8445500D02*
X19723100Y-8445500D01*
X19291300Y-12331700D02*
X19291300Y-8445500D01*
X19735800Y-12954000D02*
X15679200Y-12954000D01*
X19735800Y-12331700D02*
X19735800Y-12954000D01*
X19291300Y-12331700D02*
X19735800Y-12331700D01*
D11*
D12*
X15963128Y-13422214D02*
X15963128Y-13122214D01*
X16034557Y-13122214D01*
X16077414Y-13136500D01*
X16105986Y-13165071D01*
X16120271Y-13193643D01*
X16134557Y-13250786D01*
X16134557Y-13293643D01*
X16120271Y-13350786D01*
X16105986Y-13379357D01*
X16077414Y-13407929D01*
X16034557Y-13422214D01*
X15963128Y-13422214D01*
X16263128Y-13422214D02*
X16263128Y-13222214D01*
X16263128Y-13279357D02*
X16277414Y-13250786D01*
X16291700Y-13236500D01*
X16320271Y-13222214D01*
X16348843Y-13222214D01*
X16448843Y-13422214D02*
X16448843Y-13222214D01*
X16448843Y-13122214D02*
X16434557Y-13136500D01*
X16448843Y-13150786D01*
X16463128Y-13136500D01*
X16448843Y-13122214D01*
X16448843Y-13150786D01*
X16634557Y-13422214D02*
X16605986Y-13407929D01*
X16591700Y-13379357D01*
X16591700Y-13122214D01*
X16791700Y-13422214D02*
X16763128Y-13407929D01*
X16748843Y-13379357D01*
X16748843Y-13122214D01*
X17134557Y-13422214D02*
X17134557Y-13122214D01*
X17234557Y-13336500D01*
X17334557Y-13122214D01*
X17334557Y-13422214D01*
X17605986Y-13422214D02*
X17605986Y-13265071D01*
X17591700Y-13236500D01*
X17563128Y-13222214D01*
X17505986Y-13222214D01*
X17477414Y-13236500D01*
X17605986Y-13407929D02*
X17577414Y-13422214D01*
X17505986Y-13422214D01*
X17477414Y-13407929D01*
X17463128Y-13379357D01*
X17463128Y-13350786D01*
X17477414Y-13322214D01*
X17505986Y-13307929D01*
X17577414Y-13307929D01*
X17605986Y-13293643D01*
X17748843Y-13222214D02*
X17748843Y-13522214D01*
X17748843Y-13236500D02*
X17777414Y-13222214D01*
X17834557Y-13222214D01*
X17863128Y-13236500D01*
X17877414Y-13250786D01*
X17891700Y-13279357D01*
X17891700Y-13365071D01*
X17877414Y-13393643D01*
X17863128Y-13407929D01*
X17834557Y-13422214D01*
X17777414Y-13422214D01*
X17748843Y-13407929D01*
X18020271Y-13393643D02*
X18034557Y-13407929D01*
X18020271Y-13422214D01*
X18005986Y-13407929D01*
X18020271Y-13393643D01*
X18020271Y-13422214D01*
X18020271Y-13236500D02*
X18034557Y-13250786D01*
X18020271Y-13265071D01*
X18005986Y-13250786D01*
X18020271Y-13236500D01*
X18020271Y-13265071D01*
M02*
