G04 #@! TF.GenerationSoftware,KiCad,Pcbnew,(5.1.10)-1*
G04 #@! TF.CreationDate,2022-01-06T01:02:44-05:00*
G04 #@! TF.ProjectId,Charge_Pump,43686172-6765-45f5-9075-6d702e6b6963,rev?*
G04 #@! TF.SameCoordinates,Original*
G04 #@! TF.FileFunction,Copper,L2,Bot*
G04 #@! TF.FilePolarity,Positive*
%FSLAX46Y46*%
G04 Gerber Fmt 4.6, Leading zero omitted, Abs format (unit mm)*
G04 Created by KiCad (PCBNEW (5.1.10)-1) date 2022-01-06 01:02:44*
%MOMM*%
%LPD*%
G01*
G04 APERTURE LIST*
G04 #@! TA.AperFunction,ComponentPad*
%ADD10O,1.700000X1.700000*%
G04 #@! TD*
G04 #@! TA.AperFunction,ComponentPad*
%ADD11R,1.700000X1.700000*%
G04 #@! TD*
G04 #@! TA.AperFunction,ComponentPad*
%ADD12C,1.600000*%
G04 #@! TD*
G04 #@! TA.AperFunction,ComponentPad*
%ADD13R,1.600000X1.600000*%
G04 #@! TD*
G04 #@! TA.AperFunction,ComponentPad*
%ADD14O,1.905000X2.000000*%
G04 #@! TD*
G04 #@! TA.AperFunction,ComponentPad*
%ADD15R,1.905000X2.000000*%
G04 #@! TD*
G04 #@! TA.AperFunction,ComponentPad*
%ADD16O,1.700000X1.350000*%
G04 #@! TD*
G04 #@! TA.AperFunction,ComponentPad*
%ADD17O,1.500000X1.100000*%
G04 #@! TD*
G04 #@! TA.AperFunction,ViaPad*
%ADD18C,0.800000*%
G04 #@! TD*
G04 #@! TA.AperFunction,Conductor*
%ADD19C,0.254000*%
G04 #@! TD*
G04 #@! TA.AperFunction,Conductor*
%ADD20C,0.100000*%
G04 #@! TD*
G04 APERTURE END LIST*
D10*
X195400000Y-127700000D03*
D11*
X195400000Y-125160000D03*
D12*
X173609000Y-122072000D03*
D13*
X173609000Y-119572000D03*
D10*
X195400000Y-82640000D03*
D11*
X195400000Y-80100000D03*
D14*
X185039000Y-119888000D03*
X187579000Y-119888000D03*
D15*
X190119000Y-119888000D03*
D14*
X190119000Y-87884000D03*
X187579000Y-87884000D03*
D15*
X185039000Y-87884000D03*
D16*
X158524000Y-106972000D03*
X158524000Y-101512000D03*
D17*
X161524000Y-106662000D03*
X161524000Y-101822000D03*
D13*
X167513000Y-88036000D03*
D12*
X167513000Y-85536000D03*
D13*
X167767000Y-119572000D03*
D12*
X167767000Y-122072000D03*
X173355000Y-85536000D03*
D13*
X173355000Y-88036000D03*
X179451000Y-122174000D03*
D12*
X179451000Y-119674000D03*
X179197000Y-85511000D03*
D13*
X179197000Y-88011000D03*
D12*
X186690000Y-80050000D03*
D13*
X186690000Y-82550000D03*
X190627000Y-125222000D03*
D12*
X190627000Y-127722000D03*
D18*
X165936000Y-103443000D03*
X190193000Y-121858000D03*
X188288000Y-124017000D03*
X179525000Y-124398000D03*
X173683000Y-124144000D03*
X167714000Y-124144000D03*
X191336000Y-106745000D03*
X191336000Y-100141000D03*
X179144000Y-83504000D03*
X173429000Y-83631000D03*
X167460000Y-83631000D03*
X188923000Y-79948000D03*
X193114000Y-79948000D03*
X191209000Y-79948000D03*
X184478000Y-80075000D03*
X188669000Y-90108000D03*
X187526000Y-85917000D03*
X190701000Y-123382000D03*
X193114000Y-125160000D03*
X165936000Y-98744000D03*
X171905000Y-104713000D03*
X170762000Y-104713000D03*
X171397000Y-105729000D03*
X175715000Y-105729000D03*
X176096000Y-106999000D03*
X177366000Y-106999000D03*
X177366000Y-105856000D03*
X177366000Y-104586000D03*
X176096000Y-104586000D03*
X170381000Y-105856000D03*
X169873000Y-94426000D03*
X188288000Y-125541000D03*
X166700000Y-113560000D03*
D19*
X196952001Y-78510572D02*
X196952000Y-84176000D01*
X192926696Y-84176000D01*
X192913000Y-84174651D01*
X192899304Y-84176000D01*
X192858307Y-84180038D01*
X192805715Y-84195991D01*
X192757246Y-84221898D01*
X192714763Y-84256763D01*
X192679898Y-84299246D01*
X192653991Y-84347715D01*
X192638038Y-84400307D01*
X192632651Y-84455000D01*
X192634001Y-84468706D01*
X192634000Y-123303304D01*
X192632651Y-123317000D01*
X192638038Y-123371693D01*
X192653991Y-123424285D01*
X192679898Y-123472754D01*
X192714763Y-123515237D01*
X192757246Y-123550102D01*
X192805715Y-123576009D01*
X192858307Y-123591962D01*
X192913000Y-123597349D01*
X192926696Y-123596000D01*
X197079000Y-123596000D01*
X197079001Y-129261000D01*
X157071000Y-129261000D01*
X157071000Y-127605682D01*
X189446000Y-127605682D01*
X189446000Y-127838318D01*
X189491386Y-128066485D01*
X189580412Y-128281413D01*
X189709658Y-128474843D01*
X189874157Y-128639342D01*
X190067587Y-128768588D01*
X190282515Y-128857614D01*
X190510682Y-128903000D01*
X190743318Y-128903000D01*
X190971485Y-128857614D01*
X191186413Y-128768588D01*
X191379843Y-128639342D01*
X191544342Y-128474843D01*
X191673588Y-128281413D01*
X191762614Y-128066485D01*
X191808000Y-127838318D01*
X191808000Y-127605682D01*
X191802645Y-127578757D01*
X194169000Y-127578757D01*
X194169000Y-127821243D01*
X194216307Y-128059069D01*
X194309102Y-128283097D01*
X194443820Y-128484717D01*
X194615283Y-128656180D01*
X194816903Y-128790898D01*
X195040931Y-128883693D01*
X195278757Y-128931000D01*
X195521243Y-128931000D01*
X195759069Y-128883693D01*
X195983097Y-128790898D01*
X196184717Y-128656180D01*
X196356180Y-128484717D01*
X196490898Y-128283097D01*
X196583693Y-128059069D01*
X196631000Y-127821243D01*
X196631000Y-127578757D01*
X196583693Y-127340931D01*
X196490898Y-127116903D01*
X196356180Y-126915283D01*
X196184717Y-126743820D01*
X195983097Y-126609102D01*
X195759069Y-126516307D01*
X195521243Y-126469000D01*
X195278757Y-126469000D01*
X195040931Y-126516307D01*
X194816903Y-126609102D01*
X194615283Y-126743820D01*
X194443820Y-126915283D01*
X194309102Y-127116903D01*
X194216307Y-127340931D01*
X194169000Y-127578757D01*
X191802645Y-127578757D01*
X191762614Y-127377515D01*
X191673588Y-127162587D01*
X191544342Y-126969157D01*
X191379843Y-126804658D01*
X191186413Y-126675412D01*
X190971485Y-126586386D01*
X190743318Y-126541000D01*
X190510682Y-126541000D01*
X190282515Y-126586386D01*
X190067587Y-126675412D01*
X189874157Y-126804658D01*
X189709658Y-126969157D01*
X189580412Y-127162587D01*
X189491386Y-127377515D01*
X189446000Y-127605682D01*
X157071000Y-127605682D01*
X157071000Y-126022000D01*
X189444157Y-126022000D01*
X189451513Y-126096689D01*
X189473299Y-126168508D01*
X189508678Y-126234696D01*
X189556289Y-126292711D01*
X189614304Y-126340322D01*
X189680492Y-126375701D01*
X189752311Y-126397487D01*
X189827000Y-126404843D01*
X190404750Y-126403000D01*
X190500000Y-126307750D01*
X190500000Y-125349000D01*
X190754000Y-125349000D01*
X190754000Y-126307750D01*
X190849250Y-126403000D01*
X191427000Y-126404843D01*
X191501689Y-126397487D01*
X191573508Y-126375701D01*
X191639696Y-126340322D01*
X191697711Y-126292711D01*
X191745322Y-126234696D01*
X191780701Y-126168508D01*
X191802487Y-126096689D01*
X191809843Y-126022000D01*
X191809805Y-126010000D01*
X194167157Y-126010000D01*
X194174513Y-126084689D01*
X194196299Y-126156508D01*
X194231678Y-126222696D01*
X194279289Y-126280711D01*
X194337304Y-126328322D01*
X194403492Y-126363701D01*
X194475311Y-126385487D01*
X194550000Y-126392843D01*
X195177750Y-126391000D01*
X195273000Y-126295750D01*
X195273000Y-125287000D01*
X195527000Y-125287000D01*
X195527000Y-126295750D01*
X195622250Y-126391000D01*
X196250000Y-126392843D01*
X196324689Y-126385487D01*
X196396508Y-126363701D01*
X196462696Y-126328322D01*
X196520711Y-126280711D01*
X196568322Y-126222696D01*
X196603701Y-126156508D01*
X196625487Y-126084689D01*
X196632843Y-126010000D01*
X196631000Y-125382250D01*
X196535750Y-125287000D01*
X195527000Y-125287000D01*
X195273000Y-125287000D01*
X194264250Y-125287000D01*
X194169000Y-125382250D01*
X194167157Y-126010000D01*
X191809805Y-126010000D01*
X191808000Y-125444250D01*
X191712750Y-125349000D01*
X190754000Y-125349000D01*
X190500000Y-125349000D01*
X189541250Y-125349000D01*
X189446000Y-125444250D01*
X189444157Y-126022000D01*
X157071000Y-126022000D01*
X157071000Y-124422000D01*
X189444157Y-124422000D01*
X189446000Y-124999750D01*
X189541250Y-125095000D01*
X190500000Y-125095000D01*
X190500000Y-124136250D01*
X190754000Y-124136250D01*
X190754000Y-125095000D01*
X191712750Y-125095000D01*
X191808000Y-124999750D01*
X191809843Y-124422000D01*
X191802487Y-124347311D01*
X191791169Y-124310000D01*
X194167157Y-124310000D01*
X194169000Y-124937750D01*
X194264250Y-125033000D01*
X195273000Y-125033000D01*
X195273000Y-124024250D01*
X195527000Y-124024250D01*
X195527000Y-125033000D01*
X196535750Y-125033000D01*
X196631000Y-124937750D01*
X196632843Y-124310000D01*
X196625487Y-124235311D01*
X196603701Y-124163492D01*
X196568322Y-124097304D01*
X196520711Y-124039289D01*
X196462696Y-123991678D01*
X196396508Y-123956299D01*
X196324689Y-123934513D01*
X196250000Y-123927157D01*
X195622250Y-123929000D01*
X195527000Y-124024250D01*
X195273000Y-124024250D01*
X195177750Y-123929000D01*
X194550000Y-123927157D01*
X194475311Y-123934513D01*
X194403492Y-123956299D01*
X194337304Y-123991678D01*
X194279289Y-124039289D01*
X194231678Y-124097304D01*
X194196299Y-124163492D01*
X194174513Y-124235311D01*
X194167157Y-124310000D01*
X191791169Y-124310000D01*
X191780701Y-124275492D01*
X191745322Y-124209304D01*
X191697711Y-124151289D01*
X191639696Y-124103678D01*
X191573508Y-124068299D01*
X191501689Y-124046513D01*
X191427000Y-124039157D01*
X190849250Y-124041000D01*
X190754000Y-124136250D01*
X190500000Y-124136250D01*
X190404750Y-124041000D01*
X189827000Y-124039157D01*
X189752311Y-124046513D01*
X189680492Y-124068299D01*
X189614304Y-124103678D01*
X189556289Y-124151289D01*
X189508678Y-124209304D01*
X189473299Y-124275492D01*
X189451513Y-124347311D01*
X189444157Y-124422000D01*
X157071000Y-124422000D01*
X157071000Y-122928342D01*
X167090263Y-122928342D01*
X167176218Y-123101207D01*
X167388358Y-123196687D01*
X167615048Y-123248945D01*
X167847578Y-123255975D01*
X168077012Y-123217505D01*
X168294532Y-123135014D01*
X168357782Y-123101207D01*
X168443737Y-122928342D01*
X172932263Y-122928342D01*
X173018218Y-123101207D01*
X173230358Y-123196687D01*
X173457048Y-123248945D01*
X173689578Y-123255975D01*
X173919012Y-123217505D01*
X174136532Y-123135014D01*
X174199782Y-123101207D01*
X174263034Y-122974000D01*
X178268157Y-122974000D01*
X178275513Y-123048689D01*
X178297299Y-123120508D01*
X178332678Y-123186696D01*
X178380289Y-123244711D01*
X178438304Y-123292322D01*
X178504492Y-123327701D01*
X178576311Y-123349487D01*
X178651000Y-123356843D01*
X179228750Y-123355000D01*
X179324000Y-123259750D01*
X179324000Y-122301000D01*
X179578000Y-122301000D01*
X179578000Y-123259750D01*
X179673250Y-123355000D01*
X180251000Y-123356843D01*
X180325689Y-123349487D01*
X180397508Y-123327701D01*
X180463696Y-123292322D01*
X180521711Y-123244711D01*
X180569322Y-123186696D01*
X180604701Y-123120508D01*
X180626487Y-123048689D01*
X180633843Y-122974000D01*
X180632000Y-122396250D01*
X180536750Y-122301000D01*
X179578000Y-122301000D01*
X179324000Y-122301000D01*
X178365250Y-122301000D01*
X178270000Y-122396250D01*
X178268157Y-122974000D01*
X174263034Y-122974000D01*
X174285737Y-122928342D01*
X173609000Y-122251605D01*
X172932263Y-122928342D01*
X168443737Y-122928342D01*
X167767000Y-122251605D01*
X167090263Y-122928342D01*
X157071000Y-122928342D01*
X157071000Y-122152578D01*
X166583025Y-122152578D01*
X166621495Y-122382012D01*
X166703986Y-122599532D01*
X166737793Y-122662782D01*
X166910658Y-122748737D01*
X167587395Y-122072000D01*
X167946605Y-122072000D01*
X168623342Y-122748737D01*
X168796207Y-122662782D01*
X168891687Y-122450642D01*
X168943945Y-122223952D01*
X168946102Y-122152578D01*
X172425025Y-122152578D01*
X172463495Y-122382012D01*
X172545986Y-122599532D01*
X172579793Y-122662782D01*
X172752658Y-122748737D01*
X173429395Y-122072000D01*
X173788605Y-122072000D01*
X174465342Y-122748737D01*
X174638207Y-122662782D01*
X174733687Y-122450642D01*
X174785945Y-122223952D01*
X174792975Y-121991422D01*
X174754505Y-121761988D01*
X174672014Y-121544468D01*
X174638207Y-121481218D01*
X174465342Y-121395263D01*
X173788605Y-122072000D01*
X173429395Y-122072000D01*
X172752658Y-121395263D01*
X172579793Y-121481218D01*
X172484313Y-121693358D01*
X172432055Y-121920048D01*
X172425025Y-122152578D01*
X168946102Y-122152578D01*
X168950975Y-121991422D01*
X168912505Y-121761988D01*
X168830014Y-121544468D01*
X168796207Y-121481218D01*
X168623342Y-121395263D01*
X167946605Y-122072000D01*
X167587395Y-122072000D01*
X166910658Y-121395263D01*
X166737793Y-121481218D01*
X166642313Y-121693358D01*
X166590055Y-121920048D01*
X166583025Y-122152578D01*
X157071000Y-122152578D01*
X157071000Y-121215658D01*
X167090263Y-121215658D01*
X167767000Y-121892395D01*
X168443737Y-121215658D01*
X172932263Y-121215658D01*
X173609000Y-121892395D01*
X174127395Y-121374000D01*
X178268157Y-121374000D01*
X178270000Y-121951750D01*
X178365250Y-122047000D01*
X179324000Y-122047000D01*
X179324000Y-121088250D01*
X179578000Y-121088250D01*
X179578000Y-122047000D01*
X180536750Y-122047000D01*
X180632000Y-121951750D01*
X180633843Y-121374000D01*
X180626487Y-121299311D01*
X180604701Y-121227492D01*
X180569322Y-121161304D01*
X180521711Y-121103289D01*
X180463696Y-121055678D01*
X180397508Y-121020299D01*
X180325689Y-120998513D01*
X180251000Y-120991157D01*
X179673250Y-120993000D01*
X179578000Y-121088250D01*
X179324000Y-121088250D01*
X179228750Y-120993000D01*
X178651000Y-120991157D01*
X178576311Y-120998513D01*
X178504492Y-121020299D01*
X178438304Y-121055678D01*
X178380289Y-121103289D01*
X178332678Y-121161304D01*
X178297299Y-121227492D01*
X178275513Y-121299311D01*
X178268157Y-121374000D01*
X174127395Y-121374000D01*
X174285737Y-121215658D01*
X174199782Y-121042793D01*
X173987642Y-120947313D01*
X173760952Y-120895055D01*
X173528422Y-120888025D01*
X173298988Y-120926495D01*
X173081468Y-121008986D01*
X173018218Y-121042793D01*
X172932263Y-121215658D01*
X168443737Y-121215658D01*
X168357782Y-121042793D01*
X168145642Y-120947313D01*
X167918952Y-120895055D01*
X167686422Y-120888025D01*
X167456988Y-120926495D01*
X167239468Y-121008986D01*
X167176218Y-121042793D01*
X167090263Y-121215658D01*
X157071000Y-121215658D01*
X157071000Y-118772000D01*
X166584157Y-118772000D01*
X166584157Y-120372000D01*
X166591513Y-120446689D01*
X166613299Y-120518508D01*
X166648678Y-120584696D01*
X166696289Y-120642711D01*
X166754304Y-120690322D01*
X166820492Y-120725701D01*
X166892311Y-120747487D01*
X166967000Y-120754843D01*
X168567000Y-120754843D01*
X168641689Y-120747487D01*
X168713508Y-120725701D01*
X168779696Y-120690322D01*
X168837711Y-120642711D01*
X168885322Y-120584696D01*
X168920701Y-120518508D01*
X168942487Y-120446689D01*
X168949843Y-120372000D01*
X168949843Y-118772000D01*
X172426157Y-118772000D01*
X172426157Y-120372000D01*
X172433513Y-120446689D01*
X172455299Y-120518508D01*
X172490678Y-120584696D01*
X172538289Y-120642711D01*
X172596304Y-120690322D01*
X172662492Y-120725701D01*
X172734311Y-120747487D01*
X172809000Y-120754843D01*
X174409000Y-120754843D01*
X174483689Y-120747487D01*
X174555508Y-120725701D01*
X174621696Y-120690322D01*
X174679711Y-120642711D01*
X174727322Y-120584696D01*
X174762701Y-120518508D01*
X174784487Y-120446689D01*
X174791843Y-120372000D01*
X174791843Y-119557682D01*
X178270000Y-119557682D01*
X178270000Y-119790318D01*
X178315386Y-120018485D01*
X178404412Y-120233413D01*
X178533658Y-120426843D01*
X178698157Y-120591342D01*
X178891587Y-120720588D01*
X179106515Y-120809614D01*
X179334682Y-120855000D01*
X179567318Y-120855000D01*
X179795485Y-120809614D01*
X180010413Y-120720588D01*
X180203843Y-120591342D01*
X180368342Y-120426843D01*
X180497588Y-120233413D01*
X180586614Y-120018485D01*
X180632000Y-119790318D01*
X180632000Y-119774992D01*
X183705500Y-119774992D01*
X183705500Y-120001007D01*
X183724795Y-120196911D01*
X183801046Y-120448276D01*
X183924871Y-120679936D01*
X184091511Y-120882989D01*
X184294563Y-121049629D01*
X184526223Y-121173454D01*
X184777588Y-121249705D01*
X185039000Y-121275452D01*
X185300411Y-121249705D01*
X185551776Y-121173454D01*
X185783436Y-121049629D01*
X185986489Y-120882989D01*
X186153129Y-120679937D01*
X186276954Y-120448277D01*
X186309000Y-120342635D01*
X186341046Y-120448276D01*
X186464871Y-120679936D01*
X186631511Y-120882989D01*
X186834563Y-121049629D01*
X187066223Y-121173454D01*
X187317588Y-121249705D01*
X187579000Y-121275452D01*
X187840411Y-121249705D01*
X188091776Y-121173454D01*
X188323436Y-121049629D01*
X188526489Y-120882989D01*
X188693129Y-120679937D01*
X188784555Y-120508891D01*
X188783657Y-120888000D01*
X188791013Y-120962689D01*
X188812799Y-121034508D01*
X188848178Y-121100696D01*
X188895789Y-121158711D01*
X188953804Y-121206322D01*
X189019992Y-121241701D01*
X189091811Y-121263487D01*
X189166500Y-121270843D01*
X189896750Y-121269000D01*
X189992000Y-121173750D01*
X189992000Y-120015000D01*
X190246000Y-120015000D01*
X190246000Y-121173750D01*
X190341250Y-121269000D01*
X191071500Y-121270843D01*
X191146189Y-121263487D01*
X191218008Y-121241701D01*
X191284196Y-121206322D01*
X191342211Y-121158711D01*
X191389822Y-121100696D01*
X191425201Y-121034508D01*
X191446987Y-120962689D01*
X191454343Y-120888000D01*
X191452500Y-120110250D01*
X191357250Y-120015000D01*
X190246000Y-120015000D01*
X189992000Y-120015000D01*
X189972000Y-120015000D01*
X189972000Y-119761000D01*
X189992000Y-119761000D01*
X189992000Y-118602250D01*
X190246000Y-118602250D01*
X190246000Y-119761000D01*
X191357250Y-119761000D01*
X191452500Y-119665750D01*
X191454343Y-118888000D01*
X191446987Y-118813311D01*
X191425201Y-118741492D01*
X191389822Y-118675304D01*
X191342211Y-118617289D01*
X191284196Y-118569678D01*
X191218008Y-118534299D01*
X191146189Y-118512513D01*
X191071500Y-118505157D01*
X190341250Y-118507000D01*
X190246000Y-118602250D01*
X189992000Y-118602250D01*
X189896750Y-118507000D01*
X189166500Y-118505157D01*
X189091811Y-118512513D01*
X189019992Y-118534299D01*
X188953804Y-118569678D01*
X188895789Y-118617289D01*
X188848178Y-118675304D01*
X188812799Y-118741492D01*
X188791013Y-118813311D01*
X188783657Y-118888000D01*
X188784555Y-119267110D01*
X188693129Y-119096064D01*
X188526489Y-118893011D01*
X188323437Y-118726371D01*
X188091777Y-118602546D01*
X187840412Y-118526295D01*
X187579000Y-118500548D01*
X187317589Y-118526295D01*
X187066224Y-118602546D01*
X186834564Y-118726371D01*
X186631512Y-118893011D01*
X186464871Y-119096063D01*
X186341046Y-119327723D01*
X186309000Y-119433365D01*
X186276954Y-119327724D01*
X186153129Y-119096064D01*
X185986489Y-118893011D01*
X185783437Y-118726371D01*
X185551777Y-118602546D01*
X185300412Y-118526295D01*
X185039000Y-118500548D01*
X184777589Y-118526295D01*
X184526224Y-118602546D01*
X184294564Y-118726371D01*
X184091512Y-118893011D01*
X183924871Y-119096063D01*
X183801046Y-119327723D01*
X183724795Y-119579088D01*
X183705500Y-119774992D01*
X180632000Y-119774992D01*
X180632000Y-119557682D01*
X180586614Y-119329515D01*
X180497588Y-119114587D01*
X180368342Y-118921157D01*
X180203843Y-118756658D01*
X180010413Y-118627412D01*
X179795485Y-118538386D01*
X179567318Y-118493000D01*
X179334682Y-118493000D01*
X179106515Y-118538386D01*
X178891587Y-118627412D01*
X178698157Y-118756658D01*
X178533658Y-118921157D01*
X178404412Y-119114587D01*
X178315386Y-119329515D01*
X178270000Y-119557682D01*
X174791843Y-119557682D01*
X174791843Y-118772000D01*
X174784487Y-118697311D01*
X174762701Y-118625492D01*
X174727322Y-118559304D01*
X174679711Y-118501289D01*
X174621696Y-118453678D01*
X174555508Y-118418299D01*
X174483689Y-118396513D01*
X174409000Y-118389157D01*
X172809000Y-118389157D01*
X172734311Y-118396513D01*
X172662492Y-118418299D01*
X172596304Y-118453678D01*
X172538289Y-118501289D01*
X172490678Y-118559304D01*
X172455299Y-118625492D01*
X172433513Y-118697311D01*
X172426157Y-118772000D01*
X168949843Y-118772000D01*
X168942487Y-118697311D01*
X168920701Y-118625492D01*
X168885322Y-118559304D01*
X168837711Y-118501289D01*
X168779696Y-118453678D01*
X168713508Y-118418299D01*
X168641689Y-118396513D01*
X168567000Y-118389157D01*
X166967000Y-118389157D01*
X166892311Y-118396513D01*
X166820492Y-118418299D01*
X166754304Y-118453678D01*
X166696289Y-118501289D01*
X166648678Y-118559304D01*
X166613299Y-118625492D01*
X166591513Y-118697311D01*
X166584157Y-118772000D01*
X157071000Y-118772000D01*
X157071000Y-107261432D01*
X157333439Y-107261432D01*
X157407482Y-107458901D01*
X157520563Y-107633226D01*
X157665480Y-107782141D01*
X157836664Y-107899923D01*
X158027537Y-107982045D01*
X158230764Y-108025352D01*
X158397000Y-107935630D01*
X158397000Y-107099000D01*
X158651000Y-107099000D01*
X158651000Y-107935630D01*
X158817236Y-108025352D01*
X159020463Y-107982045D01*
X159211336Y-107899923D01*
X159382520Y-107782141D01*
X159527437Y-107633226D01*
X159640518Y-107458901D01*
X159714561Y-107261432D01*
X159651319Y-107099000D01*
X158651000Y-107099000D01*
X158397000Y-107099000D01*
X157396681Y-107099000D01*
X157333439Y-107261432D01*
X157071000Y-107261432D01*
X157071000Y-106931715D01*
X160432925Y-106931715D01*
X160504577Y-107120144D01*
X160609701Y-107271202D01*
X160742275Y-107398849D01*
X160897205Y-107498180D01*
X161068536Y-107565377D01*
X161249685Y-107597857D01*
X161397000Y-107502711D01*
X161397000Y-106789000D01*
X161651000Y-106789000D01*
X161651000Y-107502711D01*
X161798315Y-107597857D01*
X161979464Y-107565377D01*
X162150795Y-107498180D01*
X162305725Y-107398849D01*
X162438299Y-107271202D01*
X162543423Y-107120144D01*
X162615075Y-106931715D01*
X162550044Y-106789000D01*
X161651000Y-106789000D01*
X161397000Y-106789000D01*
X160497956Y-106789000D01*
X160432925Y-106931715D01*
X157071000Y-106931715D01*
X157071000Y-106682568D01*
X157333439Y-106682568D01*
X157396681Y-106845000D01*
X158397000Y-106845000D01*
X158397000Y-106008370D01*
X158651000Y-106008370D01*
X158651000Y-106845000D01*
X159651319Y-106845000D01*
X159714561Y-106682568D01*
X159640518Y-106485099D01*
X159580312Y-106392285D01*
X160432925Y-106392285D01*
X160497956Y-106535000D01*
X161397000Y-106535000D01*
X161397000Y-105821289D01*
X161651000Y-105821289D01*
X161651000Y-106535000D01*
X162550044Y-106535000D01*
X162615075Y-106392285D01*
X162543423Y-106203856D01*
X162438299Y-106052798D01*
X162305725Y-105925151D01*
X162150795Y-105825820D01*
X161979464Y-105758623D01*
X161798315Y-105726143D01*
X161651000Y-105821289D01*
X161397000Y-105821289D01*
X161249685Y-105726143D01*
X161068536Y-105758623D01*
X160897205Y-105825820D01*
X160742275Y-105925151D01*
X160609701Y-106052798D01*
X160504577Y-106203856D01*
X160432925Y-106392285D01*
X159580312Y-106392285D01*
X159527437Y-106310774D01*
X159382520Y-106161859D01*
X159211336Y-106044077D01*
X159020463Y-105961955D01*
X158817236Y-105918648D01*
X158651000Y-106008370D01*
X158397000Y-106008370D01*
X158230764Y-105918648D01*
X158027537Y-105961955D01*
X157836664Y-106044077D01*
X157665480Y-106161859D01*
X157520563Y-106310774D01*
X157407482Y-106485099D01*
X157333439Y-106682568D01*
X157071000Y-106682568D01*
X157071000Y-101801432D01*
X157333439Y-101801432D01*
X157407482Y-101998901D01*
X157520563Y-102173226D01*
X157665480Y-102322141D01*
X157836664Y-102439923D01*
X158027537Y-102522045D01*
X158230764Y-102565352D01*
X158397000Y-102475630D01*
X158397000Y-101639000D01*
X158651000Y-101639000D01*
X158651000Y-102475630D01*
X158817236Y-102565352D01*
X159020463Y-102522045D01*
X159211336Y-102439923D01*
X159382520Y-102322141D01*
X159527437Y-102173226D01*
X159580311Y-102091715D01*
X160432925Y-102091715D01*
X160504577Y-102280144D01*
X160609701Y-102431202D01*
X160742275Y-102558849D01*
X160897205Y-102658180D01*
X161068536Y-102725377D01*
X161249685Y-102757857D01*
X161397000Y-102662711D01*
X161397000Y-101949000D01*
X161651000Y-101949000D01*
X161651000Y-102662711D01*
X161798315Y-102757857D01*
X161979464Y-102725377D01*
X162150795Y-102658180D01*
X162305725Y-102558849D01*
X162438299Y-102431202D01*
X162543423Y-102280144D01*
X162615075Y-102091715D01*
X162550044Y-101949000D01*
X161651000Y-101949000D01*
X161397000Y-101949000D01*
X160497956Y-101949000D01*
X160432925Y-102091715D01*
X159580311Y-102091715D01*
X159640518Y-101998901D01*
X159714561Y-101801432D01*
X159651319Y-101639000D01*
X158651000Y-101639000D01*
X158397000Y-101639000D01*
X157396681Y-101639000D01*
X157333439Y-101801432D01*
X157071000Y-101801432D01*
X157071000Y-101552285D01*
X160432925Y-101552285D01*
X160497956Y-101695000D01*
X161397000Y-101695000D01*
X161397000Y-100981289D01*
X161651000Y-100981289D01*
X161651000Y-101695000D01*
X162550044Y-101695000D01*
X162615075Y-101552285D01*
X162543423Y-101363856D01*
X162438299Y-101212798D01*
X162305725Y-101085151D01*
X162150795Y-100985820D01*
X161979464Y-100918623D01*
X161798315Y-100886143D01*
X161651000Y-100981289D01*
X161397000Y-100981289D01*
X161249685Y-100886143D01*
X161068536Y-100918623D01*
X160897205Y-100985820D01*
X160742275Y-101085151D01*
X160609701Y-101212798D01*
X160504577Y-101363856D01*
X160432925Y-101552285D01*
X157071000Y-101552285D01*
X157071000Y-101222568D01*
X157333439Y-101222568D01*
X157396681Y-101385000D01*
X158397000Y-101385000D01*
X158397000Y-100548370D01*
X158651000Y-100548370D01*
X158651000Y-101385000D01*
X159651319Y-101385000D01*
X159714561Y-101222568D01*
X159640518Y-101025099D01*
X159527437Y-100850774D01*
X159382520Y-100701859D01*
X159211336Y-100584077D01*
X159020463Y-100501955D01*
X158817236Y-100458648D01*
X158651000Y-100548370D01*
X158397000Y-100548370D01*
X158230764Y-100458648D01*
X158027537Y-100501955D01*
X157836664Y-100584077D01*
X157665480Y-100701859D01*
X157520563Y-100850774D01*
X157407482Y-101025099D01*
X157333439Y-101222568D01*
X157071000Y-101222568D01*
X157071000Y-87236000D01*
X166330157Y-87236000D01*
X166330157Y-88836000D01*
X166337513Y-88910689D01*
X166359299Y-88982508D01*
X166394678Y-89048696D01*
X166442289Y-89106711D01*
X166500304Y-89154322D01*
X166566492Y-89189701D01*
X166638311Y-89211487D01*
X166713000Y-89218843D01*
X168313000Y-89218843D01*
X168387689Y-89211487D01*
X168459508Y-89189701D01*
X168525696Y-89154322D01*
X168583711Y-89106711D01*
X168631322Y-89048696D01*
X168666701Y-88982508D01*
X168688487Y-88910689D01*
X168695843Y-88836000D01*
X168695843Y-87236000D01*
X172172157Y-87236000D01*
X172172157Y-88836000D01*
X172179513Y-88910689D01*
X172201299Y-88982508D01*
X172236678Y-89048696D01*
X172284289Y-89106711D01*
X172342304Y-89154322D01*
X172408492Y-89189701D01*
X172480311Y-89211487D01*
X172555000Y-89218843D01*
X174155000Y-89218843D01*
X174229689Y-89211487D01*
X174301508Y-89189701D01*
X174367696Y-89154322D01*
X174425711Y-89106711D01*
X174473322Y-89048696D01*
X174508701Y-88982508D01*
X174530487Y-88910689D01*
X174537843Y-88836000D01*
X174537843Y-87236000D01*
X174535381Y-87211000D01*
X178014157Y-87211000D01*
X178014157Y-88811000D01*
X178021513Y-88885689D01*
X178043299Y-88957508D01*
X178078678Y-89023696D01*
X178126289Y-89081711D01*
X178184304Y-89129322D01*
X178250492Y-89164701D01*
X178322311Y-89186487D01*
X178397000Y-89193843D01*
X179997000Y-89193843D01*
X180071689Y-89186487D01*
X180143508Y-89164701D01*
X180209696Y-89129322D01*
X180267711Y-89081711D01*
X180315322Y-89023696D01*
X180350701Y-88957508D01*
X180372487Y-88885689D01*
X180379843Y-88811000D01*
X180379843Y-87211000D01*
X180372487Y-87136311D01*
X180350701Y-87064492D01*
X180315322Y-86998304D01*
X180267711Y-86940289D01*
X180209696Y-86892678D01*
X180193461Y-86884000D01*
X183703657Y-86884000D01*
X183703657Y-88884000D01*
X183711013Y-88958689D01*
X183732799Y-89030508D01*
X183768178Y-89096696D01*
X183815789Y-89154711D01*
X183873804Y-89202322D01*
X183939992Y-89237701D01*
X184011811Y-89259487D01*
X184086500Y-89266843D01*
X185991500Y-89266843D01*
X186066189Y-89259487D01*
X186138008Y-89237701D01*
X186204196Y-89202322D01*
X186262211Y-89154711D01*
X186309822Y-89096696D01*
X186345201Y-89030508D01*
X186366987Y-88958689D01*
X186374343Y-88884000D01*
X186374343Y-88493679D01*
X186486774Y-88694057D01*
X186656528Y-88892487D01*
X186861732Y-89053987D01*
X187094500Y-89172351D01*
X187245906Y-89222729D01*
X187452000Y-89163220D01*
X187452000Y-88011000D01*
X187432000Y-88011000D01*
X187432000Y-87757000D01*
X187452000Y-87757000D01*
X187452000Y-86604780D01*
X187706000Y-86604780D01*
X187706000Y-87757000D01*
X187726000Y-87757000D01*
X187726000Y-88011000D01*
X187706000Y-88011000D01*
X187706000Y-89163220D01*
X187912094Y-89222729D01*
X188063500Y-89172351D01*
X188296268Y-89053987D01*
X188501472Y-88892487D01*
X188671226Y-88694057D01*
X188799007Y-88466322D01*
X188844955Y-88325300D01*
X188881046Y-88444277D01*
X189004871Y-88675937D01*
X189171512Y-88878989D01*
X189374564Y-89045629D01*
X189606224Y-89169454D01*
X189857589Y-89245705D01*
X190119000Y-89271452D01*
X190380412Y-89245705D01*
X190631777Y-89169454D01*
X190863437Y-89045629D01*
X191066489Y-88878989D01*
X191233129Y-88675936D01*
X191356954Y-88444276D01*
X191433205Y-88192911D01*
X191452500Y-87997007D01*
X191452500Y-87770992D01*
X191433205Y-87575088D01*
X191356954Y-87323723D01*
X191233129Y-87092063D01*
X191066489Y-86889011D01*
X190863436Y-86722371D01*
X190631776Y-86598546D01*
X190380411Y-86522295D01*
X190119000Y-86496548D01*
X189857588Y-86522295D01*
X189606223Y-86598546D01*
X189374563Y-86722371D01*
X189171511Y-86889011D01*
X189004871Y-87092064D01*
X188881046Y-87323724D01*
X188844955Y-87442700D01*
X188799007Y-87301678D01*
X188671226Y-87073943D01*
X188501472Y-86875513D01*
X188296268Y-86714013D01*
X188063500Y-86595649D01*
X187912094Y-86545271D01*
X187706000Y-86604780D01*
X187452000Y-86604780D01*
X187245906Y-86545271D01*
X187094500Y-86595649D01*
X186861732Y-86714013D01*
X186656528Y-86875513D01*
X186486774Y-87073943D01*
X186374343Y-87274321D01*
X186374343Y-86884000D01*
X186366987Y-86809311D01*
X186345201Y-86737492D01*
X186309822Y-86671304D01*
X186262211Y-86613289D01*
X186204196Y-86565678D01*
X186138008Y-86530299D01*
X186066189Y-86508513D01*
X185991500Y-86501157D01*
X184086500Y-86501157D01*
X184011811Y-86508513D01*
X183939992Y-86530299D01*
X183873804Y-86565678D01*
X183815789Y-86613289D01*
X183768178Y-86671304D01*
X183732799Y-86737492D01*
X183711013Y-86809311D01*
X183703657Y-86884000D01*
X180193461Y-86884000D01*
X180143508Y-86857299D01*
X180071689Y-86835513D01*
X179997000Y-86828157D01*
X178397000Y-86828157D01*
X178322311Y-86835513D01*
X178250492Y-86857299D01*
X178184304Y-86892678D01*
X178126289Y-86940289D01*
X178078678Y-86998304D01*
X178043299Y-87064492D01*
X178021513Y-87136311D01*
X178014157Y-87211000D01*
X174535381Y-87211000D01*
X174530487Y-87161311D01*
X174508701Y-87089492D01*
X174473322Y-87023304D01*
X174425711Y-86965289D01*
X174367696Y-86917678D01*
X174301508Y-86882299D01*
X174229689Y-86860513D01*
X174155000Y-86853157D01*
X172555000Y-86853157D01*
X172480311Y-86860513D01*
X172408492Y-86882299D01*
X172342304Y-86917678D01*
X172284289Y-86965289D01*
X172236678Y-87023304D01*
X172201299Y-87089492D01*
X172179513Y-87161311D01*
X172172157Y-87236000D01*
X168695843Y-87236000D01*
X168688487Y-87161311D01*
X168666701Y-87089492D01*
X168631322Y-87023304D01*
X168583711Y-86965289D01*
X168525696Y-86917678D01*
X168459508Y-86882299D01*
X168387689Y-86860513D01*
X168313000Y-86853157D01*
X166713000Y-86853157D01*
X166638311Y-86860513D01*
X166566492Y-86882299D01*
X166500304Y-86917678D01*
X166442289Y-86965289D01*
X166394678Y-87023304D01*
X166359299Y-87089492D01*
X166337513Y-87161311D01*
X166330157Y-87236000D01*
X157071000Y-87236000D01*
X157071000Y-86392342D01*
X166836263Y-86392342D01*
X166922218Y-86565207D01*
X167134358Y-86660687D01*
X167361048Y-86712945D01*
X167593578Y-86719975D01*
X167823012Y-86681505D01*
X168040532Y-86599014D01*
X168103782Y-86565207D01*
X168189737Y-86392342D01*
X172678263Y-86392342D01*
X172764218Y-86565207D01*
X172976358Y-86660687D01*
X173203048Y-86712945D01*
X173435578Y-86719975D01*
X173665012Y-86681505D01*
X173882532Y-86599014D01*
X173945782Y-86565207D01*
X174031737Y-86392342D01*
X174006737Y-86367342D01*
X178520263Y-86367342D01*
X178606218Y-86540207D01*
X178818358Y-86635687D01*
X179045048Y-86687945D01*
X179277578Y-86694975D01*
X179507012Y-86656505D01*
X179724532Y-86574014D01*
X179787782Y-86540207D01*
X179873737Y-86367342D01*
X179197000Y-85690605D01*
X178520263Y-86367342D01*
X174006737Y-86367342D01*
X173355000Y-85715605D01*
X172678263Y-86392342D01*
X168189737Y-86392342D01*
X167513000Y-85715605D01*
X166836263Y-86392342D01*
X157071000Y-86392342D01*
X157071000Y-85616578D01*
X166329025Y-85616578D01*
X166367495Y-85846012D01*
X166449986Y-86063532D01*
X166483793Y-86126782D01*
X166656658Y-86212737D01*
X167333395Y-85536000D01*
X167692605Y-85536000D01*
X168369342Y-86212737D01*
X168542207Y-86126782D01*
X168637687Y-85914642D01*
X168689945Y-85687952D01*
X168692102Y-85616578D01*
X172171025Y-85616578D01*
X172209495Y-85846012D01*
X172291986Y-86063532D01*
X172325793Y-86126782D01*
X172498658Y-86212737D01*
X173175395Y-85536000D01*
X173534605Y-85536000D01*
X174211342Y-86212737D01*
X174384207Y-86126782D01*
X174479687Y-85914642D01*
X174531945Y-85687952D01*
X174534858Y-85591578D01*
X178013025Y-85591578D01*
X178051495Y-85821012D01*
X178133986Y-86038532D01*
X178167793Y-86101782D01*
X178340658Y-86187737D01*
X179017395Y-85511000D01*
X179376605Y-85511000D01*
X180053342Y-86187737D01*
X180226207Y-86101782D01*
X180321687Y-85889642D01*
X180373945Y-85662952D01*
X180380975Y-85430422D01*
X180342505Y-85200988D01*
X180260014Y-84983468D01*
X180226207Y-84920218D01*
X180053342Y-84834263D01*
X179376605Y-85511000D01*
X179017395Y-85511000D01*
X178340658Y-84834263D01*
X178167793Y-84920218D01*
X178072313Y-85132358D01*
X178020055Y-85359048D01*
X178013025Y-85591578D01*
X174534858Y-85591578D01*
X174538975Y-85455422D01*
X174500505Y-85225988D01*
X174418014Y-85008468D01*
X174384207Y-84945218D01*
X174211342Y-84859263D01*
X173534605Y-85536000D01*
X173175395Y-85536000D01*
X172498658Y-84859263D01*
X172325793Y-84945218D01*
X172230313Y-85157358D01*
X172178055Y-85384048D01*
X172171025Y-85616578D01*
X168692102Y-85616578D01*
X168696975Y-85455422D01*
X168658505Y-85225988D01*
X168576014Y-85008468D01*
X168542207Y-84945218D01*
X168369342Y-84859263D01*
X167692605Y-85536000D01*
X167333395Y-85536000D01*
X166656658Y-84859263D01*
X166483793Y-84945218D01*
X166388313Y-85157358D01*
X166336055Y-85384048D01*
X166329025Y-85616578D01*
X157071000Y-85616578D01*
X157071000Y-84679658D01*
X166836263Y-84679658D01*
X167513000Y-85356395D01*
X168189737Y-84679658D01*
X172678263Y-84679658D01*
X173355000Y-85356395D01*
X174031737Y-84679658D01*
X174019307Y-84654658D01*
X178520263Y-84654658D01*
X179197000Y-85331395D01*
X179873737Y-84654658D01*
X179787782Y-84481793D01*
X179575642Y-84386313D01*
X179348952Y-84334055D01*
X179116422Y-84327025D01*
X178886988Y-84365495D01*
X178669468Y-84447986D01*
X178606218Y-84481793D01*
X178520263Y-84654658D01*
X174019307Y-84654658D01*
X173945782Y-84506793D01*
X173733642Y-84411313D01*
X173506952Y-84359055D01*
X173274422Y-84352025D01*
X173044988Y-84390495D01*
X172827468Y-84472986D01*
X172764218Y-84506793D01*
X172678263Y-84679658D01*
X168189737Y-84679658D01*
X168103782Y-84506793D01*
X167891642Y-84411313D01*
X167664952Y-84359055D01*
X167432422Y-84352025D01*
X167202988Y-84390495D01*
X166985468Y-84472986D01*
X166922218Y-84506793D01*
X166836263Y-84679658D01*
X157071000Y-84679658D01*
X157071000Y-81750000D01*
X185507157Y-81750000D01*
X185507157Y-83350000D01*
X185514513Y-83424689D01*
X185536299Y-83496508D01*
X185571678Y-83562696D01*
X185619289Y-83620711D01*
X185677304Y-83668322D01*
X185743492Y-83703701D01*
X185815311Y-83725487D01*
X185890000Y-83732843D01*
X187490000Y-83732843D01*
X187564689Y-83725487D01*
X187636508Y-83703701D01*
X187702696Y-83668322D01*
X187760711Y-83620711D01*
X187808322Y-83562696D01*
X187843701Y-83496508D01*
X187865487Y-83424689D01*
X187872843Y-83350000D01*
X187872843Y-82518757D01*
X194169000Y-82518757D01*
X194169000Y-82761243D01*
X194216307Y-82999069D01*
X194309102Y-83223097D01*
X194443820Y-83424717D01*
X194615283Y-83596180D01*
X194816903Y-83730898D01*
X195040931Y-83823693D01*
X195278757Y-83871000D01*
X195521243Y-83871000D01*
X195759069Y-83823693D01*
X195983097Y-83730898D01*
X196184717Y-83596180D01*
X196356180Y-83424717D01*
X196490898Y-83223097D01*
X196583693Y-82999069D01*
X196631000Y-82761243D01*
X196631000Y-82518757D01*
X196583693Y-82280931D01*
X196490898Y-82056903D01*
X196356180Y-81855283D01*
X196184717Y-81683820D01*
X195983097Y-81549102D01*
X195759069Y-81456307D01*
X195521243Y-81409000D01*
X195278757Y-81409000D01*
X195040931Y-81456307D01*
X194816903Y-81549102D01*
X194615283Y-81683820D01*
X194443820Y-81855283D01*
X194309102Y-82056903D01*
X194216307Y-82280931D01*
X194169000Y-82518757D01*
X187872843Y-82518757D01*
X187872843Y-81750000D01*
X187865487Y-81675311D01*
X187843701Y-81603492D01*
X187808322Y-81537304D01*
X187760711Y-81479289D01*
X187702696Y-81431678D01*
X187636508Y-81396299D01*
X187564689Y-81374513D01*
X187490000Y-81367157D01*
X185890000Y-81367157D01*
X185815311Y-81374513D01*
X185743492Y-81396299D01*
X185677304Y-81431678D01*
X185619289Y-81479289D01*
X185571678Y-81537304D01*
X185536299Y-81603492D01*
X185514513Y-81675311D01*
X185507157Y-81750000D01*
X157071000Y-81750000D01*
X157071000Y-80906342D01*
X186013263Y-80906342D01*
X186099218Y-81079207D01*
X186311358Y-81174687D01*
X186538048Y-81226945D01*
X186770578Y-81233975D01*
X187000012Y-81195505D01*
X187217532Y-81113014D01*
X187280782Y-81079207D01*
X187345028Y-80950000D01*
X194167157Y-80950000D01*
X194174513Y-81024689D01*
X194196299Y-81096508D01*
X194231678Y-81162696D01*
X194279289Y-81220711D01*
X194337304Y-81268322D01*
X194403492Y-81303701D01*
X194475311Y-81325487D01*
X194550000Y-81332843D01*
X195177750Y-81331000D01*
X195273000Y-81235750D01*
X195273000Y-80227000D01*
X195527000Y-80227000D01*
X195527000Y-81235750D01*
X195622250Y-81331000D01*
X196250000Y-81332843D01*
X196324689Y-81325487D01*
X196396508Y-81303701D01*
X196462696Y-81268322D01*
X196520711Y-81220711D01*
X196568322Y-81162696D01*
X196603701Y-81096508D01*
X196625487Y-81024689D01*
X196632843Y-80950000D01*
X196631000Y-80322250D01*
X196535750Y-80227000D01*
X195527000Y-80227000D01*
X195273000Y-80227000D01*
X194264250Y-80227000D01*
X194169000Y-80322250D01*
X194167157Y-80950000D01*
X187345028Y-80950000D01*
X187366737Y-80906342D01*
X186690000Y-80229605D01*
X186013263Y-80906342D01*
X157071000Y-80906342D01*
X157071000Y-80130578D01*
X185506025Y-80130578D01*
X185544495Y-80360012D01*
X185626986Y-80577532D01*
X185660793Y-80640782D01*
X185833658Y-80726737D01*
X186510395Y-80050000D01*
X186869605Y-80050000D01*
X187546342Y-80726737D01*
X187719207Y-80640782D01*
X187814687Y-80428642D01*
X187866945Y-80201952D01*
X187873975Y-79969422D01*
X187835505Y-79739988D01*
X187753014Y-79522468D01*
X187719207Y-79459218D01*
X187546342Y-79373263D01*
X186869605Y-80050000D01*
X186510395Y-80050000D01*
X185833658Y-79373263D01*
X185660793Y-79459218D01*
X185565313Y-79671358D01*
X185513055Y-79898048D01*
X185506025Y-80130578D01*
X157071000Y-80130578D01*
X157071000Y-79193658D01*
X186013263Y-79193658D01*
X186690000Y-79870395D01*
X187310395Y-79250000D01*
X194167157Y-79250000D01*
X194169000Y-79877750D01*
X194264250Y-79973000D01*
X195273000Y-79973000D01*
X195273000Y-78964250D01*
X195527000Y-78964250D01*
X195527000Y-79973000D01*
X196535750Y-79973000D01*
X196631000Y-79877750D01*
X196632843Y-79250000D01*
X196625487Y-79175311D01*
X196603701Y-79103492D01*
X196568322Y-79037304D01*
X196520711Y-78979289D01*
X196462696Y-78931678D01*
X196396508Y-78896299D01*
X196324689Y-78874513D01*
X196250000Y-78867157D01*
X195622250Y-78869000D01*
X195527000Y-78964250D01*
X195273000Y-78964250D01*
X195177750Y-78869000D01*
X194550000Y-78867157D01*
X194475311Y-78874513D01*
X194403492Y-78896299D01*
X194337304Y-78931678D01*
X194279289Y-78979289D01*
X194231678Y-79037304D01*
X194196299Y-79103492D01*
X194174513Y-79175311D01*
X194167157Y-79250000D01*
X187310395Y-79250000D01*
X187366737Y-79193658D01*
X187280782Y-79020793D01*
X187068642Y-78925313D01*
X186841952Y-78873055D01*
X186609422Y-78866025D01*
X186379988Y-78904495D01*
X186162468Y-78986986D01*
X186099218Y-79020793D01*
X186013263Y-79193658D01*
X157071000Y-79193658D01*
X157071000Y-78449427D01*
X196952001Y-78510572D01*
G04 #@! TA.AperFunction,Conductor*
D20*
G36*
X196952001Y-78510572D02*
G01*
X196952000Y-84176000D01*
X192926696Y-84176000D01*
X192913000Y-84174651D01*
X192899304Y-84176000D01*
X192858307Y-84180038D01*
X192805715Y-84195991D01*
X192757246Y-84221898D01*
X192714763Y-84256763D01*
X192679898Y-84299246D01*
X192653991Y-84347715D01*
X192638038Y-84400307D01*
X192632651Y-84455000D01*
X192634001Y-84468706D01*
X192634000Y-123303304D01*
X192632651Y-123317000D01*
X192638038Y-123371693D01*
X192653991Y-123424285D01*
X192679898Y-123472754D01*
X192714763Y-123515237D01*
X192757246Y-123550102D01*
X192805715Y-123576009D01*
X192858307Y-123591962D01*
X192913000Y-123597349D01*
X192926696Y-123596000D01*
X197079000Y-123596000D01*
X197079001Y-129261000D01*
X157071000Y-129261000D01*
X157071000Y-127605682D01*
X189446000Y-127605682D01*
X189446000Y-127838318D01*
X189491386Y-128066485D01*
X189580412Y-128281413D01*
X189709658Y-128474843D01*
X189874157Y-128639342D01*
X190067587Y-128768588D01*
X190282515Y-128857614D01*
X190510682Y-128903000D01*
X190743318Y-128903000D01*
X190971485Y-128857614D01*
X191186413Y-128768588D01*
X191379843Y-128639342D01*
X191544342Y-128474843D01*
X191673588Y-128281413D01*
X191762614Y-128066485D01*
X191808000Y-127838318D01*
X191808000Y-127605682D01*
X191802645Y-127578757D01*
X194169000Y-127578757D01*
X194169000Y-127821243D01*
X194216307Y-128059069D01*
X194309102Y-128283097D01*
X194443820Y-128484717D01*
X194615283Y-128656180D01*
X194816903Y-128790898D01*
X195040931Y-128883693D01*
X195278757Y-128931000D01*
X195521243Y-128931000D01*
X195759069Y-128883693D01*
X195983097Y-128790898D01*
X196184717Y-128656180D01*
X196356180Y-128484717D01*
X196490898Y-128283097D01*
X196583693Y-128059069D01*
X196631000Y-127821243D01*
X196631000Y-127578757D01*
X196583693Y-127340931D01*
X196490898Y-127116903D01*
X196356180Y-126915283D01*
X196184717Y-126743820D01*
X195983097Y-126609102D01*
X195759069Y-126516307D01*
X195521243Y-126469000D01*
X195278757Y-126469000D01*
X195040931Y-126516307D01*
X194816903Y-126609102D01*
X194615283Y-126743820D01*
X194443820Y-126915283D01*
X194309102Y-127116903D01*
X194216307Y-127340931D01*
X194169000Y-127578757D01*
X191802645Y-127578757D01*
X191762614Y-127377515D01*
X191673588Y-127162587D01*
X191544342Y-126969157D01*
X191379843Y-126804658D01*
X191186413Y-126675412D01*
X190971485Y-126586386D01*
X190743318Y-126541000D01*
X190510682Y-126541000D01*
X190282515Y-126586386D01*
X190067587Y-126675412D01*
X189874157Y-126804658D01*
X189709658Y-126969157D01*
X189580412Y-127162587D01*
X189491386Y-127377515D01*
X189446000Y-127605682D01*
X157071000Y-127605682D01*
X157071000Y-126022000D01*
X189444157Y-126022000D01*
X189451513Y-126096689D01*
X189473299Y-126168508D01*
X189508678Y-126234696D01*
X189556289Y-126292711D01*
X189614304Y-126340322D01*
X189680492Y-126375701D01*
X189752311Y-126397487D01*
X189827000Y-126404843D01*
X190404750Y-126403000D01*
X190500000Y-126307750D01*
X190500000Y-125349000D01*
X190754000Y-125349000D01*
X190754000Y-126307750D01*
X190849250Y-126403000D01*
X191427000Y-126404843D01*
X191501689Y-126397487D01*
X191573508Y-126375701D01*
X191639696Y-126340322D01*
X191697711Y-126292711D01*
X191745322Y-126234696D01*
X191780701Y-126168508D01*
X191802487Y-126096689D01*
X191809843Y-126022000D01*
X191809805Y-126010000D01*
X194167157Y-126010000D01*
X194174513Y-126084689D01*
X194196299Y-126156508D01*
X194231678Y-126222696D01*
X194279289Y-126280711D01*
X194337304Y-126328322D01*
X194403492Y-126363701D01*
X194475311Y-126385487D01*
X194550000Y-126392843D01*
X195177750Y-126391000D01*
X195273000Y-126295750D01*
X195273000Y-125287000D01*
X195527000Y-125287000D01*
X195527000Y-126295750D01*
X195622250Y-126391000D01*
X196250000Y-126392843D01*
X196324689Y-126385487D01*
X196396508Y-126363701D01*
X196462696Y-126328322D01*
X196520711Y-126280711D01*
X196568322Y-126222696D01*
X196603701Y-126156508D01*
X196625487Y-126084689D01*
X196632843Y-126010000D01*
X196631000Y-125382250D01*
X196535750Y-125287000D01*
X195527000Y-125287000D01*
X195273000Y-125287000D01*
X194264250Y-125287000D01*
X194169000Y-125382250D01*
X194167157Y-126010000D01*
X191809805Y-126010000D01*
X191808000Y-125444250D01*
X191712750Y-125349000D01*
X190754000Y-125349000D01*
X190500000Y-125349000D01*
X189541250Y-125349000D01*
X189446000Y-125444250D01*
X189444157Y-126022000D01*
X157071000Y-126022000D01*
X157071000Y-124422000D01*
X189444157Y-124422000D01*
X189446000Y-124999750D01*
X189541250Y-125095000D01*
X190500000Y-125095000D01*
X190500000Y-124136250D01*
X190754000Y-124136250D01*
X190754000Y-125095000D01*
X191712750Y-125095000D01*
X191808000Y-124999750D01*
X191809843Y-124422000D01*
X191802487Y-124347311D01*
X191791169Y-124310000D01*
X194167157Y-124310000D01*
X194169000Y-124937750D01*
X194264250Y-125033000D01*
X195273000Y-125033000D01*
X195273000Y-124024250D01*
X195527000Y-124024250D01*
X195527000Y-125033000D01*
X196535750Y-125033000D01*
X196631000Y-124937750D01*
X196632843Y-124310000D01*
X196625487Y-124235311D01*
X196603701Y-124163492D01*
X196568322Y-124097304D01*
X196520711Y-124039289D01*
X196462696Y-123991678D01*
X196396508Y-123956299D01*
X196324689Y-123934513D01*
X196250000Y-123927157D01*
X195622250Y-123929000D01*
X195527000Y-124024250D01*
X195273000Y-124024250D01*
X195177750Y-123929000D01*
X194550000Y-123927157D01*
X194475311Y-123934513D01*
X194403492Y-123956299D01*
X194337304Y-123991678D01*
X194279289Y-124039289D01*
X194231678Y-124097304D01*
X194196299Y-124163492D01*
X194174513Y-124235311D01*
X194167157Y-124310000D01*
X191791169Y-124310000D01*
X191780701Y-124275492D01*
X191745322Y-124209304D01*
X191697711Y-124151289D01*
X191639696Y-124103678D01*
X191573508Y-124068299D01*
X191501689Y-124046513D01*
X191427000Y-124039157D01*
X190849250Y-124041000D01*
X190754000Y-124136250D01*
X190500000Y-124136250D01*
X190404750Y-124041000D01*
X189827000Y-124039157D01*
X189752311Y-124046513D01*
X189680492Y-124068299D01*
X189614304Y-124103678D01*
X189556289Y-124151289D01*
X189508678Y-124209304D01*
X189473299Y-124275492D01*
X189451513Y-124347311D01*
X189444157Y-124422000D01*
X157071000Y-124422000D01*
X157071000Y-122928342D01*
X167090263Y-122928342D01*
X167176218Y-123101207D01*
X167388358Y-123196687D01*
X167615048Y-123248945D01*
X167847578Y-123255975D01*
X168077012Y-123217505D01*
X168294532Y-123135014D01*
X168357782Y-123101207D01*
X168443737Y-122928342D01*
X172932263Y-122928342D01*
X173018218Y-123101207D01*
X173230358Y-123196687D01*
X173457048Y-123248945D01*
X173689578Y-123255975D01*
X173919012Y-123217505D01*
X174136532Y-123135014D01*
X174199782Y-123101207D01*
X174263034Y-122974000D01*
X178268157Y-122974000D01*
X178275513Y-123048689D01*
X178297299Y-123120508D01*
X178332678Y-123186696D01*
X178380289Y-123244711D01*
X178438304Y-123292322D01*
X178504492Y-123327701D01*
X178576311Y-123349487D01*
X178651000Y-123356843D01*
X179228750Y-123355000D01*
X179324000Y-123259750D01*
X179324000Y-122301000D01*
X179578000Y-122301000D01*
X179578000Y-123259750D01*
X179673250Y-123355000D01*
X180251000Y-123356843D01*
X180325689Y-123349487D01*
X180397508Y-123327701D01*
X180463696Y-123292322D01*
X180521711Y-123244711D01*
X180569322Y-123186696D01*
X180604701Y-123120508D01*
X180626487Y-123048689D01*
X180633843Y-122974000D01*
X180632000Y-122396250D01*
X180536750Y-122301000D01*
X179578000Y-122301000D01*
X179324000Y-122301000D01*
X178365250Y-122301000D01*
X178270000Y-122396250D01*
X178268157Y-122974000D01*
X174263034Y-122974000D01*
X174285737Y-122928342D01*
X173609000Y-122251605D01*
X172932263Y-122928342D01*
X168443737Y-122928342D01*
X167767000Y-122251605D01*
X167090263Y-122928342D01*
X157071000Y-122928342D01*
X157071000Y-122152578D01*
X166583025Y-122152578D01*
X166621495Y-122382012D01*
X166703986Y-122599532D01*
X166737793Y-122662782D01*
X166910658Y-122748737D01*
X167587395Y-122072000D01*
X167946605Y-122072000D01*
X168623342Y-122748737D01*
X168796207Y-122662782D01*
X168891687Y-122450642D01*
X168943945Y-122223952D01*
X168946102Y-122152578D01*
X172425025Y-122152578D01*
X172463495Y-122382012D01*
X172545986Y-122599532D01*
X172579793Y-122662782D01*
X172752658Y-122748737D01*
X173429395Y-122072000D01*
X173788605Y-122072000D01*
X174465342Y-122748737D01*
X174638207Y-122662782D01*
X174733687Y-122450642D01*
X174785945Y-122223952D01*
X174792975Y-121991422D01*
X174754505Y-121761988D01*
X174672014Y-121544468D01*
X174638207Y-121481218D01*
X174465342Y-121395263D01*
X173788605Y-122072000D01*
X173429395Y-122072000D01*
X172752658Y-121395263D01*
X172579793Y-121481218D01*
X172484313Y-121693358D01*
X172432055Y-121920048D01*
X172425025Y-122152578D01*
X168946102Y-122152578D01*
X168950975Y-121991422D01*
X168912505Y-121761988D01*
X168830014Y-121544468D01*
X168796207Y-121481218D01*
X168623342Y-121395263D01*
X167946605Y-122072000D01*
X167587395Y-122072000D01*
X166910658Y-121395263D01*
X166737793Y-121481218D01*
X166642313Y-121693358D01*
X166590055Y-121920048D01*
X166583025Y-122152578D01*
X157071000Y-122152578D01*
X157071000Y-121215658D01*
X167090263Y-121215658D01*
X167767000Y-121892395D01*
X168443737Y-121215658D01*
X172932263Y-121215658D01*
X173609000Y-121892395D01*
X174127395Y-121374000D01*
X178268157Y-121374000D01*
X178270000Y-121951750D01*
X178365250Y-122047000D01*
X179324000Y-122047000D01*
X179324000Y-121088250D01*
X179578000Y-121088250D01*
X179578000Y-122047000D01*
X180536750Y-122047000D01*
X180632000Y-121951750D01*
X180633843Y-121374000D01*
X180626487Y-121299311D01*
X180604701Y-121227492D01*
X180569322Y-121161304D01*
X180521711Y-121103289D01*
X180463696Y-121055678D01*
X180397508Y-121020299D01*
X180325689Y-120998513D01*
X180251000Y-120991157D01*
X179673250Y-120993000D01*
X179578000Y-121088250D01*
X179324000Y-121088250D01*
X179228750Y-120993000D01*
X178651000Y-120991157D01*
X178576311Y-120998513D01*
X178504492Y-121020299D01*
X178438304Y-121055678D01*
X178380289Y-121103289D01*
X178332678Y-121161304D01*
X178297299Y-121227492D01*
X178275513Y-121299311D01*
X178268157Y-121374000D01*
X174127395Y-121374000D01*
X174285737Y-121215658D01*
X174199782Y-121042793D01*
X173987642Y-120947313D01*
X173760952Y-120895055D01*
X173528422Y-120888025D01*
X173298988Y-120926495D01*
X173081468Y-121008986D01*
X173018218Y-121042793D01*
X172932263Y-121215658D01*
X168443737Y-121215658D01*
X168357782Y-121042793D01*
X168145642Y-120947313D01*
X167918952Y-120895055D01*
X167686422Y-120888025D01*
X167456988Y-120926495D01*
X167239468Y-121008986D01*
X167176218Y-121042793D01*
X167090263Y-121215658D01*
X157071000Y-121215658D01*
X157071000Y-118772000D01*
X166584157Y-118772000D01*
X166584157Y-120372000D01*
X166591513Y-120446689D01*
X166613299Y-120518508D01*
X166648678Y-120584696D01*
X166696289Y-120642711D01*
X166754304Y-120690322D01*
X166820492Y-120725701D01*
X166892311Y-120747487D01*
X166967000Y-120754843D01*
X168567000Y-120754843D01*
X168641689Y-120747487D01*
X168713508Y-120725701D01*
X168779696Y-120690322D01*
X168837711Y-120642711D01*
X168885322Y-120584696D01*
X168920701Y-120518508D01*
X168942487Y-120446689D01*
X168949843Y-120372000D01*
X168949843Y-118772000D01*
X172426157Y-118772000D01*
X172426157Y-120372000D01*
X172433513Y-120446689D01*
X172455299Y-120518508D01*
X172490678Y-120584696D01*
X172538289Y-120642711D01*
X172596304Y-120690322D01*
X172662492Y-120725701D01*
X172734311Y-120747487D01*
X172809000Y-120754843D01*
X174409000Y-120754843D01*
X174483689Y-120747487D01*
X174555508Y-120725701D01*
X174621696Y-120690322D01*
X174679711Y-120642711D01*
X174727322Y-120584696D01*
X174762701Y-120518508D01*
X174784487Y-120446689D01*
X174791843Y-120372000D01*
X174791843Y-119557682D01*
X178270000Y-119557682D01*
X178270000Y-119790318D01*
X178315386Y-120018485D01*
X178404412Y-120233413D01*
X178533658Y-120426843D01*
X178698157Y-120591342D01*
X178891587Y-120720588D01*
X179106515Y-120809614D01*
X179334682Y-120855000D01*
X179567318Y-120855000D01*
X179795485Y-120809614D01*
X180010413Y-120720588D01*
X180203843Y-120591342D01*
X180368342Y-120426843D01*
X180497588Y-120233413D01*
X180586614Y-120018485D01*
X180632000Y-119790318D01*
X180632000Y-119774992D01*
X183705500Y-119774992D01*
X183705500Y-120001007D01*
X183724795Y-120196911D01*
X183801046Y-120448276D01*
X183924871Y-120679936D01*
X184091511Y-120882989D01*
X184294563Y-121049629D01*
X184526223Y-121173454D01*
X184777588Y-121249705D01*
X185039000Y-121275452D01*
X185300411Y-121249705D01*
X185551776Y-121173454D01*
X185783436Y-121049629D01*
X185986489Y-120882989D01*
X186153129Y-120679937D01*
X186276954Y-120448277D01*
X186309000Y-120342635D01*
X186341046Y-120448276D01*
X186464871Y-120679936D01*
X186631511Y-120882989D01*
X186834563Y-121049629D01*
X187066223Y-121173454D01*
X187317588Y-121249705D01*
X187579000Y-121275452D01*
X187840411Y-121249705D01*
X188091776Y-121173454D01*
X188323436Y-121049629D01*
X188526489Y-120882989D01*
X188693129Y-120679937D01*
X188784555Y-120508891D01*
X188783657Y-120888000D01*
X188791013Y-120962689D01*
X188812799Y-121034508D01*
X188848178Y-121100696D01*
X188895789Y-121158711D01*
X188953804Y-121206322D01*
X189019992Y-121241701D01*
X189091811Y-121263487D01*
X189166500Y-121270843D01*
X189896750Y-121269000D01*
X189992000Y-121173750D01*
X189992000Y-120015000D01*
X190246000Y-120015000D01*
X190246000Y-121173750D01*
X190341250Y-121269000D01*
X191071500Y-121270843D01*
X191146189Y-121263487D01*
X191218008Y-121241701D01*
X191284196Y-121206322D01*
X191342211Y-121158711D01*
X191389822Y-121100696D01*
X191425201Y-121034508D01*
X191446987Y-120962689D01*
X191454343Y-120888000D01*
X191452500Y-120110250D01*
X191357250Y-120015000D01*
X190246000Y-120015000D01*
X189992000Y-120015000D01*
X189972000Y-120015000D01*
X189972000Y-119761000D01*
X189992000Y-119761000D01*
X189992000Y-118602250D01*
X190246000Y-118602250D01*
X190246000Y-119761000D01*
X191357250Y-119761000D01*
X191452500Y-119665750D01*
X191454343Y-118888000D01*
X191446987Y-118813311D01*
X191425201Y-118741492D01*
X191389822Y-118675304D01*
X191342211Y-118617289D01*
X191284196Y-118569678D01*
X191218008Y-118534299D01*
X191146189Y-118512513D01*
X191071500Y-118505157D01*
X190341250Y-118507000D01*
X190246000Y-118602250D01*
X189992000Y-118602250D01*
X189896750Y-118507000D01*
X189166500Y-118505157D01*
X189091811Y-118512513D01*
X189019992Y-118534299D01*
X188953804Y-118569678D01*
X188895789Y-118617289D01*
X188848178Y-118675304D01*
X188812799Y-118741492D01*
X188791013Y-118813311D01*
X188783657Y-118888000D01*
X188784555Y-119267110D01*
X188693129Y-119096064D01*
X188526489Y-118893011D01*
X188323437Y-118726371D01*
X188091777Y-118602546D01*
X187840412Y-118526295D01*
X187579000Y-118500548D01*
X187317589Y-118526295D01*
X187066224Y-118602546D01*
X186834564Y-118726371D01*
X186631512Y-118893011D01*
X186464871Y-119096063D01*
X186341046Y-119327723D01*
X186309000Y-119433365D01*
X186276954Y-119327724D01*
X186153129Y-119096064D01*
X185986489Y-118893011D01*
X185783437Y-118726371D01*
X185551777Y-118602546D01*
X185300412Y-118526295D01*
X185039000Y-118500548D01*
X184777589Y-118526295D01*
X184526224Y-118602546D01*
X184294564Y-118726371D01*
X184091512Y-118893011D01*
X183924871Y-119096063D01*
X183801046Y-119327723D01*
X183724795Y-119579088D01*
X183705500Y-119774992D01*
X180632000Y-119774992D01*
X180632000Y-119557682D01*
X180586614Y-119329515D01*
X180497588Y-119114587D01*
X180368342Y-118921157D01*
X180203843Y-118756658D01*
X180010413Y-118627412D01*
X179795485Y-118538386D01*
X179567318Y-118493000D01*
X179334682Y-118493000D01*
X179106515Y-118538386D01*
X178891587Y-118627412D01*
X178698157Y-118756658D01*
X178533658Y-118921157D01*
X178404412Y-119114587D01*
X178315386Y-119329515D01*
X178270000Y-119557682D01*
X174791843Y-119557682D01*
X174791843Y-118772000D01*
X174784487Y-118697311D01*
X174762701Y-118625492D01*
X174727322Y-118559304D01*
X174679711Y-118501289D01*
X174621696Y-118453678D01*
X174555508Y-118418299D01*
X174483689Y-118396513D01*
X174409000Y-118389157D01*
X172809000Y-118389157D01*
X172734311Y-118396513D01*
X172662492Y-118418299D01*
X172596304Y-118453678D01*
X172538289Y-118501289D01*
X172490678Y-118559304D01*
X172455299Y-118625492D01*
X172433513Y-118697311D01*
X172426157Y-118772000D01*
X168949843Y-118772000D01*
X168942487Y-118697311D01*
X168920701Y-118625492D01*
X168885322Y-118559304D01*
X168837711Y-118501289D01*
X168779696Y-118453678D01*
X168713508Y-118418299D01*
X168641689Y-118396513D01*
X168567000Y-118389157D01*
X166967000Y-118389157D01*
X166892311Y-118396513D01*
X166820492Y-118418299D01*
X166754304Y-118453678D01*
X166696289Y-118501289D01*
X166648678Y-118559304D01*
X166613299Y-118625492D01*
X166591513Y-118697311D01*
X166584157Y-118772000D01*
X157071000Y-118772000D01*
X157071000Y-107261432D01*
X157333439Y-107261432D01*
X157407482Y-107458901D01*
X157520563Y-107633226D01*
X157665480Y-107782141D01*
X157836664Y-107899923D01*
X158027537Y-107982045D01*
X158230764Y-108025352D01*
X158397000Y-107935630D01*
X158397000Y-107099000D01*
X158651000Y-107099000D01*
X158651000Y-107935630D01*
X158817236Y-108025352D01*
X159020463Y-107982045D01*
X159211336Y-107899923D01*
X159382520Y-107782141D01*
X159527437Y-107633226D01*
X159640518Y-107458901D01*
X159714561Y-107261432D01*
X159651319Y-107099000D01*
X158651000Y-107099000D01*
X158397000Y-107099000D01*
X157396681Y-107099000D01*
X157333439Y-107261432D01*
X157071000Y-107261432D01*
X157071000Y-106931715D01*
X160432925Y-106931715D01*
X160504577Y-107120144D01*
X160609701Y-107271202D01*
X160742275Y-107398849D01*
X160897205Y-107498180D01*
X161068536Y-107565377D01*
X161249685Y-107597857D01*
X161397000Y-107502711D01*
X161397000Y-106789000D01*
X161651000Y-106789000D01*
X161651000Y-107502711D01*
X161798315Y-107597857D01*
X161979464Y-107565377D01*
X162150795Y-107498180D01*
X162305725Y-107398849D01*
X162438299Y-107271202D01*
X162543423Y-107120144D01*
X162615075Y-106931715D01*
X162550044Y-106789000D01*
X161651000Y-106789000D01*
X161397000Y-106789000D01*
X160497956Y-106789000D01*
X160432925Y-106931715D01*
X157071000Y-106931715D01*
X157071000Y-106682568D01*
X157333439Y-106682568D01*
X157396681Y-106845000D01*
X158397000Y-106845000D01*
X158397000Y-106008370D01*
X158651000Y-106008370D01*
X158651000Y-106845000D01*
X159651319Y-106845000D01*
X159714561Y-106682568D01*
X159640518Y-106485099D01*
X159580312Y-106392285D01*
X160432925Y-106392285D01*
X160497956Y-106535000D01*
X161397000Y-106535000D01*
X161397000Y-105821289D01*
X161651000Y-105821289D01*
X161651000Y-106535000D01*
X162550044Y-106535000D01*
X162615075Y-106392285D01*
X162543423Y-106203856D01*
X162438299Y-106052798D01*
X162305725Y-105925151D01*
X162150795Y-105825820D01*
X161979464Y-105758623D01*
X161798315Y-105726143D01*
X161651000Y-105821289D01*
X161397000Y-105821289D01*
X161249685Y-105726143D01*
X161068536Y-105758623D01*
X160897205Y-105825820D01*
X160742275Y-105925151D01*
X160609701Y-106052798D01*
X160504577Y-106203856D01*
X160432925Y-106392285D01*
X159580312Y-106392285D01*
X159527437Y-106310774D01*
X159382520Y-106161859D01*
X159211336Y-106044077D01*
X159020463Y-105961955D01*
X158817236Y-105918648D01*
X158651000Y-106008370D01*
X158397000Y-106008370D01*
X158230764Y-105918648D01*
X158027537Y-105961955D01*
X157836664Y-106044077D01*
X157665480Y-106161859D01*
X157520563Y-106310774D01*
X157407482Y-106485099D01*
X157333439Y-106682568D01*
X157071000Y-106682568D01*
X157071000Y-101801432D01*
X157333439Y-101801432D01*
X157407482Y-101998901D01*
X157520563Y-102173226D01*
X157665480Y-102322141D01*
X157836664Y-102439923D01*
X158027537Y-102522045D01*
X158230764Y-102565352D01*
X158397000Y-102475630D01*
X158397000Y-101639000D01*
X158651000Y-101639000D01*
X158651000Y-102475630D01*
X158817236Y-102565352D01*
X159020463Y-102522045D01*
X159211336Y-102439923D01*
X159382520Y-102322141D01*
X159527437Y-102173226D01*
X159580311Y-102091715D01*
X160432925Y-102091715D01*
X160504577Y-102280144D01*
X160609701Y-102431202D01*
X160742275Y-102558849D01*
X160897205Y-102658180D01*
X161068536Y-102725377D01*
X161249685Y-102757857D01*
X161397000Y-102662711D01*
X161397000Y-101949000D01*
X161651000Y-101949000D01*
X161651000Y-102662711D01*
X161798315Y-102757857D01*
X161979464Y-102725377D01*
X162150795Y-102658180D01*
X162305725Y-102558849D01*
X162438299Y-102431202D01*
X162543423Y-102280144D01*
X162615075Y-102091715D01*
X162550044Y-101949000D01*
X161651000Y-101949000D01*
X161397000Y-101949000D01*
X160497956Y-101949000D01*
X160432925Y-102091715D01*
X159580311Y-102091715D01*
X159640518Y-101998901D01*
X159714561Y-101801432D01*
X159651319Y-101639000D01*
X158651000Y-101639000D01*
X158397000Y-101639000D01*
X157396681Y-101639000D01*
X157333439Y-101801432D01*
X157071000Y-101801432D01*
X157071000Y-101552285D01*
X160432925Y-101552285D01*
X160497956Y-101695000D01*
X161397000Y-101695000D01*
X161397000Y-100981289D01*
X161651000Y-100981289D01*
X161651000Y-101695000D01*
X162550044Y-101695000D01*
X162615075Y-101552285D01*
X162543423Y-101363856D01*
X162438299Y-101212798D01*
X162305725Y-101085151D01*
X162150795Y-100985820D01*
X161979464Y-100918623D01*
X161798315Y-100886143D01*
X161651000Y-100981289D01*
X161397000Y-100981289D01*
X161249685Y-100886143D01*
X161068536Y-100918623D01*
X160897205Y-100985820D01*
X160742275Y-101085151D01*
X160609701Y-101212798D01*
X160504577Y-101363856D01*
X160432925Y-101552285D01*
X157071000Y-101552285D01*
X157071000Y-101222568D01*
X157333439Y-101222568D01*
X157396681Y-101385000D01*
X158397000Y-101385000D01*
X158397000Y-100548370D01*
X158651000Y-100548370D01*
X158651000Y-101385000D01*
X159651319Y-101385000D01*
X159714561Y-101222568D01*
X159640518Y-101025099D01*
X159527437Y-100850774D01*
X159382520Y-100701859D01*
X159211336Y-100584077D01*
X159020463Y-100501955D01*
X158817236Y-100458648D01*
X158651000Y-100548370D01*
X158397000Y-100548370D01*
X158230764Y-100458648D01*
X158027537Y-100501955D01*
X157836664Y-100584077D01*
X157665480Y-100701859D01*
X157520563Y-100850774D01*
X157407482Y-101025099D01*
X157333439Y-101222568D01*
X157071000Y-101222568D01*
X157071000Y-87236000D01*
X166330157Y-87236000D01*
X166330157Y-88836000D01*
X166337513Y-88910689D01*
X166359299Y-88982508D01*
X166394678Y-89048696D01*
X166442289Y-89106711D01*
X166500304Y-89154322D01*
X166566492Y-89189701D01*
X166638311Y-89211487D01*
X166713000Y-89218843D01*
X168313000Y-89218843D01*
X168387689Y-89211487D01*
X168459508Y-89189701D01*
X168525696Y-89154322D01*
X168583711Y-89106711D01*
X168631322Y-89048696D01*
X168666701Y-88982508D01*
X168688487Y-88910689D01*
X168695843Y-88836000D01*
X168695843Y-87236000D01*
X172172157Y-87236000D01*
X172172157Y-88836000D01*
X172179513Y-88910689D01*
X172201299Y-88982508D01*
X172236678Y-89048696D01*
X172284289Y-89106711D01*
X172342304Y-89154322D01*
X172408492Y-89189701D01*
X172480311Y-89211487D01*
X172555000Y-89218843D01*
X174155000Y-89218843D01*
X174229689Y-89211487D01*
X174301508Y-89189701D01*
X174367696Y-89154322D01*
X174425711Y-89106711D01*
X174473322Y-89048696D01*
X174508701Y-88982508D01*
X174530487Y-88910689D01*
X174537843Y-88836000D01*
X174537843Y-87236000D01*
X174535381Y-87211000D01*
X178014157Y-87211000D01*
X178014157Y-88811000D01*
X178021513Y-88885689D01*
X178043299Y-88957508D01*
X178078678Y-89023696D01*
X178126289Y-89081711D01*
X178184304Y-89129322D01*
X178250492Y-89164701D01*
X178322311Y-89186487D01*
X178397000Y-89193843D01*
X179997000Y-89193843D01*
X180071689Y-89186487D01*
X180143508Y-89164701D01*
X180209696Y-89129322D01*
X180267711Y-89081711D01*
X180315322Y-89023696D01*
X180350701Y-88957508D01*
X180372487Y-88885689D01*
X180379843Y-88811000D01*
X180379843Y-87211000D01*
X180372487Y-87136311D01*
X180350701Y-87064492D01*
X180315322Y-86998304D01*
X180267711Y-86940289D01*
X180209696Y-86892678D01*
X180193461Y-86884000D01*
X183703657Y-86884000D01*
X183703657Y-88884000D01*
X183711013Y-88958689D01*
X183732799Y-89030508D01*
X183768178Y-89096696D01*
X183815789Y-89154711D01*
X183873804Y-89202322D01*
X183939992Y-89237701D01*
X184011811Y-89259487D01*
X184086500Y-89266843D01*
X185991500Y-89266843D01*
X186066189Y-89259487D01*
X186138008Y-89237701D01*
X186204196Y-89202322D01*
X186262211Y-89154711D01*
X186309822Y-89096696D01*
X186345201Y-89030508D01*
X186366987Y-88958689D01*
X186374343Y-88884000D01*
X186374343Y-88493679D01*
X186486774Y-88694057D01*
X186656528Y-88892487D01*
X186861732Y-89053987D01*
X187094500Y-89172351D01*
X187245906Y-89222729D01*
X187452000Y-89163220D01*
X187452000Y-88011000D01*
X187432000Y-88011000D01*
X187432000Y-87757000D01*
X187452000Y-87757000D01*
X187452000Y-86604780D01*
X187706000Y-86604780D01*
X187706000Y-87757000D01*
X187726000Y-87757000D01*
X187726000Y-88011000D01*
X187706000Y-88011000D01*
X187706000Y-89163220D01*
X187912094Y-89222729D01*
X188063500Y-89172351D01*
X188296268Y-89053987D01*
X188501472Y-88892487D01*
X188671226Y-88694057D01*
X188799007Y-88466322D01*
X188844955Y-88325300D01*
X188881046Y-88444277D01*
X189004871Y-88675937D01*
X189171512Y-88878989D01*
X189374564Y-89045629D01*
X189606224Y-89169454D01*
X189857589Y-89245705D01*
X190119000Y-89271452D01*
X190380412Y-89245705D01*
X190631777Y-89169454D01*
X190863437Y-89045629D01*
X191066489Y-88878989D01*
X191233129Y-88675936D01*
X191356954Y-88444276D01*
X191433205Y-88192911D01*
X191452500Y-87997007D01*
X191452500Y-87770992D01*
X191433205Y-87575088D01*
X191356954Y-87323723D01*
X191233129Y-87092063D01*
X191066489Y-86889011D01*
X190863436Y-86722371D01*
X190631776Y-86598546D01*
X190380411Y-86522295D01*
X190119000Y-86496548D01*
X189857588Y-86522295D01*
X189606223Y-86598546D01*
X189374563Y-86722371D01*
X189171511Y-86889011D01*
X189004871Y-87092064D01*
X188881046Y-87323724D01*
X188844955Y-87442700D01*
X188799007Y-87301678D01*
X188671226Y-87073943D01*
X188501472Y-86875513D01*
X188296268Y-86714013D01*
X188063500Y-86595649D01*
X187912094Y-86545271D01*
X187706000Y-86604780D01*
X187452000Y-86604780D01*
X187245906Y-86545271D01*
X187094500Y-86595649D01*
X186861732Y-86714013D01*
X186656528Y-86875513D01*
X186486774Y-87073943D01*
X186374343Y-87274321D01*
X186374343Y-86884000D01*
X186366987Y-86809311D01*
X186345201Y-86737492D01*
X186309822Y-86671304D01*
X186262211Y-86613289D01*
X186204196Y-86565678D01*
X186138008Y-86530299D01*
X186066189Y-86508513D01*
X185991500Y-86501157D01*
X184086500Y-86501157D01*
X184011811Y-86508513D01*
X183939992Y-86530299D01*
X183873804Y-86565678D01*
X183815789Y-86613289D01*
X183768178Y-86671304D01*
X183732799Y-86737492D01*
X183711013Y-86809311D01*
X183703657Y-86884000D01*
X180193461Y-86884000D01*
X180143508Y-86857299D01*
X180071689Y-86835513D01*
X179997000Y-86828157D01*
X178397000Y-86828157D01*
X178322311Y-86835513D01*
X178250492Y-86857299D01*
X178184304Y-86892678D01*
X178126289Y-86940289D01*
X178078678Y-86998304D01*
X178043299Y-87064492D01*
X178021513Y-87136311D01*
X178014157Y-87211000D01*
X174535381Y-87211000D01*
X174530487Y-87161311D01*
X174508701Y-87089492D01*
X174473322Y-87023304D01*
X174425711Y-86965289D01*
X174367696Y-86917678D01*
X174301508Y-86882299D01*
X174229689Y-86860513D01*
X174155000Y-86853157D01*
X172555000Y-86853157D01*
X172480311Y-86860513D01*
X172408492Y-86882299D01*
X172342304Y-86917678D01*
X172284289Y-86965289D01*
X172236678Y-87023304D01*
X172201299Y-87089492D01*
X172179513Y-87161311D01*
X172172157Y-87236000D01*
X168695843Y-87236000D01*
X168688487Y-87161311D01*
X168666701Y-87089492D01*
X168631322Y-87023304D01*
X168583711Y-86965289D01*
X168525696Y-86917678D01*
X168459508Y-86882299D01*
X168387689Y-86860513D01*
X168313000Y-86853157D01*
X166713000Y-86853157D01*
X166638311Y-86860513D01*
X166566492Y-86882299D01*
X166500304Y-86917678D01*
X166442289Y-86965289D01*
X166394678Y-87023304D01*
X166359299Y-87089492D01*
X166337513Y-87161311D01*
X166330157Y-87236000D01*
X157071000Y-87236000D01*
X157071000Y-86392342D01*
X166836263Y-86392342D01*
X166922218Y-86565207D01*
X167134358Y-86660687D01*
X167361048Y-86712945D01*
X167593578Y-86719975D01*
X167823012Y-86681505D01*
X168040532Y-86599014D01*
X168103782Y-86565207D01*
X168189737Y-86392342D01*
X172678263Y-86392342D01*
X172764218Y-86565207D01*
X172976358Y-86660687D01*
X173203048Y-86712945D01*
X173435578Y-86719975D01*
X173665012Y-86681505D01*
X173882532Y-86599014D01*
X173945782Y-86565207D01*
X174031737Y-86392342D01*
X174006737Y-86367342D01*
X178520263Y-86367342D01*
X178606218Y-86540207D01*
X178818358Y-86635687D01*
X179045048Y-86687945D01*
X179277578Y-86694975D01*
X179507012Y-86656505D01*
X179724532Y-86574014D01*
X179787782Y-86540207D01*
X179873737Y-86367342D01*
X179197000Y-85690605D01*
X178520263Y-86367342D01*
X174006737Y-86367342D01*
X173355000Y-85715605D01*
X172678263Y-86392342D01*
X168189737Y-86392342D01*
X167513000Y-85715605D01*
X166836263Y-86392342D01*
X157071000Y-86392342D01*
X157071000Y-85616578D01*
X166329025Y-85616578D01*
X166367495Y-85846012D01*
X166449986Y-86063532D01*
X166483793Y-86126782D01*
X166656658Y-86212737D01*
X167333395Y-85536000D01*
X167692605Y-85536000D01*
X168369342Y-86212737D01*
X168542207Y-86126782D01*
X168637687Y-85914642D01*
X168689945Y-85687952D01*
X168692102Y-85616578D01*
X172171025Y-85616578D01*
X172209495Y-85846012D01*
X172291986Y-86063532D01*
X172325793Y-86126782D01*
X172498658Y-86212737D01*
X173175395Y-85536000D01*
X173534605Y-85536000D01*
X174211342Y-86212737D01*
X174384207Y-86126782D01*
X174479687Y-85914642D01*
X174531945Y-85687952D01*
X174534858Y-85591578D01*
X178013025Y-85591578D01*
X178051495Y-85821012D01*
X178133986Y-86038532D01*
X178167793Y-86101782D01*
X178340658Y-86187737D01*
X179017395Y-85511000D01*
X179376605Y-85511000D01*
X180053342Y-86187737D01*
X180226207Y-86101782D01*
X180321687Y-85889642D01*
X180373945Y-85662952D01*
X180380975Y-85430422D01*
X180342505Y-85200988D01*
X180260014Y-84983468D01*
X180226207Y-84920218D01*
X180053342Y-84834263D01*
X179376605Y-85511000D01*
X179017395Y-85511000D01*
X178340658Y-84834263D01*
X178167793Y-84920218D01*
X178072313Y-85132358D01*
X178020055Y-85359048D01*
X178013025Y-85591578D01*
X174534858Y-85591578D01*
X174538975Y-85455422D01*
X174500505Y-85225988D01*
X174418014Y-85008468D01*
X174384207Y-84945218D01*
X174211342Y-84859263D01*
X173534605Y-85536000D01*
X173175395Y-85536000D01*
X172498658Y-84859263D01*
X172325793Y-84945218D01*
X172230313Y-85157358D01*
X172178055Y-85384048D01*
X172171025Y-85616578D01*
X168692102Y-85616578D01*
X168696975Y-85455422D01*
X168658505Y-85225988D01*
X168576014Y-85008468D01*
X168542207Y-84945218D01*
X168369342Y-84859263D01*
X167692605Y-85536000D01*
X167333395Y-85536000D01*
X166656658Y-84859263D01*
X166483793Y-84945218D01*
X166388313Y-85157358D01*
X166336055Y-85384048D01*
X166329025Y-85616578D01*
X157071000Y-85616578D01*
X157071000Y-84679658D01*
X166836263Y-84679658D01*
X167513000Y-85356395D01*
X168189737Y-84679658D01*
X172678263Y-84679658D01*
X173355000Y-85356395D01*
X174031737Y-84679658D01*
X174019307Y-84654658D01*
X178520263Y-84654658D01*
X179197000Y-85331395D01*
X179873737Y-84654658D01*
X179787782Y-84481793D01*
X179575642Y-84386313D01*
X179348952Y-84334055D01*
X179116422Y-84327025D01*
X178886988Y-84365495D01*
X178669468Y-84447986D01*
X178606218Y-84481793D01*
X178520263Y-84654658D01*
X174019307Y-84654658D01*
X173945782Y-84506793D01*
X173733642Y-84411313D01*
X173506952Y-84359055D01*
X173274422Y-84352025D01*
X173044988Y-84390495D01*
X172827468Y-84472986D01*
X172764218Y-84506793D01*
X172678263Y-84679658D01*
X168189737Y-84679658D01*
X168103782Y-84506793D01*
X167891642Y-84411313D01*
X167664952Y-84359055D01*
X167432422Y-84352025D01*
X167202988Y-84390495D01*
X166985468Y-84472986D01*
X166922218Y-84506793D01*
X166836263Y-84679658D01*
X157071000Y-84679658D01*
X157071000Y-81750000D01*
X185507157Y-81750000D01*
X185507157Y-83350000D01*
X185514513Y-83424689D01*
X185536299Y-83496508D01*
X185571678Y-83562696D01*
X185619289Y-83620711D01*
X185677304Y-83668322D01*
X185743492Y-83703701D01*
X185815311Y-83725487D01*
X185890000Y-83732843D01*
X187490000Y-83732843D01*
X187564689Y-83725487D01*
X187636508Y-83703701D01*
X187702696Y-83668322D01*
X187760711Y-83620711D01*
X187808322Y-83562696D01*
X187843701Y-83496508D01*
X187865487Y-83424689D01*
X187872843Y-83350000D01*
X187872843Y-82518757D01*
X194169000Y-82518757D01*
X194169000Y-82761243D01*
X194216307Y-82999069D01*
X194309102Y-83223097D01*
X194443820Y-83424717D01*
X194615283Y-83596180D01*
X194816903Y-83730898D01*
X195040931Y-83823693D01*
X195278757Y-83871000D01*
X195521243Y-83871000D01*
X195759069Y-83823693D01*
X195983097Y-83730898D01*
X196184717Y-83596180D01*
X196356180Y-83424717D01*
X196490898Y-83223097D01*
X196583693Y-82999069D01*
X196631000Y-82761243D01*
X196631000Y-82518757D01*
X196583693Y-82280931D01*
X196490898Y-82056903D01*
X196356180Y-81855283D01*
X196184717Y-81683820D01*
X195983097Y-81549102D01*
X195759069Y-81456307D01*
X195521243Y-81409000D01*
X195278757Y-81409000D01*
X195040931Y-81456307D01*
X194816903Y-81549102D01*
X194615283Y-81683820D01*
X194443820Y-81855283D01*
X194309102Y-82056903D01*
X194216307Y-82280931D01*
X194169000Y-82518757D01*
X187872843Y-82518757D01*
X187872843Y-81750000D01*
X187865487Y-81675311D01*
X187843701Y-81603492D01*
X187808322Y-81537304D01*
X187760711Y-81479289D01*
X187702696Y-81431678D01*
X187636508Y-81396299D01*
X187564689Y-81374513D01*
X187490000Y-81367157D01*
X185890000Y-81367157D01*
X185815311Y-81374513D01*
X185743492Y-81396299D01*
X185677304Y-81431678D01*
X185619289Y-81479289D01*
X185571678Y-81537304D01*
X185536299Y-81603492D01*
X185514513Y-81675311D01*
X185507157Y-81750000D01*
X157071000Y-81750000D01*
X157071000Y-80906342D01*
X186013263Y-80906342D01*
X186099218Y-81079207D01*
X186311358Y-81174687D01*
X186538048Y-81226945D01*
X186770578Y-81233975D01*
X187000012Y-81195505D01*
X187217532Y-81113014D01*
X187280782Y-81079207D01*
X187345028Y-80950000D01*
X194167157Y-80950000D01*
X194174513Y-81024689D01*
X194196299Y-81096508D01*
X194231678Y-81162696D01*
X194279289Y-81220711D01*
X194337304Y-81268322D01*
X194403492Y-81303701D01*
X194475311Y-81325487D01*
X194550000Y-81332843D01*
X195177750Y-81331000D01*
X195273000Y-81235750D01*
X195273000Y-80227000D01*
X195527000Y-80227000D01*
X195527000Y-81235750D01*
X195622250Y-81331000D01*
X196250000Y-81332843D01*
X196324689Y-81325487D01*
X196396508Y-81303701D01*
X196462696Y-81268322D01*
X196520711Y-81220711D01*
X196568322Y-81162696D01*
X196603701Y-81096508D01*
X196625487Y-81024689D01*
X196632843Y-80950000D01*
X196631000Y-80322250D01*
X196535750Y-80227000D01*
X195527000Y-80227000D01*
X195273000Y-80227000D01*
X194264250Y-80227000D01*
X194169000Y-80322250D01*
X194167157Y-80950000D01*
X187345028Y-80950000D01*
X187366737Y-80906342D01*
X186690000Y-80229605D01*
X186013263Y-80906342D01*
X157071000Y-80906342D01*
X157071000Y-80130578D01*
X185506025Y-80130578D01*
X185544495Y-80360012D01*
X185626986Y-80577532D01*
X185660793Y-80640782D01*
X185833658Y-80726737D01*
X186510395Y-80050000D01*
X186869605Y-80050000D01*
X187546342Y-80726737D01*
X187719207Y-80640782D01*
X187814687Y-80428642D01*
X187866945Y-80201952D01*
X187873975Y-79969422D01*
X187835505Y-79739988D01*
X187753014Y-79522468D01*
X187719207Y-79459218D01*
X187546342Y-79373263D01*
X186869605Y-80050000D01*
X186510395Y-80050000D01*
X185833658Y-79373263D01*
X185660793Y-79459218D01*
X185565313Y-79671358D01*
X185513055Y-79898048D01*
X185506025Y-80130578D01*
X157071000Y-80130578D01*
X157071000Y-79193658D01*
X186013263Y-79193658D01*
X186690000Y-79870395D01*
X187310395Y-79250000D01*
X194167157Y-79250000D01*
X194169000Y-79877750D01*
X194264250Y-79973000D01*
X195273000Y-79973000D01*
X195273000Y-78964250D01*
X195527000Y-78964250D01*
X195527000Y-79973000D01*
X196535750Y-79973000D01*
X196631000Y-79877750D01*
X196632843Y-79250000D01*
X196625487Y-79175311D01*
X196603701Y-79103492D01*
X196568322Y-79037304D01*
X196520711Y-78979289D01*
X196462696Y-78931678D01*
X196396508Y-78896299D01*
X196324689Y-78874513D01*
X196250000Y-78867157D01*
X195622250Y-78869000D01*
X195527000Y-78964250D01*
X195273000Y-78964250D01*
X195177750Y-78869000D01*
X194550000Y-78867157D01*
X194475311Y-78874513D01*
X194403492Y-78896299D01*
X194337304Y-78931678D01*
X194279289Y-78979289D01*
X194231678Y-79037304D01*
X194196299Y-79103492D01*
X194174513Y-79175311D01*
X194167157Y-79250000D01*
X187310395Y-79250000D01*
X187366737Y-79193658D01*
X187280782Y-79020793D01*
X187068642Y-78925313D01*
X186841952Y-78873055D01*
X186609422Y-78866025D01*
X186379988Y-78904495D01*
X186162468Y-78986986D01*
X186099218Y-79020793D01*
X186013263Y-79193658D01*
X157071000Y-79193658D01*
X157071000Y-78449427D01*
X196952001Y-78510572D01*
G37*
G04 #@! TD.AperFunction*
M02*
