%TF.GenerationSoftware,KiCad,Pcbnew,(5.1.10)-1*%
%TF.CreationDate,2021-06-21T20:23:21-05:00*%
%TF.ProjectId,USB_Dual_Supply,5553425f-4475-4616-9c5f-537570706c79,rev?*%
%TF.SameCoordinates,Original*%
%TF.FileFunction,Copper,L2,Bot*%
%TF.FilePolarity,Positive*%
%FSLAX46Y46*%
G04 Gerber Fmt 4.6, Leading zero omitted, Abs format (unit mm)*
G04 Created by KiCad (PCBNEW (5.1.10)-1) date 2021-06-21 20:23:21*
%MOMM*%
%LPD*%
G01*
G04 APERTURE LIST*
%TA.AperFunction,ComponentPad*%
%ADD10C,0.600000*%
%TD*%
%TA.AperFunction,SMDPad,CuDef*%
%ADD11R,2.650000X1.000000*%
%TD*%
%TA.AperFunction,ComponentPad*%
%ADD12O,1.100000X1.500000*%
%TD*%
%TA.AperFunction,ComponentPad*%
%ADD13O,1.350000X1.700000*%
%TD*%
%TA.AperFunction,ComponentPad*%
%ADD14R,1.700000X1.700000*%
%TD*%
%TA.AperFunction,ComponentPad*%
%ADD15O,1.700000X1.700000*%
%TD*%
%TA.AperFunction,ViaPad*%
%ADD16C,0.800000*%
%TD*%
%TA.AperFunction,Conductor*%
%ADD17C,0.254000*%
%TD*%
%TA.AperFunction,Conductor*%
%ADD18C,0.500000*%
%TD*%
%TA.AperFunction,Conductor*%
%ADD19C,0.250000*%
%TD*%
%TA.AperFunction,Conductor*%
%ADD20C,0.100000*%
%TD*%
G04 APERTURE END LIST*
D10*
%TO.P,U1,13*%
%TO.N,GND*%
X139446000Y-116332000D03*
X138446000Y-116332000D03*
X140446000Y-116332000D03*
D11*
X139446000Y-116332000D03*
%TD*%
D12*
%TO.P,J1,6*%
%TO.N,GND*%
X131667000Y-121559000D03*
X136507000Y-121559000D03*
D13*
X131357000Y-124559000D03*
X136817000Y-124559000D03*
%TD*%
D14*
%TO.P,J2,1*%
%TO.N,/VIN*%
X134366000Y-107950000D03*
D15*
%TO.P,J2,2*%
%TO.N,GND*%
X131826000Y-107950000D03*
%TD*%
D14*
%TO.P,J3,1*%
%TO.N,/USB_D+*%
X140716000Y-107950000D03*
D15*
%TO.P,J3,2*%
%TO.N,/VIN*%
X143256000Y-107950000D03*
%TO.P,J3,3*%
%TO.N,GND*%
X145796000Y-107950000D03*
%TO.P,J3,4*%
%TO.N,/VDD*%
X148336000Y-107950000D03*
%TD*%
%TO.P,J4,4*%
%TO.N,/VSS*%
X148336000Y-123190000D03*
%TO.P,J4,3*%
%TO.N,GND*%
X145796000Y-123190000D03*
%TO.P,J4,2*%
X143256000Y-123190000D03*
D14*
%TO.P,J4,1*%
%TO.N,/USB_D-*%
X140716000Y-123190000D03*
%TD*%
%TO.P,J5,1*%
%TO.N,/VDD*%
X148336000Y-113030000D03*
D15*
%TO.P,J5,2*%
%TO.N,GND*%
X148336000Y-115570000D03*
%TO.P,J5,3*%
%TO.N,/VSS*%
X148336000Y-118110000D03*
%TD*%
D16*
%TO.N,/VIN*%
X134491001Y-118619999D03*
X141732000Y-112395000D03*
X137504010Y-115062000D03*
X136017000Y-109600998D03*
%TO.N,GND*%
X139446000Y-111633000D03*
X147193000Y-111125000D03*
X143129000Y-120650000D03*
X137287000Y-117221000D03*
%TO.N,/USB_D-*%
X135255000Y-119634010D03*
%TO.N,/USB_D+*%
X136398000Y-119761000D03*
%TD*%
D17*
%TO.N,/VIN*%
X143256000Y-107950000D02*
X143256000Y-110871000D01*
X143256000Y-110871000D02*
X141732000Y-112395000D01*
X141732000Y-112395000D02*
X139065000Y-115062000D01*
X139065000Y-115062000D02*
X137504010Y-115062000D01*
D18*
X134491001Y-118619999D02*
X134491001Y-111126997D01*
X134491001Y-111126997D02*
X136017000Y-109600998D01*
D19*
%TO.N,/USB_D-*%
X135255000Y-121744451D02*
X135255000Y-119634010D01*
X136894539Y-123383990D02*
X135255000Y-121744451D01*
X140522010Y-123383990D02*
X136894539Y-123383990D01*
X140716000Y-123190000D02*
X140522010Y-123383990D01*
%TO.N,/USB_D+*%
X137160000Y-107950000D02*
X140716000Y-107950000D01*
X136779000Y-108331000D02*
X137160000Y-107950000D01*
X136779000Y-116655998D02*
X136779000Y-108331000D01*
X136561999Y-116872999D02*
X136779000Y-116655998D01*
X136561999Y-119597001D02*
X136561999Y-116872999D01*
X136398000Y-119761000D02*
X136561999Y-119597001D01*
%TD*%
D17*
%TO.N,GND*%
X149708000Y-115013782D02*
X149607641Y-114803080D01*
X149433588Y-114569731D01*
X149217355Y-114374822D01*
X149029367Y-114262843D01*
X149186000Y-114262843D01*
X149260689Y-114255487D01*
X149332508Y-114233701D01*
X149398696Y-114198322D01*
X149456711Y-114150711D01*
X149504322Y-114092696D01*
X149539701Y-114026508D01*
X149561487Y-113954689D01*
X149568843Y-113880000D01*
X149568843Y-112180000D01*
X149561487Y-112105311D01*
X149539701Y-112033492D01*
X149504322Y-111967304D01*
X149456711Y-111909289D01*
X149398696Y-111861678D01*
X149332508Y-111826299D01*
X149260689Y-111804513D01*
X149186000Y-111797157D01*
X147486000Y-111797157D01*
X147411311Y-111804513D01*
X147339492Y-111826299D01*
X147273304Y-111861678D01*
X147215289Y-111909289D01*
X147167678Y-111967304D01*
X147132299Y-112033492D01*
X147110513Y-112105311D01*
X147103157Y-112180000D01*
X147103157Y-113880000D01*
X147110513Y-113954689D01*
X147132299Y-114026508D01*
X147167678Y-114092696D01*
X147215289Y-114150711D01*
X147273304Y-114198322D01*
X147339492Y-114233701D01*
X147411311Y-114255487D01*
X147486000Y-114262843D01*
X147642633Y-114262843D01*
X147454645Y-114374822D01*
X147238412Y-114569731D01*
X147064359Y-114803080D01*
X146939175Y-115065901D01*
X146894524Y-115213110D01*
X147015845Y-115443000D01*
X148209000Y-115443000D01*
X148209000Y-115423000D01*
X148463000Y-115423000D01*
X148463000Y-115443000D01*
X148483000Y-115443000D01*
X148483000Y-115697000D01*
X148463000Y-115697000D01*
X148463000Y-115717000D01*
X148209000Y-115717000D01*
X148209000Y-115697000D01*
X147015845Y-115697000D01*
X146894524Y-115926890D01*
X146939175Y-116074099D01*
X147064359Y-116336920D01*
X147238412Y-116570269D01*
X147454645Y-116765178D01*
X147704748Y-116914157D01*
X147867168Y-116971772D01*
X147752903Y-117019102D01*
X147551283Y-117153820D01*
X147379820Y-117325283D01*
X147245102Y-117526903D01*
X147152307Y-117750931D01*
X147105000Y-117988757D01*
X147105000Y-118231243D01*
X147152307Y-118469069D01*
X147245102Y-118693097D01*
X147379820Y-118894717D01*
X147551283Y-119066180D01*
X147752903Y-119200898D01*
X147976931Y-119293693D01*
X148214757Y-119341000D01*
X148457243Y-119341000D01*
X148695069Y-119293693D01*
X148919097Y-119200898D01*
X149120717Y-119066180D01*
X149292180Y-118894717D01*
X149426898Y-118693097D01*
X149519693Y-118469069D01*
X149567000Y-118231243D01*
X149567000Y-117988757D01*
X149519693Y-117750931D01*
X149426898Y-117526903D01*
X149292180Y-117325283D01*
X149120717Y-117153820D01*
X148919097Y-117019102D01*
X148804832Y-116971772D01*
X148967252Y-116914157D01*
X149217355Y-116765178D01*
X149433588Y-116570269D01*
X149607641Y-116336920D01*
X149708000Y-116126217D01*
X149708001Y-125832000D01*
X137525798Y-125832000D01*
X137627196Y-125767478D01*
X137813250Y-125589559D01*
X137961019Y-125378761D01*
X138064824Y-125143185D01*
X138120675Y-124891884D01*
X137970573Y-124686000D01*
X136944000Y-124686000D01*
X136944000Y-124706000D01*
X136690000Y-124706000D01*
X136690000Y-124686000D01*
X135663427Y-124686000D01*
X135513325Y-124891884D01*
X135569176Y-125143185D01*
X135672981Y-125378761D01*
X135820750Y-125589559D01*
X136006804Y-125767478D01*
X136108202Y-125832000D01*
X132065798Y-125832000D01*
X132167196Y-125767478D01*
X132353250Y-125589559D01*
X132501019Y-125378761D01*
X132604824Y-125143185D01*
X132660675Y-124891884D01*
X132510573Y-124686000D01*
X131484000Y-124686000D01*
X131484000Y-124706000D01*
X131230000Y-124706000D01*
X131230000Y-124686000D01*
X131210000Y-124686000D01*
X131210000Y-124432000D01*
X131230000Y-124432000D01*
X131230000Y-123239776D01*
X131484000Y-123239776D01*
X131484000Y-124432000D01*
X132510573Y-124432000D01*
X132660675Y-124226116D01*
X132604824Y-123974815D01*
X132501019Y-123739239D01*
X132353250Y-123528441D01*
X132167196Y-123350522D01*
X131950007Y-123212319D01*
X131710029Y-123119143D01*
X131686400Y-123116090D01*
X131484000Y-123239776D01*
X131230000Y-123239776D01*
X131027600Y-123116090D01*
X131003971Y-123119143D01*
X130763993Y-123212319D01*
X130546804Y-123350522D01*
X130454000Y-123439268D01*
X130454000Y-121872884D01*
X130481316Y-121872884D01*
X130526316Y-122102011D01*
X130615152Y-122317957D01*
X130744410Y-122512422D01*
X130909123Y-122677934D01*
X131102961Y-122808131D01*
X131318474Y-122898011D01*
X131357256Y-122902803D01*
X131540000Y-122777361D01*
X131540000Y-121686000D01*
X131794000Y-121686000D01*
X131794000Y-122777361D01*
X131976744Y-122902803D01*
X132015526Y-122898011D01*
X132231039Y-122808131D01*
X132424877Y-122677934D01*
X132589590Y-122512422D01*
X132718848Y-122317957D01*
X132807684Y-122102011D01*
X132852684Y-121872884D01*
X132697152Y-121686000D01*
X131794000Y-121686000D01*
X131540000Y-121686000D01*
X130636848Y-121686000D01*
X130481316Y-121872884D01*
X130454000Y-121872884D01*
X130454000Y-121245116D01*
X130481316Y-121245116D01*
X130636848Y-121432000D01*
X131540000Y-121432000D01*
X131540000Y-120340639D01*
X131794000Y-120340639D01*
X131794000Y-121432000D01*
X132697152Y-121432000D01*
X132852684Y-121245116D01*
X132807684Y-121015989D01*
X132718848Y-120800043D01*
X132589590Y-120605578D01*
X132424877Y-120440066D01*
X132231039Y-120309869D01*
X132015526Y-120219989D01*
X131976744Y-120215197D01*
X131794000Y-120340639D01*
X131540000Y-120340639D01*
X131357256Y-120215197D01*
X131318474Y-120219989D01*
X131102961Y-120309869D01*
X130909123Y-120440066D01*
X130744410Y-120605578D01*
X130615152Y-120800043D01*
X130526316Y-121015989D01*
X130481316Y-121245116D01*
X130454000Y-121245116D01*
X130454000Y-108502761D01*
X130481843Y-108581252D01*
X130630822Y-108831355D01*
X130825731Y-109047588D01*
X131059080Y-109221641D01*
X131321901Y-109346825D01*
X131469110Y-109391476D01*
X131699000Y-109270155D01*
X131699000Y-108077000D01*
X131679000Y-108077000D01*
X131679000Y-107823000D01*
X131699000Y-107823000D01*
X131699000Y-107803000D01*
X131953000Y-107803000D01*
X131953000Y-107823000D01*
X131973000Y-107823000D01*
X131973000Y-108077000D01*
X131953000Y-108077000D01*
X131953000Y-109270155D01*
X132182890Y-109391476D01*
X132330099Y-109346825D01*
X132592920Y-109221641D01*
X132826269Y-109047588D01*
X133021178Y-108831355D01*
X133133157Y-108643367D01*
X133133157Y-108800000D01*
X133140513Y-108874689D01*
X133162299Y-108946508D01*
X133197678Y-109012696D01*
X133245289Y-109070711D01*
X133303304Y-109118322D01*
X133369492Y-109153701D01*
X133441311Y-109175487D01*
X133516000Y-109182843D01*
X135216000Y-109182843D01*
X135290689Y-109175487D01*
X135362508Y-109153701D01*
X135384388Y-109142005D01*
X135324887Y-109231056D01*
X135266013Y-109373189D01*
X135244553Y-109481077D01*
X134066734Y-110658896D01*
X134042659Y-110678654D01*
X134022901Y-110702729D01*
X134022898Y-110702732D01*
X133963805Y-110774737D01*
X133905212Y-110884356D01*
X133869131Y-111003300D01*
X133856949Y-111126997D01*
X133860002Y-111157997D01*
X133860001Y-118158594D01*
X133798888Y-118250057D01*
X133740014Y-118392190D01*
X133710001Y-118543077D01*
X133710001Y-118696921D01*
X133740014Y-118847808D01*
X133798888Y-118989941D01*
X133884359Y-119117858D01*
X133993142Y-119226641D01*
X134121059Y-119312112D01*
X134263192Y-119370986D01*
X134414079Y-119400999D01*
X134506168Y-119400999D01*
X134504013Y-119406201D01*
X134474000Y-119557088D01*
X134474000Y-119710932D01*
X134504013Y-119861819D01*
X134562887Y-120003952D01*
X134648358Y-120131869D01*
X134749001Y-120232512D01*
X134749000Y-121719605D01*
X134746553Y-121744451D01*
X134749000Y-121769297D01*
X134749000Y-121769304D01*
X134756322Y-121843643D01*
X134785255Y-121939025D01*
X134832241Y-122026930D01*
X134895473Y-122103978D01*
X134914785Y-122119827D01*
X136091552Y-123296595D01*
X136006804Y-123350522D01*
X135820750Y-123528441D01*
X135672981Y-123739239D01*
X135569176Y-123974815D01*
X135513325Y-124226116D01*
X135663427Y-124432000D01*
X136690000Y-124432000D01*
X136690000Y-124412000D01*
X136944000Y-124412000D01*
X136944000Y-124432000D01*
X137970573Y-124432000D01*
X138120675Y-124226116D01*
X138064824Y-123974815D01*
X138027446Y-123889990D01*
X139483157Y-123889990D01*
X139483157Y-124040000D01*
X139490513Y-124114689D01*
X139512299Y-124186508D01*
X139547678Y-124252696D01*
X139595289Y-124310711D01*
X139653304Y-124358322D01*
X139719492Y-124393701D01*
X139791311Y-124415487D01*
X139866000Y-124422843D01*
X141566000Y-124422843D01*
X141640689Y-124415487D01*
X141712508Y-124393701D01*
X141778696Y-124358322D01*
X141836711Y-124310711D01*
X141884322Y-124252696D01*
X141919701Y-124186508D01*
X141941487Y-124114689D01*
X141948843Y-124040000D01*
X141948843Y-123883367D01*
X142060822Y-124071355D01*
X142255731Y-124287588D01*
X142489080Y-124461641D01*
X142751901Y-124586825D01*
X142899110Y-124631476D01*
X143129000Y-124510155D01*
X143129000Y-123317000D01*
X143383000Y-123317000D01*
X143383000Y-124510155D01*
X143612890Y-124631476D01*
X143760099Y-124586825D01*
X144022920Y-124461641D01*
X144256269Y-124287588D01*
X144451178Y-124071355D01*
X144526000Y-123945745D01*
X144600822Y-124071355D01*
X144795731Y-124287588D01*
X145029080Y-124461641D01*
X145291901Y-124586825D01*
X145439110Y-124631476D01*
X145669000Y-124510155D01*
X145669000Y-123317000D01*
X143383000Y-123317000D01*
X143129000Y-123317000D01*
X143109000Y-123317000D01*
X143109000Y-123063000D01*
X143129000Y-123063000D01*
X143129000Y-121869845D01*
X143383000Y-121869845D01*
X143383000Y-123063000D01*
X145669000Y-123063000D01*
X145669000Y-121869845D01*
X145923000Y-121869845D01*
X145923000Y-123063000D01*
X145943000Y-123063000D01*
X145943000Y-123317000D01*
X145923000Y-123317000D01*
X145923000Y-124510155D01*
X146152890Y-124631476D01*
X146300099Y-124586825D01*
X146562920Y-124461641D01*
X146796269Y-124287588D01*
X146991178Y-124071355D01*
X147140157Y-123821252D01*
X147197772Y-123658832D01*
X147245102Y-123773097D01*
X147379820Y-123974717D01*
X147551283Y-124146180D01*
X147752903Y-124280898D01*
X147976931Y-124373693D01*
X148214757Y-124421000D01*
X148457243Y-124421000D01*
X148695069Y-124373693D01*
X148919097Y-124280898D01*
X149120717Y-124146180D01*
X149292180Y-123974717D01*
X149426898Y-123773097D01*
X149519693Y-123549069D01*
X149567000Y-123311243D01*
X149567000Y-123068757D01*
X149519693Y-122830931D01*
X149426898Y-122606903D01*
X149292180Y-122405283D01*
X149120717Y-122233820D01*
X148919097Y-122099102D01*
X148695069Y-122006307D01*
X148457243Y-121959000D01*
X148214757Y-121959000D01*
X147976931Y-122006307D01*
X147752903Y-122099102D01*
X147551283Y-122233820D01*
X147379820Y-122405283D01*
X147245102Y-122606903D01*
X147197772Y-122721168D01*
X147140157Y-122558748D01*
X146991178Y-122308645D01*
X146796269Y-122092412D01*
X146562920Y-121918359D01*
X146300099Y-121793175D01*
X146152890Y-121748524D01*
X145923000Y-121869845D01*
X145669000Y-121869845D01*
X145439110Y-121748524D01*
X145291901Y-121793175D01*
X145029080Y-121918359D01*
X144795731Y-122092412D01*
X144600822Y-122308645D01*
X144526000Y-122434255D01*
X144451178Y-122308645D01*
X144256269Y-122092412D01*
X144022920Y-121918359D01*
X143760099Y-121793175D01*
X143612890Y-121748524D01*
X143383000Y-121869845D01*
X143129000Y-121869845D01*
X142899110Y-121748524D01*
X142751901Y-121793175D01*
X142489080Y-121918359D01*
X142255731Y-122092412D01*
X142060822Y-122308645D01*
X141948843Y-122496633D01*
X141948843Y-122340000D01*
X141941487Y-122265311D01*
X141919701Y-122193492D01*
X141884322Y-122127304D01*
X141836711Y-122069289D01*
X141778696Y-122021678D01*
X141712508Y-121986299D01*
X141640689Y-121964513D01*
X141566000Y-121957157D01*
X139866000Y-121957157D01*
X139791311Y-121964513D01*
X139719492Y-121986299D01*
X139653304Y-122021678D01*
X139595289Y-122069289D01*
X139547678Y-122127304D01*
X139512299Y-122193492D01*
X139490513Y-122265311D01*
X139483157Y-122340000D01*
X139483157Y-122877990D01*
X137104131Y-122877990D01*
X137045093Y-122818952D01*
X137071039Y-122808131D01*
X137264877Y-122677934D01*
X137429590Y-122512422D01*
X137558848Y-122317957D01*
X137647684Y-122102011D01*
X137692684Y-121872884D01*
X137537152Y-121686000D01*
X136634000Y-121686000D01*
X136634000Y-121706000D01*
X136380000Y-121706000D01*
X136380000Y-121686000D01*
X136360000Y-121686000D01*
X136360000Y-121432000D01*
X136380000Y-121432000D01*
X136380000Y-121412000D01*
X136634000Y-121412000D01*
X136634000Y-121432000D01*
X137537152Y-121432000D01*
X137692684Y-121245116D01*
X137647684Y-121015989D01*
X137558848Y-120800043D01*
X137429590Y-120605578D01*
X137264877Y-120440066D01*
X137071039Y-120309869D01*
X136988186Y-120275315D01*
X137004642Y-120258859D01*
X137090113Y-120130942D01*
X137148987Y-119988809D01*
X137179000Y-119837922D01*
X137179000Y-119684078D01*
X137148987Y-119533191D01*
X137090113Y-119391058D01*
X137067999Y-119357962D01*
X137067999Y-118197125D01*
X137070197Y-118199803D01*
X137089443Y-118215597D01*
X137111399Y-118227333D01*
X137135224Y-118234560D01*
X137160000Y-118237000D01*
X141605000Y-118237000D01*
X141629776Y-118234560D01*
X141653601Y-118227333D01*
X141675557Y-118215597D01*
X141694803Y-118199803D01*
X141710597Y-118180557D01*
X141722333Y-118158601D01*
X141729560Y-118134776D01*
X141732000Y-118110000D01*
X141732000Y-115062000D01*
X141729560Y-115037224D01*
X141722333Y-115013399D01*
X141710597Y-114991443D01*
X141694803Y-114972197D01*
X141675557Y-114956403D01*
X141653601Y-114944667D01*
X141629776Y-114937440D01*
X141605000Y-114935000D01*
X139910420Y-114935000D01*
X141669420Y-113176000D01*
X141808922Y-113176000D01*
X141959809Y-113145987D01*
X142101942Y-113087113D01*
X142229859Y-113001642D01*
X142338642Y-112892859D01*
X142424113Y-112764942D01*
X142482987Y-112622809D01*
X142513000Y-112471922D01*
X142513000Y-112332420D01*
X143597571Y-111247850D01*
X143616948Y-111231948D01*
X143635624Y-111209190D01*
X143680429Y-111154596D01*
X143727600Y-111066345D01*
X143727601Y-111066343D01*
X143756649Y-110970585D01*
X143764000Y-110895947D01*
X143764000Y-110895945D01*
X143766457Y-110871001D01*
X143764000Y-110846057D01*
X143764000Y-109072004D01*
X143839097Y-109040898D01*
X144040717Y-108906180D01*
X144212180Y-108734717D01*
X144346898Y-108533097D01*
X144394228Y-108418832D01*
X144451843Y-108581252D01*
X144600822Y-108831355D01*
X144795731Y-109047588D01*
X145029080Y-109221641D01*
X145291901Y-109346825D01*
X145439110Y-109391476D01*
X145669000Y-109270155D01*
X145669000Y-108077000D01*
X145649000Y-108077000D01*
X145649000Y-107823000D01*
X145669000Y-107823000D01*
X145669000Y-107803000D01*
X145923000Y-107803000D01*
X145923000Y-107823000D01*
X145943000Y-107823000D01*
X145943000Y-108077000D01*
X145923000Y-108077000D01*
X145923000Y-109270155D01*
X146152890Y-109391476D01*
X146300099Y-109346825D01*
X146562920Y-109221641D01*
X146796269Y-109047588D01*
X146991178Y-108831355D01*
X147140157Y-108581252D01*
X147197772Y-108418832D01*
X147245102Y-108533097D01*
X147379820Y-108734717D01*
X147551283Y-108906180D01*
X147752903Y-109040898D01*
X147976931Y-109133693D01*
X148214757Y-109181000D01*
X148457243Y-109181000D01*
X148695069Y-109133693D01*
X148919097Y-109040898D01*
X149120717Y-108906180D01*
X149292180Y-108734717D01*
X149426898Y-108533097D01*
X149519693Y-108309069D01*
X149567000Y-108071243D01*
X149567000Y-107828757D01*
X149519693Y-107590931D01*
X149426898Y-107366903D01*
X149292180Y-107165283D01*
X149120717Y-106993820D01*
X148919097Y-106859102D01*
X148695069Y-106766307D01*
X148457243Y-106719000D01*
X148214757Y-106719000D01*
X147976931Y-106766307D01*
X147752903Y-106859102D01*
X147551283Y-106993820D01*
X147379820Y-107165283D01*
X147245102Y-107366903D01*
X147197772Y-107481168D01*
X147140157Y-107318748D01*
X146991178Y-107068645D01*
X146796269Y-106852412D01*
X146562920Y-106678359D01*
X146352219Y-106578000D01*
X149708000Y-106578000D01*
X149708000Y-115013782D01*
%TA.AperFunction,Conductor*%
D20*
G36*
X149708000Y-115013782D02*
G01*
X149607641Y-114803080D01*
X149433588Y-114569731D01*
X149217355Y-114374822D01*
X149029367Y-114262843D01*
X149186000Y-114262843D01*
X149260689Y-114255487D01*
X149332508Y-114233701D01*
X149398696Y-114198322D01*
X149456711Y-114150711D01*
X149504322Y-114092696D01*
X149539701Y-114026508D01*
X149561487Y-113954689D01*
X149568843Y-113880000D01*
X149568843Y-112180000D01*
X149561487Y-112105311D01*
X149539701Y-112033492D01*
X149504322Y-111967304D01*
X149456711Y-111909289D01*
X149398696Y-111861678D01*
X149332508Y-111826299D01*
X149260689Y-111804513D01*
X149186000Y-111797157D01*
X147486000Y-111797157D01*
X147411311Y-111804513D01*
X147339492Y-111826299D01*
X147273304Y-111861678D01*
X147215289Y-111909289D01*
X147167678Y-111967304D01*
X147132299Y-112033492D01*
X147110513Y-112105311D01*
X147103157Y-112180000D01*
X147103157Y-113880000D01*
X147110513Y-113954689D01*
X147132299Y-114026508D01*
X147167678Y-114092696D01*
X147215289Y-114150711D01*
X147273304Y-114198322D01*
X147339492Y-114233701D01*
X147411311Y-114255487D01*
X147486000Y-114262843D01*
X147642633Y-114262843D01*
X147454645Y-114374822D01*
X147238412Y-114569731D01*
X147064359Y-114803080D01*
X146939175Y-115065901D01*
X146894524Y-115213110D01*
X147015845Y-115443000D01*
X148209000Y-115443000D01*
X148209000Y-115423000D01*
X148463000Y-115423000D01*
X148463000Y-115443000D01*
X148483000Y-115443000D01*
X148483000Y-115697000D01*
X148463000Y-115697000D01*
X148463000Y-115717000D01*
X148209000Y-115717000D01*
X148209000Y-115697000D01*
X147015845Y-115697000D01*
X146894524Y-115926890D01*
X146939175Y-116074099D01*
X147064359Y-116336920D01*
X147238412Y-116570269D01*
X147454645Y-116765178D01*
X147704748Y-116914157D01*
X147867168Y-116971772D01*
X147752903Y-117019102D01*
X147551283Y-117153820D01*
X147379820Y-117325283D01*
X147245102Y-117526903D01*
X147152307Y-117750931D01*
X147105000Y-117988757D01*
X147105000Y-118231243D01*
X147152307Y-118469069D01*
X147245102Y-118693097D01*
X147379820Y-118894717D01*
X147551283Y-119066180D01*
X147752903Y-119200898D01*
X147976931Y-119293693D01*
X148214757Y-119341000D01*
X148457243Y-119341000D01*
X148695069Y-119293693D01*
X148919097Y-119200898D01*
X149120717Y-119066180D01*
X149292180Y-118894717D01*
X149426898Y-118693097D01*
X149519693Y-118469069D01*
X149567000Y-118231243D01*
X149567000Y-117988757D01*
X149519693Y-117750931D01*
X149426898Y-117526903D01*
X149292180Y-117325283D01*
X149120717Y-117153820D01*
X148919097Y-117019102D01*
X148804832Y-116971772D01*
X148967252Y-116914157D01*
X149217355Y-116765178D01*
X149433588Y-116570269D01*
X149607641Y-116336920D01*
X149708000Y-116126217D01*
X149708001Y-125832000D01*
X137525798Y-125832000D01*
X137627196Y-125767478D01*
X137813250Y-125589559D01*
X137961019Y-125378761D01*
X138064824Y-125143185D01*
X138120675Y-124891884D01*
X137970573Y-124686000D01*
X136944000Y-124686000D01*
X136944000Y-124706000D01*
X136690000Y-124706000D01*
X136690000Y-124686000D01*
X135663427Y-124686000D01*
X135513325Y-124891884D01*
X135569176Y-125143185D01*
X135672981Y-125378761D01*
X135820750Y-125589559D01*
X136006804Y-125767478D01*
X136108202Y-125832000D01*
X132065798Y-125832000D01*
X132167196Y-125767478D01*
X132353250Y-125589559D01*
X132501019Y-125378761D01*
X132604824Y-125143185D01*
X132660675Y-124891884D01*
X132510573Y-124686000D01*
X131484000Y-124686000D01*
X131484000Y-124706000D01*
X131230000Y-124706000D01*
X131230000Y-124686000D01*
X131210000Y-124686000D01*
X131210000Y-124432000D01*
X131230000Y-124432000D01*
X131230000Y-123239776D01*
X131484000Y-123239776D01*
X131484000Y-124432000D01*
X132510573Y-124432000D01*
X132660675Y-124226116D01*
X132604824Y-123974815D01*
X132501019Y-123739239D01*
X132353250Y-123528441D01*
X132167196Y-123350522D01*
X131950007Y-123212319D01*
X131710029Y-123119143D01*
X131686400Y-123116090D01*
X131484000Y-123239776D01*
X131230000Y-123239776D01*
X131027600Y-123116090D01*
X131003971Y-123119143D01*
X130763993Y-123212319D01*
X130546804Y-123350522D01*
X130454000Y-123439268D01*
X130454000Y-121872884D01*
X130481316Y-121872884D01*
X130526316Y-122102011D01*
X130615152Y-122317957D01*
X130744410Y-122512422D01*
X130909123Y-122677934D01*
X131102961Y-122808131D01*
X131318474Y-122898011D01*
X131357256Y-122902803D01*
X131540000Y-122777361D01*
X131540000Y-121686000D01*
X131794000Y-121686000D01*
X131794000Y-122777361D01*
X131976744Y-122902803D01*
X132015526Y-122898011D01*
X132231039Y-122808131D01*
X132424877Y-122677934D01*
X132589590Y-122512422D01*
X132718848Y-122317957D01*
X132807684Y-122102011D01*
X132852684Y-121872884D01*
X132697152Y-121686000D01*
X131794000Y-121686000D01*
X131540000Y-121686000D01*
X130636848Y-121686000D01*
X130481316Y-121872884D01*
X130454000Y-121872884D01*
X130454000Y-121245116D01*
X130481316Y-121245116D01*
X130636848Y-121432000D01*
X131540000Y-121432000D01*
X131540000Y-120340639D01*
X131794000Y-120340639D01*
X131794000Y-121432000D01*
X132697152Y-121432000D01*
X132852684Y-121245116D01*
X132807684Y-121015989D01*
X132718848Y-120800043D01*
X132589590Y-120605578D01*
X132424877Y-120440066D01*
X132231039Y-120309869D01*
X132015526Y-120219989D01*
X131976744Y-120215197D01*
X131794000Y-120340639D01*
X131540000Y-120340639D01*
X131357256Y-120215197D01*
X131318474Y-120219989D01*
X131102961Y-120309869D01*
X130909123Y-120440066D01*
X130744410Y-120605578D01*
X130615152Y-120800043D01*
X130526316Y-121015989D01*
X130481316Y-121245116D01*
X130454000Y-121245116D01*
X130454000Y-108502761D01*
X130481843Y-108581252D01*
X130630822Y-108831355D01*
X130825731Y-109047588D01*
X131059080Y-109221641D01*
X131321901Y-109346825D01*
X131469110Y-109391476D01*
X131699000Y-109270155D01*
X131699000Y-108077000D01*
X131679000Y-108077000D01*
X131679000Y-107823000D01*
X131699000Y-107823000D01*
X131699000Y-107803000D01*
X131953000Y-107803000D01*
X131953000Y-107823000D01*
X131973000Y-107823000D01*
X131973000Y-108077000D01*
X131953000Y-108077000D01*
X131953000Y-109270155D01*
X132182890Y-109391476D01*
X132330099Y-109346825D01*
X132592920Y-109221641D01*
X132826269Y-109047588D01*
X133021178Y-108831355D01*
X133133157Y-108643367D01*
X133133157Y-108800000D01*
X133140513Y-108874689D01*
X133162299Y-108946508D01*
X133197678Y-109012696D01*
X133245289Y-109070711D01*
X133303304Y-109118322D01*
X133369492Y-109153701D01*
X133441311Y-109175487D01*
X133516000Y-109182843D01*
X135216000Y-109182843D01*
X135290689Y-109175487D01*
X135362508Y-109153701D01*
X135384388Y-109142005D01*
X135324887Y-109231056D01*
X135266013Y-109373189D01*
X135244553Y-109481077D01*
X134066734Y-110658896D01*
X134042659Y-110678654D01*
X134022901Y-110702729D01*
X134022898Y-110702732D01*
X133963805Y-110774737D01*
X133905212Y-110884356D01*
X133869131Y-111003300D01*
X133856949Y-111126997D01*
X133860002Y-111157997D01*
X133860001Y-118158594D01*
X133798888Y-118250057D01*
X133740014Y-118392190D01*
X133710001Y-118543077D01*
X133710001Y-118696921D01*
X133740014Y-118847808D01*
X133798888Y-118989941D01*
X133884359Y-119117858D01*
X133993142Y-119226641D01*
X134121059Y-119312112D01*
X134263192Y-119370986D01*
X134414079Y-119400999D01*
X134506168Y-119400999D01*
X134504013Y-119406201D01*
X134474000Y-119557088D01*
X134474000Y-119710932D01*
X134504013Y-119861819D01*
X134562887Y-120003952D01*
X134648358Y-120131869D01*
X134749001Y-120232512D01*
X134749000Y-121719605D01*
X134746553Y-121744451D01*
X134749000Y-121769297D01*
X134749000Y-121769304D01*
X134756322Y-121843643D01*
X134785255Y-121939025D01*
X134832241Y-122026930D01*
X134895473Y-122103978D01*
X134914785Y-122119827D01*
X136091552Y-123296595D01*
X136006804Y-123350522D01*
X135820750Y-123528441D01*
X135672981Y-123739239D01*
X135569176Y-123974815D01*
X135513325Y-124226116D01*
X135663427Y-124432000D01*
X136690000Y-124432000D01*
X136690000Y-124412000D01*
X136944000Y-124412000D01*
X136944000Y-124432000D01*
X137970573Y-124432000D01*
X138120675Y-124226116D01*
X138064824Y-123974815D01*
X138027446Y-123889990D01*
X139483157Y-123889990D01*
X139483157Y-124040000D01*
X139490513Y-124114689D01*
X139512299Y-124186508D01*
X139547678Y-124252696D01*
X139595289Y-124310711D01*
X139653304Y-124358322D01*
X139719492Y-124393701D01*
X139791311Y-124415487D01*
X139866000Y-124422843D01*
X141566000Y-124422843D01*
X141640689Y-124415487D01*
X141712508Y-124393701D01*
X141778696Y-124358322D01*
X141836711Y-124310711D01*
X141884322Y-124252696D01*
X141919701Y-124186508D01*
X141941487Y-124114689D01*
X141948843Y-124040000D01*
X141948843Y-123883367D01*
X142060822Y-124071355D01*
X142255731Y-124287588D01*
X142489080Y-124461641D01*
X142751901Y-124586825D01*
X142899110Y-124631476D01*
X143129000Y-124510155D01*
X143129000Y-123317000D01*
X143383000Y-123317000D01*
X143383000Y-124510155D01*
X143612890Y-124631476D01*
X143760099Y-124586825D01*
X144022920Y-124461641D01*
X144256269Y-124287588D01*
X144451178Y-124071355D01*
X144526000Y-123945745D01*
X144600822Y-124071355D01*
X144795731Y-124287588D01*
X145029080Y-124461641D01*
X145291901Y-124586825D01*
X145439110Y-124631476D01*
X145669000Y-124510155D01*
X145669000Y-123317000D01*
X143383000Y-123317000D01*
X143129000Y-123317000D01*
X143109000Y-123317000D01*
X143109000Y-123063000D01*
X143129000Y-123063000D01*
X143129000Y-121869845D01*
X143383000Y-121869845D01*
X143383000Y-123063000D01*
X145669000Y-123063000D01*
X145669000Y-121869845D01*
X145923000Y-121869845D01*
X145923000Y-123063000D01*
X145943000Y-123063000D01*
X145943000Y-123317000D01*
X145923000Y-123317000D01*
X145923000Y-124510155D01*
X146152890Y-124631476D01*
X146300099Y-124586825D01*
X146562920Y-124461641D01*
X146796269Y-124287588D01*
X146991178Y-124071355D01*
X147140157Y-123821252D01*
X147197772Y-123658832D01*
X147245102Y-123773097D01*
X147379820Y-123974717D01*
X147551283Y-124146180D01*
X147752903Y-124280898D01*
X147976931Y-124373693D01*
X148214757Y-124421000D01*
X148457243Y-124421000D01*
X148695069Y-124373693D01*
X148919097Y-124280898D01*
X149120717Y-124146180D01*
X149292180Y-123974717D01*
X149426898Y-123773097D01*
X149519693Y-123549069D01*
X149567000Y-123311243D01*
X149567000Y-123068757D01*
X149519693Y-122830931D01*
X149426898Y-122606903D01*
X149292180Y-122405283D01*
X149120717Y-122233820D01*
X148919097Y-122099102D01*
X148695069Y-122006307D01*
X148457243Y-121959000D01*
X148214757Y-121959000D01*
X147976931Y-122006307D01*
X147752903Y-122099102D01*
X147551283Y-122233820D01*
X147379820Y-122405283D01*
X147245102Y-122606903D01*
X147197772Y-122721168D01*
X147140157Y-122558748D01*
X146991178Y-122308645D01*
X146796269Y-122092412D01*
X146562920Y-121918359D01*
X146300099Y-121793175D01*
X146152890Y-121748524D01*
X145923000Y-121869845D01*
X145669000Y-121869845D01*
X145439110Y-121748524D01*
X145291901Y-121793175D01*
X145029080Y-121918359D01*
X144795731Y-122092412D01*
X144600822Y-122308645D01*
X144526000Y-122434255D01*
X144451178Y-122308645D01*
X144256269Y-122092412D01*
X144022920Y-121918359D01*
X143760099Y-121793175D01*
X143612890Y-121748524D01*
X143383000Y-121869845D01*
X143129000Y-121869845D01*
X142899110Y-121748524D01*
X142751901Y-121793175D01*
X142489080Y-121918359D01*
X142255731Y-122092412D01*
X142060822Y-122308645D01*
X141948843Y-122496633D01*
X141948843Y-122340000D01*
X141941487Y-122265311D01*
X141919701Y-122193492D01*
X141884322Y-122127304D01*
X141836711Y-122069289D01*
X141778696Y-122021678D01*
X141712508Y-121986299D01*
X141640689Y-121964513D01*
X141566000Y-121957157D01*
X139866000Y-121957157D01*
X139791311Y-121964513D01*
X139719492Y-121986299D01*
X139653304Y-122021678D01*
X139595289Y-122069289D01*
X139547678Y-122127304D01*
X139512299Y-122193492D01*
X139490513Y-122265311D01*
X139483157Y-122340000D01*
X139483157Y-122877990D01*
X137104131Y-122877990D01*
X137045093Y-122818952D01*
X137071039Y-122808131D01*
X137264877Y-122677934D01*
X137429590Y-122512422D01*
X137558848Y-122317957D01*
X137647684Y-122102011D01*
X137692684Y-121872884D01*
X137537152Y-121686000D01*
X136634000Y-121686000D01*
X136634000Y-121706000D01*
X136380000Y-121706000D01*
X136380000Y-121686000D01*
X136360000Y-121686000D01*
X136360000Y-121432000D01*
X136380000Y-121432000D01*
X136380000Y-121412000D01*
X136634000Y-121412000D01*
X136634000Y-121432000D01*
X137537152Y-121432000D01*
X137692684Y-121245116D01*
X137647684Y-121015989D01*
X137558848Y-120800043D01*
X137429590Y-120605578D01*
X137264877Y-120440066D01*
X137071039Y-120309869D01*
X136988186Y-120275315D01*
X137004642Y-120258859D01*
X137090113Y-120130942D01*
X137148987Y-119988809D01*
X137179000Y-119837922D01*
X137179000Y-119684078D01*
X137148987Y-119533191D01*
X137090113Y-119391058D01*
X137067999Y-119357962D01*
X137067999Y-118197125D01*
X137070197Y-118199803D01*
X137089443Y-118215597D01*
X137111399Y-118227333D01*
X137135224Y-118234560D01*
X137160000Y-118237000D01*
X141605000Y-118237000D01*
X141629776Y-118234560D01*
X141653601Y-118227333D01*
X141675557Y-118215597D01*
X141694803Y-118199803D01*
X141710597Y-118180557D01*
X141722333Y-118158601D01*
X141729560Y-118134776D01*
X141732000Y-118110000D01*
X141732000Y-115062000D01*
X141729560Y-115037224D01*
X141722333Y-115013399D01*
X141710597Y-114991443D01*
X141694803Y-114972197D01*
X141675557Y-114956403D01*
X141653601Y-114944667D01*
X141629776Y-114937440D01*
X141605000Y-114935000D01*
X139910420Y-114935000D01*
X141669420Y-113176000D01*
X141808922Y-113176000D01*
X141959809Y-113145987D01*
X142101942Y-113087113D01*
X142229859Y-113001642D01*
X142338642Y-112892859D01*
X142424113Y-112764942D01*
X142482987Y-112622809D01*
X142513000Y-112471922D01*
X142513000Y-112332420D01*
X143597571Y-111247850D01*
X143616948Y-111231948D01*
X143635624Y-111209190D01*
X143680429Y-111154596D01*
X143727600Y-111066345D01*
X143727601Y-111066343D01*
X143756649Y-110970585D01*
X143764000Y-110895947D01*
X143764000Y-110895945D01*
X143766457Y-110871001D01*
X143764000Y-110846057D01*
X143764000Y-109072004D01*
X143839097Y-109040898D01*
X144040717Y-108906180D01*
X144212180Y-108734717D01*
X144346898Y-108533097D01*
X144394228Y-108418832D01*
X144451843Y-108581252D01*
X144600822Y-108831355D01*
X144795731Y-109047588D01*
X145029080Y-109221641D01*
X145291901Y-109346825D01*
X145439110Y-109391476D01*
X145669000Y-109270155D01*
X145669000Y-108077000D01*
X145649000Y-108077000D01*
X145649000Y-107823000D01*
X145669000Y-107823000D01*
X145669000Y-107803000D01*
X145923000Y-107803000D01*
X145923000Y-107823000D01*
X145943000Y-107823000D01*
X145943000Y-108077000D01*
X145923000Y-108077000D01*
X145923000Y-109270155D01*
X146152890Y-109391476D01*
X146300099Y-109346825D01*
X146562920Y-109221641D01*
X146796269Y-109047588D01*
X146991178Y-108831355D01*
X147140157Y-108581252D01*
X147197772Y-108418832D01*
X147245102Y-108533097D01*
X147379820Y-108734717D01*
X147551283Y-108906180D01*
X147752903Y-109040898D01*
X147976931Y-109133693D01*
X148214757Y-109181000D01*
X148457243Y-109181000D01*
X148695069Y-109133693D01*
X148919097Y-109040898D01*
X149120717Y-108906180D01*
X149292180Y-108734717D01*
X149426898Y-108533097D01*
X149519693Y-108309069D01*
X149567000Y-108071243D01*
X149567000Y-107828757D01*
X149519693Y-107590931D01*
X149426898Y-107366903D01*
X149292180Y-107165283D01*
X149120717Y-106993820D01*
X148919097Y-106859102D01*
X148695069Y-106766307D01*
X148457243Y-106719000D01*
X148214757Y-106719000D01*
X147976931Y-106766307D01*
X147752903Y-106859102D01*
X147551283Y-106993820D01*
X147379820Y-107165283D01*
X147245102Y-107366903D01*
X147197772Y-107481168D01*
X147140157Y-107318748D01*
X146991178Y-107068645D01*
X146796269Y-106852412D01*
X146562920Y-106678359D01*
X146352219Y-106578000D01*
X149708000Y-106578000D01*
X149708000Y-115013782D01*
G37*
%TD.AperFunction*%
D17*
X145029080Y-106678359D02*
X144795731Y-106852412D01*
X144600822Y-107068645D01*
X144451843Y-107318748D01*
X144394228Y-107481168D01*
X144346898Y-107366903D01*
X144212180Y-107165283D01*
X144040717Y-106993820D01*
X143839097Y-106859102D01*
X143615069Y-106766307D01*
X143377243Y-106719000D01*
X143134757Y-106719000D01*
X142896931Y-106766307D01*
X142672903Y-106859102D01*
X142471283Y-106993820D01*
X142299820Y-107165283D01*
X142165102Y-107366903D01*
X142072307Y-107590931D01*
X142025000Y-107828757D01*
X142025000Y-108071243D01*
X142072307Y-108309069D01*
X142165102Y-108533097D01*
X142299820Y-108734717D01*
X142471283Y-108906180D01*
X142672903Y-109040898D01*
X142748000Y-109072004D01*
X142748001Y-110660578D01*
X141794580Y-111614000D01*
X141655078Y-111614000D01*
X141504191Y-111644013D01*
X141362058Y-111702887D01*
X141234141Y-111788358D01*
X141125358Y-111897141D01*
X141039887Y-112025058D01*
X140981013Y-112167191D01*
X140951000Y-112318078D01*
X140951000Y-112457580D01*
X138854580Y-114554000D01*
X138100511Y-114554000D01*
X138001869Y-114455358D01*
X137873952Y-114369887D01*
X137731819Y-114311013D01*
X137580932Y-114281000D01*
X137427088Y-114281000D01*
X137285000Y-114309263D01*
X137285000Y-108540591D01*
X137369592Y-108456000D01*
X139483157Y-108456000D01*
X139483157Y-108800000D01*
X139490513Y-108874689D01*
X139512299Y-108946508D01*
X139547678Y-109012696D01*
X139595289Y-109070711D01*
X139653304Y-109118322D01*
X139719492Y-109153701D01*
X139791311Y-109175487D01*
X139866000Y-109182843D01*
X141566000Y-109182843D01*
X141640689Y-109175487D01*
X141712508Y-109153701D01*
X141778696Y-109118322D01*
X141836711Y-109070711D01*
X141884322Y-109012696D01*
X141919701Y-108946508D01*
X141941487Y-108874689D01*
X141948843Y-108800000D01*
X141948843Y-107100000D01*
X141941487Y-107025311D01*
X141919701Y-106953492D01*
X141884322Y-106887304D01*
X141836711Y-106829289D01*
X141778696Y-106781678D01*
X141712508Y-106746299D01*
X141640689Y-106724513D01*
X141566000Y-106717157D01*
X139866000Y-106717157D01*
X139791311Y-106724513D01*
X139719492Y-106746299D01*
X139653304Y-106781678D01*
X139595289Y-106829289D01*
X139547678Y-106887304D01*
X139512299Y-106953492D01*
X139490513Y-107025311D01*
X139483157Y-107100000D01*
X139483157Y-107444000D01*
X137184845Y-107444000D01*
X137159999Y-107441553D01*
X137135153Y-107444000D01*
X137135146Y-107444000D01*
X137070694Y-107450348D01*
X137060806Y-107451322D01*
X137038607Y-107458056D01*
X136965425Y-107480255D01*
X136877521Y-107527241D01*
X136800473Y-107590473D01*
X136784628Y-107609780D01*
X136438780Y-107955629D01*
X136419474Y-107971473D01*
X136356242Y-108048521D01*
X136344097Y-108071243D01*
X136309255Y-108136426D01*
X136280322Y-108231808D01*
X136270553Y-108331000D01*
X136273001Y-108355856D01*
X136273001Y-108861689D01*
X136244809Y-108850011D01*
X136093922Y-108819998D01*
X135940078Y-108819998D01*
X135789191Y-108850011D01*
X135647058Y-108908885D01*
X135558006Y-108968387D01*
X135569701Y-108946508D01*
X135591487Y-108874689D01*
X135598843Y-108800000D01*
X135598843Y-107100000D01*
X135591487Y-107025311D01*
X135569701Y-106953492D01*
X135534322Y-106887304D01*
X135486711Y-106829289D01*
X135428696Y-106781678D01*
X135362508Y-106746299D01*
X135290689Y-106724513D01*
X135216000Y-106717157D01*
X133516000Y-106717157D01*
X133441311Y-106724513D01*
X133369492Y-106746299D01*
X133303304Y-106781678D01*
X133245289Y-106829289D01*
X133197678Y-106887304D01*
X133162299Y-106953492D01*
X133140513Y-107025311D01*
X133133157Y-107100000D01*
X133133157Y-107256633D01*
X133021178Y-107068645D01*
X132826269Y-106852412D01*
X132592920Y-106678359D01*
X132382219Y-106578000D01*
X145239781Y-106578000D01*
X145029080Y-106678359D01*
%TA.AperFunction,Conductor*%
D20*
G36*
X145029080Y-106678359D02*
G01*
X144795731Y-106852412D01*
X144600822Y-107068645D01*
X144451843Y-107318748D01*
X144394228Y-107481168D01*
X144346898Y-107366903D01*
X144212180Y-107165283D01*
X144040717Y-106993820D01*
X143839097Y-106859102D01*
X143615069Y-106766307D01*
X143377243Y-106719000D01*
X143134757Y-106719000D01*
X142896931Y-106766307D01*
X142672903Y-106859102D01*
X142471283Y-106993820D01*
X142299820Y-107165283D01*
X142165102Y-107366903D01*
X142072307Y-107590931D01*
X142025000Y-107828757D01*
X142025000Y-108071243D01*
X142072307Y-108309069D01*
X142165102Y-108533097D01*
X142299820Y-108734717D01*
X142471283Y-108906180D01*
X142672903Y-109040898D01*
X142748000Y-109072004D01*
X142748001Y-110660578D01*
X141794580Y-111614000D01*
X141655078Y-111614000D01*
X141504191Y-111644013D01*
X141362058Y-111702887D01*
X141234141Y-111788358D01*
X141125358Y-111897141D01*
X141039887Y-112025058D01*
X140981013Y-112167191D01*
X140951000Y-112318078D01*
X140951000Y-112457580D01*
X138854580Y-114554000D01*
X138100511Y-114554000D01*
X138001869Y-114455358D01*
X137873952Y-114369887D01*
X137731819Y-114311013D01*
X137580932Y-114281000D01*
X137427088Y-114281000D01*
X137285000Y-114309263D01*
X137285000Y-108540591D01*
X137369592Y-108456000D01*
X139483157Y-108456000D01*
X139483157Y-108800000D01*
X139490513Y-108874689D01*
X139512299Y-108946508D01*
X139547678Y-109012696D01*
X139595289Y-109070711D01*
X139653304Y-109118322D01*
X139719492Y-109153701D01*
X139791311Y-109175487D01*
X139866000Y-109182843D01*
X141566000Y-109182843D01*
X141640689Y-109175487D01*
X141712508Y-109153701D01*
X141778696Y-109118322D01*
X141836711Y-109070711D01*
X141884322Y-109012696D01*
X141919701Y-108946508D01*
X141941487Y-108874689D01*
X141948843Y-108800000D01*
X141948843Y-107100000D01*
X141941487Y-107025311D01*
X141919701Y-106953492D01*
X141884322Y-106887304D01*
X141836711Y-106829289D01*
X141778696Y-106781678D01*
X141712508Y-106746299D01*
X141640689Y-106724513D01*
X141566000Y-106717157D01*
X139866000Y-106717157D01*
X139791311Y-106724513D01*
X139719492Y-106746299D01*
X139653304Y-106781678D01*
X139595289Y-106829289D01*
X139547678Y-106887304D01*
X139512299Y-106953492D01*
X139490513Y-107025311D01*
X139483157Y-107100000D01*
X139483157Y-107444000D01*
X137184845Y-107444000D01*
X137159999Y-107441553D01*
X137135153Y-107444000D01*
X137135146Y-107444000D01*
X137070694Y-107450348D01*
X137060806Y-107451322D01*
X137038607Y-107458056D01*
X136965425Y-107480255D01*
X136877521Y-107527241D01*
X136800473Y-107590473D01*
X136784628Y-107609780D01*
X136438780Y-107955629D01*
X136419474Y-107971473D01*
X136356242Y-108048521D01*
X136344097Y-108071243D01*
X136309255Y-108136426D01*
X136280322Y-108231808D01*
X136270553Y-108331000D01*
X136273001Y-108355856D01*
X136273001Y-108861689D01*
X136244809Y-108850011D01*
X136093922Y-108819998D01*
X135940078Y-108819998D01*
X135789191Y-108850011D01*
X135647058Y-108908885D01*
X135558006Y-108968387D01*
X135569701Y-108946508D01*
X135591487Y-108874689D01*
X135598843Y-108800000D01*
X135598843Y-107100000D01*
X135591487Y-107025311D01*
X135569701Y-106953492D01*
X135534322Y-106887304D01*
X135486711Y-106829289D01*
X135428696Y-106781678D01*
X135362508Y-106746299D01*
X135290689Y-106724513D01*
X135216000Y-106717157D01*
X133516000Y-106717157D01*
X133441311Y-106724513D01*
X133369492Y-106746299D01*
X133303304Y-106781678D01*
X133245289Y-106829289D01*
X133197678Y-106887304D01*
X133162299Y-106953492D01*
X133140513Y-107025311D01*
X133133157Y-107100000D01*
X133133157Y-107256633D01*
X133021178Y-107068645D01*
X132826269Y-106852412D01*
X132592920Y-106678359D01*
X132382219Y-106578000D01*
X145239781Y-106578000D01*
X145029080Y-106678359D01*
G37*
%TD.AperFunction*%
%TD*%
D17*
%TO.N,GND*%
X141478000Y-117983000D02*
X137287000Y-117983000D01*
X137287000Y-116660546D01*
X137287448Y-116655998D01*
X137287000Y-116651450D01*
X137287000Y-115815135D01*
X137427088Y-115843000D01*
X137580932Y-115843000D01*
X137731819Y-115812987D01*
X137873952Y-115754113D01*
X138001869Y-115668642D01*
X138100511Y-115570000D01*
X139040056Y-115570000D01*
X139065000Y-115572457D01*
X139089944Y-115570000D01*
X139089947Y-115570000D01*
X139164585Y-115562649D01*
X139260343Y-115533601D01*
X139348595Y-115486429D01*
X139425948Y-115422948D01*
X139441855Y-115403565D01*
X139656420Y-115189000D01*
X141478000Y-115189000D01*
X141478000Y-117983000D01*
%TA.AperFunction,Conductor*%
D20*
G36*
X141478000Y-117983000D02*
G01*
X137287000Y-117983000D01*
X137287000Y-116660546D01*
X137287448Y-116655998D01*
X137287000Y-116651450D01*
X137287000Y-115815135D01*
X137427088Y-115843000D01*
X137580932Y-115843000D01*
X137731819Y-115812987D01*
X137873952Y-115754113D01*
X138001869Y-115668642D01*
X138100511Y-115570000D01*
X139040056Y-115570000D01*
X139065000Y-115572457D01*
X139089944Y-115570000D01*
X139089947Y-115570000D01*
X139164585Y-115562649D01*
X139260343Y-115533601D01*
X139348595Y-115486429D01*
X139425948Y-115422948D01*
X139441855Y-115403565D01*
X139656420Y-115189000D01*
X141478000Y-115189000D01*
X141478000Y-117983000D01*
G37*
%TD.AperFunction*%
%TD*%
M02*
