%TF.GenerationSoftware,KiCad,Pcbnew,(5.1.10)-1*%
%TF.CreationDate,2021-06-21T20:23:21-05:00*%
%TF.ProjectId,USB_Dual_Supply,5553425f-4475-4616-9c5f-537570706c79,rev?*%
%TF.SameCoordinates,Original*%
%TF.FileFunction,Legend,Top*%
%TF.FilePolarity,Positive*%
%FSLAX46Y46*%
G04 Gerber Fmt 4.6, Leading zero omitted, Abs format (unit mm)*
G04 Created by KiCad (PCBNEW (5.1.10)-1) date 2021-06-21 20:23:21*
%MOMM*%
%LPD*%
G01*
G04 APERTURE LIST*
%ADD10C,0.150000*%
%ADD11C,0.153000*%
%ADD12C,0.120000*%
%ADD13R,0.250000X0.500000*%
%ADD14R,2.650000X1.000000*%
%ADD15R,0.900000X1.200000*%
%ADD16R,1.350000X2.000000*%
%ADD17R,1.825000X0.700000*%
%ADD18R,2.000000X1.500000*%
%ADD19R,0.400000X1.650000*%
%ADD20O,1.100000X1.500000*%
%ADD21O,1.350000X1.700000*%
%ADD22R,1.430000X2.500000*%
%ADD23R,1.700000X1.700000*%
%ADD24O,1.700000X1.700000*%
%ADD25C,0.100000*%
%ADD26R,1.500000X1.600000*%
%ADD27R,1.200000X1.200000*%
G04 APERTURE END LIST*
D10*
X136448952Y-107763904D02*
X135991809Y-107763904D01*
X136220380Y-107763904D02*
X136220380Y-106963904D01*
X136144190Y-107078190D01*
X136068000Y-107154380D01*
X135991809Y-107192476D01*
X136791809Y-107687714D02*
X136829904Y-107725809D01*
X136791809Y-107763904D01*
X136753714Y-107725809D01*
X136791809Y-107687714D01*
X136791809Y-107763904D01*
X137134666Y-107040095D02*
X137172761Y-107002000D01*
X137248952Y-106963904D01*
X137439428Y-106963904D01*
X137515619Y-107002000D01*
X137553714Y-107040095D01*
X137591809Y-107116285D01*
X137591809Y-107192476D01*
X137553714Y-107306761D01*
X137096571Y-107763904D01*
X137591809Y-107763904D01*
X138315619Y-106963904D02*
X137934666Y-106963904D01*
X137896571Y-107344857D01*
X137934666Y-107306761D01*
X138010857Y-107268666D01*
X138201333Y-107268666D01*
X138277523Y-107306761D01*
X138315619Y-107344857D01*
X138353714Y-107421047D01*
X138353714Y-107611523D01*
X138315619Y-107687714D01*
X138277523Y-107725809D01*
X138201333Y-107763904D01*
X138010857Y-107763904D01*
X137934666Y-107725809D01*
X137896571Y-107687714D01*
X138696571Y-107459142D02*
X139306095Y-107459142D01*
X136944190Y-108313904D02*
X136563238Y-108313904D01*
X136525142Y-108694857D01*
X136563238Y-108656761D01*
X136639428Y-108618666D01*
X136829904Y-108618666D01*
X136906095Y-108656761D01*
X136944190Y-108694857D01*
X136982285Y-108771047D01*
X136982285Y-108961523D01*
X136944190Y-109037714D01*
X136906095Y-109075809D01*
X136829904Y-109113904D01*
X136639428Y-109113904D01*
X136563238Y-109075809D01*
X136525142Y-109037714D01*
X137325142Y-109037714D02*
X137363238Y-109075809D01*
X137325142Y-109113904D01*
X137287047Y-109075809D01*
X137325142Y-109037714D01*
X137325142Y-109113904D01*
X138087047Y-108313904D02*
X137706095Y-108313904D01*
X137668000Y-108694857D01*
X137706095Y-108656761D01*
X137782285Y-108618666D01*
X137972761Y-108618666D01*
X138048952Y-108656761D01*
X138087047Y-108694857D01*
X138125142Y-108771047D01*
X138125142Y-108961523D01*
X138087047Y-109037714D01*
X138048952Y-109075809D01*
X137972761Y-109113904D01*
X137782285Y-109113904D01*
X137706095Y-109075809D01*
X137668000Y-109037714D01*
X138353714Y-108313904D02*
X138620380Y-109113904D01*
X138887047Y-108313904D01*
X147777333Y-111067904D02*
X148044000Y-111867904D01*
X148310666Y-111067904D01*
X148577333Y-111867904D02*
X148577333Y-111067904D01*
X148767809Y-111067904D01*
X148882095Y-111106000D01*
X148958285Y-111182190D01*
X148996380Y-111258380D01*
X149034476Y-111410761D01*
X149034476Y-111525047D01*
X148996380Y-111677428D01*
X148958285Y-111753619D01*
X148882095Y-111829809D01*
X148767809Y-111867904D01*
X148577333Y-111867904D01*
X149377333Y-111867904D02*
X149377333Y-111067904D01*
X149567809Y-111067904D01*
X149682095Y-111106000D01*
X149758285Y-111182190D01*
X149796380Y-111258380D01*
X149834476Y-111410761D01*
X149834476Y-111525047D01*
X149796380Y-111677428D01*
X149758285Y-111753619D01*
X149682095Y-111829809D01*
X149567809Y-111867904D01*
X149377333Y-111867904D01*
X147434428Y-120211904D02*
X147701095Y-121011904D01*
X147967761Y-120211904D01*
X148196333Y-120973809D02*
X148310619Y-121011904D01*
X148501095Y-121011904D01*
X148577285Y-120973809D01*
X148615380Y-120935714D01*
X148653476Y-120859523D01*
X148653476Y-120783333D01*
X148615380Y-120707142D01*
X148577285Y-120669047D01*
X148501095Y-120630952D01*
X148348714Y-120592857D01*
X148272523Y-120554761D01*
X148234428Y-120516666D01*
X148196333Y-120440476D01*
X148196333Y-120364285D01*
X148234428Y-120288095D01*
X148272523Y-120250000D01*
X148348714Y-120211904D01*
X148539190Y-120211904D01*
X148653476Y-120250000D01*
X148958238Y-120973809D02*
X149072523Y-121011904D01*
X149263000Y-121011904D01*
X149339190Y-120973809D01*
X149377285Y-120935714D01*
X149415380Y-120859523D01*
X149415380Y-120783333D01*
X149377285Y-120707142D01*
X149339190Y-120669047D01*
X149263000Y-120630952D01*
X149110619Y-120592857D01*
X149034428Y-120554761D01*
X148996333Y-120516666D01*
X148958238Y-120440476D01*
X148958238Y-120364285D01*
X148996333Y-120288095D01*
X149034428Y-120250000D01*
X149110619Y-120211904D01*
X149301095Y-120211904D01*
X149415380Y-120250000D01*
D11*
X139237095Y-125964904D02*
X139237095Y-125164904D01*
X139427571Y-125164904D01*
X139541857Y-125203000D01*
X139618047Y-125279190D01*
X139656142Y-125355380D01*
X139694238Y-125507761D01*
X139694238Y-125622047D01*
X139656142Y-125774428D01*
X139618047Y-125850619D01*
X139541857Y-125926809D01*
X139427571Y-125964904D01*
X139237095Y-125964904D01*
X140037095Y-125660142D02*
X140646619Y-125660142D01*
X142056142Y-125203000D02*
X141979952Y-125164904D01*
X141865666Y-125164904D01*
X141751380Y-125203000D01*
X141675190Y-125279190D01*
X141637095Y-125355380D01*
X141599000Y-125507761D01*
X141599000Y-125622047D01*
X141637095Y-125774428D01*
X141675190Y-125850619D01*
X141751380Y-125926809D01*
X141865666Y-125964904D01*
X141941857Y-125964904D01*
X142056142Y-125926809D01*
X142094238Y-125888714D01*
X142094238Y-125622047D01*
X141941857Y-125622047D01*
X142437095Y-125964904D02*
X142437095Y-125164904D01*
X142894238Y-125964904D01*
X142894238Y-125164904D01*
X143275190Y-125964904D02*
X143275190Y-125164904D01*
X143465666Y-125164904D01*
X143579952Y-125203000D01*
X143656142Y-125279190D01*
X143694238Y-125355380D01*
X143732333Y-125507761D01*
X143732333Y-125622047D01*
X143694238Y-125774428D01*
X143656142Y-125850619D01*
X143579952Y-125926809D01*
X143465666Y-125964904D01*
X143275190Y-125964904D01*
X145103761Y-125203000D02*
X145027571Y-125164904D01*
X144913285Y-125164904D01*
X144799000Y-125203000D01*
X144722809Y-125279190D01*
X144684714Y-125355380D01*
X144646619Y-125507761D01*
X144646619Y-125622047D01*
X144684714Y-125774428D01*
X144722809Y-125850619D01*
X144799000Y-125926809D01*
X144913285Y-125964904D01*
X144989476Y-125964904D01*
X145103761Y-125926809D01*
X145141857Y-125888714D01*
X145141857Y-125622047D01*
X144989476Y-125622047D01*
X145484714Y-125964904D02*
X145484714Y-125164904D01*
X145941857Y-125964904D01*
X145941857Y-125164904D01*
X146322809Y-125964904D02*
X146322809Y-125164904D01*
X146513285Y-125164904D01*
X146627571Y-125203000D01*
X146703761Y-125279190D01*
X146741857Y-125355380D01*
X146779952Y-125507761D01*
X146779952Y-125622047D01*
X146741857Y-125774428D01*
X146703761Y-125850619D01*
X146627571Y-125926809D01*
X146513285Y-125964904D01*
X146322809Y-125964904D01*
X147618047Y-125164904D02*
X147884714Y-125964904D01*
X148151380Y-125164904D01*
X148379952Y-125926809D02*
X148494238Y-125964904D01*
X148684714Y-125964904D01*
X148760904Y-125926809D01*
X148799000Y-125888714D01*
X148837095Y-125812523D01*
X148837095Y-125736333D01*
X148799000Y-125660142D01*
X148760904Y-125622047D01*
X148684714Y-125583952D01*
X148532333Y-125545857D01*
X148456142Y-125507761D01*
X148418047Y-125469666D01*
X148379952Y-125393476D01*
X148379952Y-125317285D01*
X148418047Y-125241095D01*
X148456142Y-125203000D01*
X148532333Y-125164904D01*
X148722809Y-125164904D01*
X148837095Y-125203000D01*
X149141857Y-125926809D02*
X149256142Y-125964904D01*
X149446619Y-125964904D01*
X149522809Y-125926809D01*
X149560904Y-125888714D01*
X149599000Y-125812523D01*
X149599000Y-125736333D01*
X149560904Y-125660142D01*
X149522809Y-125622047D01*
X149446619Y-125583952D01*
X149294238Y-125545857D01*
X149218047Y-125507761D01*
X149179952Y-125469666D01*
X149141857Y-125393476D01*
X149141857Y-125317285D01*
X149179952Y-125241095D01*
X149218047Y-125203000D01*
X149294238Y-125164904D01*
X149484714Y-125164904D01*
X149599000Y-125203000D01*
X139846666Y-110216904D02*
X139846666Y-109416904D01*
X140037142Y-109416904D01*
X140151428Y-109455000D01*
X140227619Y-109531190D01*
X140265714Y-109607380D01*
X140303809Y-109759761D01*
X140303809Y-109874047D01*
X140265714Y-110026428D01*
X140227619Y-110102619D01*
X140151428Y-110178809D01*
X140037142Y-110216904D01*
X139846666Y-110216904D01*
X140646666Y-109912142D02*
X141256190Y-109912142D01*
X140951428Y-110216904D02*
X140951428Y-109607380D01*
X142132380Y-109416904D02*
X142399047Y-110216904D01*
X142665714Y-109416904D01*
X142932380Y-110216904D02*
X142932380Y-109416904D01*
X143313333Y-110216904D02*
X143313333Y-109416904D01*
X143770476Y-110216904D01*
X143770476Y-109416904D01*
X145180000Y-109455000D02*
X145103809Y-109416904D01*
X144989523Y-109416904D01*
X144875238Y-109455000D01*
X144799047Y-109531190D01*
X144760952Y-109607380D01*
X144722857Y-109759761D01*
X144722857Y-109874047D01*
X144760952Y-110026428D01*
X144799047Y-110102619D01*
X144875238Y-110178809D01*
X144989523Y-110216904D01*
X145065714Y-110216904D01*
X145180000Y-110178809D01*
X145218095Y-110140714D01*
X145218095Y-109874047D01*
X145065714Y-109874047D01*
X145560952Y-110216904D02*
X145560952Y-109416904D01*
X146018095Y-110216904D01*
X146018095Y-109416904D01*
X146399047Y-110216904D02*
X146399047Y-109416904D01*
X146589523Y-109416904D01*
X146703809Y-109455000D01*
X146780000Y-109531190D01*
X146818095Y-109607380D01*
X146856190Y-109759761D01*
X146856190Y-109874047D01*
X146818095Y-110026428D01*
X146780000Y-110102619D01*
X146703809Y-110178809D01*
X146589523Y-110216904D01*
X146399047Y-110216904D01*
X147694285Y-109416904D02*
X147960952Y-110216904D01*
X148227619Y-109416904D01*
X148494285Y-110216904D02*
X148494285Y-109416904D01*
X148684761Y-109416904D01*
X148799047Y-109455000D01*
X148875238Y-109531190D01*
X148913333Y-109607380D01*
X148951428Y-109759761D01*
X148951428Y-109874047D01*
X148913333Y-110026428D01*
X148875238Y-110102619D01*
X148799047Y-110178809D01*
X148684761Y-110216904D01*
X148494285Y-110216904D01*
X149294285Y-110216904D02*
X149294285Y-109416904D01*
X149484761Y-109416904D01*
X149599047Y-109455000D01*
X149675238Y-109531190D01*
X149713333Y-109607380D01*
X149751428Y-109759761D01*
X149751428Y-109874047D01*
X149713333Y-110026428D01*
X149675238Y-110102619D01*
X149599047Y-110178809D01*
X149484761Y-110216904D01*
X149294285Y-110216904D01*
D12*
%TO.C,U1*%
X138946000Y-118032000D02*
X137446000Y-118032000D01*
X137446000Y-118032000D02*
X137446000Y-116832000D01*
X141066000Y-115832000D02*
X141066000Y-116832000D01*
X137826000Y-117582000D02*
X137826000Y-115212000D01*
%TO.C,D1*%
X135218000Y-111744000D02*
X135218000Y-109744000D01*
X135218000Y-109744000D02*
X131318000Y-109744000D01*
X135218000Y-111744000D02*
X131318000Y-111744000D01*
%TO.C,C1*%
X139194000Y-119462733D02*
X139194000Y-119805267D01*
X138174000Y-119462733D02*
X138174000Y-119805267D01*
%TO.C,C2*%
X140036733Y-114302000D02*
X140379267Y-114302000D01*
X140036733Y-113282000D02*
X140379267Y-113282000D01*
%TO.C,C3*%
X140972000Y-119462733D02*
X140972000Y-119805267D01*
X139952000Y-119462733D02*
X139952000Y-119805267D01*
%TO.C,C4*%
X137412000Y-113201267D02*
X137412000Y-112858733D01*
X138432000Y-113201267D02*
X138432000Y-112858733D01*
%TO.C,C5*%
X142496000Y-119805267D02*
X142496000Y-119462733D01*
X141476000Y-119805267D02*
X141476000Y-119462733D01*
%TO.C,J1*%
X129937000Y-123379000D02*
X129937000Y-121829000D01*
X129937000Y-123379000D02*
X130237000Y-123379000D01*
X130237000Y-126179000D02*
X130237000Y-123379000D01*
X138237000Y-123379000D02*
X138237000Y-121829000D01*
X137937000Y-123379000D02*
X138237000Y-123379000D01*
X137937000Y-126179000D02*
X137937000Y-123379000D01*
X133187000Y-120129000D02*
X132787000Y-120579000D01*
X132387000Y-120129000D02*
X133187000Y-120129000D01*
X132787000Y-120579000D02*
X132387000Y-120129000D01*
%TO.C,J2*%
X130496000Y-106620000D02*
X130496000Y-109280000D01*
X133096000Y-106620000D02*
X130496000Y-106620000D01*
X133096000Y-109280000D02*
X130496000Y-109280000D01*
X133096000Y-106620000D02*
X133096000Y-109280000D01*
X134366000Y-106620000D02*
X135696000Y-106620000D01*
X135696000Y-106620000D02*
X135696000Y-107950000D01*
%TO.C,J3*%
X149666000Y-109280000D02*
X149666000Y-106620000D01*
X141986000Y-109280000D02*
X149666000Y-109280000D01*
X141986000Y-106620000D02*
X149666000Y-106620000D01*
X141986000Y-109280000D02*
X141986000Y-106620000D01*
X140716000Y-109280000D02*
X139386000Y-109280000D01*
X139386000Y-109280000D02*
X139386000Y-107950000D01*
%TO.C,J4*%
X139386000Y-124520000D02*
X139386000Y-123190000D01*
X140716000Y-124520000D02*
X139386000Y-124520000D01*
X141986000Y-124520000D02*
X141986000Y-121860000D01*
X141986000Y-121860000D02*
X149666000Y-121860000D01*
X141986000Y-124520000D02*
X149666000Y-124520000D01*
X149666000Y-124520000D02*
X149666000Y-121860000D01*
%TO.C,J5*%
X147006000Y-119440000D02*
X149666000Y-119440000D01*
X147006000Y-114300000D02*
X147006000Y-119440000D01*
X149666000Y-114300000D02*
X149666000Y-119440000D01*
X147006000Y-114300000D02*
X149666000Y-114300000D01*
X147006000Y-113030000D02*
X147006000Y-111700000D01*
X147006000Y-111700000D02*
X148336000Y-111700000D01*
%TO.C,JP1*%
X132780000Y-119364000D02*
X131380000Y-119364000D01*
X130680000Y-118664000D02*
X130680000Y-118064000D01*
X131380000Y-117364000D02*
X132780000Y-117364000D01*
X133480000Y-118064000D02*
X133480000Y-118664000D01*
X133480000Y-118664000D02*
G75*
G02*
X132780000Y-119364000I-700000J0D01*
G01*
X132780000Y-117364000D02*
G75*
G02*
X133480000Y-118064000I0J-700000D01*
G01*
X130680000Y-118064000D02*
G75*
G02*
X131380000Y-117364000I700000J0D01*
G01*
X131380000Y-119364000D02*
G75*
G02*
X130680000Y-118664000I0J700000D01*
G01*
%TO.C,JP2*%
X142110000Y-113330000D02*
X142110000Y-112730000D01*
X144210000Y-114030000D02*
X142810000Y-114030000D01*
X144910000Y-112730000D02*
X144910000Y-113330000D01*
X142810000Y-112030000D02*
X144210000Y-112030000D01*
X144210000Y-112030000D02*
G75*
G02*
X144910000Y-112730000I0J-700000D01*
G01*
X144910000Y-113330000D02*
G75*
G02*
X144210000Y-114030000I-700000J0D01*
G01*
X142810000Y-114030000D02*
G75*
G02*
X142110000Y-113330000I0J700000D01*
G01*
X142110000Y-112730000D02*
G75*
G02*
X142810000Y-112030000I700000J0D01*
G01*
%TO.C,R1*%
X132080724Y-113298500D02*
X131571276Y-113298500D01*
X132080724Y-112253500D02*
X131571276Y-112253500D01*
%TO.C,R2*%
X134873276Y-112253500D02*
X135382724Y-112253500D01*
X134873276Y-113298500D02*
X135382724Y-113298500D01*
%TO.C,R3*%
X144526724Y-118095500D02*
X144017276Y-118095500D01*
X144526724Y-119140500D02*
X144017276Y-119140500D01*
%TO.C,R4*%
X131586500Y-115570724D02*
X131586500Y-115061276D01*
X130541500Y-115570724D02*
X130541500Y-115061276D01*
%TO.C,R5*%
X145400500Y-112776724D02*
X145400500Y-112267276D01*
X146445500Y-112776724D02*
X146445500Y-112267276D01*
%TO.C,RV1*%
X132020000Y-113516000D02*
X132020000Y-114216000D01*
X132720000Y-113516000D02*
X132020000Y-113516000D01*
X136520000Y-116916000D02*
X136520000Y-116316000D01*
X133620000Y-116916000D02*
X136520000Y-116916000D01*
X136520000Y-113716000D02*
X136520000Y-114316000D01*
X133620000Y-113716000D02*
X136520000Y-113716000D01*
X132520000Y-115116000D02*
X132520000Y-115516000D01*
%TO.C,RV2*%
X146372000Y-116278000D02*
X146372000Y-115878000D01*
X145272000Y-117678000D02*
X142372000Y-117678000D01*
X142372000Y-117678000D02*
X142372000Y-117078000D01*
X145272000Y-114478000D02*
X142372000Y-114478000D01*
X142372000Y-114478000D02*
X142372000Y-115078000D01*
X146172000Y-117878000D02*
X146872000Y-117878000D01*
X146872000Y-117878000D02*
X146872000Y-117178000D01*
%TO.C,U1*%
D10*
X135763095Y-117308380D02*
X135763095Y-118117904D01*
X135810714Y-118213142D01*
X135858333Y-118260761D01*
X135953571Y-118308380D01*
X136144047Y-118308380D01*
X136239285Y-118260761D01*
X136286904Y-118213142D01*
X136334523Y-118117904D01*
X136334523Y-117308380D01*
X137334523Y-118308380D02*
X136763095Y-118308380D01*
X137048809Y-118308380D02*
X137048809Y-117308380D01*
X136953571Y-117451238D01*
X136858333Y-117546476D01*
X136763095Y-117594095D01*
%TO.C,D1*%
X135553523Y-110470904D02*
X135553523Y-109670904D01*
X135744000Y-109670904D01*
X135858285Y-109709000D01*
X135934476Y-109785190D01*
X135972571Y-109861380D01*
X136010666Y-110013761D01*
X136010666Y-110128047D01*
X135972571Y-110280428D01*
X135934476Y-110356619D01*
X135858285Y-110432809D01*
X135744000Y-110470904D01*
X135553523Y-110470904D01*
X136772571Y-110470904D02*
X136315428Y-110470904D01*
X136544000Y-110470904D02*
X136544000Y-109670904D01*
X136467809Y-109785190D01*
X136391619Y-109861380D01*
X136315428Y-109899476D01*
%TO.C,C1*%
X136866333Y-119864142D02*
X136818714Y-119911761D01*
X136675857Y-119959380D01*
X136580619Y-119959380D01*
X136437761Y-119911761D01*
X136342523Y-119816523D01*
X136294904Y-119721285D01*
X136247285Y-119530809D01*
X136247285Y-119387952D01*
X136294904Y-119197476D01*
X136342523Y-119102238D01*
X136437761Y-119007000D01*
X136580619Y-118959380D01*
X136675857Y-118959380D01*
X136818714Y-119007000D01*
X136866333Y-119054619D01*
X137818714Y-119959380D02*
X137247285Y-119959380D01*
X137533000Y-119959380D02*
X137533000Y-118959380D01*
X137437761Y-119102238D01*
X137342523Y-119197476D01*
X137247285Y-119245095D01*
%TO.C,C2*%
X140041333Y-112719142D02*
X139993714Y-112766761D01*
X139850857Y-112814380D01*
X139755619Y-112814380D01*
X139612761Y-112766761D01*
X139517523Y-112671523D01*
X139469904Y-112576285D01*
X139422285Y-112385809D01*
X139422285Y-112242952D01*
X139469904Y-112052476D01*
X139517523Y-111957238D01*
X139612761Y-111862000D01*
X139755619Y-111814380D01*
X139850857Y-111814380D01*
X139993714Y-111862000D01*
X140041333Y-111909619D01*
X140422285Y-111909619D02*
X140469904Y-111862000D01*
X140565142Y-111814380D01*
X140803238Y-111814380D01*
X140898476Y-111862000D01*
X140946095Y-111909619D01*
X140993714Y-112004857D01*
X140993714Y-112100095D01*
X140946095Y-112242952D01*
X140374666Y-112814380D01*
X140993714Y-112814380D01*
%TO.C,C3*%
D11*
X140074666Y-121951714D02*
X140036571Y-121989809D01*
X139922285Y-122027904D01*
X139846095Y-122027904D01*
X139731809Y-121989809D01*
X139655619Y-121913619D01*
X139617523Y-121837428D01*
X139579428Y-121685047D01*
X139579428Y-121570761D01*
X139617523Y-121418380D01*
X139655619Y-121342190D01*
X139731809Y-121266000D01*
X139846095Y-121227904D01*
X139922285Y-121227904D01*
X140036571Y-121266000D01*
X140074666Y-121304095D01*
X140341333Y-121227904D02*
X140836571Y-121227904D01*
X140569904Y-121532666D01*
X140684190Y-121532666D01*
X140760380Y-121570761D01*
X140798476Y-121608857D01*
X140836571Y-121685047D01*
X140836571Y-121875523D01*
X140798476Y-121951714D01*
X140760380Y-121989809D01*
X140684190Y-122027904D01*
X140455619Y-122027904D01*
X140379428Y-121989809D01*
X140341333Y-121951714D01*
%TO.C,C4*%
D10*
X137882333Y-111228142D02*
X137834714Y-111275761D01*
X137691857Y-111323380D01*
X137596619Y-111323380D01*
X137453761Y-111275761D01*
X137358523Y-111180523D01*
X137310904Y-111085285D01*
X137263285Y-110894809D01*
X137263285Y-110751952D01*
X137310904Y-110561476D01*
X137358523Y-110466238D01*
X137453761Y-110371000D01*
X137596619Y-110323380D01*
X137691857Y-110323380D01*
X137834714Y-110371000D01*
X137882333Y-110418619D01*
X138739476Y-110656714D02*
X138739476Y-111323380D01*
X138501380Y-110275761D02*
X138263285Y-110990047D01*
X138882333Y-110990047D01*
%TO.C,C5*%
X143249666Y-121570714D02*
X143211571Y-121608809D01*
X143097285Y-121646904D01*
X143021095Y-121646904D01*
X142906809Y-121608809D01*
X142830619Y-121532619D01*
X142792523Y-121456428D01*
X142754428Y-121304047D01*
X142754428Y-121189761D01*
X142792523Y-121037380D01*
X142830619Y-120961190D01*
X142906809Y-120885000D01*
X143021095Y-120846904D01*
X143097285Y-120846904D01*
X143211571Y-120885000D01*
X143249666Y-120923095D01*
X143973476Y-120846904D02*
X143592523Y-120846904D01*
X143554428Y-121227857D01*
X143592523Y-121189761D01*
X143668714Y-121151666D01*
X143859190Y-121151666D01*
X143935380Y-121189761D01*
X143973476Y-121227857D01*
X144011571Y-121304047D01*
X144011571Y-121494523D01*
X143973476Y-121570714D01*
X143935380Y-121608809D01*
X143859190Y-121646904D01*
X143668714Y-121646904D01*
X143592523Y-121608809D01*
X143554428Y-121570714D01*
%TO.C,JP1*%
X133786666Y-118959380D02*
X133786666Y-119673666D01*
X133739047Y-119816523D01*
X133643809Y-119911761D01*
X133500952Y-119959380D01*
X133405714Y-119959380D01*
X134262857Y-119959380D02*
X134262857Y-118959380D01*
X134643809Y-118959380D01*
X134739047Y-119007000D01*
X134786666Y-119054619D01*
X134834285Y-119149857D01*
X134834285Y-119292714D01*
X134786666Y-119387952D01*
X134739047Y-119435571D01*
X134643809Y-119483190D01*
X134262857Y-119483190D01*
X135786666Y-119959380D02*
X135215238Y-119959380D01*
X135500952Y-119959380D02*
X135500952Y-118959380D01*
X135405714Y-119102238D01*
X135310476Y-119197476D01*
X135215238Y-119245095D01*
%TO.C,JP2*%
X141827333Y-110791904D02*
X141827333Y-111363333D01*
X141789238Y-111477619D01*
X141713047Y-111553809D01*
X141598761Y-111591904D01*
X141522571Y-111591904D01*
X142208285Y-111591904D02*
X142208285Y-110791904D01*
X142513047Y-110791904D01*
X142589238Y-110830000D01*
X142627333Y-110868095D01*
X142665428Y-110944285D01*
X142665428Y-111058571D01*
X142627333Y-111134761D01*
X142589238Y-111172857D01*
X142513047Y-111210952D01*
X142208285Y-111210952D01*
X142970190Y-110868095D02*
X143008285Y-110830000D01*
X143084476Y-110791904D01*
X143274952Y-110791904D01*
X143351142Y-110830000D01*
X143389238Y-110868095D01*
X143427333Y-110944285D01*
X143427333Y-111020476D01*
X143389238Y-111134761D01*
X142932095Y-111591904D01*
X143427333Y-111591904D01*
%TO.C,R1*%
X131044904Y-111258333D02*
X130663952Y-111525000D01*
X131044904Y-111715476D02*
X130244904Y-111715476D01*
X130244904Y-111410714D01*
X130283000Y-111334523D01*
X130321095Y-111296428D01*
X130397285Y-111258333D01*
X130511571Y-111258333D01*
X130587761Y-111296428D01*
X130625857Y-111334523D01*
X130663952Y-111410714D01*
X130663952Y-111715476D01*
X131044904Y-110496428D02*
X131044904Y-110953571D01*
X131044904Y-110725000D02*
X130244904Y-110725000D01*
X130359190Y-110801190D01*
X130435380Y-110877380D01*
X130473476Y-110953571D01*
%TO.C,R2*%
X136010666Y-111867904D02*
X135744000Y-111486952D01*
X135553523Y-111867904D02*
X135553523Y-111067904D01*
X135858285Y-111067904D01*
X135934476Y-111106000D01*
X135972571Y-111144095D01*
X136010666Y-111220285D01*
X136010666Y-111334571D01*
X135972571Y-111410761D01*
X135934476Y-111448857D01*
X135858285Y-111486952D01*
X135553523Y-111486952D01*
X136315428Y-111144095D02*
X136353523Y-111106000D01*
X136429714Y-111067904D01*
X136620190Y-111067904D01*
X136696380Y-111106000D01*
X136734476Y-111144095D01*
X136772571Y-111220285D01*
X136772571Y-111296476D01*
X136734476Y-111410761D01*
X136277333Y-111867904D01*
X136772571Y-111867904D01*
%TO.C,R3*%
X144105333Y-120467380D02*
X143772000Y-119991190D01*
X143533904Y-120467380D02*
X143533904Y-119467380D01*
X143914857Y-119467380D01*
X144010095Y-119515000D01*
X144057714Y-119562619D01*
X144105333Y-119657857D01*
X144105333Y-119800714D01*
X144057714Y-119895952D01*
X144010095Y-119943571D01*
X143914857Y-119991190D01*
X143533904Y-119991190D01*
X144438666Y-119467380D02*
X145057714Y-119467380D01*
X144724380Y-119848333D01*
X144867238Y-119848333D01*
X144962476Y-119895952D01*
X145010095Y-119943571D01*
X145057714Y-120038809D01*
X145057714Y-120276904D01*
X145010095Y-120372142D01*
X144962476Y-120419761D01*
X144867238Y-120467380D01*
X144581523Y-120467380D01*
X144486285Y-120419761D01*
X144438666Y-120372142D01*
%TO.C,R4*%
X130930666Y-120376904D02*
X130664000Y-119995952D01*
X130473523Y-120376904D02*
X130473523Y-119576904D01*
X130778285Y-119576904D01*
X130854476Y-119615000D01*
X130892571Y-119653095D01*
X130930666Y-119729285D01*
X130930666Y-119843571D01*
X130892571Y-119919761D01*
X130854476Y-119957857D01*
X130778285Y-119995952D01*
X130473523Y-119995952D01*
X131616380Y-119843571D02*
X131616380Y-120376904D01*
X131425904Y-119538809D02*
X131235428Y-120110238D01*
X131730666Y-120110238D01*
%TO.C,R5*%
X144392666Y-111613904D02*
X144126000Y-111232952D01*
X143935523Y-111613904D02*
X143935523Y-110813904D01*
X144240285Y-110813904D01*
X144316476Y-110852000D01*
X144354571Y-110890095D01*
X144392666Y-110966285D01*
X144392666Y-111080571D01*
X144354571Y-111156761D01*
X144316476Y-111194857D01*
X144240285Y-111232952D01*
X143935523Y-111232952D01*
X145116476Y-110813904D02*
X144735523Y-110813904D01*
X144697428Y-111194857D01*
X144735523Y-111156761D01*
X144811714Y-111118666D01*
X145002190Y-111118666D01*
X145078380Y-111156761D01*
X145116476Y-111194857D01*
X145154571Y-111271047D01*
X145154571Y-111461523D01*
X145116476Y-111537714D01*
X145078380Y-111575809D01*
X145002190Y-111613904D01*
X144811714Y-111613904D01*
X144735523Y-111575809D01*
X144697428Y-111537714D01*
%TD*%
%LPC*%
D13*
%TO.C,U1*%
X138196000Y-117282000D03*
X138696000Y-117282000D03*
X139196000Y-117282000D03*
X139696000Y-117282000D03*
X140196000Y-117282000D03*
X140696000Y-117282000D03*
X140696000Y-115382000D03*
X140196000Y-115382000D03*
X139696000Y-115382000D03*
X139196000Y-115382000D03*
X138696000Y-115382000D03*
X138196000Y-115382000D03*
D14*
X139446000Y-116332000D03*
%TD*%
D15*
%TO.C,D1*%
X131318000Y-110744000D03*
X134618000Y-110744000D03*
%TD*%
%TO.C,C1*%
G36*
G01*
X138446500Y-118234000D02*
X138921500Y-118234000D01*
G75*
G02*
X139159000Y-118471500I0J-237500D01*
G01*
X139159000Y-119046500D01*
G75*
G02*
X138921500Y-119284000I-237500J0D01*
G01*
X138446500Y-119284000D01*
G75*
G02*
X138209000Y-119046500I0J237500D01*
G01*
X138209000Y-118471500D01*
G75*
G02*
X138446500Y-118234000I237500J0D01*
G01*
G37*
G36*
G01*
X138446500Y-119984000D02*
X138921500Y-119984000D01*
G75*
G02*
X139159000Y-120221500I0J-237500D01*
G01*
X139159000Y-120796500D01*
G75*
G02*
X138921500Y-121034000I-237500J0D01*
G01*
X138446500Y-121034000D01*
G75*
G02*
X138209000Y-120796500I0J237500D01*
G01*
X138209000Y-120221500D01*
G75*
G02*
X138446500Y-119984000I237500J0D01*
G01*
G37*
%TD*%
%TO.C,C2*%
G36*
G01*
X140558000Y-114029500D02*
X140558000Y-113554500D01*
G75*
G02*
X140795500Y-113317000I237500J0D01*
G01*
X141370500Y-113317000D01*
G75*
G02*
X141608000Y-113554500I0J-237500D01*
G01*
X141608000Y-114029500D01*
G75*
G02*
X141370500Y-114267000I-237500J0D01*
G01*
X140795500Y-114267000D01*
G75*
G02*
X140558000Y-114029500I0J237500D01*
G01*
G37*
G36*
G01*
X138808000Y-114029500D02*
X138808000Y-113554500D01*
G75*
G02*
X139045500Y-113317000I237500J0D01*
G01*
X139620500Y-113317000D01*
G75*
G02*
X139858000Y-113554500I0J-237500D01*
G01*
X139858000Y-114029500D01*
G75*
G02*
X139620500Y-114267000I-237500J0D01*
G01*
X139045500Y-114267000D01*
G75*
G02*
X138808000Y-114029500I0J237500D01*
G01*
G37*
%TD*%
%TO.C,C3*%
G36*
G01*
X140224500Y-118234000D02*
X140699500Y-118234000D01*
G75*
G02*
X140937000Y-118471500I0J-237500D01*
G01*
X140937000Y-119046500D01*
G75*
G02*
X140699500Y-119284000I-237500J0D01*
G01*
X140224500Y-119284000D01*
G75*
G02*
X139987000Y-119046500I0J237500D01*
G01*
X139987000Y-118471500D01*
G75*
G02*
X140224500Y-118234000I237500J0D01*
G01*
G37*
G36*
G01*
X140224500Y-119984000D02*
X140699500Y-119984000D01*
G75*
G02*
X140937000Y-120221500I0J-237500D01*
G01*
X140937000Y-120796500D01*
G75*
G02*
X140699500Y-121034000I-237500J0D01*
G01*
X140224500Y-121034000D01*
G75*
G02*
X139987000Y-120796500I0J237500D01*
G01*
X139987000Y-120221500D01*
G75*
G02*
X140224500Y-119984000I237500J0D01*
G01*
G37*
%TD*%
%TO.C,C4*%
G36*
G01*
X138159500Y-114430000D02*
X137684500Y-114430000D01*
G75*
G02*
X137447000Y-114192500I0J237500D01*
G01*
X137447000Y-113617500D01*
G75*
G02*
X137684500Y-113380000I237500J0D01*
G01*
X138159500Y-113380000D01*
G75*
G02*
X138397000Y-113617500I0J-237500D01*
G01*
X138397000Y-114192500D01*
G75*
G02*
X138159500Y-114430000I-237500J0D01*
G01*
G37*
G36*
G01*
X138159500Y-112680000D02*
X137684500Y-112680000D01*
G75*
G02*
X137447000Y-112442500I0J237500D01*
G01*
X137447000Y-111867500D01*
G75*
G02*
X137684500Y-111630000I237500J0D01*
G01*
X138159500Y-111630000D01*
G75*
G02*
X138397000Y-111867500I0J-237500D01*
G01*
X138397000Y-112442500D01*
G75*
G02*
X138159500Y-112680000I-237500J0D01*
G01*
G37*
%TD*%
%TO.C,C5*%
G36*
G01*
X142223500Y-119284000D02*
X141748500Y-119284000D01*
G75*
G02*
X141511000Y-119046500I0J237500D01*
G01*
X141511000Y-118471500D01*
G75*
G02*
X141748500Y-118234000I237500J0D01*
G01*
X142223500Y-118234000D01*
G75*
G02*
X142461000Y-118471500I0J-237500D01*
G01*
X142461000Y-119046500D01*
G75*
G02*
X142223500Y-119284000I-237500J0D01*
G01*
G37*
G36*
G01*
X142223500Y-121034000D02*
X141748500Y-121034000D01*
G75*
G02*
X141511000Y-120796500I0J237500D01*
G01*
X141511000Y-120221500D01*
G75*
G02*
X141748500Y-119984000I237500J0D01*
G01*
X142223500Y-119984000D01*
G75*
G02*
X142461000Y-120221500I0J-237500D01*
G01*
X142461000Y-120796500D01*
G75*
G02*
X142223500Y-121034000I-237500J0D01*
G01*
G37*
%TD*%
D16*
%TO.C,J1*%
X136837000Y-123629000D03*
X131357000Y-123629000D03*
D17*
X131137000Y-122879000D03*
X137087000Y-122879000D03*
D18*
X131237000Y-121579000D03*
X136987000Y-121559000D03*
D19*
X132787000Y-121679000D03*
X133437000Y-121679000D03*
X134087000Y-121679000D03*
X134737000Y-121679000D03*
X135387000Y-121679000D03*
D20*
X131667000Y-121559000D03*
X136507000Y-121559000D03*
D21*
X131357000Y-124559000D03*
X136817000Y-124559000D03*
D22*
X133127000Y-124829000D03*
X135047000Y-124829000D03*
%TD*%
D23*
%TO.C,J2*%
X134366000Y-107950000D03*
D24*
X131826000Y-107950000D03*
%TD*%
D23*
%TO.C,J3*%
X140716000Y-107950000D03*
D24*
X143256000Y-107950000D03*
X145796000Y-107950000D03*
X148336000Y-107950000D03*
%TD*%
%TO.C,J4*%
X148336000Y-123190000D03*
X145796000Y-123190000D03*
X143256000Y-123190000D03*
D23*
X140716000Y-123190000D03*
%TD*%
%TO.C,J5*%
X148336000Y-113030000D03*
D24*
X148336000Y-115570000D03*
X148336000Y-118110000D03*
%TD*%
D25*
%TO.C,JP1*%
G36*
X132230000Y-117614000D02*
G01*
X132730000Y-117614000D01*
X132730000Y-117614602D01*
X132754534Y-117614602D01*
X132803365Y-117619412D01*
X132851490Y-117628984D01*
X132898445Y-117643228D01*
X132943778Y-117662005D01*
X132987051Y-117685136D01*
X133027850Y-117712396D01*
X133065779Y-117743524D01*
X133100476Y-117778221D01*
X133131604Y-117816150D01*
X133158864Y-117856949D01*
X133181995Y-117900222D01*
X133200772Y-117945555D01*
X133215016Y-117992510D01*
X133224588Y-118040635D01*
X133229398Y-118089466D01*
X133229398Y-118114000D01*
X133230000Y-118114000D01*
X133230000Y-118614000D01*
X133229398Y-118614000D01*
X133229398Y-118638534D01*
X133224588Y-118687365D01*
X133215016Y-118735490D01*
X133200772Y-118782445D01*
X133181995Y-118827778D01*
X133158864Y-118871051D01*
X133131604Y-118911850D01*
X133100476Y-118949779D01*
X133065779Y-118984476D01*
X133027850Y-119015604D01*
X132987051Y-119042864D01*
X132943778Y-119065995D01*
X132898445Y-119084772D01*
X132851490Y-119099016D01*
X132803365Y-119108588D01*
X132754534Y-119113398D01*
X132730000Y-119113398D01*
X132730000Y-119114000D01*
X132230000Y-119114000D01*
X132230000Y-117614000D01*
G37*
G36*
X131430000Y-119113398D02*
G01*
X131405466Y-119113398D01*
X131356635Y-119108588D01*
X131308510Y-119099016D01*
X131261555Y-119084772D01*
X131216222Y-119065995D01*
X131172949Y-119042864D01*
X131132150Y-119015604D01*
X131094221Y-118984476D01*
X131059524Y-118949779D01*
X131028396Y-118911850D01*
X131001136Y-118871051D01*
X130978005Y-118827778D01*
X130959228Y-118782445D01*
X130944984Y-118735490D01*
X130935412Y-118687365D01*
X130930602Y-118638534D01*
X130930602Y-118614000D01*
X130930000Y-118614000D01*
X130930000Y-118114000D01*
X130930602Y-118114000D01*
X130930602Y-118089466D01*
X130935412Y-118040635D01*
X130944984Y-117992510D01*
X130959228Y-117945555D01*
X130978005Y-117900222D01*
X131001136Y-117856949D01*
X131028396Y-117816150D01*
X131059524Y-117778221D01*
X131094221Y-117743524D01*
X131132150Y-117712396D01*
X131172949Y-117685136D01*
X131216222Y-117662005D01*
X131261555Y-117643228D01*
X131308510Y-117628984D01*
X131356635Y-117619412D01*
X131405466Y-117614602D01*
X131430000Y-117614602D01*
X131430000Y-117614000D01*
X131930000Y-117614000D01*
X131930000Y-119114000D01*
X131430000Y-119114000D01*
X131430000Y-119113398D01*
G37*
%TD*%
%TO.C,JP2*%
G36*
X144160000Y-112280602D02*
G01*
X144184534Y-112280602D01*
X144233365Y-112285412D01*
X144281490Y-112294984D01*
X144328445Y-112309228D01*
X144373778Y-112328005D01*
X144417051Y-112351136D01*
X144457850Y-112378396D01*
X144495779Y-112409524D01*
X144530476Y-112444221D01*
X144561604Y-112482150D01*
X144588864Y-112522949D01*
X144611995Y-112566222D01*
X144630772Y-112611555D01*
X144645016Y-112658510D01*
X144654588Y-112706635D01*
X144659398Y-112755466D01*
X144659398Y-112780000D01*
X144660000Y-112780000D01*
X144660000Y-113280000D01*
X144659398Y-113280000D01*
X144659398Y-113304534D01*
X144654588Y-113353365D01*
X144645016Y-113401490D01*
X144630772Y-113448445D01*
X144611995Y-113493778D01*
X144588864Y-113537051D01*
X144561604Y-113577850D01*
X144530476Y-113615779D01*
X144495779Y-113650476D01*
X144457850Y-113681604D01*
X144417051Y-113708864D01*
X144373778Y-113731995D01*
X144328445Y-113750772D01*
X144281490Y-113765016D01*
X144233365Y-113774588D01*
X144184534Y-113779398D01*
X144160000Y-113779398D01*
X144160000Y-113780000D01*
X143660000Y-113780000D01*
X143660000Y-112280000D01*
X144160000Y-112280000D01*
X144160000Y-112280602D01*
G37*
G36*
X143360000Y-113780000D02*
G01*
X142860000Y-113780000D01*
X142860000Y-113779398D01*
X142835466Y-113779398D01*
X142786635Y-113774588D01*
X142738510Y-113765016D01*
X142691555Y-113750772D01*
X142646222Y-113731995D01*
X142602949Y-113708864D01*
X142562150Y-113681604D01*
X142524221Y-113650476D01*
X142489524Y-113615779D01*
X142458396Y-113577850D01*
X142431136Y-113537051D01*
X142408005Y-113493778D01*
X142389228Y-113448445D01*
X142374984Y-113401490D01*
X142365412Y-113353365D01*
X142360602Y-113304534D01*
X142360602Y-113280000D01*
X142360000Y-113280000D01*
X142360000Y-112780000D01*
X142360602Y-112780000D01*
X142360602Y-112755466D01*
X142365412Y-112706635D01*
X142374984Y-112658510D01*
X142389228Y-112611555D01*
X142408005Y-112566222D01*
X142431136Y-112522949D01*
X142458396Y-112482150D01*
X142489524Y-112444221D01*
X142524221Y-112409524D01*
X142562150Y-112378396D01*
X142602949Y-112351136D01*
X142646222Y-112328005D01*
X142691555Y-112309228D01*
X142738510Y-112294984D01*
X142786635Y-112285412D01*
X142835466Y-112280602D01*
X142860000Y-112280602D01*
X142860000Y-112280000D01*
X143360000Y-112280000D01*
X143360000Y-113780000D01*
G37*
%TD*%
%TO.C,R1*%
G36*
G01*
X133226000Y-112538500D02*
X133226000Y-113013500D01*
G75*
G02*
X132988500Y-113251000I-237500J0D01*
G01*
X132488500Y-113251000D01*
G75*
G02*
X132251000Y-113013500I0J237500D01*
G01*
X132251000Y-112538500D01*
G75*
G02*
X132488500Y-112301000I237500J0D01*
G01*
X132988500Y-112301000D01*
G75*
G02*
X133226000Y-112538500I0J-237500D01*
G01*
G37*
G36*
G01*
X131401000Y-112538500D02*
X131401000Y-113013500D01*
G75*
G02*
X131163500Y-113251000I-237500J0D01*
G01*
X130663500Y-113251000D01*
G75*
G02*
X130426000Y-113013500I0J237500D01*
G01*
X130426000Y-112538500D01*
G75*
G02*
X130663500Y-112301000I237500J0D01*
G01*
X131163500Y-112301000D01*
G75*
G02*
X131401000Y-112538500I0J-237500D01*
G01*
G37*
%TD*%
%TO.C,R2*%
G36*
G01*
X133728000Y-113013500D02*
X133728000Y-112538500D01*
G75*
G02*
X133965500Y-112301000I237500J0D01*
G01*
X134465500Y-112301000D01*
G75*
G02*
X134703000Y-112538500I0J-237500D01*
G01*
X134703000Y-113013500D01*
G75*
G02*
X134465500Y-113251000I-237500J0D01*
G01*
X133965500Y-113251000D01*
G75*
G02*
X133728000Y-113013500I0J237500D01*
G01*
G37*
G36*
G01*
X135553000Y-113013500D02*
X135553000Y-112538500D01*
G75*
G02*
X135790500Y-112301000I237500J0D01*
G01*
X136290500Y-112301000D01*
G75*
G02*
X136528000Y-112538500I0J-237500D01*
G01*
X136528000Y-113013500D01*
G75*
G02*
X136290500Y-113251000I-237500J0D01*
G01*
X135790500Y-113251000D01*
G75*
G02*
X135553000Y-113013500I0J237500D01*
G01*
G37*
%TD*%
%TO.C,R3*%
G36*
G01*
X143847000Y-118380500D02*
X143847000Y-118855500D01*
G75*
G02*
X143609500Y-119093000I-237500J0D01*
G01*
X143109500Y-119093000D01*
G75*
G02*
X142872000Y-118855500I0J237500D01*
G01*
X142872000Y-118380500D01*
G75*
G02*
X143109500Y-118143000I237500J0D01*
G01*
X143609500Y-118143000D01*
G75*
G02*
X143847000Y-118380500I0J-237500D01*
G01*
G37*
G36*
G01*
X145672000Y-118380500D02*
X145672000Y-118855500D01*
G75*
G02*
X145434500Y-119093000I-237500J0D01*
G01*
X144934500Y-119093000D01*
G75*
G02*
X144697000Y-118855500I0J237500D01*
G01*
X144697000Y-118380500D01*
G75*
G02*
X144934500Y-118143000I237500J0D01*
G01*
X145434500Y-118143000D01*
G75*
G02*
X145672000Y-118380500I0J-237500D01*
G01*
G37*
%TD*%
%TO.C,R4*%
G36*
G01*
X131301500Y-114891000D02*
X130826500Y-114891000D01*
G75*
G02*
X130589000Y-114653500I0J237500D01*
G01*
X130589000Y-114153500D01*
G75*
G02*
X130826500Y-113916000I237500J0D01*
G01*
X131301500Y-113916000D01*
G75*
G02*
X131539000Y-114153500I0J-237500D01*
G01*
X131539000Y-114653500D01*
G75*
G02*
X131301500Y-114891000I-237500J0D01*
G01*
G37*
G36*
G01*
X131301500Y-116716000D02*
X130826500Y-116716000D01*
G75*
G02*
X130589000Y-116478500I0J237500D01*
G01*
X130589000Y-115978500D01*
G75*
G02*
X130826500Y-115741000I237500J0D01*
G01*
X131301500Y-115741000D01*
G75*
G02*
X131539000Y-115978500I0J-237500D01*
G01*
X131539000Y-116478500D01*
G75*
G02*
X131301500Y-116716000I-237500J0D01*
G01*
G37*
%TD*%
%TO.C,R5*%
G36*
G01*
X146160500Y-113922000D02*
X145685500Y-113922000D01*
G75*
G02*
X145448000Y-113684500I0J237500D01*
G01*
X145448000Y-113184500D01*
G75*
G02*
X145685500Y-112947000I237500J0D01*
G01*
X146160500Y-112947000D01*
G75*
G02*
X146398000Y-113184500I0J-237500D01*
G01*
X146398000Y-113684500D01*
G75*
G02*
X146160500Y-113922000I-237500J0D01*
G01*
G37*
G36*
G01*
X146160500Y-112097000D02*
X145685500Y-112097000D01*
G75*
G02*
X145448000Y-111859500I0J237500D01*
G01*
X145448000Y-111359500D01*
G75*
G02*
X145685500Y-111122000I237500J0D01*
G01*
X146160500Y-111122000D01*
G75*
G02*
X146398000Y-111359500I0J-237500D01*
G01*
X146398000Y-111859500D01*
G75*
G02*
X146160500Y-112097000I-237500J0D01*
G01*
G37*
%TD*%
D26*
%TO.C,RV1*%
X136070000Y-115316000D03*
D27*
X132820000Y-116316000D03*
X132820000Y-114316000D03*
%TD*%
%TO.C,RV2*%
X146072000Y-117078000D03*
X146072000Y-115078000D03*
D26*
X142822000Y-116078000D03*
%TD*%
M02*
