%FSLAX45Y45*%
G04 Gerber Fmt 4.5, Leading zero omitted, Abs format (unit mm)*
G04 Created by KiCad (PCBNEW (5.1.10)-1) date 2021-06-21 19:38:08*
%MOMM*%
%LPD*%
G01*
G04 APERTURE LIST*
%TA.AperFunction,Profile*%
%ADD10C,0.050000*%
%TD*%
%ADD11C,0.200000*%
%ADD12C,0.300000*%
G04 APERTURE END LIST*
D10*
X13004800Y-12623800D02*
X13004800Y-10617200D01*
X15011400Y-12623800D02*
X13004800Y-12623800D01*
X15011400Y-10617200D02*
X15011400Y-12623800D01*
X13004800Y-10617200D02*
X15011400Y-10617200D01*
D11*
X13829600Y-11618200D02*
X13859600Y-11648200D01*
X13859600Y-11618200D02*
X13829600Y-11648200D01*
X13929600Y-11618200D02*
X13959600Y-11648200D01*
X13959600Y-11618200D02*
X13929600Y-11648200D01*
X14029600Y-11618200D02*
X14059600Y-11648200D01*
X14059600Y-11618200D02*
X14029600Y-11648200D01*
X13469100Y-11862000D02*
G75*
G03*
X13469100Y-11862000I-20000J0D01*
G01*
X13545500Y-11963401D02*
G75*
G03*
X13545500Y-11963401I-20000J0D01*
G01*
X13621700Y-10960100D02*
G75*
G03*
X13621700Y-10960100I-20000J0D01*
G01*
X13659800Y-11976100D02*
G75*
G03*
X13659800Y-11976100I-20000J0D01*
G01*
X13748700Y-11722100D02*
G75*
G03*
X13748700Y-11722100I-20000J0D01*
G01*
X13770401Y-11506200D02*
G75*
G03*
X13770401Y-11506200I-20000J0D01*
G01*
X13964600Y-11163300D02*
G75*
G03*
X13964600Y-11163300I-20000J0D01*
G01*
X14193200Y-11239500D02*
G75*
G03*
X14193200Y-11239500I-20000J0D01*
G01*
X14332900Y-12065000D02*
G75*
G03*
X14332900Y-12065000I-20000J0D01*
G01*
X14739300Y-11112500D02*
G75*
G03*
X14739300Y-11112500I-20000J0D01*
G01*
X13166700Y-12123400D02*
X13166700Y-12188400D01*
X13134200Y-12155900D02*
X13199200Y-12155900D01*
X13189200Y-12175900D02*
X13189200Y-12135900D01*
X13144200Y-12175900D02*
X13144200Y-12135900D01*
X13189200Y-12135900D02*
G75*
G03*
X13144200Y-12135900I-22500J0D01*
G01*
X13144200Y-12175900D02*
G75*
G03*
X13189200Y-12175900I22500J0D01*
G01*
X13650700Y-12123400D02*
X13650700Y-12188400D01*
X13618200Y-12155900D02*
X13683200Y-12155900D01*
X13673200Y-12175900D02*
X13673200Y-12135900D01*
X13628200Y-12175900D02*
X13628200Y-12135900D01*
X13673200Y-12135900D02*
G75*
G03*
X13628200Y-12135900I-22500J0D01*
G01*
X13628200Y-12175900D02*
G75*
G03*
X13673200Y-12175900I22500J0D01*
G01*
X13160449Y-12480649D02*
X13160449Y-12431151D01*
X13110951Y-12431151D01*
X13110951Y-12480649D01*
X13160449Y-12480649D01*
X13160700Y-12480900D02*
X13160700Y-12430900D01*
X13110700Y-12480900D02*
X13110700Y-12430900D01*
X13160700Y-12430900D02*
G75*
G03*
X13110700Y-12430900I-25000J0D01*
G01*
X13110700Y-12480900D02*
G75*
G03*
X13160700Y-12480900I25000J0D01*
G01*
X13706449Y-12480649D02*
X13706449Y-12431151D01*
X13656951Y-12431151D01*
X13656951Y-12480649D01*
X13706449Y-12480649D01*
X13706700Y-12480900D02*
X13706700Y-12430900D01*
X13656700Y-12480900D02*
X13656700Y-12430900D01*
X13706700Y-12430900D02*
G75*
G03*
X13656700Y-12430900I-25000J0D01*
G01*
X13656700Y-12480900D02*
G75*
G03*
X13706700Y-12480900I25000J0D01*
G01*
X13182600Y-10845000D02*
X13232600Y-10795000D01*
X13182600Y-10745000D01*
X13132600Y-10795000D01*
X13182600Y-10845000D01*
X13436600Y-10845000D02*
X13486600Y-10795000D01*
X13436600Y-10745000D01*
X13386600Y-10795000D01*
X13436600Y-10845000D01*
X14071600Y-10845000D02*
X14121600Y-10795000D01*
X14071600Y-10745000D01*
X14021600Y-10795000D01*
X14071600Y-10845000D01*
X14071600Y-12369000D02*
X14121600Y-12319000D01*
X14071600Y-12269000D01*
X14021600Y-12319000D01*
X14071600Y-12369000D01*
X14325600Y-10845000D02*
X14375600Y-10795000D01*
X14325600Y-10745000D01*
X14275600Y-10795000D01*
X14325600Y-10845000D01*
X14325600Y-12369000D02*
X14375600Y-12319000D01*
X14325600Y-12269000D01*
X14275600Y-12319000D01*
X14325600Y-12369000D01*
X14579600Y-10845000D02*
X14629600Y-10795000D01*
X14579600Y-10745000D01*
X14529600Y-10795000D01*
X14579600Y-10845000D01*
X14579600Y-12369000D02*
X14629600Y-12319000D01*
X14579600Y-12269000D01*
X14529600Y-12319000D01*
X14579600Y-12369000D01*
X14833600Y-10845000D02*
X14883600Y-10795000D01*
X14833600Y-10745000D01*
X14783600Y-10795000D01*
X14833600Y-10845000D01*
X14833600Y-11353000D02*
X14883600Y-11303000D01*
X14833600Y-11253000D01*
X14783600Y-11303000D01*
X14833600Y-11353000D01*
X14833600Y-11607000D02*
X14883600Y-11557000D01*
X14833600Y-11507000D01*
X14783600Y-11557000D01*
X14833600Y-11607000D01*
X14833600Y-11861000D02*
X14883600Y-11811000D01*
X14833600Y-11761000D01*
X14783600Y-11811000D01*
X14833600Y-11861000D01*
X14833600Y-12369000D02*
X14883600Y-12319000D01*
X14833600Y-12269000D01*
X14783600Y-12319000D01*
X14833600Y-12369000D01*
D12*
X13288728Y-13092014D02*
X13288728Y-12792014D01*
X13360157Y-12792014D01*
X13403014Y-12806300D01*
X13431586Y-12834871D01*
X13445871Y-12863443D01*
X13460157Y-12920586D01*
X13460157Y-12963443D01*
X13445871Y-13020586D01*
X13431586Y-13049157D01*
X13403014Y-13077729D01*
X13360157Y-13092014D01*
X13288728Y-13092014D01*
X13588728Y-13092014D02*
X13588728Y-12892014D01*
X13588728Y-12949157D02*
X13603014Y-12920586D01*
X13617300Y-12906300D01*
X13645871Y-12892014D01*
X13674443Y-12892014D01*
X13774443Y-13092014D02*
X13774443Y-12892014D01*
X13774443Y-12792014D02*
X13760157Y-12806300D01*
X13774443Y-12820586D01*
X13788728Y-12806300D01*
X13774443Y-12792014D01*
X13774443Y-12820586D01*
X13960157Y-13092014D02*
X13931586Y-13077729D01*
X13917300Y-13049157D01*
X13917300Y-12792014D01*
X14117300Y-13092014D02*
X14088728Y-13077729D01*
X14074443Y-13049157D01*
X14074443Y-12792014D01*
X14460157Y-13092014D02*
X14460157Y-12792014D01*
X14560157Y-13006300D01*
X14660157Y-12792014D01*
X14660157Y-13092014D01*
X14931586Y-13092014D02*
X14931586Y-12934871D01*
X14917300Y-12906300D01*
X14888728Y-12892014D01*
X14831586Y-12892014D01*
X14803014Y-12906300D01*
X14931586Y-13077729D02*
X14903014Y-13092014D01*
X14831586Y-13092014D01*
X14803014Y-13077729D01*
X14788728Y-13049157D01*
X14788728Y-13020586D01*
X14803014Y-12992014D01*
X14831586Y-12977729D01*
X14903014Y-12977729D01*
X14931586Y-12963443D01*
X15074443Y-12892014D02*
X15074443Y-13192014D01*
X15074443Y-12906300D02*
X15103014Y-12892014D01*
X15160157Y-12892014D01*
X15188728Y-12906300D01*
X15203014Y-12920586D01*
X15217300Y-12949157D01*
X15217300Y-13034871D01*
X15203014Y-13063443D01*
X15188728Y-13077729D01*
X15160157Y-13092014D01*
X15103014Y-13092014D01*
X15074443Y-13077729D01*
X15345871Y-13063443D02*
X15360157Y-13077729D01*
X15345871Y-13092014D01*
X15331586Y-13077729D01*
X15345871Y-13063443D01*
X15345871Y-13092014D01*
X15345871Y-12906300D02*
X15360157Y-12920586D01*
X15345871Y-12934871D01*
X15331586Y-12920586D01*
X15345871Y-12906300D01*
X15345871Y-12934871D01*
X12972300Y-13571300D02*
X13002300Y-13601300D01*
X13002300Y-13571300D02*
X12972300Y-13601300D01*
X13345871Y-13422014D02*
X13374443Y-13422014D01*
X13403014Y-13436300D01*
X13417300Y-13450586D01*
X13431586Y-13479157D01*
X13445871Y-13536300D01*
X13445871Y-13607729D01*
X13431586Y-13664871D01*
X13417300Y-13693443D01*
X13403014Y-13707729D01*
X13374443Y-13722014D01*
X13345871Y-13722014D01*
X13317300Y-13707729D01*
X13303014Y-13693443D01*
X13288728Y-13664871D01*
X13274443Y-13607729D01*
X13274443Y-13536300D01*
X13288728Y-13479157D01*
X13303014Y-13450586D01*
X13317300Y-13436300D01*
X13345871Y-13422014D01*
X13574443Y-13693443D02*
X13588728Y-13707729D01*
X13574443Y-13722014D01*
X13560157Y-13707729D01*
X13574443Y-13693443D01*
X13574443Y-13722014D01*
X13688728Y-13422014D02*
X13874443Y-13422014D01*
X13774443Y-13536300D01*
X13817300Y-13536300D01*
X13845871Y-13550586D01*
X13860157Y-13564871D01*
X13874443Y-13593443D01*
X13874443Y-13664871D01*
X13860157Y-13693443D01*
X13845871Y-13707729D01*
X13817300Y-13722014D01*
X13731586Y-13722014D01*
X13703014Y-13707729D01*
X13688728Y-13693443D01*
X14060157Y-13422014D02*
X14088728Y-13422014D01*
X14117300Y-13436300D01*
X14131586Y-13450586D01*
X14145871Y-13479157D01*
X14160157Y-13536300D01*
X14160157Y-13607729D01*
X14145871Y-13664871D01*
X14131586Y-13693443D01*
X14117300Y-13707729D01*
X14088728Y-13722014D01*
X14060157Y-13722014D01*
X14031586Y-13707729D01*
X14017300Y-13693443D01*
X14003014Y-13664871D01*
X13988728Y-13607729D01*
X13988728Y-13536300D01*
X14003014Y-13479157D01*
X14017300Y-13450586D01*
X14031586Y-13436300D01*
X14060157Y-13422014D01*
X14345871Y-13422014D02*
X14374443Y-13422014D01*
X14403014Y-13436300D01*
X14417300Y-13450586D01*
X14431586Y-13479157D01*
X14445871Y-13536300D01*
X14445871Y-13607729D01*
X14431586Y-13664871D01*
X14417300Y-13693443D01*
X14403014Y-13707729D01*
X14374443Y-13722014D01*
X14345871Y-13722014D01*
X14317300Y-13707729D01*
X14303014Y-13693443D01*
X14288728Y-13664871D01*
X14274443Y-13607729D01*
X14274443Y-13536300D01*
X14288728Y-13479157D01*
X14303014Y-13450586D01*
X14317300Y-13436300D01*
X14345871Y-13422014D01*
X14574443Y-13722014D02*
X14574443Y-13522014D01*
X14574443Y-13550586D02*
X14588728Y-13536300D01*
X14617300Y-13522014D01*
X14660157Y-13522014D01*
X14688728Y-13536300D01*
X14703014Y-13564871D01*
X14703014Y-13722014D01*
X14703014Y-13564871D02*
X14717300Y-13536300D01*
X14745871Y-13522014D01*
X14788728Y-13522014D01*
X14817300Y-13536300D01*
X14831586Y-13564871D01*
X14831586Y-13722014D01*
X14974443Y-13722014D02*
X14974443Y-13522014D01*
X14974443Y-13550586D02*
X14988728Y-13536300D01*
X15017300Y-13522014D01*
X15060157Y-13522014D01*
X15088728Y-13536300D01*
X15103014Y-13564871D01*
X15103014Y-13722014D01*
X15103014Y-13564871D02*
X15117300Y-13536300D01*
X15145871Y-13522014D01*
X15188728Y-13522014D01*
X15217300Y-13536300D01*
X15231586Y-13564871D01*
X15231586Y-13722014D01*
X15817300Y-13407729D02*
X15560157Y-13793443D01*
X16203014Y-13422014D02*
X16231586Y-13422014D01*
X16260157Y-13436300D01*
X16274443Y-13450586D01*
X16288728Y-13479157D01*
X16303014Y-13536300D01*
X16303014Y-13607729D01*
X16288728Y-13664871D01*
X16274443Y-13693443D01*
X16260157Y-13707729D01*
X16231586Y-13722014D01*
X16203014Y-13722014D01*
X16174443Y-13707729D01*
X16160157Y-13693443D01*
X16145871Y-13664871D01*
X16131586Y-13607729D01*
X16131586Y-13536300D01*
X16145871Y-13479157D01*
X16160157Y-13450586D01*
X16174443Y-13436300D01*
X16203014Y-13422014D01*
X16431586Y-13693443D02*
X16445871Y-13707729D01*
X16431586Y-13722014D01*
X16417300Y-13707729D01*
X16431586Y-13693443D01*
X16431586Y-13722014D01*
X16631586Y-13422014D02*
X16660157Y-13422014D01*
X16688728Y-13436300D01*
X16703014Y-13450586D01*
X16717300Y-13479157D01*
X16731586Y-13536300D01*
X16731586Y-13607729D01*
X16717300Y-13664871D01*
X16703014Y-13693443D01*
X16688728Y-13707729D01*
X16660157Y-13722014D01*
X16631586Y-13722014D01*
X16603014Y-13707729D01*
X16588728Y-13693443D01*
X16574443Y-13664871D01*
X16560157Y-13607729D01*
X16560157Y-13536300D01*
X16574443Y-13479157D01*
X16588728Y-13450586D01*
X16603014Y-13436300D01*
X16631586Y-13422014D01*
X17017300Y-13722014D02*
X16845871Y-13722014D01*
X16931586Y-13722014D02*
X16931586Y-13422014D01*
X16903014Y-13464871D01*
X16874443Y-13493443D01*
X16845871Y-13507729D01*
X17303014Y-13722014D02*
X17131586Y-13722014D01*
X17217300Y-13722014D02*
X17217300Y-13422014D01*
X17188728Y-13464871D01*
X17160157Y-13493443D01*
X17131586Y-13507729D01*
X17474443Y-13550586D02*
X17445871Y-13536300D01*
X17431586Y-13522014D01*
X17417300Y-13493443D01*
X17417300Y-13479157D01*
X17431586Y-13450586D01*
X17445871Y-13436300D01*
X17474443Y-13422014D01*
X17531586Y-13422014D01*
X17560157Y-13436300D01*
X17574443Y-13450586D01*
X17588728Y-13479157D01*
X17588728Y-13493443D01*
X17574443Y-13522014D01*
X17560157Y-13536300D01*
X17531586Y-13550586D01*
X17474443Y-13550586D01*
X17445871Y-13564871D01*
X17431586Y-13579157D01*
X17417300Y-13607729D01*
X17417300Y-13664871D01*
X17431586Y-13693443D01*
X17445871Y-13707729D01*
X17474443Y-13722014D01*
X17531586Y-13722014D01*
X17560157Y-13707729D01*
X17574443Y-13693443D01*
X17588728Y-13664871D01*
X17588728Y-13607729D01*
X17574443Y-13579157D01*
X17560157Y-13564871D01*
X17531586Y-13550586D01*
X17703014Y-13422014D02*
X17703014Y-13479157D01*
X17817300Y-13422014D02*
X17817300Y-13479157D01*
X18260157Y-13836300D02*
X18245871Y-13822014D01*
X18217300Y-13779157D01*
X18203014Y-13750586D01*
X18188728Y-13707729D01*
X18174443Y-13636300D01*
X18174443Y-13579157D01*
X18188728Y-13507729D01*
X18203014Y-13464871D01*
X18217300Y-13436300D01*
X18245871Y-13393443D01*
X18260157Y-13379157D01*
X18345871Y-13422014D02*
X18531586Y-13422014D01*
X18431586Y-13536300D01*
X18474443Y-13536300D01*
X18503014Y-13550586D01*
X18517300Y-13564871D01*
X18531586Y-13593443D01*
X18531586Y-13664871D01*
X18517300Y-13693443D01*
X18503014Y-13707729D01*
X18474443Y-13722014D01*
X18388728Y-13722014D01*
X18360157Y-13707729D01*
X18345871Y-13693443D01*
X18888728Y-13722014D02*
X18888728Y-13422014D01*
X19017300Y-13722014D02*
X19017300Y-13564871D01*
X19003014Y-13536300D01*
X18974443Y-13522014D01*
X18931586Y-13522014D01*
X18903014Y-13536300D01*
X18888728Y-13550586D01*
X19203014Y-13722014D02*
X19174443Y-13707729D01*
X19160157Y-13693443D01*
X19145871Y-13664871D01*
X19145871Y-13579157D01*
X19160157Y-13550586D01*
X19174443Y-13536300D01*
X19203014Y-13522014D01*
X19245871Y-13522014D01*
X19274443Y-13536300D01*
X19288728Y-13550586D01*
X19303014Y-13579157D01*
X19303014Y-13664871D01*
X19288728Y-13693443D01*
X19274443Y-13707729D01*
X19245871Y-13722014D01*
X19203014Y-13722014D01*
X19474443Y-13722014D02*
X19445871Y-13707729D01*
X19431586Y-13679157D01*
X19431586Y-13422014D01*
X19703014Y-13707729D02*
X19674443Y-13722014D01*
X19617300Y-13722014D01*
X19588728Y-13707729D01*
X19574443Y-13679157D01*
X19574443Y-13564871D01*
X19588728Y-13536300D01*
X19617300Y-13522014D01*
X19674443Y-13522014D01*
X19703014Y-13536300D01*
X19717300Y-13564871D01*
X19717300Y-13593443D01*
X19574443Y-13622014D01*
X19831586Y-13707729D02*
X19860157Y-13722014D01*
X19917300Y-13722014D01*
X19945871Y-13707729D01*
X19960157Y-13679157D01*
X19960157Y-13664871D01*
X19945871Y-13636300D01*
X19917300Y-13622014D01*
X19874443Y-13622014D01*
X19845871Y-13607729D01*
X19831586Y-13579157D01*
X19831586Y-13564871D01*
X19845871Y-13536300D01*
X19874443Y-13522014D01*
X19917300Y-13522014D01*
X19945871Y-13536300D01*
X20060157Y-13836300D02*
X20074443Y-13822014D01*
X20103014Y-13779157D01*
X20117300Y-13750586D01*
X20131586Y-13707729D01*
X20145871Y-13636300D01*
X20145871Y-13579157D01*
X20131586Y-13507729D01*
X20117300Y-13464871D01*
X20103014Y-13436300D01*
X20074443Y-13393443D01*
X20060157Y-13379157D01*
X13002300Y-13982300D02*
G75*
G03*
X13002300Y-13982300I-20000J0D01*
G01*
X13345871Y-13818014D02*
X13374443Y-13818014D01*
X13403014Y-13832300D01*
X13417300Y-13846586D01*
X13431586Y-13875157D01*
X13445871Y-13932300D01*
X13445871Y-14003729D01*
X13431586Y-14060871D01*
X13417300Y-14089443D01*
X13403014Y-14103729D01*
X13374443Y-14118014D01*
X13345871Y-14118014D01*
X13317300Y-14103729D01*
X13303014Y-14089443D01*
X13288728Y-14060871D01*
X13274443Y-14003729D01*
X13274443Y-13932300D01*
X13288728Y-13875157D01*
X13303014Y-13846586D01*
X13317300Y-13832300D01*
X13345871Y-13818014D01*
X13574443Y-14089443D02*
X13588728Y-14103729D01*
X13574443Y-14118014D01*
X13560157Y-14103729D01*
X13574443Y-14089443D01*
X13574443Y-14118014D01*
X13845871Y-13918014D02*
X13845871Y-14118014D01*
X13774443Y-13803729D02*
X13703014Y-14018014D01*
X13888728Y-14018014D01*
X14060157Y-13818014D02*
X14088728Y-13818014D01*
X14117300Y-13832300D01*
X14131586Y-13846586D01*
X14145871Y-13875157D01*
X14160157Y-13932300D01*
X14160157Y-14003729D01*
X14145871Y-14060871D01*
X14131586Y-14089443D01*
X14117300Y-14103729D01*
X14088728Y-14118014D01*
X14060157Y-14118014D01*
X14031586Y-14103729D01*
X14017300Y-14089443D01*
X14003014Y-14060871D01*
X13988728Y-14003729D01*
X13988728Y-13932300D01*
X14003014Y-13875157D01*
X14017300Y-13846586D01*
X14031586Y-13832300D01*
X14060157Y-13818014D01*
X14345871Y-13818014D02*
X14374443Y-13818014D01*
X14403014Y-13832300D01*
X14417300Y-13846586D01*
X14431586Y-13875157D01*
X14445871Y-13932300D01*
X14445871Y-14003729D01*
X14431586Y-14060871D01*
X14417300Y-14089443D01*
X14403014Y-14103729D01*
X14374443Y-14118014D01*
X14345871Y-14118014D01*
X14317300Y-14103729D01*
X14303014Y-14089443D01*
X14288728Y-14060871D01*
X14274443Y-14003729D01*
X14274443Y-13932300D01*
X14288728Y-13875157D01*
X14303014Y-13846586D01*
X14317300Y-13832300D01*
X14345871Y-13818014D01*
X14574443Y-14118014D02*
X14574443Y-13918014D01*
X14574443Y-13946586D02*
X14588728Y-13932300D01*
X14617300Y-13918014D01*
X14660157Y-13918014D01*
X14688728Y-13932300D01*
X14703014Y-13960871D01*
X14703014Y-14118014D01*
X14703014Y-13960871D02*
X14717300Y-13932300D01*
X14745871Y-13918014D01*
X14788728Y-13918014D01*
X14817300Y-13932300D01*
X14831586Y-13960871D01*
X14831586Y-14118014D01*
X14974443Y-14118014D02*
X14974443Y-13918014D01*
X14974443Y-13946586D02*
X14988728Y-13932300D01*
X15017300Y-13918014D01*
X15060157Y-13918014D01*
X15088728Y-13932300D01*
X15103014Y-13960871D01*
X15103014Y-14118014D01*
X15103014Y-13960871D02*
X15117300Y-13932300D01*
X15145871Y-13918014D01*
X15188728Y-13918014D01*
X15217300Y-13932300D01*
X15231586Y-13960871D01*
X15231586Y-14118014D01*
X15817300Y-13803729D02*
X15560157Y-14189443D01*
X16203014Y-13818014D02*
X16231586Y-13818014D01*
X16260157Y-13832300D01*
X16274443Y-13846586D01*
X16288728Y-13875157D01*
X16303014Y-13932300D01*
X16303014Y-14003729D01*
X16288728Y-14060871D01*
X16274443Y-14089443D01*
X16260157Y-14103729D01*
X16231586Y-14118014D01*
X16203014Y-14118014D01*
X16174443Y-14103729D01*
X16160157Y-14089443D01*
X16145871Y-14060871D01*
X16131586Y-14003729D01*
X16131586Y-13932300D01*
X16145871Y-13875157D01*
X16160157Y-13846586D01*
X16174443Y-13832300D01*
X16203014Y-13818014D01*
X16431586Y-14089443D02*
X16445871Y-14103729D01*
X16431586Y-14118014D01*
X16417300Y-14103729D01*
X16431586Y-14089443D01*
X16431586Y-14118014D01*
X16631586Y-13818014D02*
X16660157Y-13818014D01*
X16688728Y-13832300D01*
X16703014Y-13846586D01*
X16717300Y-13875157D01*
X16731586Y-13932300D01*
X16731586Y-14003729D01*
X16717300Y-14060871D01*
X16703014Y-14089443D01*
X16688728Y-14103729D01*
X16660157Y-14118014D01*
X16631586Y-14118014D01*
X16603014Y-14103729D01*
X16588728Y-14089443D01*
X16574443Y-14060871D01*
X16560157Y-14003729D01*
X16560157Y-13932300D01*
X16574443Y-13875157D01*
X16588728Y-13846586D01*
X16603014Y-13832300D01*
X16631586Y-13818014D01*
X17017300Y-14118014D02*
X16845871Y-14118014D01*
X16931586Y-14118014D02*
X16931586Y-13818014D01*
X16903014Y-13860871D01*
X16874443Y-13889443D01*
X16845871Y-13903729D01*
X17288728Y-13818014D02*
X17145871Y-13818014D01*
X17131586Y-13960871D01*
X17145871Y-13946586D01*
X17174443Y-13932300D01*
X17245871Y-13932300D01*
X17274443Y-13946586D01*
X17288728Y-13960871D01*
X17303014Y-13989443D01*
X17303014Y-14060871D01*
X17288728Y-14089443D01*
X17274443Y-14103729D01*
X17245871Y-14118014D01*
X17174443Y-14118014D01*
X17145871Y-14103729D01*
X17131586Y-14089443D01*
X17403014Y-13818014D02*
X17603014Y-13818014D01*
X17474443Y-14118014D01*
X17703014Y-13818014D02*
X17703014Y-13875157D01*
X17817300Y-13818014D02*
X17817300Y-13875157D01*
X18260157Y-14232300D02*
X18245871Y-14218014D01*
X18217300Y-14175157D01*
X18203014Y-14146586D01*
X18188728Y-14103729D01*
X18174443Y-14032300D01*
X18174443Y-13975157D01*
X18188728Y-13903729D01*
X18203014Y-13860871D01*
X18217300Y-13832300D01*
X18245871Y-13789443D01*
X18260157Y-13775157D01*
X18531586Y-14118014D02*
X18360157Y-14118014D01*
X18445871Y-14118014D02*
X18445871Y-13818014D01*
X18417300Y-13860871D01*
X18388728Y-13889443D01*
X18360157Y-13903729D01*
X18717300Y-13818014D02*
X18745871Y-13818014D01*
X18774443Y-13832300D01*
X18788728Y-13846586D01*
X18803014Y-13875157D01*
X18817300Y-13932300D01*
X18817300Y-14003729D01*
X18803014Y-14060871D01*
X18788728Y-14089443D01*
X18774443Y-14103729D01*
X18745871Y-14118014D01*
X18717300Y-14118014D01*
X18688728Y-14103729D01*
X18674443Y-14089443D01*
X18660157Y-14060871D01*
X18645871Y-14003729D01*
X18645871Y-13932300D01*
X18660157Y-13875157D01*
X18674443Y-13846586D01*
X18688728Y-13832300D01*
X18717300Y-13818014D01*
X19174443Y-14118014D02*
X19174443Y-13818014D01*
X19303014Y-14118014D02*
X19303014Y-13960871D01*
X19288728Y-13932300D01*
X19260157Y-13918014D01*
X19217300Y-13918014D01*
X19188728Y-13932300D01*
X19174443Y-13946586D01*
X19488728Y-14118014D02*
X19460157Y-14103729D01*
X19445871Y-14089443D01*
X19431586Y-14060871D01*
X19431586Y-13975157D01*
X19445871Y-13946586D01*
X19460157Y-13932300D01*
X19488728Y-13918014D01*
X19531586Y-13918014D01*
X19560157Y-13932300D01*
X19574443Y-13946586D01*
X19588728Y-13975157D01*
X19588728Y-14060871D01*
X19574443Y-14089443D01*
X19560157Y-14103729D01*
X19531586Y-14118014D01*
X19488728Y-14118014D01*
X19760157Y-14118014D02*
X19731586Y-14103729D01*
X19717300Y-14075157D01*
X19717300Y-13818014D01*
X19988728Y-14103729D02*
X19960157Y-14118014D01*
X19903014Y-14118014D01*
X19874443Y-14103729D01*
X19860157Y-14075157D01*
X19860157Y-13960871D01*
X19874443Y-13932300D01*
X19903014Y-13918014D01*
X19960157Y-13918014D01*
X19988728Y-13932300D01*
X20003014Y-13960871D01*
X20003014Y-13989443D01*
X19860157Y-14018014D01*
X20117300Y-14103729D02*
X20145871Y-14118014D01*
X20203014Y-14118014D01*
X20231586Y-14103729D01*
X20245871Y-14075157D01*
X20245871Y-14060871D01*
X20231586Y-14032300D01*
X20203014Y-14018014D01*
X20160157Y-14018014D01*
X20131586Y-14003729D01*
X20117300Y-13975157D01*
X20117300Y-13960871D01*
X20131586Y-13932300D01*
X20160157Y-13918014D01*
X20203014Y-13918014D01*
X20231586Y-13932300D01*
X20345871Y-14232300D02*
X20360157Y-14218014D01*
X20388728Y-14175157D01*
X20403014Y-14146586D01*
X20417300Y-14103729D01*
X20431586Y-14032300D01*
X20431586Y-13975157D01*
X20417300Y-13903729D01*
X20403014Y-13860871D01*
X20388728Y-13832300D01*
X20360157Y-13789443D01*
X20345871Y-13775157D01*
X12969800Y-14345800D02*
X12969800Y-14410800D01*
X12937300Y-14378300D02*
X13002300Y-14378300D01*
X13345871Y-14214014D02*
X13374443Y-14214014D01*
X13403014Y-14228300D01*
X13417300Y-14242586D01*
X13431586Y-14271157D01*
X13445871Y-14328300D01*
X13445871Y-14399729D01*
X13431586Y-14456871D01*
X13417300Y-14485443D01*
X13403014Y-14499729D01*
X13374443Y-14514014D01*
X13345871Y-14514014D01*
X13317300Y-14499729D01*
X13303014Y-14485443D01*
X13288728Y-14456871D01*
X13274443Y-14399729D01*
X13274443Y-14328300D01*
X13288728Y-14271157D01*
X13303014Y-14242586D01*
X13317300Y-14228300D01*
X13345871Y-14214014D01*
X13574443Y-14485443D02*
X13588728Y-14499729D01*
X13574443Y-14514014D01*
X13560157Y-14499729D01*
X13574443Y-14485443D01*
X13574443Y-14514014D01*
X13845871Y-14214014D02*
X13788728Y-14214014D01*
X13760157Y-14228300D01*
X13745871Y-14242586D01*
X13717300Y-14285443D01*
X13703014Y-14342586D01*
X13703014Y-14456871D01*
X13717300Y-14485443D01*
X13731586Y-14499729D01*
X13760157Y-14514014D01*
X13817300Y-14514014D01*
X13845871Y-14499729D01*
X13860157Y-14485443D01*
X13874443Y-14456871D01*
X13874443Y-14385443D01*
X13860157Y-14356871D01*
X13845871Y-14342586D01*
X13817300Y-14328300D01*
X13760157Y-14328300D01*
X13731586Y-14342586D01*
X13717300Y-14356871D01*
X13703014Y-14385443D01*
X14145871Y-14214014D02*
X14003014Y-14214014D01*
X13988728Y-14356871D01*
X14003014Y-14342586D01*
X14031586Y-14328300D01*
X14103014Y-14328300D01*
X14131586Y-14342586D01*
X14145871Y-14356871D01*
X14160157Y-14385443D01*
X14160157Y-14456871D01*
X14145871Y-14485443D01*
X14131586Y-14499729D01*
X14103014Y-14514014D01*
X14031586Y-14514014D01*
X14003014Y-14499729D01*
X13988728Y-14485443D01*
X14345871Y-14214014D02*
X14374443Y-14214014D01*
X14403014Y-14228300D01*
X14417300Y-14242586D01*
X14431586Y-14271157D01*
X14445871Y-14328300D01*
X14445871Y-14399729D01*
X14431586Y-14456871D01*
X14417300Y-14485443D01*
X14403014Y-14499729D01*
X14374443Y-14514014D01*
X14345871Y-14514014D01*
X14317300Y-14499729D01*
X14303014Y-14485443D01*
X14288728Y-14456871D01*
X14274443Y-14399729D01*
X14274443Y-14328300D01*
X14288728Y-14271157D01*
X14303014Y-14242586D01*
X14317300Y-14228300D01*
X14345871Y-14214014D01*
X14574443Y-14514014D02*
X14574443Y-14314014D01*
X14574443Y-14342586D02*
X14588728Y-14328300D01*
X14617300Y-14314014D01*
X14660157Y-14314014D01*
X14688728Y-14328300D01*
X14703014Y-14356871D01*
X14703014Y-14514014D01*
X14703014Y-14356871D02*
X14717300Y-14328300D01*
X14745871Y-14314014D01*
X14788728Y-14314014D01*
X14817300Y-14328300D01*
X14831586Y-14356871D01*
X14831586Y-14514014D01*
X14974443Y-14514014D02*
X14974443Y-14314014D01*
X14974443Y-14342586D02*
X14988728Y-14328300D01*
X15017300Y-14314014D01*
X15060157Y-14314014D01*
X15088728Y-14328300D01*
X15103014Y-14356871D01*
X15103014Y-14514014D01*
X15103014Y-14356871D02*
X15117300Y-14328300D01*
X15145871Y-14314014D01*
X15188728Y-14314014D01*
X15217300Y-14328300D01*
X15231586Y-14356871D01*
X15231586Y-14514014D01*
X15817300Y-14199729D02*
X15560157Y-14585443D01*
X16203014Y-14214014D02*
X16231586Y-14214014D01*
X16260157Y-14228300D01*
X16274443Y-14242586D01*
X16288728Y-14271157D01*
X16303014Y-14328300D01*
X16303014Y-14399729D01*
X16288728Y-14456871D01*
X16274443Y-14485443D01*
X16260157Y-14499729D01*
X16231586Y-14514014D01*
X16203014Y-14514014D01*
X16174443Y-14499729D01*
X16160157Y-14485443D01*
X16145871Y-14456871D01*
X16131586Y-14399729D01*
X16131586Y-14328300D01*
X16145871Y-14271157D01*
X16160157Y-14242586D01*
X16174443Y-14228300D01*
X16203014Y-14214014D01*
X16431586Y-14485443D02*
X16445871Y-14499729D01*
X16431586Y-14514014D01*
X16417300Y-14499729D01*
X16431586Y-14485443D01*
X16431586Y-14514014D01*
X16631586Y-14214014D02*
X16660157Y-14214014D01*
X16688728Y-14228300D01*
X16703014Y-14242586D01*
X16717300Y-14271157D01*
X16731586Y-14328300D01*
X16731586Y-14399729D01*
X16717300Y-14456871D01*
X16703014Y-14485443D01*
X16688728Y-14499729D01*
X16660157Y-14514014D01*
X16631586Y-14514014D01*
X16603014Y-14499729D01*
X16588728Y-14485443D01*
X16574443Y-14456871D01*
X16560157Y-14399729D01*
X16560157Y-14328300D01*
X16574443Y-14271157D01*
X16588728Y-14242586D01*
X16603014Y-14228300D01*
X16631586Y-14214014D01*
X16845871Y-14242586D02*
X16860157Y-14228300D01*
X16888728Y-14214014D01*
X16960157Y-14214014D01*
X16988728Y-14228300D01*
X17003014Y-14242586D01*
X17017300Y-14271157D01*
X17017300Y-14299729D01*
X17003014Y-14342586D01*
X16831586Y-14514014D01*
X17017300Y-14514014D01*
X17288728Y-14214014D02*
X17145871Y-14214014D01*
X17131586Y-14356871D01*
X17145871Y-14342586D01*
X17174443Y-14328300D01*
X17245871Y-14328300D01*
X17274443Y-14342586D01*
X17288728Y-14356871D01*
X17303014Y-14385443D01*
X17303014Y-14456871D01*
X17288728Y-14485443D01*
X17274443Y-14499729D01*
X17245871Y-14514014D01*
X17174443Y-14514014D01*
X17145871Y-14499729D01*
X17131586Y-14485443D01*
X17560157Y-14214014D02*
X17503014Y-14214014D01*
X17474443Y-14228300D01*
X17460157Y-14242586D01*
X17431586Y-14285443D01*
X17417300Y-14342586D01*
X17417300Y-14456871D01*
X17431586Y-14485443D01*
X17445871Y-14499729D01*
X17474443Y-14514014D01*
X17531586Y-14514014D01*
X17560157Y-14499729D01*
X17574443Y-14485443D01*
X17588728Y-14456871D01*
X17588728Y-14385443D01*
X17574443Y-14356871D01*
X17560157Y-14342586D01*
X17531586Y-14328300D01*
X17474443Y-14328300D01*
X17445871Y-14342586D01*
X17431586Y-14356871D01*
X17417300Y-14385443D01*
X17703014Y-14214014D02*
X17703014Y-14271157D01*
X17817300Y-14214014D02*
X17817300Y-14271157D01*
X18260157Y-14628300D02*
X18245871Y-14614014D01*
X18217300Y-14571157D01*
X18203014Y-14542586D01*
X18188728Y-14499729D01*
X18174443Y-14428300D01*
X18174443Y-14371157D01*
X18188728Y-14299729D01*
X18203014Y-14256871D01*
X18217300Y-14228300D01*
X18245871Y-14185443D01*
X18260157Y-14171157D01*
X18431586Y-14214014D02*
X18460157Y-14214014D01*
X18488728Y-14228300D01*
X18503014Y-14242586D01*
X18517300Y-14271157D01*
X18531586Y-14328300D01*
X18531586Y-14399729D01*
X18517300Y-14456871D01*
X18503014Y-14485443D01*
X18488728Y-14499729D01*
X18460157Y-14514014D01*
X18431586Y-14514014D01*
X18403014Y-14499729D01*
X18388728Y-14485443D01*
X18374443Y-14456871D01*
X18360157Y-14399729D01*
X18360157Y-14328300D01*
X18374443Y-14271157D01*
X18388728Y-14242586D01*
X18403014Y-14228300D01*
X18431586Y-14214014D01*
X18888728Y-14514014D02*
X18888728Y-14214014D01*
X19017300Y-14514014D02*
X19017300Y-14356871D01*
X19003014Y-14328300D01*
X18974443Y-14314014D01*
X18931586Y-14314014D01*
X18903014Y-14328300D01*
X18888728Y-14342586D01*
X19203014Y-14514014D02*
X19174443Y-14499729D01*
X19160157Y-14485443D01*
X19145871Y-14456871D01*
X19145871Y-14371157D01*
X19160157Y-14342586D01*
X19174443Y-14328300D01*
X19203014Y-14314014D01*
X19245871Y-14314014D01*
X19274443Y-14328300D01*
X19288728Y-14342586D01*
X19303014Y-14371157D01*
X19303014Y-14456871D01*
X19288728Y-14485443D01*
X19274443Y-14499729D01*
X19245871Y-14514014D01*
X19203014Y-14514014D01*
X19474443Y-14514014D02*
X19445871Y-14499729D01*
X19431586Y-14471157D01*
X19431586Y-14214014D01*
X19703014Y-14499729D02*
X19674443Y-14514014D01*
X19617300Y-14514014D01*
X19588728Y-14499729D01*
X19574443Y-14471157D01*
X19574443Y-14356871D01*
X19588728Y-14328300D01*
X19617300Y-14314014D01*
X19674443Y-14314014D01*
X19703014Y-14328300D01*
X19717300Y-14356871D01*
X19717300Y-14385443D01*
X19574443Y-14414014D01*
X19831586Y-14499729D02*
X19860157Y-14514014D01*
X19917300Y-14514014D01*
X19945871Y-14499729D01*
X19960157Y-14471157D01*
X19960157Y-14456871D01*
X19945871Y-14428300D01*
X19917300Y-14414014D01*
X19874443Y-14414014D01*
X19845871Y-14399729D01*
X19831586Y-14371157D01*
X19831586Y-14356871D01*
X19845871Y-14328300D01*
X19874443Y-14314014D01*
X19917300Y-14314014D01*
X19945871Y-14328300D01*
X20317300Y-14399729D02*
X20545871Y-14399729D01*
X20431586Y-14514014D02*
X20431586Y-14285443D01*
X20903014Y-14242586D02*
X20917300Y-14228300D01*
X20945871Y-14214014D01*
X21017300Y-14214014D01*
X21045871Y-14228300D01*
X21060157Y-14242586D01*
X21074443Y-14271157D01*
X21074443Y-14299729D01*
X21060157Y-14342586D01*
X20888728Y-14514014D01*
X21074443Y-14514014D01*
X21417300Y-14499729D02*
X21445871Y-14514014D01*
X21503014Y-14514014D01*
X21531586Y-14499729D01*
X21545871Y-14471157D01*
X21545871Y-14456871D01*
X21531586Y-14428300D01*
X21503014Y-14414014D01*
X21460157Y-14414014D01*
X21431586Y-14399729D01*
X21417300Y-14371157D01*
X21417300Y-14356871D01*
X21431586Y-14328300D01*
X21460157Y-14314014D01*
X21503014Y-14314014D01*
X21531586Y-14328300D01*
X21717300Y-14514014D02*
X21688728Y-14499729D01*
X21674443Y-14471157D01*
X21674443Y-14214014D01*
X21874443Y-14514014D02*
X21845871Y-14499729D01*
X21831586Y-14485443D01*
X21817300Y-14456871D01*
X21817300Y-14371157D01*
X21831586Y-14342586D01*
X21845871Y-14328300D01*
X21874443Y-14314014D01*
X21917300Y-14314014D01*
X21945871Y-14328300D01*
X21960157Y-14342586D01*
X21974443Y-14371157D01*
X21974443Y-14456871D01*
X21960157Y-14485443D01*
X21945871Y-14499729D01*
X21917300Y-14514014D01*
X21874443Y-14514014D01*
X22060157Y-14314014D02*
X22174443Y-14314014D01*
X22103014Y-14214014D02*
X22103014Y-14471157D01*
X22117300Y-14499729D01*
X22145871Y-14514014D01*
X22174443Y-14514014D01*
X22260157Y-14499729D02*
X22288728Y-14514014D01*
X22345871Y-14514014D01*
X22374443Y-14499729D01*
X22388728Y-14471157D01*
X22388728Y-14456871D01*
X22374443Y-14428300D01*
X22345871Y-14414014D01*
X22303014Y-14414014D01*
X22274443Y-14399729D01*
X22260157Y-14371157D01*
X22260157Y-14356871D01*
X22274443Y-14328300D01*
X22303014Y-14314014D01*
X22345871Y-14314014D01*
X22374443Y-14328300D01*
X22488728Y-14628300D02*
X22503014Y-14614014D01*
X22531586Y-14571157D01*
X22545871Y-14542586D01*
X22560157Y-14499729D01*
X22574443Y-14428300D01*
X22574443Y-14371157D01*
X22560157Y-14299729D01*
X22545871Y-14256871D01*
X22531586Y-14228300D01*
X22503014Y-14185443D01*
X22488728Y-14171157D01*
X12992049Y-14799049D02*
X12992049Y-14749551D01*
X12942551Y-14749551D01*
X12942551Y-14799049D01*
X12992049Y-14799049D01*
X13345871Y-14610014D02*
X13374443Y-14610014D01*
X13403014Y-14624300D01*
X13417300Y-14638586D01*
X13431586Y-14667157D01*
X13445871Y-14724300D01*
X13445871Y-14795729D01*
X13431586Y-14852871D01*
X13417300Y-14881443D01*
X13403014Y-14895729D01*
X13374443Y-14910014D01*
X13345871Y-14910014D01*
X13317300Y-14895729D01*
X13303014Y-14881443D01*
X13288728Y-14852871D01*
X13274443Y-14795729D01*
X13274443Y-14724300D01*
X13288728Y-14667157D01*
X13303014Y-14638586D01*
X13317300Y-14624300D01*
X13345871Y-14610014D01*
X13574443Y-14881443D02*
X13588728Y-14895729D01*
X13574443Y-14910014D01*
X13560157Y-14895729D01*
X13574443Y-14881443D01*
X13574443Y-14910014D01*
X13688728Y-14610014D02*
X13888728Y-14610014D01*
X13760157Y-14910014D01*
X14060157Y-14610014D02*
X14088728Y-14610014D01*
X14117300Y-14624300D01*
X14131586Y-14638586D01*
X14145871Y-14667157D01*
X14160157Y-14724300D01*
X14160157Y-14795729D01*
X14145871Y-14852871D01*
X14131586Y-14881443D01*
X14117300Y-14895729D01*
X14088728Y-14910014D01*
X14060157Y-14910014D01*
X14031586Y-14895729D01*
X14017300Y-14881443D01*
X14003014Y-14852871D01*
X13988728Y-14795729D01*
X13988728Y-14724300D01*
X14003014Y-14667157D01*
X14017300Y-14638586D01*
X14031586Y-14624300D01*
X14060157Y-14610014D01*
X14345871Y-14610014D02*
X14374443Y-14610014D01*
X14403014Y-14624300D01*
X14417300Y-14638586D01*
X14431586Y-14667157D01*
X14445871Y-14724300D01*
X14445871Y-14795729D01*
X14431586Y-14852871D01*
X14417300Y-14881443D01*
X14403014Y-14895729D01*
X14374443Y-14910014D01*
X14345871Y-14910014D01*
X14317300Y-14895729D01*
X14303014Y-14881443D01*
X14288728Y-14852871D01*
X14274443Y-14795729D01*
X14274443Y-14724300D01*
X14288728Y-14667157D01*
X14303014Y-14638586D01*
X14317300Y-14624300D01*
X14345871Y-14610014D01*
X14574443Y-14910014D02*
X14574443Y-14710014D01*
X14574443Y-14738586D02*
X14588728Y-14724300D01*
X14617300Y-14710014D01*
X14660157Y-14710014D01*
X14688728Y-14724300D01*
X14703014Y-14752871D01*
X14703014Y-14910014D01*
X14703014Y-14752871D02*
X14717300Y-14724300D01*
X14745871Y-14710014D01*
X14788728Y-14710014D01*
X14817300Y-14724300D01*
X14831586Y-14752871D01*
X14831586Y-14910014D01*
X14974443Y-14910014D02*
X14974443Y-14710014D01*
X14974443Y-14738586D02*
X14988728Y-14724300D01*
X15017300Y-14710014D01*
X15060157Y-14710014D01*
X15088728Y-14724300D01*
X15103014Y-14752871D01*
X15103014Y-14910014D01*
X15103014Y-14752871D02*
X15117300Y-14724300D01*
X15145871Y-14710014D01*
X15188728Y-14710014D01*
X15217300Y-14724300D01*
X15231586Y-14752871D01*
X15231586Y-14910014D01*
X15817300Y-14595729D02*
X15560157Y-14981443D01*
X16203014Y-14610014D02*
X16231586Y-14610014D01*
X16260157Y-14624300D01*
X16274443Y-14638586D01*
X16288728Y-14667157D01*
X16303014Y-14724300D01*
X16303014Y-14795729D01*
X16288728Y-14852871D01*
X16274443Y-14881443D01*
X16260157Y-14895729D01*
X16231586Y-14910014D01*
X16203014Y-14910014D01*
X16174443Y-14895729D01*
X16160157Y-14881443D01*
X16145871Y-14852871D01*
X16131586Y-14795729D01*
X16131586Y-14724300D01*
X16145871Y-14667157D01*
X16160157Y-14638586D01*
X16174443Y-14624300D01*
X16203014Y-14610014D01*
X16431586Y-14881443D02*
X16445871Y-14895729D01*
X16431586Y-14910014D01*
X16417300Y-14895729D01*
X16431586Y-14881443D01*
X16431586Y-14910014D01*
X16631586Y-14610014D02*
X16660157Y-14610014D01*
X16688728Y-14624300D01*
X16703014Y-14638586D01*
X16717300Y-14667157D01*
X16731586Y-14724300D01*
X16731586Y-14795729D01*
X16717300Y-14852871D01*
X16703014Y-14881443D01*
X16688728Y-14895729D01*
X16660157Y-14910014D01*
X16631586Y-14910014D01*
X16603014Y-14895729D01*
X16588728Y-14881443D01*
X16574443Y-14852871D01*
X16560157Y-14795729D01*
X16560157Y-14724300D01*
X16574443Y-14667157D01*
X16588728Y-14638586D01*
X16603014Y-14624300D01*
X16631586Y-14610014D01*
X16845871Y-14638586D02*
X16860157Y-14624300D01*
X16888728Y-14610014D01*
X16960157Y-14610014D01*
X16988728Y-14624300D01*
X17003014Y-14638586D01*
X17017300Y-14667157D01*
X17017300Y-14695729D01*
X17003014Y-14738586D01*
X16831586Y-14910014D01*
X17017300Y-14910014D01*
X17117300Y-14610014D02*
X17317300Y-14610014D01*
X17188728Y-14910014D01*
X17560157Y-14610014D02*
X17503014Y-14610014D01*
X17474443Y-14624300D01*
X17460157Y-14638586D01*
X17431586Y-14681443D01*
X17417300Y-14738586D01*
X17417300Y-14852871D01*
X17431586Y-14881443D01*
X17445871Y-14895729D01*
X17474443Y-14910014D01*
X17531586Y-14910014D01*
X17560157Y-14895729D01*
X17574443Y-14881443D01*
X17588728Y-14852871D01*
X17588728Y-14781443D01*
X17574443Y-14752871D01*
X17560157Y-14738586D01*
X17531586Y-14724300D01*
X17474443Y-14724300D01*
X17445871Y-14738586D01*
X17431586Y-14752871D01*
X17417300Y-14781443D01*
X17703014Y-14610014D02*
X17703014Y-14667157D01*
X17817300Y-14610014D02*
X17817300Y-14667157D01*
X18260157Y-15024300D02*
X18245871Y-15010014D01*
X18217300Y-14967157D01*
X18203014Y-14938586D01*
X18188728Y-14895729D01*
X18174443Y-14824300D01*
X18174443Y-14767157D01*
X18188728Y-14695729D01*
X18203014Y-14652871D01*
X18217300Y-14624300D01*
X18245871Y-14581443D01*
X18260157Y-14567157D01*
X18431586Y-14610014D02*
X18460157Y-14610014D01*
X18488728Y-14624300D01*
X18503014Y-14638586D01*
X18517300Y-14667157D01*
X18531586Y-14724300D01*
X18531586Y-14795729D01*
X18517300Y-14852871D01*
X18503014Y-14881443D01*
X18488728Y-14895729D01*
X18460157Y-14910014D01*
X18431586Y-14910014D01*
X18403014Y-14895729D01*
X18388728Y-14881443D01*
X18374443Y-14852871D01*
X18360157Y-14795729D01*
X18360157Y-14724300D01*
X18374443Y-14667157D01*
X18388728Y-14638586D01*
X18403014Y-14624300D01*
X18431586Y-14610014D01*
X18888728Y-14910014D02*
X18888728Y-14610014D01*
X19017300Y-14910014D02*
X19017300Y-14752871D01*
X19003014Y-14724300D01*
X18974443Y-14710014D01*
X18931586Y-14710014D01*
X18903014Y-14724300D01*
X18888728Y-14738586D01*
X19203014Y-14910014D02*
X19174443Y-14895729D01*
X19160157Y-14881443D01*
X19145871Y-14852871D01*
X19145871Y-14767157D01*
X19160157Y-14738586D01*
X19174443Y-14724300D01*
X19203014Y-14710014D01*
X19245871Y-14710014D01*
X19274443Y-14724300D01*
X19288728Y-14738586D01*
X19303014Y-14767157D01*
X19303014Y-14852871D01*
X19288728Y-14881443D01*
X19274443Y-14895729D01*
X19245871Y-14910014D01*
X19203014Y-14910014D01*
X19474443Y-14910014D02*
X19445871Y-14895729D01*
X19431586Y-14867157D01*
X19431586Y-14610014D01*
X19703014Y-14895729D02*
X19674443Y-14910014D01*
X19617300Y-14910014D01*
X19588728Y-14895729D01*
X19574443Y-14867157D01*
X19574443Y-14752871D01*
X19588728Y-14724300D01*
X19617300Y-14710014D01*
X19674443Y-14710014D01*
X19703014Y-14724300D01*
X19717300Y-14752871D01*
X19717300Y-14781443D01*
X19574443Y-14810014D01*
X19831586Y-14895729D02*
X19860157Y-14910014D01*
X19917300Y-14910014D01*
X19945871Y-14895729D01*
X19960157Y-14867157D01*
X19960157Y-14852871D01*
X19945871Y-14824300D01*
X19917300Y-14810014D01*
X19874443Y-14810014D01*
X19845871Y-14795729D01*
X19831586Y-14767157D01*
X19831586Y-14752871D01*
X19845871Y-14724300D01*
X19874443Y-14710014D01*
X19917300Y-14710014D01*
X19945871Y-14724300D01*
X20317300Y-14795729D02*
X20545871Y-14795729D01*
X20431586Y-14910014D02*
X20431586Y-14681443D01*
X20903014Y-14638586D02*
X20917300Y-14624300D01*
X20945871Y-14610014D01*
X21017300Y-14610014D01*
X21045871Y-14624300D01*
X21060157Y-14638586D01*
X21074443Y-14667157D01*
X21074443Y-14695729D01*
X21060157Y-14738586D01*
X20888728Y-14910014D01*
X21074443Y-14910014D01*
X21417300Y-14895729D02*
X21445871Y-14910014D01*
X21503014Y-14910014D01*
X21531586Y-14895729D01*
X21545871Y-14867157D01*
X21545871Y-14852871D01*
X21531586Y-14824300D01*
X21503014Y-14810014D01*
X21460157Y-14810014D01*
X21431586Y-14795729D01*
X21417300Y-14767157D01*
X21417300Y-14752871D01*
X21431586Y-14724300D01*
X21460157Y-14710014D01*
X21503014Y-14710014D01*
X21531586Y-14724300D01*
X21717300Y-14910014D02*
X21688728Y-14895729D01*
X21674443Y-14867157D01*
X21674443Y-14610014D01*
X21874443Y-14910014D02*
X21845871Y-14895729D01*
X21831586Y-14881443D01*
X21817300Y-14852871D01*
X21817300Y-14767157D01*
X21831586Y-14738586D01*
X21845871Y-14724300D01*
X21874443Y-14710014D01*
X21917300Y-14710014D01*
X21945871Y-14724300D01*
X21960157Y-14738586D01*
X21974443Y-14767157D01*
X21974443Y-14852871D01*
X21960157Y-14881443D01*
X21945871Y-14895729D01*
X21917300Y-14910014D01*
X21874443Y-14910014D01*
X22060157Y-14710014D02*
X22174443Y-14710014D01*
X22103014Y-14610014D02*
X22103014Y-14867157D01*
X22117300Y-14895729D01*
X22145871Y-14910014D01*
X22174443Y-14910014D01*
X22260157Y-14895729D02*
X22288728Y-14910014D01*
X22345871Y-14910014D01*
X22374443Y-14895729D01*
X22388728Y-14867157D01*
X22388728Y-14852871D01*
X22374443Y-14824300D01*
X22345871Y-14810014D01*
X22303014Y-14810014D01*
X22274443Y-14795729D01*
X22260157Y-14767157D01*
X22260157Y-14752871D01*
X22274443Y-14724300D01*
X22303014Y-14710014D01*
X22345871Y-14710014D01*
X22374443Y-14724300D01*
X22488728Y-15024300D02*
X22503014Y-15010014D01*
X22531586Y-14967157D01*
X22545871Y-14938586D01*
X22560157Y-14895729D01*
X22574443Y-14824300D01*
X22574443Y-14767157D01*
X22560157Y-14695729D01*
X22545871Y-14652871D01*
X22531586Y-14624300D01*
X22503014Y-14581443D01*
X22488728Y-14567157D01*
X12952300Y-15220300D02*
X13002300Y-15170300D01*
X12952300Y-15120300D01*
X12902300Y-15170300D01*
X12952300Y-15220300D01*
X13445871Y-15306014D02*
X13274443Y-15306014D01*
X13360157Y-15306014D02*
X13360157Y-15006014D01*
X13331586Y-15048871D01*
X13303014Y-15077443D01*
X13274443Y-15091729D01*
X13574443Y-15277443D02*
X13588728Y-15291729D01*
X13574443Y-15306014D01*
X13560157Y-15291729D01*
X13574443Y-15277443D01*
X13574443Y-15306014D01*
X13774443Y-15006014D02*
X13803014Y-15006014D01*
X13831586Y-15020300D01*
X13845871Y-15034586D01*
X13860157Y-15063157D01*
X13874443Y-15120300D01*
X13874443Y-15191729D01*
X13860157Y-15248871D01*
X13845871Y-15277443D01*
X13831586Y-15291729D01*
X13803014Y-15306014D01*
X13774443Y-15306014D01*
X13745871Y-15291729D01*
X13731586Y-15277443D01*
X13717300Y-15248871D01*
X13703014Y-15191729D01*
X13703014Y-15120300D01*
X13717300Y-15063157D01*
X13731586Y-15034586D01*
X13745871Y-15020300D01*
X13774443Y-15006014D01*
X14060157Y-15006014D02*
X14088728Y-15006014D01*
X14117300Y-15020300D01*
X14131586Y-15034586D01*
X14145871Y-15063157D01*
X14160157Y-15120300D01*
X14160157Y-15191729D01*
X14145871Y-15248871D01*
X14131586Y-15277443D01*
X14117300Y-15291729D01*
X14088728Y-15306014D01*
X14060157Y-15306014D01*
X14031586Y-15291729D01*
X14017300Y-15277443D01*
X14003014Y-15248871D01*
X13988728Y-15191729D01*
X13988728Y-15120300D01*
X14003014Y-15063157D01*
X14017300Y-15034586D01*
X14031586Y-15020300D01*
X14060157Y-15006014D01*
X14345871Y-15006014D02*
X14374443Y-15006014D01*
X14403014Y-15020300D01*
X14417300Y-15034586D01*
X14431586Y-15063157D01*
X14445871Y-15120300D01*
X14445871Y-15191729D01*
X14431586Y-15248871D01*
X14417300Y-15277443D01*
X14403014Y-15291729D01*
X14374443Y-15306014D01*
X14345871Y-15306014D01*
X14317300Y-15291729D01*
X14303014Y-15277443D01*
X14288728Y-15248871D01*
X14274443Y-15191729D01*
X14274443Y-15120300D01*
X14288728Y-15063157D01*
X14303014Y-15034586D01*
X14317300Y-15020300D01*
X14345871Y-15006014D01*
X14574443Y-15306014D02*
X14574443Y-15106014D01*
X14574443Y-15134586D02*
X14588728Y-15120300D01*
X14617300Y-15106014D01*
X14660157Y-15106014D01*
X14688728Y-15120300D01*
X14703014Y-15148871D01*
X14703014Y-15306014D01*
X14703014Y-15148871D02*
X14717300Y-15120300D01*
X14745871Y-15106014D01*
X14788728Y-15106014D01*
X14817300Y-15120300D01*
X14831586Y-15148871D01*
X14831586Y-15306014D01*
X14974443Y-15306014D02*
X14974443Y-15106014D01*
X14974443Y-15134586D02*
X14988728Y-15120300D01*
X15017300Y-15106014D01*
X15060157Y-15106014D01*
X15088728Y-15120300D01*
X15103014Y-15148871D01*
X15103014Y-15306014D01*
X15103014Y-15148871D02*
X15117300Y-15120300D01*
X15145871Y-15106014D01*
X15188728Y-15106014D01*
X15217300Y-15120300D01*
X15231586Y-15148871D01*
X15231586Y-15306014D01*
X15817300Y-14991729D02*
X15560157Y-15377443D01*
X16203014Y-15006014D02*
X16231586Y-15006014D01*
X16260157Y-15020300D01*
X16274443Y-15034586D01*
X16288728Y-15063157D01*
X16303014Y-15120300D01*
X16303014Y-15191729D01*
X16288728Y-15248871D01*
X16274443Y-15277443D01*
X16260157Y-15291729D01*
X16231586Y-15306014D01*
X16203014Y-15306014D01*
X16174443Y-15291729D01*
X16160157Y-15277443D01*
X16145871Y-15248871D01*
X16131586Y-15191729D01*
X16131586Y-15120300D01*
X16145871Y-15063157D01*
X16160157Y-15034586D01*
X16174443Y-15020300D01*
X16203014Y-15006014D01*
X16431586Y-15277443D02*
X16445871Y-15291729D01*
X16431586Y-15306014D01*
X16417300Y-15291729D01*
X16431586Y-15277443D01*
X16431586Y-15306014D01*
X16631586Y-15006014D02*
X16660157Y-15006014D01*
X16688728Y-15020300D01*
X16703014Y-15034586D01*
X16717300Y-15063157D01*
X16731586Y-15120300D01*
X16731586Y-15191729D01*
X16717300Y-15248871D01*
X16703014Y-15277443D01*
X16688728Y-15291729D01*
X16660157Y-15306014D01*
X16631586Y-15306014D01*
X16603014Y-15291729D01*
X16588728Y-15277443D01*
X16574443Y-15248871D01*
X16560157Y-15191729D01*
X16560157Y-15120300D01*
X16574443Y-15063157D01*
X16588728Y-15034586D01*
X16603014Y-15020300D01*
X16631586Y-15006014D01*
X16831586Y-15006014D02*
X17017300Y-15006014D01*
X16917300Y-15120300D01*
X16960157Y-15120300D01*
X16988728Y-15134586D01*
X17003014Y-15148871D01*
X17017300Y-15177443D01*
X17017300Y-15248871D01*
X17003014Y-15277443D01*
X16988728Y-15291729D01*
X16960157Y-15306014D01*
X16874443Y-15306014D01*
X16845871Y-15291729D01*
X16831586Y-15277443D01*
X17160157Y-15306014D02*
X17217300Y-15306014D01*
X17245871Y-15291729D01*
X17260157Y-15277443D01*
X17288728Y-15234586D01*
X17303014Y-15177443D01*
X17303014Y-15063157D01*
X17288728Y-15034586D01*
X17274443Y-15020300D01*
X17245871Y-15006014D01*
X17188728Y-15006014D01*
X17160157Y-15020300D01*
X17145871Y-15034586D01*
X17131586Y-15063157D01*
X17131586Y-15134586D01*
X17145871Y-15163157D01*
X17160157Y-15177443D01*
X17188728Y-15191729D01*
X17245871Y-15191729D01*
X17274443Y-15177443D01*
X17288728Y-15163157D01*
X17303014Y-15134586D01*
X17560157Y-15106014D02*
X17560157Y-15306014D01*
X17488728Y-14991729D02*
X17417300Y-15206014D01*
X17603014Y-15206014D01*
X17703014Y-15006014D02*
X17703014Y-15063157D01*
X17817300Y-15006014D02*
X17817300Y-15063157D01*
X18260157Y-15420300D02*
X18245871Y-15406014D01*
X18217300Y-15363157D01*
X18203014Y-15334586D01*
X18188728Y-15291729D01*
X18174443Y-15220300D01*
X18174443Y-15163157D01*
X18188728Y-15091729D01*
X18203014Y-15048871D01*
X18217300Y-15020300D01*
X18245871Y-14977443D01*
X18260157Y-14963157D01*
X18531586Y-15306014D02*
X18360157Y-15306014D01*
X18445871Y-15306014D02*
X18445871Y-15006014D01*
X18417300Y-15048871D01*
X18388728Y-15077443D01*
X18360157Y-15091729D01*
X18631586Y-15006014D02*
X18817300Y-15006014D01*
X18717300Y-15120300D01*
X18760157Y-15120300D01*
X18788728Y-15134586D01*
X18803014Y-15148871D01*
X18817300Y-15177443D01*
X18817300Y-15248871D01*
X18803014Y-15277443D01*
X18788728Y-15291729D01*
X18760157Y-15306014D01*
X18674443Y-15306014D01*
X18645871Y-15291729D01*
X18631586Y-15277443D01*
X19174443Y-15306014D02*
X19174443Y-15006014D01*
X19303014Y-15306014D02*
X19303014Y-15148871D01*
X19288728Y-15120300D01*
X19260157Y-15106014D01*
X19217300Y-15106014D01*
X19188728Y-15120300D01*
X19174443Y-15134586D01*
X19488728Y-15306014D02*
X19460157Y-15291729D01*
X19445871Y-15277443D01*
X19431586Y-15248871D01*
X19431586Y-15163157D01*
X19445871Y-15134586D01*
X19460157Y-15120300D01*
X19488728Y-15106014D01*
X19531586Y-15106014D01*
X19560157Y-15120300D01*
X19574443Y-15134586D01*
X19588728Y-15163157D01*
X19588728Y-15248871D01*
X19574443Y-15277443D01*
X19560157Y-15291729D01*
X19531586Y-15306014D01*
X19488728Y-15306014D01*
X19760157Y-15306014D02*
X19731586Y-15291729D01*
X19717300Y-15263157D01*
X19717300Y-15006014D01*
X19988728Y-15291729D02*
X19960157Y-15306014D01*
X19903014Y-15306014D01*
X19874443Y-15291729D01*
X19860157Y-15263157D01*
X19860157Y-15148871D01*
X19874443Y-15120300D01*
X19903014Y-15106014D01*
X19960157Y-15106014D01*
X19988728Y-15120300D01*
X20003014Y-15148871D01*
X20003014Y-15177443D01*
X19860157Y-15206014D01*
X20117300Y-15291729D02*
X20145871Y-15306014D01*
X20203014Y-15306014D01*
X20231586Y-15291729D01*
X20245871Y-15263157D01*
X20245871Y-15248871D01*
X20231586Y-15220300D01*
X20203014Y-15206014D01*
X20160157Y-15206014D01*
X20131586Y-15191729D01*
X20117300Y-15163157D01*
X20117300Y-15148871D01*
X20131586Y-15120300D01*
X20160157Y-15106014D01*
X20203014Y-15106014D01*
X20231586Y-15120300D01*
X20345871Y-15420300D02*
X20360157Y-15406014D01*
X20388728Y-15363157D01*
X20403014Y-15334586D01*
X20417300Y-15291729D01*
X20431586Y-15220300D01*
X20431586Y-15163157D01*
X20417300Y-15091729D01*
X20403014Y-15048871D01*
X20388728Y-15020300D01*
X20360157Y-14977443D01*
X20345871Y-14963157D01*
M02*
