%TF.GenerationSoftware,KiCad,Pcbnew,(5.1.10)-1*%
%TF.CreationDate,2021-06-21T20:23:21-05:00*%
%TF.ProjectId,USB_Dual_Supply,5553425f-4475-4616-9c5f-537570706c79,rev?*%
%TF.SameCoordinates,Original*%
%TF.FileFunction,Copper,L1,Top*%
%TF.FilePolarity,Positive*%
%FSLAX46Y46*%
G04 Gerber Fmt 4.6, Leading zero omitted, Abs format (unit mm)*
G04 Created by KiCad (PCBNEW (5.1.10)-1) date 2021-06-21 20:23:21*
%MOMM*%
%LPD*%
G01*
G04 APERTURE LIST*
%TA.AperFunction,EtchedComponent*%
%ADD10C,0.100000*%
%TD*%
%TA.AperFunction,SMDPad,CuDef*%
%ADD11R,0.250000X0.500000*%
%TD*%
%TA.AperFunction,ComponentPad*%
%ADD12C,0.600000*%
%TD*%
%TA.AperFunction,SMDPad,CuDef*%
%ADD13R,2.650000X1.000000*%
%TD*%
%TA.AperFunction,SMDPad,CuDef*%
%ADD14R,0.900000X1.200000*%
%TD*%
%TA.AperFunction,SMDPad,CuDef*%
%ADD15R,1.350000X2.000000*%
%TD*%
%TA.AperFunction,SMDPad,CuDef*%
%ADD16R,1.825000X0.700000*%
%TD*%
%TA.AperFunction,SMDPad,CuDef*%
%ADD17R,2.000000X1.500000*%
%TD*%
%TA.AperFunction,SMDPad,CuDef*%
%ADD18R,0.400000X1.650000*%
%TD*%
%TA.AperFunction,ComponentPad*%
%ADD19O,1.100000X1.500000*%
%TD*%
%TA.AperFunction,ComponentPad*%
%ADD20O,1.350000X1.700000*%
%TD*%
%TA.AperFunction,SMDPad,CuDef*%
%ADD21R,1.430000X2.500000*%
%TD*%
%TA.AperFunction,ComponentPad*%
%ADD22R,1.700000X1.700000*%
%TD*%
%TA.AperFunction,ComponentPad*%
%ADD23O,1.700000X1.700000*%
%TD*%
%TA.AperFunction,SMDPad,CuDef*%
%ADD24C,0.100000*%
%TD*%
%TA.AperFunction,SMDPad,CuDef*%
%ADD25R,1.500000X1.600000*%
%TD*%
%TA.AperFunction,SMDPad,CuDef*%
%ADD26R,1.200000X1.200000*%
%TD*%
%TA.AperFunction,ViaPad*%
%ADD27C,0.800000*%
%TD*%
%TA.AperFunction,Conductor*%
%ADD28C,0.500000*%
%TD*%
%TA.AperFunction,Conductor*%
%ADD29C,0.254000*%
%TD*%
%TA.AperFunction,Conductor*%
%ADD30C,0.250000*%
%TD*%
%TA.AperFunction,Conductor*%
%ADD31C,0.100000*%
%TD*%
G04 APERTURE END LIST*
D10*
%TO.C,JP1*%
G36*
X131830000Y-118664000D02*
G01*
X132330000Y-118664000D01*
X132330000Y-118064000D01*
X131830000Y-118064000D01*
X131830000Y-118664000D01*
G37*
%TO.C,JP2*%
G36*
X143760000Y-112730000D02*
G01*
X143260000Y-112730000D01*
X143260000Y-113330000D01*
X143760000Y-113330000D01*
X143760000Y-112730000D01*
G37*
%TD*%
D11*
%TO.P,U1,1*%
%TO.N,GND*%
X138196000Y-117282000D03*
%TO.P,U1,2*%
%TO.N,Net-(JP1-Pad1)*%
X138696000Y-117282000D03*
%TO.P,U1,3*%
%TO.N,/VIN*%
X139196000Y-117282000D03*
%TO.P,U1,4*%
%TO.N,GND*%
X139696000Y-117282000D03*
%TO.P,U1,5*%
%TO.N,Net-(C3-Pad1)*%
X140196000Y-117282000D03*
%TO.P,U1,6*%
%TO.N,/VSS*%
X140696000Y-117282000D03*
%TO.P,U1,7*%
%TO.N,Net-(JP2-Pad1)*%
X140696000Y-115382000D03*
%TO.P,U1,8*%
%TO.N,/VIN*%
X140196000Y-115382000D03*
%TO.P,U1,9*%
%TO.N,Net-(C2-Pad2)*%
X139696000Y-115382000D03*
%TO.P,U1,10*%
%TO.N,Net-(C2-Pad1)*%
X139196000Y-115382000D03*
%TO.P,U1,11*%
%TO.N,/VDD*%
X138696000Y-115382000D03*
%TO.P,U1,12*%
%TO.N,/VIN*%
X138196000Y-115382000D03*
D12*
%TO.P,U1,13*%
%TO.N,GND*%
X139446000Y-116332000D03*
X138446000Y-116332000D03*
X140446000Y-116332000D03*
D13*
X139446000Y-116332000D03*
%TD*%
D14*
%TO.P,D1,2*%
%TO.N,Net-(D1-Pad2)*%
X131318000Y-110744000D03*
%TO.P,D1,1*%
%TO.N,/VIN*%
X134618000Y-110744000D03*
%TD*%
%TO.P,C1,1*%
%TO.N,/VIN*%
%TA.AperFunction,SMDPad,CuDef*%
G36*
G01*
X138446500Y-118234000D02*
X138921500Y-118234000D01*
G75*
G02*
X139159000Y-118471500I0J-237500D01*
G01*
X139159000Y-119046500D01*
G75*
G02*
X138921500Y-119284000I-237500J0D01*
G01*
X138446500Y-119284000D01*
G75*
G02*
X138209000Y-119046500I0J237500D01*
G01*
X138209000Y-118471500D01*
G75*
G02*
X138446500Y-118234000I237500J0D01*
G01*
G37*
%TD.AperFunction*%
%TO.P,C1,2*%
%TO.N,GND*%
%TA.AperFunction,SMDPad,CuDef*%
G36*
G01*
X138446500Y-119984000D02*
X138921500Y-119984000D01*
G75*
G02*
X139159000Y-120221500I0J-237500D01*
G01*
X139159000Y-120796500D01*
G75*
G02*
X138921500Y-121034000I-237500J0D01*
G01*
X138446500Y-121034000D01*
G75*
G02*
X138209000Y-120796500I0J237500D01*
G01*
X138209000Y-120221500D01*
G75*
G02*
X138446500Y-119984000I237500J0D01*
G01*
G37*
%TD.AperFunction*%
%TD*%
%TO.P,C2,2*%
%TO.N,Net-(C2-Pad2)*%
%TA.AperFunction,SMDPad,CuDef*%
G36*
G01*
X140558000Y-114029500D02*
X140558000Y-113554500D01*
G75*
G02*
X140795500Y-113317000I237500J0D01*
G01*
X141370500Y-113317000D01*
G75*
G02*
X141608000Y-113554500I0J-237500D01*
G01*
X141608000Y-114029500D01*
G75*
G02*
X141370500Y-114267000I-237500J0D01*
G01*
X140795500Y-114267000D01*
G75*
G02*
X140558000Y-114029500I0J237500D01*
G01*
G37*
%TD.AperFunction*%
%TO.P,C2,1*%
%TO.N,Net-(C2-Pad1)*%
%TA.AperFunction,SMDPad,CuDef*%
G36*
G01*
X138808000Y-114029500D02*
X138808000Y-113554500D01*
G75*
G02*
X139045500Y-113317000I237500J0D01*
G01*
X139620500Y-113317000D01*
G75*
G02*
X139858000Y-113554500I0J-237500D01*
G01*
X139858000Y-114029500D01*
G75*
G02*
X139620500Y-114267000I-237500J0D01*
G01*
X139045500Y-114267000D01*
G75*
G02*
X138808000Y-114029500I0J237500D01*
G01*
G37*
%TD.AperFunction*%
%TD*%
%TO.P,C3,1*%
%TO.N,Net-(C3-Pad1)*%
%TA.AperFunction,SMDPad,CuDef*%
G36*
G01*
X140224500Y-118234000D02*
X140699500Y-118234000D01*
G75*
G02*
X140937000Y-118471500I0J-237500D01*
G01*
X140937000Y-119046500D01*
G75*
G02*
X140699500Y-119284000I-237500J0D01*
G01*
X140224500Y-119284000D01*
G75*
G02*
X139987000Y-119046500I0J237500D01*
G01*
X139987000Y-118471500D01*
G75*
G02*
X140224500Y-118234000I237500J0D01*
G01*
G37*
%TD.AperFunction*%
%TO.P,C3,2*%
%TO.N,GND*%
%TA.AperFunction,SMDPad,CuDef*%
G36*
G01*
X140224500Y-119984000D02*
X140699500Y-119984000D01*
G75*
G02*
X140937000Y-120221500I0J-237500D01*
G01*
X140937000Y-120796500D01*
G75*
G02*
X140699500Y-121034000I-237500J0D01*
G01*
X140224500Y-121034000D01*
G75*
G02*
X139987000Y-120796500I0J237500D01*
G01*
X139987000Y-120221500D01*
G75*
G02*
X140224500Y-119984000I237500J0D01*
G01*
G37*
%TD.AperFunction*%
%TD*%
%TO.P,C4,1*%
%TO.N,/VDD*%
%TA.AperFunction,SMDPad,CuDef*%
G36*
G01*
X138159500Y-114430000D02*
X137684500Y-114430000D01*
G75*
G02*
X137447000Y-114192500I0J237500D01*
G01*
X137447000Y-113617500D01*
G75*
G02*
X137684500Y-113380000I237500J0D01*
G01*
X138159500Y-113380000D01*
G75*
G02*
X138397000Y-113617500I0J-237500D01*
G01*
X138397000Y-114192500D01*
G75*
G02*
X138159500Y-114430000I-237500J0D01*
G01*
G37*
%TD.AperFunction*%
%TO.P,C4,2*%
%TO.N,GND*%
%TA.AperFunction,SMDPad,CuDef*%
G36*
G01*
X138159500Y-112680000D02*
X137684500Y-112680000D01*
G75*
G02*
X137447000Y-112442500I0J237500D01*
G01*
X137447000Y-111867500D01*
G75*
G02*
X137684500Y-111630000I237500J0D01*
G01*
X138159500Y-111630000D01*
G75*
G02*
X138397000Y-111867500I0J-237500D01*
G01*
X138397000Y-112442500D01*
G75*
G02*
X138159500Y-112680000I-237500J0D01*
G01*
G37*
%TD.AperFunction*%
%TD*%
%TO.P,C5,2*%
%TO.N,/VSS*%
%TA.AperFunction,SMDPad,CuDef*%
G36*
G01*
X142223500Y-119284000D02*
X141748500Y-119284000D01*
G75*
G02*
X141511000Y-119046500I0J237500D01*
G01*
X141511000Y-118471500D01*
G75*
G02*
X141748500Y-118234000I237500J0D01*
G01*
X142223500Y-118234000D01*
G75*
G02*
X142461000Y-118471500I0J-237500D01*
G01*
X142461000Y-119046500D01*
G75*
G02*
X142223500Y-119284000I-237500J0D01*
G01*
G37*
%TD.AperFunction*%
%TO.P,C5,1*%
%TO.N,GND*%
%TA.AperFunction,SMDPad,CuDef*%
G36*
G01*
X142223500Y-121034000D02*
X141748500Y-121034000D01*
G75*
G02*
X141511000Y-120796500I0J237500D01*
G01*
X141511000Y-120221500D01*
G75*
G02*
X141748500Y-119984000I237500J0D01*
G01*
X142223500Y-119984000D01*
G75*
G02*
X142461000Y-120221500I0J-237500D01*
G01*
X142461000Y-120796500D01*
G75*
G02*
X142223500Y-121034000I-237500J0D01*
G01*
G37*
%TD.AperFunction*%
%TD*%
D15*
%TO.P,J1,6*%
%TO.N,GND*%
X136837000Y-123629000D03*
X131357000Y-123629000D03*
D16*
X131137000Y-122879000D03*
X137087000Y-122879000D03*
D17*
X131237000Y-121579000D03*
X136987000Y-121559000D03*
D18*
%TO.P,J1,1*%
%TO.N,/VIN*%
X132787000Y-121679000D03*
%TO.P,J1,2*%
%TO.N,/USB_D-*%
X133437000Y-121679000D03*
%TO.P,J1,3*%
%TO.N,/USB_D+*%
X134087000Y-121679000D03*
%TO.P,J1,4*%
%TO.N,Net-(J1-Pad4)*%
X134737000Y-121679000D03*
%TO.P,J1,5*%
%TO.N,GND*%
X135387000Y-121679000D03*
D19*
%TO.P,J1,6*%
X131667000Y-121559000D03*
X136507000Y-121559000D03*
D20*
X131357000Y-124559000D03*
X136817000Y-124559000D03*
D21*
X133127000Y-124829000D03*
X135047000Y-124829000D03*
%TD*%
D22*
%TO.P,J2,1*%
%TO.N,/VIN*%
X134366000Y-107950000D03*
D23*
%TO.P,J2,2*%
%TO.N,GND*%
X131826000Y-107950000D03*
%TD*%
D22*
%TO.P,J3,1*%
%TO.N,/USB_D+*%
X140716000Y-107950000D03*
D23*
%TO.P,J3,2*%
%TO.N,/VIN*%
X143256000Y-107950000D03*
%TO.P,J3,3*%
%TO.N,GND*%
X145796000Y-107950000D03*
%TO.P,J3,4*%
%TO.N,/VDD*%
X148336000Y-107950000D03*
%TD*%
%TO.P,J4,4*%
%TO.N,/VSS*%
X148336000Y-123190000D03*
%TO.P,J4,3*%
%TO.N,GND*%
X145796000Y-123190000D03*
%TO.P,J4,2*%
X143256000Y-123190000D03*
D22*
%TO.P,J4,1*%
%TO.N,/USB_D-*%
X140716000Y-123190000D03*
%TD*%
%TO.P,J5,1*%
%TO.N,/VDD*%
X148336000Y-113030000D03*
D23*
%TO.P,J5,2*%
%TO.N,GND*%
X148336000Y-115570000D03*
%TO.P,J5,3*%
%TO.N,/VSS*%
X148336000Y-118110000D03*
%TD*%
%TA.AperFunction,SMDPad,CuDef*%
D24*
%TO.P,JP1,1*%
%TO.N,Net-(JP1-Pad1)*%
G36*
X132230000Y-117614000D02*
G01*
X132730000Y-117614000D01*
X132730000Y-117614602D01*
X132754534Y-117614602D01*
X132803365Y-117619412D01*
X132851490Y-117628984D01*
X132898445Y-117643228D01*
X132943778Y-117662005D01*
X132987051Y-117685136D01*
X133027850Y-117712396D01*
X133065779Y-117743524D01*
X133100476Y-117778221D01*
X133131604Y-117816150D01*
X133158864Y-117856949D01*
X133181995Y-117900222D01*
X133200772Y-117945555D01*
X133215016Y-117992510D01*
X133224588Y-118040635D01*
X133229398Y-118089466D01*
X133229398Y-118114000D01*
X133230000Y-118114000D01*
X133230000Y-118614000D01*
X133229398Y-118614000D01*
X133229398Y-118638534D01*
X133224588Y-118687365D01*
X133215016Y-118735490D01*
X133200772Y-118782445D01*
X133181995Y-118827778D01*
X133158864Y-118871051D01*
X133131604Y-118911850D01*
X133100476Y-118949779D01*
X133065779Y-118984476D01*
X133027850Y-119015604D01*
X132987051Y-119042864D01*
X132943778Y-119065995D01*
X132898445Y-119084772D01*
X132851490Y-119099016D01*
X132803365Y-119108588D01*
X132754534Y-119113398D01*
X132730000Y-119113398D01*
X132730000Y-119114000D01*
X132230000Y-119114000D01*
X132230000Y-117614000D01*
G37*
%TD.AperFunction*%
%TA.AperFunction,SMDPad,CuDef*%
%TO.P,JP1,2*%
%TO.N,Net-(JP1-Pad2)*%
G36*
X131430000Y-119113398D02*
G01*
X131405466Y-119113398D01*
X131356635Y-119108588D01*
X131308510Y-119099016D01*
X131261555Y-119084772D01*
X131216222Y-119065995D01*
X131172949Y-119042864D01*
X131132150Y-119015604D01*
X131094221Y-118984476D01*
X131059524Y-118949779D01*
X131028396Y-118911850D01*
X131001136Y-118871051D01*
X130978005Y-118827778D01*
X130959228Y-118782445D01*
X130944984Y-118735490D01*
X130935412Y-118687365D01*
X130930602Y-118638534D01*
X130930602Y-118614000D01*
X130930000Y-118614000D01*
X130930000Y-118114000D01*
X130930602Y-118114000D01*
X130930602Y-118089466D01*
X130935412Y-118040635D01*
X130944984Y-117992510D01*
X130959228Y-117945555D01*
X130978005Y-117900222D01*
X131001136Y-117856949D01*
X131028396Y-117816150D01*
X131059524Y-117778221D01*
X131094221Y-117743524D01*
X131132150Y-117712396D01*
X131172949Y-117685136D01*
X131216222Y-117662005D01*
X131261555Y-117643228D01*
X131308510Y-117628984D01*
X131356635Y-117619412D01*
X131405466Y-117614602D01*
X131430000Y-117614602D01*
X131430000Y-117614000D01*
X131930000Y-117614000D01*
X131930000Y-119114000D01*
X131430000Y-119114000D01*
X131430000Y-119113398D01*
G37*
%TD.AperFunction*%
%TD*%
%TA.AperFunction,SMDPad,CuDef*%
%TO.P,JP2,2*%
%TO.N,Net-(JP2-Pad2)*%
G36*
X144160000Y-112280602D02*
G01*
X144184534Y-112280602D01*
X144233365Y-112285412D01*
X144281490Y-112294984D01*
X144328445Y-112309228D01*
X144373778Y-112328005D01*
X144417051Y-112351136D01*
X144457850Y-112378396D01*
X144495779Y-112409524D01*
X144530476Y-112444221D01*
X144561604Y-112482150D01*
X144588864Y-112522949D01*
X144611995Y-112566222D01*
X144630772Y-112611555D01*
X144645016Y-112658510D01*
X144654588Y-112706635D01*
X144659398Y-112755466D01*
X144659398Y-112780000D01*
X144660000Y-112780000D01*
X144660000Y-113280000D01*
X144659398Y-113280000D01*
X144659398Y-113304534D01*
X144654588Y-113353365D01*
X144645016Y-113401490D01*
X144630772Y-113448445D01*
X144611995Y-113493778D01*
X144588864Y-113537051D01*
X144561604Y-113577850D01*
X144530476Y-113615779D01*
X144495779Y-113650476D01*
X144457850Y-113681604D01*
X144417051Y-113708864D01*
X144373778Y-113731995D01*
X144328445Y-113750772D01*
X144281490Y-113765016D01*
X144233365Y-113774588D01*
X144184534Y-113779398D01*
X144160000Y-113779398D01*
X144160000Y-113780000D01*
X143660000Y-113780000D01*
X143660000Y-112280000D01*
X144160000Y-112280000D01*
X144160000Y-112280602D01*
G37*
%TD.AperFunction*%
%TA.AperFunction,SMDPad,CuDef*%
%TO.P,JP2,1*%
%TO.N,Net-(JP2-Pad1)*%
G36*
X143360000Y-113780000D02*
G01*
X142860000Y-113780000D01*
X142860000Y-113779398D01*
X142835466Y-113779398D01*
X142786635Y-113774588D01*
X142738510Y-113765016D01*
X142691555Y-113750772D01*
X142646222Y-113731995D01*
X142602949Y-113708864D01*
X142562150Y-113681604D01*
X142524221Y-113650476D01*
X142489524Y-113615779D01*
X142458396Y-113577850D01*
X142431136Y-113537051D01*
X142408005Y-113493778D01*
X142389228Y-113448445D01*
X142374984Y-113401490D01*
X142365412Y-113353365D01*
X142360602Y-113304534D01*
X142360602Y-113280000D01*
X142360000Y-113280000D01*
X142360000Y-112780000D01*
X142360602Y-112780000D01*
X142360602Y-112755466D01*
X142365412Y-112706635D01*
X142374984Y-112658510D01*
X142389228Y-112611555D01*
X142408005Y-112566222D01*
X142431136Y-112522949D01*
X142458396Y-112482150D01*
X142489524Y-112444221D01*
X142524221Y-112409524D01*
X142562150Y-112378396D01*
X142602949Y-112351136D01*
X142646222Y-112328005D01*
X142691555Y-112309228D01*
X142738510Y-112294984D01*
X142786635Y-112285412D01*
X142835466Y-112280602D01*
X142860000Y-112280602D01*
X142860000Y-112280000D01*
X143360000Y-112280000D01*
X143360000Y-113780000D01*
G37*
%TD.AperFunction*%
%TD*%
%TO.P,R1,1*%
%TO.N,Net-(D1-Pad2)*%
%TA.AperFunction,SMDPad,CuDef*%
G36*
G01*
X133226000Y-112538500D02*
X133226000Y-113013500D01*
G75*
G02*
X132988500Y-113251000I-237500J0D01*
G01*
X132488500Y-113251000D01*
G75*
G02*
X132251000Y-113013500I0J237500D01*
G01*
X132251000Y-112538500D01*
G75*
G02*
X132488500Y-112301000I237500J0D01*
G01*
X132988500Y-112301000D01*
G75*
G02*
X133226000Y-112538500I0J-237500D01*
G01*
G37*
%TD.AperFunction*%
%TO.P,R1,2*%
%TO.N,GND*%
%TA.AperFunction,SMDPad,CuDef*%
G36*
G01*
X131401000Y-112538500D02*
X131401000Y-113013500D01*
G75*
G02*
X131163500Y-113251000I-237500J0D01*
G01*
X130663500Y-113251000D01*
G75*
G02*
X130426000Y-113013500I0J237500D01*
G01*
X130426000Y-112538500D01*
G75*
G02*
X130663500Y-112301000I237500J0D01*
G01*
X131163500Y-112301000D01*
G75*
G02*
X131401000Y-112538500I0J-237500D01*
G01*
G37*
%TD.AperFunction*%
%TD*%
%TO.P,R2,1*%
%TO.N,Net-(R2-Pad1)*%
%TA.AperFunction,SMDPad,CuDef*%
G36*
G01*
X133728000Y-113013500D02*
X133728000Y-112538500D01*
G75*
G02*
X133965500Y-112301000I237500J0D01*
G01*
X134465500Y-112301000D01*
G75*
G02*
X134703000Y-112538500I0J-237500D01*
G01*
X134703000Y-113013500D01*
G75*
G02*
X134465500Y-113251000I-237500J0D01*
G01*
X133965500Y-113251000D01*
G75*
G02*
X133728000Y-113013500I0J237500D01*
G01*
G37*
%TD.AperFunction*%
%TO.P,R2,2*%
%TO.N,/VDD*%
%TA.AperFunction,SMDPad,CuDef*%
G36*
G01*
X135553000Y-113013500D02*
X135553000Y-112538500D01*
G75*
G02*
X135790500Y-112301000I237500J0D01*
G01*
X136290500Y-112301000D01*
G75*
G02*
X136528000Y-112538500I0J-237500D01*
G01*
X136528000Y-113013500D01*
G75*
G02*
X136290500Y-113251000I-237500J0D01*
G01*
X135790500Y-113251000D01*
G75*
G02*
X135553000Y-113013500I0J237500D01*
G01*
G37*
%TD.AperFunction*%
%TD*%
%TO.P,R3,2*%
%TO.N,/VSS*%
%TA.AperFunction,SMDPad,CuDef*%
G36*
G01*
X143847000Y-118380500D02*
X143847000Y-118855500D01*
G75*
G02*
X143609500Y-119093000I-237500J0D01*
G01*
X143109500Y-119093000D01*
G75*
G02*
X142872000Y-118855500I0J237500D01*
G01*
X142872000Y-118380500D01*
G75*
G02*
X143109500Y-118143000I237500J0D01*
G01*
X143609500Y-118143000D01*
G75*
G02*
X143847000Y-118380500I0J-237500D01*
G01*
G37*
%TD.AperFunction*%
%TO.P,R3,1*%
%TO.N,Net-(R3-Pad1)*%
%TA.AperFunction,SMDPad,CuDef*%
G36*
G01*
X145672000Y-118380500D02*
X145672000Y-118855500D01*
G75*
G02*
X145434500Y-119093000I-237500J0D01*
G01*
X144934500Y-119093000D01*
G75*
G02*
X144697000Y-118855500I0J237500D01*
G01*
X144697000Y-118380500D01*
G75*
G02*
X144934500Y-118143000I237500J0D01*
G01*
X145434500Y-118143000D01*
G75*
G02*
X145672000Y-118380500I0J-237500D01*
G01*
G37*
%TD.AperFunction*%
%TD*%
%TO.P,R4,2*%
%TO.N,GND*%
%TA.AperFunction,SMDPad,CuDef*%
G36*
G01*
X131301500Y-114891000D02*
X130826500Y-114891000D01*
G75*
G02*
X130589000Y-114653500I0J237500D01*
G01*
X130589000Y-114153500D01*
G75*
G02*
X130826500Y-113916000I237500J0D01*
G01*
X131301500Y-113916000D01*
G75*
G02*
X131539000Y-114153500I0J-237500D01*
G01*
X131539000Y-114653500D01*
G75*
G02*
X131301500Y-114891000I-237500J0D01*
G01*
G37*
%TD.AperFunction*%
%TO.P,R4,1*%
%TO.N,Net-(JP1-Pad2)*%
%TA.AperFunction,SMDPad,CuDef*%
G36*
G01*
X131301500Y-116716000D02*
X130826500Y-116716000D01*
G75*
G02*
X130589000Y-116478500I0J237500D01*
G01*
X130589000Y-115978500D01*
G75*
G02*
X130826500Y-115741000I237500J0D01*
G01*
X131301500Y-115741000D01*
G75*
G02*
X131539000Y-115978500I0J-237500D01*
G01*
X131539000Y-116478500D01*
G75*
G02*
X131301500Y-116716000I-237500J0D01*
G01*
G37*
%TD.AperFunction*%
%TD*%
%TO.P,R5,1*%
%TO.N,Net-(JP2-Pad2)*%
%TA.AperFunction,SMDPad,CuDef*%
G36*
G01*
X146160500Y-113922000D02*
X145685500Y-113922000D01*
G75*
G02*
X145448000Y-113684500I0J237500D01*
G01*
X145448000Y-113184500D01*
G75*
G02*
X145685500Y-112947000I237500J0D01*
G01*
X146160500Y-112947000D01*
G75*
G02*
X146398000Y-113184500I0J-237500D01*
G01*
X146398000Y-113684500D01*
G75*
G02*
X146160500Y-113922000I-237500J0D01*
G01*
G37*
%TD.AperFunction*%
%TO.P,R5,2*%
%TO.N,GND*%
%TA.AperFunction,SMDPad,CuDef*%
G36*
G01*
X146160500Y-112097000D02*
X145685500Y-112097000D01*
G75*
G02*
X145448000Y-111859500I0J237500D01*
G01*
X145448000Y-111359500D01*
G75*
G02*
X145685500Y-111122000I237500J0D01*
G01*
X146160500Y-111122000D01*
G75*
G02*
X146398000Y-111359500I0J-237500D01*
G01*
X146398000Y-111859500D01*
G75*
G02*
X146160500Y-112097000I-237500J0D01*
G01*
G37*
%TD.AperFunction*%
%TD*%
D25*
%TO.P,RV1,2*%
%TO.N,Net-(JP1-Pad1)*%
X136070000Y-115316000D03*
D26*
%TO.P,RV1,3*%
%TO.N,Net-(JP1-Pad2)*%
X132820000Y-116316000D03*
%TO.P,RV1,1*%
%TO.N,Net-(R2-Pad1)*%
X132820000Y-114316000D03*
%TD*%
%TO.P,RV2,1*%
%TO.N,Net-(R3-Pad1)*%
X146072000Y-117078000D03*
%TO.P,RV2,3*%
%TO.N,Net-(JP2-Pad2)*%
X146072000Y-115078000D03*
D25*
%TO.P,RV2,2*%
%TO.N,Net-(JP2-Pad1)*%
X142822000Y-116078000D03*
%TD*%
D27*
%TO.N,/VIN*%
X134491001Y-118619999D03*
X141732000Y-112395000D03*
X137504010Y-115062000D03*
X136017000Y-109600998D03*
%TO.N,GND*%
X139446000Y-111633000D03*
X147193000Y-111125000D03*
X143129000Y-120650000D03*
X137287000Y-117221000D03*
%TO.N,/USB_D-*%
X135255000Y-119634010D03*
%TO.N,/USB_D+*%
X136398000Y-119761000D03*
%TD*%
D28*
%TO.N,/VIN*%
X134618000Y-108202000D02*
X134366000Y-107950000D01*
X134618000Y-110744000D02*
X134618000Y-108202000D01*
X132787000Y-119897114D02*
X132787000Y-121679000D01*
X134064115Y-118619999D02*
X132787000Y-119897114D01*
X138684000Y-118759000D02*
X138544999Y-118619999D01*
D29*
X139196000Y-118247000D02*
X138684000Y-118759000D01*
X139196000Y-117282000D02*
X139196000Y-118247000D01*
D28*
X134494999Y-118619999D02*
X134491001Y-118619999D01*
X138544999Y-118619999D02*
X134494999Y-118619999D01*
X134491001Y-118619999D02*
X134064115Y-118619999D01*
D29*
X134618000Y-110744000D02*
X134874000Y-110744000D01*
X142004999Y-114193341D02*
X142004999Y-112667999D01*
X140196000Y-115382000D02*
X140196000Y-114918398D01*
X140196000Y-114918398D02*
X140382408Y-114731990D01*
X140382408Y-114731990D02*
X141466350Y-114731990D01*
X141466350Y-114731990D02*
X142004999Y-114193341D01*
X142004999Y-112667999D02*
X141732000Y-112395000D01*
X138196000Y-115382000D02*
X137824010Y-115382000D01*
X137824010Y-115382000D02*
X137504010Y-115062000D01*
D28*
X134874000Y-110744000D02*
X135617001Y-110000997D01*
X135617001Y-110000997D02*
X136017000Y-109600998D01*
X136082009Y-109535989D02*
X136017000Y-109600998D01*
X143256000Y-107950000D02*
X141670011Y-109535989D01*
X141670011Y-109535989D02*
X136082009Y-109535989D01*
D29*
%TO.N,GND*%
X139650010Y-117651990D02*
X139650010Y-119810990D01*
X139696000Y-117606000D02*
X139650010Y-117651990D01*
X139696000Y-117282000D02*
X139696000Y-117606000D01*
D30*
%TO.N,Net-(C2-Pad2)*%
X140653510Y-113792000D02*
X141083000Y-113792000D01*
X139696000Y-114749510D02*
X140653510Y-113792000D01*
X139696000Y-115382000D02*
X139696000Y-114749510D01*
%TO.N,Net-(C2-Pad1)*%
X139196000Y-113929000D02*
X139333000Y-113792000D01*
X139196000Y-115382000D02*
X139196000Y-113929000D01*
D29*
%TO.N,Net-(C3-Pad1)*%
X140193991Y-118490991D02*
X140193991Y-117282000D01*
X140462000Y-118759000D02*
X140193991Y-118490991D01*
D30*
%TO.N,/VDD*%
X138696000Y-114679000D02*
X137922000Y-113905000D01*
X138696000Y-115382000D02*
X138696000Y-114679000D01*
D28*
X136793000Y-112776000D02*
X137922000Y-113905000D01*
X136040500Y-112776000D02*
X136793000Y-112776000D01*
X148336000Y-110671990D02*
X148336000Y-107950000D01*
X148336000Y-110671990D02*
X148336000Y-113030000D01*
X138105500Y-110236000D02*
X147900010Y-110236000D01*
X136040500Y-112301000D02*
X138105500Y-110236000D01*
X136040500Y-112776000D02*
X136040500Y-112301000D01*
X147900010Y-110236000D02*
X148336000Y-110671990D01*
%TO.N,/VSS*%
X141986000Y-118172000D02*
X141096000Y-117282000D01*
X141986000Y-118759000D02*
X141986000Y-118172000D01*
X143218500Y-118759000D02*
X141986000Y-118759000D01*
X141096000Y-117282000D02*
X140771001Y-117282000D01*
X143359500Y-118618000D02*
X143218500Y-118759000D01*
X146902990Y-119543010D02*
X148336000Y-118110000D01*
X148336000Y-118110000D02*
X148336000Y-123190000D01*
X144284510Y-119543010D02*
X146902990Y-119543010D01*
X143359500Y-118618000D02*
X144284510Y-119543010D01*
D30*
%TO.N,/USB_D-*%
X133437000Y-120604000D02*
X134406990Y-119634010D01*
X133437000Y-121679000D02*
X133437000Y-120604000D01*
X134406990Y-119634010D02*
X135255000Y-119634010D01*
%TO.N,/USB_D+*%
X135799990Y-120359010D02*
X136398000Y-119761000D01*
X134087000Y-121679000D02*
X134087000Y-120604000D01*
X134087000Y-120604000D02*
X134331990Y-120359010D01*
X134331990Y-120359010D02*
X135799990Y-120359010D01*
D29*
%TO.N,Net-(JP1-Pad1)*%
X136070000Y-117079962D02*
X136938039Y-117948001D01*
X136070000Y-115316000D02*
X136070000Y-117079962D01*
X138696000Y-117745602D02*
X138696000Y-117282000D01*
X138582601Y-117859001D02*
X138696000Y-117745602D01*
X137724961Y-117859001D02*
X138582601Y-117859001D01*
X137635961Y-117948001D02*
X137724961Y-117859001D01*
X136938039Y-117948001D02*
X137635961Y-117948001D01*
X136883036Y-117892998D02*
X136938039Y-117948001D01*
X133201002Y-117892998D02*
X136883036Y-117892998D01*
X132730000Y-118364000D02*
X133201002Y-117892998D01*
%TO.N,Net-(JP1-Pad2)*%
X131064000Y-117998000D02*
X131430000Y-118364000D01*
X131064000Y-116228500D02*
X131064000Y-117998000D01*
X132732500Y-116228500D02*
X132820000Y-116316000D01*
X131064000Y-116228500D02*
X132732500Y-116228500D01*
%TO.N,Net-(JP2-Pad2)*%
X144564500Y-113434500D02*
X144160000Y-113030000D01*
X145923000Y-113434500D02*
X144564500Y-113434500D01*
X146072000Y-113583500D02*
X145923000Y-113434500D01*
X146072000Y-115078000D02*
X146072000Y-113583500D01*
D30*
%TO.N,Net-(JP2-Pad1)*%
X142126000Y-115382000D02*
X142822000Y-116078000D01*
X140696000Y-115382000D02*
X142126000Y-115382000D01*
D29*
X142822000Y-113068000D02*
X142860000Y-113030000D01*
X142822000Y-116078000D02*
X142822000Y-113068000D01*
D30*
%TO.N,Net-(D1-Pad2)*%
X131318000Y-111355500D02*
X132738500Y-112776000D01*
X131318000Y-110744000D02*
X131318000Y-111355500D01*
D29*
%TO.N,Net-(R2-Pad1)*%
X132820000Y-114316000D02*
X133715000Y-114316000D01*
X134215500Y-113815500D02*
X134215500Y-112776000D01*
X133715000Y-114316000D02*
X134215500Y-113815500D01*
%TO.N,Net-(R3-Pad1)*%
X146072000Y-117078000D02*
X146072000Y-118469000D01*
X145923000Y-118618000D02*
X145184500Y-118618000D01*
X146072000Y-118469000D02*
X145923000Y-118618000D01*
%TD*%
%TO.N,GND*%
X149708001Y-125832000D02*
X137525798Y-125832000D01*
X137627196Y-125767478D01*
X137813250Y-125589559D01*
X137961019Y-125378761D01*
X138064824Y-125143185D01*
X138120675Y-124891884D01*
X137970573Y-124686000D01*
X136944000Y-124686000D01*
X136944000Y-124706000D01*
X136690000Y-124706000D01*
X136690000Y-124686000D01*
X135663427Y-124686000D01*
X135513325Y-124891884D01*
X135569176Y-125143185D01*
X135672981Y-125378761D01*
X135820750Y-125589559D01*
X136006804Y-125767478D01*
X136108202Y-125832000D01*
X132065798Y-125832000D01*
X132167196Y-125767478D01*
X132353250Y-125589559D01*
X132501019Y-125378761D01*
X132604824Y-125143185D01*
X132660675Y-124891884D01*
X132510573Y-124686000D01*
X131484000Y-124686000D01*
X131484000Y-124706000D01*
X131230000Y-124706000D01*
X131230000Y-124686000D01*
X131210000Y-124686000D01*
X131210000Y-124432000D01*
X131230000Y-124432000D01*
X131230000Y-123239776D01*
X131484000Y-123239776D01*
X131484000Y-124432000D01*
X132510573Y-124432000D01*
X132660675Y-124226116D01*
X135513325Y-124226116D01*
X135663427Y-124432000D01*
X136690000Y-124432000D01*
X136690000Y-123239776D01*
X136944000Y-123239776D01*
X136944000Y-124432000D01*
X137970573Y-124432000D01*
X138120675Y-124226116D01*
X138064824Y-123974815D01*
X137961019Y-123739239D01*
X137813250Y-123528441D01*
X137627196Y-123350522D01*
X137410007Y-123212319D01*
X137170029Y-123119143D01*
X137146400Y-123116090D01*
X136944000Y-123239776D01*
X136690000Y-123239776D01*
X136487600Y-123116090D01*
X136463971Y-123119143D01*
X136223993Y-123212319D01*
X136006804Y-123350522D01*
X135820750Y-123528441D01*
X135672981Y-123739239D01*
X135569176Y-123974815D01*
X135513325Y-124226116D01*
X132660675Y-124226116D01*
X132604824Y-123974815D01*
X132501019Y-123739239D01*
X132353250Y-123528441D01*
X132167196Y-123350522D01*
X131950007Y-123212319D01*
X131710029Y-123119143D01*
X131686400Y-123116090D01*
X131484000Y-123239776D01*
X131230000Y-123239776D01*
X131027600Y-123116090D01*
X131003971Y-123119143D01*
X130763993Y-123212319D01*
X130546804Y-123350522D01*
X130454000Y-123439268D01*
X130454000Y-121872884D01*
X130481316Y-121872884D01*
X130526316Y-122102011D01*
X130615152Y-122317957D01*
X130744410Y-122512422D01*
X130909123Y-122677934D01*
X131102961Y-122808131D01*
X131318474Y-122898011D01*
X131357256Y-122902803D01*
X131540000Y-122777361D01*
X131540000Y-121686000D01*
X130636848Y-121686000D01*
X130481316Y-121872884D01*
X130454000Y-121872884D01*
X130454000Y-121245116D01*
X130481316Y-121245116D01*
X130636848Y-121432000D01*
X131540000Y-121432000D01*
X131540000Y-120340639D01*
X131357256Y-120215197D01*
X131318474Y-120219989D01*
X131102961Y-120309869D01*
X130909123Y-120440066D01*
X130744410Y-120605578D01*
X130615152Y-120800043D01*
X130526316Y-121015989D01*
X130481316Y-121245116D01*
X130454000Y-121245116D01*
X130454000Y-116971435D01*
X130481856Y-116994296D01*
X130556000Y-117033927D01*
X130556001Y-117973046D01*
X130553543Y-117998000D01*
X130554853Y-118011299D01*
X130549565Y-118064991D01*
X130549565Y-118089550D01*
X130547157Y-118114000D01*
X130547157Y-118614000D01*
X130549565Y-118638450D01*
X130549565Y-118663009D01*
X130556921Y-118737698D01*
X130576043Y-118833831D01*
X130597828Y-118905648D01*
X130635337Y-118996204D01*
X130670717Y-119062394D01*
X130725173Y-119143893D01*
X130772784Y-119201908D01*
X130842092Y-119271216D01*
X130900107Y-119318827D01*
X130981606Y-119373283D01*
X131047796Y-119408663D01*
X131138352Y-119446172D01*
X131210169Y-119467957D01*
X131306302Y-119487079D01*
X131380991Y-119494435D01*
X131405550Y-119494435D01*
X131430000Y-119496843D01*
X131930000Y-119496843D01*
X132004689Y-119489487D01*
X132076508Y-119467701D01*
X132080000Y-119465834D01*
X132083492Y-119467701D01*
X132155311Y-119489487D01*
X132230000Y-119496843D01*
X132299205Y-119496843D01*
X132259804Y-119544854D01*
X132201211Y-119654473D01*
X132165130Y-119773417D01*
X132156000Y-119866117D01*
X132156000Y-119866124D01*
X132152948Y-119897114D01*
X132156000Y-119928105D01*
X132156000Y-120278574D01*
X132015526Y-120219989D01*
X131976744Y-120215197D01*
X131794000Y-120340639D01*
X131794000Y-121432000D01*
X131814000Y-121432000D01*
X131814000Y-121686000D01*
X131794000Y-121686000D01*
X131794000Y-122777361D01*
X131976744Y-122902803D01*
X132015526Y-122898011D01*
X132231039Y-122808131D01*
X132303676Y-122759342D01*
X132316289Y-122774711D01*
X132374304Y-122822322D01*
X132440492Y-122857701D01*
X132512311Y-122879487D01*
X132587000Y-122886843D01*
X132987000Y-122886843D01*
X133061689Y-122879487D01*
X133112000Y-122864225D01*
X133162311Y-122879487D01*
X133237000Y-122886843D01*
X133637000Y-122886843D01*
X133711689Y-122879487D01*
X133762000Y-122864225D01*
X133812311Y-122879487D01*
X133887000Y-122886843D01*
X134287000Y-122886843D01*
X134361689Y-122879487D01*
X134412000Y-122864225D01*
X134462311Y-122879487D01*
X134537000Y-122886843D01*
X134937000Y-122886843D01*
X135011689Y-122879487D01*
X135083508Y-122857701D01*
X135149696Y-122822322D01*
X135207711Y-122774711D01*
X135255322Y-122716696D01*
X135290701Y-122650508D01*
X135312487Y-122578689D01*
X135319843Y-122504000D01*
X135319843Y-121872884D01*
X135321316Y-121872884D01*
X135366316Y-122102011D01*
X135455152Y-122317957D01*
X135584410Y-122512422D01*
X135749123Y-122677934D01*
X135942961Y-122808131D01*
X136158474Y-122898011D01*
X136197256Y-122902803D01*
X136380000Y-122777361D01*
X136380000Y-121686000D01*
X136634000Y-121686000D01*
X136634000Y-122777361D01*
X136816744Y-122902803D01*
X136855526Y-122898011D01*
X137071039Y-122808131D01*
X137264877Y-122677934D01*
X137429590Y-122512422D01*
X137544196Y-122340000D01*
X139483157Y-122340000D01*
X139483157Y-124040000D01*
X139490513Y-124114689D01*
X139512299Y-124186508D01*
X139547678Y-124252696D01*
X139595289Y-124310711D01*
X139653304Y-124358322D01*
X139719492Y-124393701D01*
X139791311Y-124415487D01*
X139866000Y-124422843D01*
X141566000Y-124422843D01*
X141640689Y-124415487D01*
X141712508Y-124393701D01*
X141778696Y-124358322D01*
X141836711Y-124310711D01*
X141884322Y-124252696D01*
X141919701Y-124186508D01*
X141941487Y-124114689D01*
X141948843Y-124040000D01*
X141948843Y-123883367D01*
X142060822Y-124071355D01*
X142255731Y-124287588D01*
X142489080Y-124461641D01*
X142751901Y-124586825D01*
X142899110Y-124631476D01*
X143129000Y-124510155D01*
X143129000Y-123317000D01*
X143383000Y-123317000D01*
X143383000Y-124510155D01*
X143612890Y-124631476D01*
X143760099Y-124586825D01*
X144022920Y-124461641D01*
X144256269Y-124287588D01*
X144451178Y-124071355D01*
X144526000Y-123945745D01*
X144600822Y-124071355D01*
X144795731Y-124287588D01*
X145029080Y-124461641D01*
X145291901Y-124586825D01*
X145439110Y-124631476D01*
X145669000Y-124510155D01*
X145669000Y-123317000D01*
X143383000Y-123317000D01*
X143129000Y-123317000D01*
X143109000Y-123317000D01*
X143109000Y-123063000D01*
X143129000Y-123063000D01*
X143129000Y-121869845D01*
X143383000Y-121869845D01*
X143383000Y-123063000D01*
X145669000Y-123063000D01*
X145669000Y-121869845D01*
X145439110Y-121748524D01*
X145291901Y-121793175D01*
X145029080Y-121918359D01*
X144795731Y-122092412D01*
X144600822Y-122308645D01*
X144526000Y-122434255D01*
X144451178Y-122308645D01*
X144256269Y-122092412D01*
X144022920Y-121918359D01*
X143760099Y-121793175D01*
X143612890Y-121748524D01*
X143383000Y-121869845D01*
X143129000Y-121869845D01*
X142899110Y-121748524D01*
X142751901Y-121793175D01*
X142489080Y-121918359D01*
X142255731Y-122092412D01*
X142060822Y-122308645D01*
X141948843Y-122496633D01*
X141948843Y-122340000D01*
X141941487Y-122265311D01*
X141919701Y-122193492D01*
X141884322Y-122127304D01*
X141836711Y-122069289D01*
X141778696Y-122021678D01*
X141712508Y-121986299D01*
X141640689Y-121964513D01*
X141566000Y-121957157D01*
X139866000Y-121957157D01*
X139791311Y-121964513D01*
X139719492Y-121986299D01*
X139653304Y-122021678D01*
X139595289Y-122069289D01*
X139547678Y-122127304D01*
X139512299Y-122193492D01*
X139490513Y-122265311D01*
X139483157Y-122340000D01*
X137544196Y-122340000D01*
X137558848Y-122317957D01*
X137647684Y-122102011D01*
X137692684Y-121872884D01*
X137537152Y-121686000D01*
X136634000Y-121686000D01*
X136380000Y-121686000D01*
X135476848Y-121686000D01*
X135321316Y-121872884D01*
X135319843Y-121872884D01*
X135319843Y-120865010D01*
X135428426Y-120865010D01*
X135366316Y-121015989D01*
X135321316Y-121245116D01*
X135476848Y-121432000D01*
X136380000Y-121432000D01*
X136380000Y-121412000D01*
X136634000Y-121412000D01*
X136634000Y-121432000D01*
X137537152Y-121432000D01*
X137692684Y-121245116D01*
X137647684Y-121015989D01*
X137558848Y-120800043D01*
X137429590Y-120605578D01*
X137264877Y-120440066D01*
X137071039Y-120309869D01*
X136988186Y-120275315D01*
X137004642Y-120258859D01*
X137090113Y-120130942D01*
X137148987Y-119988809D01*
X137179000Y-119837922D01*
X137179000Y-119684078D01*
X137148987Y-119533191D01*
X137090113Y-119391058D01*
X137004642Y-119263141D01*
X136992500Y-119250999D01*
X137863399Y-119250999D01*
X137873378Y-119283895D01*
X137930704Y-119391144D01*
X138007851Y-119485149D01*
X138101856Y-119562296D01*
X138209105Y-119619622D01*
X138325477Y-119654923D01*
X138446500Y-119666843D01*
X138921500Y-119666843D01*
X139042523Y-119654923D01*
X139158895Y-119619622D01*
X139266144Y-119562296D01*
X139360149Y-119485149D01*
X139437296Y-119391144D01*
X139494622Y-119283895D01*
X139529923Y-119167523D01*
X139541843Y-119046500D01*
X139541843Y-118620344D01*
X139556948Y-118607948D01*
X139593297Y-118563656D01*
X139604157Y-118550423D01*
X139604157Y-119046500D01*
X139616077Y-119167523D01*
X139651378Y-119283895D01*
X139708704Y-119391144D01*
X139785851Y-119485149D01*
X139879856Y-119562296D01*
X139987105Y-119619622D01*
X140103477Y-119654923D01*
X140224500Y-119666843D01*
X140699500Y-119666843D01*
X140820523Y-119654923D01*
X140936895Y-119619622D01*
X141044144Y-119562296D01*
X141138149Y-119485149D01*
X141215296Y-119391144D01*
X141224000Y-119374860D01*
X141232704Y-119391144D01*
X141309851Y-119485149D01*
X141403856Y-119562296D01*
X141511105Y-119619622D01*
X141627477Y-119654923D01*
X141748500Y-119666843D01*
X142223500Y-119666843D01*
X142344523Y-119654923D01*
X142460895Y-119619622D01*
X142568144Y-119562296D01*
X142662149Y-119485149D01*
X142739296Y-119391144D01*
X142739907Y-119390000D01*
X142799849Y-119390000D01*
X142872105Y-119428622D01*
X142988477Y-119463923D01*
X143109500Y-119475843D01*
X143324975Y-119475843D01*
X143816409Y-119967278D01*
X143836167Y-119991353D01*
X143860242Y-120011111D01*
X143860244Y-120011113D01*
X143872061Y-120020811D01*
X143932249Y-120070206D01*
X144041868Y-120128799D01*
X144160812Y-120164880D01*
X144253512Y-120174010D01*
X144253519Y-120174010D01*
X144284510Y-120177062D01*
X144315500Y-120174010D01*
X146872000Y-120174010D01*
X146902990Y-120177062D01*
X146933980Y-120174010D01*
X146933988Y-120174010D01*
X147026688Y-120164880D01*
X147145632Y-120128799D01*
X147255251Y-120070206D01*
X147351333Y-119991353D01*
X147371095Y-119967273D01*
X147705000Y-119633368D01*
X147705001Y-122131109D01*
X147551283Y-122233820D01*
X147379820Y-122405283D01*
X147245102Y-122606903D01*
X147197772Y-122721168D01*
X147140157Y-122558748D01*
X146991178Y-122308645D01*
X146796269Y-122092412D01*
X146562920Y-121918359D01*
X146300099Y-121793175D01*
X146152890Y-121748524D01*
X145923000Y-121869845D01*
X145923000Y-123063000D01*
X145943000Y-123063000D01*
X145943000Y-123317000D01*
X145923000Y-123317000D01*
X145923000Y-124510155D01*
X146152890Y-124631476D01*
X146300099Y-124586825D01*
X146562920Y-124461641D01*
X146796269Y-124287588D01*
X146991178Y-124071355D01*
X147140157Y-123821252D01*
X147197772Y-123658832D01*
X147245102Y-123773097D01*
X147379820Y-123974717D01*
X147551283Y-124146180D01*
X147752903Y-124280898D01*
X147976931Y-124373693D01*
X148214757Y-124421000D01*
X148457243Y-124421000D01*
X148695069Y-124373693D01*
X148919097Y-124280898D01*
X149120717Y-124146180D01*
X149292180Y-123974717D01*
X149426898Y-123773097D01*
X149519693Y-123549069D01*
X149567000Y-123311243D01*
X149567000Y-123068757D01*
X149519693Y-122830931D01*
X149426898Y-122606903D01*
X149292180Y-122405283D01*
X149120717Y-122233820D01*
X148967000Y-122131110D01*
X148967000Y-119168890D01*
X149120717Y-119066180D01*
X149292180Y-118894717D01*
X149426898Y-118693097D01*
X149519693Y-118469069D01*
X149567000Y-118231243D01*
X149567000Y-117988757D01*
X149519693Y-117750931D01*
X149426898Y-117526903D01*
X149292180Y-117325283D01*
X149120717Y-117153820D01*
X148919097Y-117019102D01*
X148804832Y-116971772D01*
X148967252Y-116914157D01*
X149217355Y-116765178D01*
X149433588Y-116570269D01*
X149607641Y-116336920D01*
X149708000Y-116126217D01*
X149708001Y-125832000D01*
%TA.AperFunction,Conductor*%
D31*
G36*
X149708001Y-125832000D02*
G01*
X137525798Y-125832000D01*
X137627196Y-125767478D01*
X137813250Y-125589559D01*
X137961019Y-125378761D01*
X138064824Y-125143185D01*
X138120675Y-124891884D01*
X137970573Y-124686000D01*
X136944000Y-124686000D01*
X136944000Y-124706000D01*
X136690000Y-124706000D01*
X136690000Y-124686000D01*
X135663427Y-124686000D01*
X135513325Y-124891884D01*
X135569176Y-125143185D01*
X135672981Y-125378761D01*
X135820750Y-125589559D01*
X136006804Y-125767478D01*
X136108202Y-125832000D01*
X132065798Y-125832000D01*
X132167196Y-125767478D01*
X132353250Y-125589559D01*
X132501019Y-125378761D01*
X132604824Y-125143185D01*
X132660675Y-124891884D01*
X132510573Y-124686000D01*
X131484000Y-124686000D01*
X131484000Y-124706000D01*
X131230000Y-124706000D01*
X131230000Y-124686000D01*
X131210000Y-124686000D01*
X131210000Y-124432000D01*
X131230000Y-124432000D01*
X131230000Y-123239776D01*
X131484000Y-123239776D01*
X131484000Y-124432000D01*
X132510573Y-124432000D01*
X132660675Y-124226116D01*
X135513325Y-124226116D01*
X135663427Y-124432000D01*
X136690000Y-124432000D01*
X136690000Y-123239776D01*
X136944000Y-123239776D01*
X136944000Y-124432000D01*
X137970573Y-124432000D01*
X138120675Y-124226116D01*
X138064824Y-123974815D01*
X137961019Y-123739239D01*
X137813250Y-123528441D01*
X137627196Y-123350522D01*
X137410007Y-123212319D01*
X137170029Y-123119143D01*
X137146400Y-123116090D01*
X136944000Y-123239776D01*
X136690000Y-123239776D01*
X136487600Y-123116090D01*
X136463971Y-123119143D01*
X136223993Y-123212319D01*
X136006804Y-123350522D01*
X135820750Y-123528441D01*
X135672981Y-123739239D01*
X135569176Y-123974815D01*
X135513325Y-124226116D01*
X132660675Y-124226116D01*
X132604824Y-123974815D01*
X132501019Y-123739239D01*
X132353250Y-123528441D01*
X132167196Y-123350522D01*
X131950007Y-123212319D01*
X131710029Y-123119143D01*
X131686400Y-123116090D01*
X131484000Y-123239776D01*
X131230000Y-123239776D01*
X131027600Y-123116090D01*
X131003971Y-123119143D01*
X130763993Y-123212319D01*
X130546804Y-123350522D01*
X130454000Y-123439268D01*
X130454000Y-121872884D01*
X130481316Y-121872884D01*
X130526316Y-122102011D01*
X130615152Y-122317957D01*
X130744410Y-122512422D01*
X130909123Y-122677934D01*
X131102961Y-122808131D01*
X131318474Y-122898011D01*
X131357256Y-122902803D01*
X131540000Y-122777361D01*
X131540000Y-121686000D01*
X130636848Y-121686000D01*
X130481316Y-121872884D01*
X130454000Y-121872884D01*
X130454000Y-121245116D01*
X130481316Y-121245116D01*
X130636848Y-121432000D01*
X131540000Y-121432000D01*
X131540000Y-120340639D01*
X131357256Y-120215197D01*
X131318474Y-120219989D01*
X131102961Y-120309869D01*
X130909123Y-120440066D01*
X130744410Y-120605578D01*
X130615152Y-120800043D01*
X130526316Y-121015989D01*
X130481316Y-121245116D01*
X130454000Y-121245116D01*
X130454000Y-116971435D01*
X130481856Y-116994296D01*
X130556000Y-117033927D01*
X130556001Y-117973046D01*
X130553543Y-117998000D01*
X130554853Y-118011299D01*
X130549565Y-118064991D01*
X130549565Y-118089550D01*
X130547157Y-118114000D01*
X130547157Y-118614000D01*
X130549565Y-118638450D01*
X130549565Y-118663009D01*
X130556921Y-118737698D01*
X130576043Y-118833831D01*
X130597828Y-118905648D01*
X130635337Y-118996204D01*
X130670717Y-119062394D01*
X130725173Y-119143893D01*
X130772784Y-119201908D01*
X130842092Y-119271216D01*
X130900107Y-119318827D01*
X130981606Y-119373283D01*
X131047796Y-119408663D01*
X131138352Y-119446172D01*
X131210169Y-119467957D01*
X131306302Y-119487079D01*
X131380991Y-119494435D01*
X131405550Y-119494435D01*
X131430000Y-119496843D01*
X131930000Y-119496843D01*
X132004689Y-119489487D01*
X132076508Y-119467701D01*
X132080000Y-119465834D01*
X132083492Y-119467701D01*
X132155311Y-119489487D01*
X132230000Y-119496843D01*
X132299205Y-119496843D01*
X132259804Y-119544854D01*
X132201211Y-119654473D01*
X132165130Y-119773417D01*
X132156000Y-119866117D01*
X132156000Y-119866124D01*
X132152948Y-119897114D01*
X132156000Y-119928105D01*
X132156000Y-120278574D01*
X132015526Y-120219989D01*
X131976744Y-120215197D01*
X131794000Y-120340639D01*
X131794000Y-121432000D01*
X131814000Y-121432000D01*
X131814000Y-121686000D01*
X131794000Y-121686000D01*
X131794000Y-122777361D01*
X131976744Y-122902803D01*
X132015526Y-122898011D01*
X132231039Y-122808131D01*
X132303676Y-122759342D01*
X132316289Y-122774711D01*
X132374304Y-122822322D01*
X132440492Y-122857701D01*
X132512311Y-122879487D01*
X132587000Y-122886843D01*
X132987000Y-122886843D01*
X133061689Y-122879487D01*
X133112000Y-122864225D01*
X133162311Y-122879487D01*
X133237000Y-122886843D01*
X133637000Y-122886843D01*
X133711689Y-122879487D01*
X133762000Y-122864225D01*
X133812311Y-122879487D01*
X133887000Y-122886843D01*
X134287000Y-122886843D01*
X134361689Y-122879487D01*
X134412000Y-122864225D01*
X134462311Y-122879487D01*
X134537000Y-122886843D01*
X134937000Y-122886843D01*
X135011689Y-122879487D01*
X135083508Y-122857701D01*
X135149696Y-122822322D01*
X135207711Y-122774711D01*
X135255322Y-122716696D01*
X135290701Y-122650508D01*
X135312487Y-122578689D01*
X135319843Y-122504000D01*
X135319843Y-121872884D01*
X135321316Y-121872884D01*
X135366316Y-122102011D01*
X135455152Y-122317957D01*
X135584410Y-122512422D01*
X135749123Y-122677934D01*
X135942961Y-122808131D01*
X136158474Y-122898011D01*
X136197256Y-122902803D01*
X136380000Y-122777361D01*
X136380000Y-121686000D01*
X136634000Y-121686000D01*
X136634000Y-122777361D01*
X136816744Y-122902803D01*
X136855526Y-122898011D01*
X137071039Y-122808131D01*
X137264877Y-122677934D01*
X137429590Y-122512422D01*
X137544196Y-122340000D01*
X139483157Y-122340000D01*
X139483157Y-124040000D01*
X139490513Y-124114689D01*
X139512299Y-124186508D01*
X139547678Y-124252696D01*
X139595289Y-124310711D01*
X139653304Y-124358322D01*
X139719492Y-124393701D01*
X139791311Y-124415487D01*
X139866000Y-124422843D01*
X141566000Y-124422843D01*
X141640689Y-124415487D01*
X141712508Y-124393701D01*
X141778696Y-124358322D01*
X141836711Y-124310711D01*
X141884322Y-124252696D01*
X141919701Y-124186508D01*
X141941487Y-124114689D01*
X141948843Y-124040000D01*
X141948843Y-123883367D01*
X142060822Y-124071355D01*
X142255731Y-124287588D01*
X142489080Y-124461641D01*
X142751901Y-124586825D01*
X142899110Y-124631476D01*
X143129000Y-124510155D01*
X143129000Y-123317000D01*
X143383000Y-123317000D01*
X143383000Y-124510155D01*
X143612890Y-124631476D01*
X143760099Y-124586825D01*
X144022920Y-124461641D01*
X144256269Y-124287588D01*
X144451178Y-124071355D01*
X144526000Y-123945745D01*
X144600822Y-124071355D01*
X144795731Y-124287588D01*
X145029080Y-124461641D01*
X145291901Y-124586825D01*
X145439110Y-124631476D01*
X145669000Y-124510155D01*
X145669000Y-123317000D01*
X143383000Y-123317000D01*
X143129000Y-123317000D01*
X143109000Y-123317000D01*
X143109000Y-123063000D01*
X143129000Y-123063000D01*
X143129000Y-121869845D01*
X143383000Y-121869845D01*
X143383000Y-123063000D01*
X145669000Y-123063000D01*
X145669000Y-121869845D01*
X145439110Y-121748524D01*
X145291901Y-121793175D01*
X145029080Y-121918359D01*
X144795731Y-122092412D01*
X144600822Y-122308645D01*
X144526000Y-122434255D01*
X144451178Y-122308645D01*
X144256269Y-122092412D01*
X144022920Y-121918359D01*
X143760099Y-121793175D01*
X143612890Y-121748524D01*
X143383000Y-121869845D01*
X143129000Y-121869845D01*
X142899110Y-121748524D01*
X142751901Y-121793175D01*
X142489080Y-121918359D01*
X142255731Y-122092412D01*
X142060822Y-122308645D01*
X141948843Y-122496633D01*
X141948843Y-122340000D01*
X141941487Y-122265311D01*
X141919701Y-122193492D01*
X141884322Y-122127304D01*
X141836711Y-122069289D01*
X141778696Y-122021678D01*
X141712508Y-121986299D01*
X141640689Y-121964513D01*
X141566000Y-121957157D01*
X139866000Y-121957157D01*
X139791311Y-121964513D01*
X139719492Y-121986299D01*
X139653304Y-122021678D01*
X139595289Y-122069289D01*
X139547678Y-122127304D01*
X139512299Y-122193492D01*
X139490513Y-122265311D01*
X139483157Y-122340000D01*
X137544196Y-122340000D01*
X137558848Y-122317957D01*
X137647684Y-122102011D01*
X137692684Y-121872884D01*
X137537152Y-121686000D01*
X136634000Y-121686000D01*
X136380000Y-121686000D01*
X135476848Y-121686000D01*
X135321316Y-121872884D01*
X135319843Y-121872884D01*
X135319843Y-120865010D01*
X135428426Y-120865010D01*
X135366316Y-121015989D01*
X135321316Y-121245116D01*
X135476848Y-121432000D01*
X136380000Y-121432000D01*
X136380000Y-121412000D01*
X136634000Y-121412000D01*
X136634000Y-121432000D01*
X137537152Y-121432000D01*
X137692684Y-121245116D01*
X137647684Y-121015989D01*
X137558848Y-120800043D01*
X137429590Y-120605578D01*
X137264877Y-120440066D01*
X137071039Y-120309869D01*
X136988186Y-120275315D01*
X137004642Y-120258859D01*
X137090113Y-120130942D01*
X137148987Y-119988809D01*
X137179000Y-119837922D01*
X137179000Y-119684078D01*
X137148987Y-119533191D01*
X137090113Y-119391058D01*
X137004642Y-119263141D01*
X136992500Y-119250999D01*
X137863399Y-119250999D01*
X137873378Y-119283895D01*
X137930704Y-119391144D01*
X138007851Y-119485149D01*
X138101856Y-119562296D01*
X138209105Y-119619622D01*
X138325477Y-119654923D01*
X138446500Y-119666843D01*
X138921500Y-119666843D01*
X139042523Y-119654923D01*
X139158895Y-119619622D01*
X139266144Y-119562296D01*
X139360149Y-119485149D01*
X139437296Y-119391144D01*
X139494622Y-119283895D01*
X139529923Y-119167523D01*
X139541843Y-119046500D01*
X139541843Y-118620344D01*
X139556948Y-118607948D01*
X139593297Y-118563656D01*
X139604157Y-118550423D01*
X139604157Y-119046500D01*
X139616077Y-119167523D01*
X139651378Y-119283895D01*
X139708704Y-119391144D01*
X139785851Y-119485149D01*
X139879856Y-119562296D01*
X139987105Y-119619622D01*
X140103477Y-119654923D01*
X140224500Y-119666843D01*
X140699500Y-119666843D01*
X140820523Y-119654923D01*
X140936895Y-119619622D01*
X141044144Y-119562296D01*
X141138149Y-119485149D01*
X141215296Y-119391144D01*
X141224000Y-119374860D01*
X141232704Y-119391144D01*
X141309851Y-119485149D01*
X141403856Y-119562296D01*
X141511105Y-119619622D01*
X141627477Y-119654923D01*
X141748500Y-119666843D01*
X142223500Y-119666843D01*
X142344523Y-119654923D01*
X142460895Y-119619622D01*
X142568144Y-119562296D01*
X142662149Y-119485149D01*
X142739296Y-119391144D01*
X142739907Y-119390000D01*
X142799849Y-119390000D01*
X142872105Y-119428622D01*
X142988477Y-119463923D01*
X143109500Y-119475843D01*
X143324975Y-119475843D01*
X143816409Y-119967278D01*
X143836167Y-119991353D01*
X143860242Y-120011111D01*
X143860244Y-120011113D01*
X143872061Y-120020811D01*
X143932249Y-120070206D01*
X144041868Y-120128799D01*
X144160812Y-120164880D01*
X144253512Y-120174010D01*
X144253519Y-120174010D01*
X144284510Y-120177062D01*
X144315500Y-120174010D01*
X146872000Y-120174010D01*
X146902990Y-120177062D01*
X146933980Y-120174010D01*
X146933988Y-120174010D01*
X147026688Y-120164880D01*
X147145632Y-120128799D01*
X147255251Y-120070206D01*
X147351333Y-119991353D01*
X147371095Y-119967273D01*
X147705000Y-119633368D01*
X147705001Y-122131109D01*
X147551283Y-122233820D01*
X147379820Y-122405283D01*
X147245102Y-122606903D01*
X147197772Y-122721168D01*
X147140157Y-122558748D01*
X146991178Y-122308645D01*
X146796269Y-122092412D01*
X146562920Y-121918359D01*
X146300099Y-121793175D01*
X146152890Y-121748524D01*
X145923000Y-121869845D01*
X145923000Y-123063000D01*
X145943000Y-123063000D01*
X145943000Y-123317000D01*
X145923000Y-123317000D01*
X145923000Y-124510155D01*
X146152890Y-124631476D01*
X146300099Y-124586825D01*
X146562920Y-124461641D01*
X146796269Y-124287588D01*
X146991178Y-124071355D01*
X147140157Y-123821252D01*
X147197772Y-123658832D01*
X147245102Y-123773097D01*
X147379820Y-123974717D01*
X147551283Y-124146180D01*
X147752903Y-124280898D01*
X147976931Y-124373693D01*
X148214757Y-124421000D01*
X148457243Y-124421000D01*
X148695069Y-124373693D01*
X148919097Y-124280898D01*
X149120717Y-124146180D01*
X149292180Y-123974717D01*
X149426898Y-123773097D01*
X149519693Y-123549069D01*
X149567000Y-123311243D01*
X149567000Y-123068757D01*
X149519693Y-122830931D01*
X149426898Y-122606903D01*
X149292180Y-122405283D01*
X149120717Y-122233820D01*
X148967000Y-122131110D01*
X148967000Y-119168890D01*
X149120717Y-119066180D01*
X149292180Y-118894717D01*
X149426898Y-118693097D01*
X149519693Y-118469069D01*
X149567000Y-118231243D01*
X149567000Y-117988757D01*
X149519693Y-117750931D01*
X149426898Y-117526903D01*
X149292180Y-117325283D01*
X149120717Y-117153820D01*
X148919097Y-117019102D01*
X148804832Y-116971772D01*
X148967252Y-116914157D01*
X149217355Y-116765178D01*
X149433588Y-116570269D01*
X149607641Y-116336920D01*
X149708000Y-116126217D01*
X149708001Y-125832000D01*
G37*
%TD.AperFunction*%
D29*
X137276201Y-115812987D02*
X137427088Y-115843000D01*
X137580932Y-115843000D01*
X137601267Y-115838955D01*
X137628667Y-115853601D01*
X137722048Y-115881928D01*
X137618237Y-115887575D01*
X137547438Y-116057603D01*
X137511172Y-116238176D01*
X137510829Y-116422355D01*
X137546426Y-116603061D01*
X137616592Y-116773351D01*
X137618237Y-116776425D01*
X137811459Y-116786936D01*
X138266395Y-116332000D01*
X138252253Y-116317858D01*
X138431858Y-116138253D01*
X138446000Y-116152395D01*
X138460143Y-116138253D01*
X138519349Y-116197459D01*
X138511172Y-116238176D01*
X138510829Y-116422355D01*
X138519503Y-116466387D01*
X138460143Y-116525748D01*
X138446000Y-116511605D01*
X137991064Y-116966541D01*
X138001575Y-117159763D01*
X138171603Y-117230562D01*
X138188157Y-117233887D01*
X138188157Y-117255469D01*
X138188001Y-117257053D01*
X138188001Y-117351001D01*
X137749904Y-117351001D01*
X137724960Y-117348544D01*
X137700016Y-117351001D01*
X137700014Y-117351001D01*
X137625376Y-117358352D01*
X137529618Y-117387400D01*
X137441366Y-117434572D01*
X137434751Y-117440001D01*
X137148459Y-117440001D01*
X136578000Y-116869542D01*
X136578000Y-116498843D01*
X136820000Y-116498843D01*
X136894689Y-116491487D01*
X136966508Y-116469701D01*
X137032696Y-116434322D01*
X137090711Y-116386711D01*
X137138322Y-116328696D01*
X137173701Y-116262508D01*
X137195487Y-116190689D01*
X137202843Y-116116000D01*
X137202843Y-115782601D01*
X137276201Y-115812987D01*
%TA.AperFunction,Conductor*%
D31*
G36*
X137276201Y-115812987D02*
G01*
X137427088Y-115843000D01*
X137580932Y-115843000D01*
X137601267Y-115838955D01*
X137628667Y-115853601D01*
X137722048Y-115881928D01*
X137618237Y-115887575D01*
X137547438Y-116057603D01*
X137511172Y-116238176D01*
X137510829Y-116422355D01*
X137546426Y-116603061D01*
X137616592Y-116773351D01*
X137618237Y-116776425D01*
X137811459Y-116786936D01*
X138266395Y-116332000D01*
X138252253Y-116317858D01*
X138431858Y-116138253D01*
X138446000Y-116152395D01*
X138460143Y-116138253D01*
X138519349Y-116197459D01*
X138511172Y-116238176D01*
X138510829Y-116422355D01*
X138519503Y-116466387D01*
X138460143Y-116525748D01*
X138446000Y-116511605D01*
X137991064Y-116966541D01*
X138001575Y-117159763D01*
X138171603Y-117230562D01*
X138188157Y-117233887D01*
X138188157Y-117255469D01*
X138188001Y-117257053D01*
X138188001Y-117351001D01*
X137749904Y-117351001D01*
X137724960Y-117348544D01*
X137700016Y-117351001D01*
X137700014Y-117351001D01*
X137625376Y-117358352D01*
X137529618Y-117387400D01*
X137441366Y-117434572D01*
X137434751Y-117440001D01*
X137148459Y-117440001D01*
X136578000Y-116869542D01*
X136578000Y-116498843D01*
X136820000Y-116498843D01*
X136894689Y-116491487D01*
X136966508Y-116469701D01*
X137032696Y-116434322D01*
X137090711Y-116386711D01*
X137138322Y-116328696D01*
X137173701Y-116262508D01*
X137195487Y-116190689D01*
X137202843Y-116116000D01*
X137202843Y-115782601D01*
X137276201Y-115812987D01*
G37*
%TD.AperFunction*%
D29*
X131953000Y-107823000D02*
X131973000Y-107823000D01*
X131973000Y-108077000D01*
X131953000Y-108077000D01*
X131953000Y-109270155D01*
X132182890Y-109391476D01*
X132330099Y-109346825D01*
X132592920Y-109221641D01*
X132826269Y-109047588D01*
X133021178Y-108831355D01*
X133133157Y-108643367D01*
X133133157Y-108800000D01*
X133140513Y-108874689D01*
X133162299Y-108946508D01*
X133197678Y-109012696D01*
X133245289Y-109070711D01*
X133303304Y-109118322D01*
X133369492Y-109153701D01*
X133441311Y-109175487D01*
X133516000Y-109182843D01*
X133987001Y-109182843D01*
X133987000Y-109808736D01*
X133955304Y-109825678D01*
X133897289Y-109873289D01*
X133849678Y-109931304D01*
X133814299Y-109997492D01*
X133792513Y-110069311D01*
X133785157Y-110144000D01*
X133785157Y-111344000D01*
X133792513Y-111418689D01*
X133814299Y-111490508D01*
X133849678Y-111556696D01*
X133897289Y-111614711D01*
X133955304Y-111662322D01*
X134021492Y-111697701D01*
X134093311Y-111719487D01*
X134168000Y-111726843D01*
X135068000Y-111726843D01*
X135142689Y-111719487D01*
X135214508Y-111697701D01*
X135280696Y-111662322D01*
X135338711Y-111614711D01*
X135386322Y-111556696D01*
X135421701Y-111490508D01*
X135443487Y-111418689D01*
X135450843Y-111344000D01*
X135450843Y-111059525D01*
X136085105Y-110425262D01*
X136085110Y-110425256D01*
X136136921Y-110373445D01*
X136244809Y-110351985D01*
X136386942Y-110293111D01*
X136514859Y-110207640D01*
X136555510Y-110166989D01*
X137282142Y-110166989D01*
X135616233Y-111832899D01*
X135592158Y-111852657D01*
X135513304Y-111948739D01*
X135484933Y-112001817D01*
X135445856Y-112022704D01*
X135351851Y-112099851D01*
X135274704Y-112193856D01*
X135217378Y-112301105D01*
X135182077Y-112417477D01*
X135170157Y-112538500D01*
X135170157Y-113013500D01*
X135182077Y-113134523D01*
X135217378Y-113250895D01*
X135274704Y-113358144D01*
X135351851Y-113452149D01*
X135445856Y-113529296D01*
X135553105Y-113586622D01*
X135669477Y-113621923D01*
X135790500Y-113633843D01*
X136290500Y-113633843D01*
X136411523Y-113621923D01*
X136527895Y-113586622D01*
X136635144Y-113529296D01*
X136645461Y-113520829D01*
X137064157Y-113939526D01*
X137064157Y-114192500D01*
X137067478Y-114226223D01*
X137032696Y-114197678D01*
X136966508Y-114162299D01*
X136894689Y-114140513D01*
X136820000Y-114133157D01*
X135320000Y-114133157D01*
X135245311Y-114140513D01*
X135173492Y-114162299D01*
X135107304Y-114197678D01*
X135049289Y-114245289D01*
X135001678Y-114303304D01*
X134966299Y-114369492D01*
X134944513Y-114441311D01*
X134937157Y-114516000D01*
X134937157Y-116116000D01*
X134944513Y-116190689D01*
X134966299Y-116262508D01*
X135001678Y-116328696D01*
X135049289Y-116386711D01*
X135107304Y-116434322D01*
X135173492Y-116469701D01*
X135245311Y-116491487D01*
X135320000Y-116498843D01*
X135562001Y-116498843D01*
X135562001Y-117055008D01*
X135559543Y-117079962D01*
X135568474Y-117170636D01*
X135569352Y-117179547D01*
X135571525Y-117186711D01*
X135598400Y-117275305D01*
X135645571Y-117363557D01*
X135663167Y-117384998D01*
X133225945Y-117384998D01*
X133223327Y-117384740D01*
X133178394Y-117354717D01*
X133112204Y-117319337D01*
X133062726Y-117298843D01*
X133420000Y-117298843D01*
X133494689Y-117291487D01*
X133566508Y-117269701D01*
X133632696Y-117234322D01*
X133690711Y-117186711D01*
X133738322Y-117128696D01*
X133773701Y-117062508D01*
X133795487Y-116990689D01*
X133802843Y-116916000D01*
X133802843Y-115716000D01*
X133795487Y-115641311D01*
X133773701Y-115569492D01*
X133738322Y-115503304D01*
X133690711Y-115445289D01*
X133632696Y-115397678D01*
X133566508Y-115362299D01*
X133494689Y-115340513D01*
X133420000Y-115333157D01*
X132220000Y-115333157D01*
X132145311Y-115340513D01*
X132073492Y-115362299D01*
X132007304Y-115397678D01*
X131949289Y-115445289D01*
X131901678Y-115503304D01*
X131866299Y-115569492D01*
X131844513Y-115641311D01*
X131840898Y-115678013D01*
X131817296Y-115633856D01*
X131740149Y-115539851D01*
X131646144Y-115462704D01*
X131538895Y-115405378D01*
X131422523Y-115370077D01*
X131301500Y-115358157D01*
X130826500Y-115358157D01*
X130705477Y-115370077D01*
X130589105Y-115405378D01*
X130481856Y-115462704D01*
X130454000Y-115485565D01*
X130454000Y-110144000D01*
X130485157Y-110144000D01*
X130485157Y-111344000D01*
X130492513Y-111418689D01*
X130514299Y-111490508D01*
X130549678Y-111556696D01*
X130597289Y-111614711D01*
X130655304Y-111662322D01*
X130721492Y-111697701D01*
X130793311Y-111719487D01*
X130868000Y-111726843D01*
X130972872Y-111726843D01*
X130977780Y-111730872D01*
X131868157Y-112621249D01*
X131868157Y-113013500D01*
X131880077Y-113134523D01*
X131915378Y-113250895D01*
X131972704Y-113358144D01*
X132006016Y-113398735D01*
X131949289Y-113445289D01*
X131901678Y-113503304D01*
X131866299Y-113569492D01*
X131844513Y-113641311D01*
X131837157Y-113716000D01*
X131837157Y-114916000D01*
X131844513Y-114990689D01*
X131866299Y-115062508D01*
X131901678Y-115128696D01*
X131949289Y-115186711D01*
X132007304Y-115234322D01*
X132073492Y-115269701D01*
X132145311Y-115291487D01*
X132220000Y-115298843D01*
X133420000Y-115298843D01*
X133494689Y-115291487D01*
X133566508Y-115269701D01*
X133632696Y-115234322D01*
X133690711Y-115186711D01*
X133738322Y-115128696D01*
X133773701Y-115062508D01*
X133795487Y-114990689D01*
X133802843Y-114916000D01*
X133802843Y-114817805D01*
X133814585Y-114816649D01*
X133910343Y-114787601D01*
X133998595Y-114740429D01*
X134075948Y-114676948D01*
X134091855Y-114657565D01*
X134557065Y-114192355D01*
X134576448Y-114176448D01*
X134639929Y-114099095D01*
X134687101Y-114010843D01*
X134716149Y-113915085D01*
X134723500Y-113840447D01*
X134723500Y-113840444D01*
X134725957Y-113815500D01*
X134723500Y-113790556D01*
X134723500Y-113575608D01*
X134810144Y-113529296D01*
X134904149Y-113452149D01*
X134981296Y-113358144D01*
X135038622Y-113250895D01*
X135073923Y-113134523D01*
X135085843Y-113013500D01*
X135085843Y-112538500D01*
X135073923Y-112417477D01*
X135038622Y-112301105D01*
X134981296Y-112193856D01*
X134904149Y-112099851D01*
X134810144Y-112022704D01*
X134702895Y-111965378D01*
X134586523Y-111930077D01*
X134465500Y-111918157D01*
X133965500Y-111918157D01*
X133844477Y-111930077D01*
X133728105Y-111965378D01*
X133620856Y-112022704D01*
X133526851Y-112099851D01*
X133477000Y-112160595D01*
X133427149Y-112099851D01*
X133333144Y-112022704D01*
X133225895Y-111965378D01*
X133109523Y-111930077D01*
X132988500Y-111918157D01*
X132596249Y-111918157D01*
X132132616Y-111454525D01*
X132143487Y-111418689D01*
X132150843Y-111344000D01*
X132150843Y-110144000D01*
X132143487Y-110069311D01*
X132121701Y-109997492D01*
X132086322Y-109931304D01*
X132038711Y-109873289D01*
X131980696Y-109825678D01*
X131914508Y-109790299D01*
X131842689Y-109768513D01*
X131768000Y-109761157D01*
X130868000Y-109761157D01*
X130793311Y-109768513D01*
X130721492Y-109790299D01*
X130655304Y-109825678D01*
X130597289Y-109873289D01*
X130549678Y-109931304D01*
X130514299Y-109997492D01*
X130492513Y-110069311D01*
X130485157Y-110144000D01*
X130454000Y-110144000D01*
X130454000Y-108502761D01*
X130481843Y-108581252D01*
X130630822Y-108831355D01*
X130825731Y-109047588D01*
X131059080Y-109221641D01*
X131321901Y-109346825D01*
X131469110Y-109391476D01*
X131699000Y-109270155D01*
X131699000Y-108077000D01*
X131679000Y-108077000D01*
X131679000Y-107823000D01*
X131699000Y-107823000D01*
X131699000Y-107803000D01*
X131953000Y-107803000D01*
X131953000Y-107823000D01*
%TA.AperFunction,Conductor*%
D31*
G36*
X131953000Y-107823000D02*
G01*
X131973000Y-107823000D01*
X131973000Y-108077000D01*
X131953000Y-108077000D01*
X131953000Y-109270155D01*
X132182890Y-109391476D01*
X132330099Y-109346825D01*
X132592920Y-109221641D01*
X132826269Y-109047588D01*
X133021178Y-108831355D01*
X133133157Y-108643367D01*
X133133157Y-108800000D01*
X133140513Y-108874689D01*
X133162299Y-108946508D01*
X133197678Y-109012696D01*
X133245289Y-109070711D01*
X133303304Y-109118322D01*
X133369492Y-109153701D01*
X133441311Y-109175487D01*
X133516000Y-109182843D01*
X133987001Y-109182843D01*
X133987000Y-109808736D01*
X133955304Y-109825678D01*
X133897289Y-109873289D01*
X133849678Y-109931304D01*
X133814299Y-109997492D01*
X133792513Y-110069311D01*
X133785157Y-110144000D01*
X133785157Y-111344000D01*
X133792513Y-111418689D01*
X133814299Y-111490508D01*
X133849678Y-111556696D01*
X133897289Y-111614711D01*
X133955304Y-111662322D01*
X134021492Y-111697701D01*
X134093311Y-111719487D01*
X134168000Y-111726843D01*
X135068000Y-111726843D01*
X135142689Y-111719487D01*
X135214508Y-111697701D01*
X135280696Y-111662322D01*
X135338711Y-111614711D01*
X135386322Y-111556696D01*
X135421701Y-111490508D01*
X135443487Y-111418689D01*
X135450843Y-111344000D01*
X135450843Y-111059525D01*
X136085105Y-110425262D01*
X136085110Y-110425256D01*
X136136921Y-110373445D01*
X136244809Y-110351985D01*
X136386942Y-110293111D01*
X136514859Y-110207640D01*
X136555510Y-110166989D01*
X137282142Y-110166989D01*
X135616233Y-111832899D01*
X135592158Y-111852657D01*
X135513304Y-111948739D01*
X135484933Y-112001817D01*
X135445856Y-112022704D01*
X135351851Y-112099851D01*
X135274704Y-112193856D01*
X135217378Y-112301105D01*
X135182077Y-112417477D01*
X135170157Y-112538500D01*
X135170157Y-113013500D01*
X135182077Y-113134523D01*
X135217378Y-113250895D01*
X135274704Y-113358144D01*
X135351851Y-113452149D01*
X135445856Y-113529296D01*
X135553105Y-113586622D01*
X135669477Y-113621923D01*
X135790500Y-113633843D01*
X136290500Y-113633843D01*
X136411523Y-113621923D01*
X136527895Y-113586622D01*
X136635144Y-113529296D01*
X136645461Y-113520829D01*
X137064157Y-113939526D01*
X137064157Y-114192500D01*
X137067478Y-114226223D01*
X137032696Y-114197678D01*
X136966508Y-114162299D01*
X136894689Y-114140513D01*
X136820000Y-114133157D01*
X135320000Y-114133157D01*
X135245311Y-114140513D01*
X135173492Y-114162299D01*
X135107304Y-114197678D01*
X135049289Y-114245289D01*
X135001678Y-114303304D01*
X134966299Y-114369492D01*
X134944513Y-114441311D01*
X134937157Y-114516000D01*
X134937157Y-116116000D01*
X134944513Y-116190689D01*
X134966299Y-116262508D01*
X135001678Y-116328696D01*
X135049289Y-116386711D01*
X135107304Y-116434322D01*
X135173492Y-116469701D01*
X135245311Y-116491487D01*
X135320000Y-116498843D01*
X135562001Y-116498843D01*
X135562001Y-117055008D01*
X135559543Y-117079962D01*
X135568474Y-117170636D01*
X135569352Y-117179547D01*
X135571525Y-117186711D01*
X135598400Y-117275305D01*
X135645571Y-117363557D01*
X135663167Y-117384998D01*
X133225945Y-117384998D01*
X133223327Y-117384740D01*
X133178394Y-117354717D01*
X133112204Y-117319337D01*
X133062726Y-117298843D01*
X133420000Y-117298843D01*
X133494689Y-117291487D01*
X133566508Y-117269701D01*
X133632696Y-117234322D01*
X133690711Y-117186711D01*
X133738322Y-117128696D01*
X133773701Y-117062508D01*
X133795487Y-116990689D01*
X133802843Y-116916000D01*
X133802843Y-115716000D01*
X133795487Y-115641311D01*
X133773701Y-115569492D01*
X133738322Y-115503304D01*
X133690711Y-115445289D01*
X133632696Y-115397678D01*
X133566508Y-115362299D01*
X133494689Y-115340513D01*
X133420000Y-115333157D01*
X132220000Y-115333157D01*
X132145311Y-115340513D01*
X132073492Y-115362299D01*
X132007304Y-115397678D01*
X131949289Y-115445289D01*
X131901678Y-115503304D01*
X131866299Y-115569492D01*
X131844513Y-115641311D01*
X131840898Y-115678013D01*
X131817296Y-115633856D01*
X131740149Y-115539851D01*
X131646144Y-115462704D01*
X131538895Y-115405378D01*
X131422523Y-115370077D01*
X131301500Y-115358157D01*
X130826500Y-115358157D01*
X130705477Y-115370077D01*
X130589105Y-115405378D01*
X130481856Y-115462704D01*
X130454000Y-115485565D01*
X130454000Y-110144000D01*
X130485157Y-110144000D01*
X130485157Y-111344000D01*
X130492513Y-111418689D01*
X130514299Y-111490508D01*
X130549678Y-111556696D01*
X130597289Y-111614711D01*
X130655304Y-111662322D01*
X130721492Y-111697701D01*
X130793311Y-111719487D01*
X130868000Y-111726843D01*
X130972872Y-111726843D01*
X130977780Y-111730872D01*
X131868157Y-112621249D01*
X131868157Y-113013500D01*
X131880077Y-113134523D01*
X131915378Y-113250895D01*
X131972704Y-113358144D01*
X132006016Y-113398735D01*
X131949289Y-113445289D01*
X131901678Y-113503304D01*
X131866299Y-113569492D01*
X131844513Y-113641311D01*
X131837157Y-113716000D01*
X131837157Y-114916000D01*
X131844513Y-114990689D01*
X131866299Y-115062508D01*
X131901678Y-115128696D01*
X131949289Y-115186711D01*
X132007304Y-115234322D01*
X132073492Y-115269701D01*
X132145311Y-115291487D01*
X132220000Y-115298843D01*
X133420000Y-115298843D01*
X133494689Y-115291487D01*
X133566508Y-115269701D01*
X133632696Y-115234322D01*
X133690711Y-115186711D01*
X133738322Y-115128696D01*
X133773701Y-115062508D01*
X133795487Y-114990689D01*
X133802843Y-114916000D01*
X133802843Y-114817805D01*
X133814585Y-114816649D01*
X133910343Y-114787601D01*
X133998595Y-114740429D01*
X134075948Y-114676948D01*
X134091855Y-114657565D01*
X134557065Y-114192355D01*
X134576448Y-114176448D01*
X134639929Y-114099095D01*
X134687101Y-114010843D01*
X134716149Y-113915085D01*
X134723500Y-113840447D01*
X134723500Y-113840444D01*
X134725957Y-113815500D01*
X134723500Y-113790556D01*
X134723500Y-113575608D01*
X134810144Y-113529296D01*
X134904149Y-113452149D01*
X134981296Y-113358144D01*
X135038622Y-113250895D01*
X135073923Y-113134523D01*
X135085843Y-113013500D01*
X135085843Y-112538500D01*
X135073923Y-112417477D01*
X135038622Y-112301105D01*
X134981296Y-112193856D01*
X134904149Y-112099851D01*
X134810144Y-112022704D01*
X134702895Y-111965378D01*
X134586523Y-111930077D01*
X134465500Y-111918157D01*
X133965500Y-111918157D01*
X133844477Y-111930077D01*
X133728105Y-111965378D01*
X133620856Y-112022704D01*
X133526851Y-112099851D01*
X133477000Y-112160595D01*
X133427149Y-112099851D01*
X133333144Y-112022704D01*
X133225895Y-111965378D01*
X133109523Y-111930077D01*
X132988500Y-111918157D01*
X132596249Y-111918157D01*
X132132616Y-111454525D01*
X132143487Y-111418689D01*
X132150843Y-111344000D01*
X132150843Y-110144000D01*
X132143487Y-110069311D01*
X132121701Y-109997492D01*
X132086322Y-109931304D01*
X132038711Y-109873289D01*
X131980696Y-109825678D01*
X131914508Y-109790299D01*
X131842689Y-109768513D01*
X131768000Y-109761157D01*
X130868000Y-109761157D01*
X130793311Y-109768513D01*
X130721492Y-109790299D01*
X130655304Y-109825678D01*
X130597289Y-109873289D01*
X130549678Y-109931304D01*
X130514299Y-109997492D01*
X130492513Y-110069311D01*
X130485157Y-110144000D01*
X130454000Y-110144000D01*
X130454000Y-108502761D01*
X130481843Y-108581252D01*
X130630822Y-108831355D01*
X130825731Y-109047588D01*
X131059080Y-109221641D01*
X131321901Y-109346825D01*
X131469110Y-109391476D01*
X131699000Y-109270155D01*
X131699000Y-108077000D01*
X131679000Y-108077000D01*
X131679000Y-107823000D01*
X131699000Y-107823000D01*
X131699000Y-107803000D01*
X131953000Y-107803000D01*
X131953000Y-107823000D01*
G37*
%TD.AperFunction*%
D29*
X140639748Y-116317858D02*
X140625605Y-116332000D01*
X140639748Y-116346143D01*
X140460143Y-116525748D01*
X140446000Y-116511605D01*
X140431858Y-116525748D01*
X140372651Y-116466541D01*
X140380828Y-116425824D01*
X140381171Y-116241645D01*
X140372497Y-116197613D01*
X140431858Y-116138253D01*
X140446000Y-116152395D01*
X140460143Y-116138253D01*
X140639748Y-116317858D01*
%TA.AperFunction,Conductor*%
D31*
G36*
X140639748Y-116317858D02*
G01*
X140625605Y-116332000D01*
X140639748Y-116346143D01*
X140460143Y-116525748D01*
X140446000Y-116511605D01*
X140431858Y-116525748D01*
X140372651Y-116466541D01*
X140380828Y-116425824D01*
X140381171Y-116241645D01*
X140372497Y-116197613D01*
X140431858Y-116138253D01*
X140446000Y-116152395D01*
X140460143Y-116138253D01*
X140639748Y-116317858D01*
G37*
%TD.AperFunction*%
D29*
X139519349Y-116197459D02*
X139511172Y-116238176D01*
X139510829Y-116422355D01*
X139519503Y-116466387D01*
X139460143Y-116525748D01*
X139446000Y-116511605D01*
X139431858Y-116525748D01*
X139372651Y-116466541D01*
X139380828Y-116425824D01*
X139381171Y-116241645D01*
X139372497Y-116197613D01*
X139431858Y-116138253D01*
X139446000Y-116152395D01*
X139460143Y-116138253D01*
X139519349Y-116197459D01*
%TA.AperFunction,Conductor*%
D31*
G36*
X139519349Y-116197459D02*
G01*
X139511172Y-116238176D01*
X139510829Y-116422355D01*
X139519503Y-116466387D01*
X139460143Y-116525748D01*
X139446000Y-116511605D01*
X139431858Y-116525748D01*
X139372651Y-116466541D01*
X139380828Y-116425824D01*
X139381171Y-116241645D01*
X139372497Y-116197613D01*
X139431858Y-116138253D01*
X139446000Y-116152395D01*
X139460143Y-116138253D01*
X139519349Y-116197459D01*
G37*
%TD.AperFunction*%
D29*
X148463000Y-115443000D02*
X148483000Y-115443000D01*
X148483000Y-115697000D01*
X148463000Y-115697000D01*
X148463000Y-115717000D01*
X148209000Y-115717000D01*
X148209000Y-115697000D01*
X148189000Y-115697000D01*
X148189000Y-115443000D01*
X148209000Y-115443000D01*
X148209000Y-115423000D01*
X148463000Y-115423000D01*
X148463000Y-115443000D01*
%TA.AperFunction,Conductor*%
D31*
G36*
X148463000Y-115443000D02*
G01*
X148483000Y-115443000D01*
X148483000Y-115697000D01*
X148463000Y-115697000D01*
X148463000Y-115717000D01*
X148209000Y-115717000D01*
X148209000Y-115697000D01*
X148189000Y-115697000D01*
X148189000Y-115443000D01*
X148209000Y-115443000D01*
X148209000Y-115423000D01*
X148463000Y-115423000D01*
X148463000Y-115443000D01*
G37*
%TD.AperFunction*%
D29*
X147705000Y-110933359D02*
X147705000Y-111797157D01*
X147486000Y-111797157D01*
X147411311Y-111804513D01*
X147339492Y-111826299D01*
X147273304Y-111861678D01*
X147215289Y-111909289D01*
X147167678Y-111967304D01*
X147132299Y-112033492D01*
X147110513Y-112105311D01*
X147103157Y-112180000D01*
X147103157Y-113880000D01*
X147110513Y-113954689D01*
X147132299Y-114026508D01*
X147167678Y-114092696D01*
X147215289Y-114150711D01*
X147273304Y-114198322D01*
X147339492Y-114233701D01*
X147411311Y-114255487D01*
X147486000Y-114262843D01*
X147642633Y-114262843D01*
X147454645Y-114374822D01*
X147238412Y-114569731D01*
X147064359Y-114803080D01*
X147054843Y-114823059D01*
X147054843Y-114478000D01*
X147047487Y-114403311D01*
X147025701Y-114331492D01*
X146990322Y-114265304D01*
X146942711Y-114207289D01*
X146884696Y-114159678D01*
X146818508Y-114124299D01*
X146746689Y-114102513D01*
X146672000Y-114095157D01*
X146622121Y-114095157D01*
X146676296Y-114029144D01*
X146733622Y-113921895D01*
X146768923Y-113805523D01*
X146780843Y-113684500D01*
X146780843Y-113184500D01*
X146768923Y-113063477D01*
X146733622Y-112947105D01*
X146676296Y-112839856D01*
X146599149Y-112745851D01*
X146505144Y-112668704D01*
X146397895Y-112611378D01*
X146281523Y-112576077D01*
X146160500Y-112564157D01*
X145685500Y-112564157D01*
X145564477Y-112576077D01*
X145448105Y-112611378D01*
X145340856Y-112668704D01*
X145246851Y-112745851D01*
X145169704Y-112839856D01*
X145123392Y-112926500D01*
X145042843Y-112926500D01*
X145042843Y-112780000D01*
X145040435Y-112755550D01*
X145040435Y-112730991D01*
X145033079Y-112656302D01*
X145013957Y-112560169D01*
X144992172Y-112488352D01*
X144954663Y-112397796D01*
X144919283Y-112331606D01*
X144864827Y-112250107D01*
X144817216Y-112192092D01*
X144747908Y-112122784D01*
X144689893Y-112075173D01*
X144608394Y-112020717D01*
X144542204Y-111985337D01*
X144451648Y-111947828D01*
X144379831Y-111926043D01*
X144283698Y-111906921D01*
X144209009Y-111899565D01*
X144184450Y-111899565D01*
X144160000Y-111897157D01*
X143660000Y-111897157D01*
X143585311Y-111904513D01*
X143513492Y-111926299D01*
X143510000Y-111928166D01*
X143506508Y-111926299D01*
X143434689Y-111904513D01*
X143360000Y-111897157D01*
X142860000Y-111897157D01*
X142835550Y-111899565D01*
X142810991Y-111899565D01*
X142736302Y-111906921D01*
X142640169Y-111926043D01*
X142568352Y-111947828D01*
X142477796Y-111985337D01*
X142418684Y-112016933D01*
X142338642Y-111897141D01*
X142229859Y-111788358D01*
X142101942Y-111702887D01*
X141959809Y-111644013D01*
X141808922Y-111614000D01*
X141655078Y-111614000D01*
X141504191Y-111644013D01*
X141362058Y-111702887D01*
X141234141Y-111788358D01*
X141125358Y-111897141D01*
X141039887Y-112025058D01*
X140981013Y-112167191D01*
X140951000Y-112318078D01*
X140951000Y-112471922D01*
X140981013Y-112622809D01*
X141039887Y-112764942D01*
X141125358Y-112892859D01*
X141166656Y-112934157D01*
X140795500Y-112934157D01*
X140674477Y-112946077D01*
X140558105Y-112981378D01*
X140450856Y-113038704D01*
X140356851Y-113115851D01*
X140279704Y-113209856D01*
X140222378Y-113317105D01*
X140208000Y-113364503D01*
X140193622Y-113317105D01*
X140136296Y-113209856D01*
X140059149Y-113115851D01*
X139965144Y-113038704D01*
X139857895Y-112981378D01*
X139741523Y-112946077D01*
X139620500Y-112934157D01*
X139045500Y-112934157D01*
X138924477Y-112946077D01*
X138808105Y-112981378D01*
X138700856Y-113038704D01*
X138606851Y-113115851D01*
X138572454Y-113157764D01*
X138504144Y-113101704D01*
X138396895Y-113044378D01*
X138280523Y-113009077D01*
X138159500Y-112997157D01*
X137906526Y-112997157D01*
X137261105Y-112351737D01*
X137241343Y-112327657D01*
X137145261Y-112248804D01*
X137040865Y-112193003D01*
X138366869Y-110867000D01*
X147638642Y-110867000D01*
X147705000Y-110933359D01*
%TA.AperFunction,Conductor*%
D31*
G36*
X147705000Y-110933359D02*
G01*
X147705000Y-111797157D01*
X147486000Y-111797157D01*
X147411311Y-111804513D01*
X147339492Y-111826299D01*
X147273304Y-111861678D01*
X147215289Y-111909289D01*
X147167678Y-111967304D01*
X147132299Y-112033492D01*
X147110513Y-112105311D01*
X147103157Y-112180000D01*
X147103157Y-113880000D01*
X147110513Y-113954689D01*
X147132299Y-114026508D01*
X147167678Y-114092696D01*
X147215289Y-114150711D01*
X147273304Y-114198322D01*
X147339492Y-114233701D01*
X147411311Y-114255487D01*
X147486000Y-114262843D01*
X147642633Y-114262843D01*
X147454645Y-114374822D01*
X147238412Y-114569731D01*
X147064359Y-114803080D01*
X147054843Y-114823059D01*
X147054843Y-114478000D01*
X147047487Y-114403311D01*
X147025701Y-114331492D01*
X146990322Y-114265304D01*
X146942711Y-114207289D01*
X146884696Y-114159678D01*
X146818508Y-114124299D01*
X146746689Y-114102513D01*
X146672000Y-114095157D01*
X146622121Y-114095157D01*
X146676296Y-114029144D01*
X146733622Y-113921895D01*
X146768923Y-113805523D01*
X146780843Y-113684500D01*
X146780843Y-113184500D01*
X146768923Y-113063477D01*
X146733622Y-112947105D01*
X146676296Y-112839856D01*
X146599149Y-112745851D01*
X146505144Y-112668704D01*
X146397895Y-112611378D01*
X146281523Y-112576077D01*
X146160500Y-112564157D01*
X145685500Y-112564157D01*
X145564477Y-112576077D01*
X145448105Y-112611378D01*
X145340856Y-112668704D01*
X145246851Y-112745851D01*
X145169704Y-112839856D01*
X145123392Y-112926500D01*
X145042843Y-112926500D01*
X145042843Y-112780000D01*
X145040435Y-112755550D01*
X145040435Y-112730991D01*
X145033079Y-112656302D01*
X145013957Y-112560169D01*
X144992172Y-112488352D01*
X144954663Y-112397796D01*
X144919283Y-112331606D01*
X144864827Y-112250107D01*
X144817216Y-112192092D01*
X144747908Y-112122784D01*
X144689893Y-112075173D01*
X144608394Y-112020717D01*
X144542204Y-111985337D01*
X144451648Y-111947828D01*
X144379831Y-111926043D01*
X144283698Y-111906921D01*
X144209009Y-111899565D01*
X144184450Y-111899565D01*
X144160000Y-111897157D01*
X143660000Y-111897157D01*
X143585311Y-111904513D01*
X143513492Y-111926299D01*
X143510000Y-111928166D01*
X143506508Y-111926299D01*
X143434689Y-111904513D01*
X143360000Y-111897157D01*
X142860000Y-111897157D01*
X142835550Y-111899565D01*
X142810991Y-111899565D01*
X142736302Y-111906921D01*
X142640169Y-111926043D01*
X142568352Y-111947828D01*
X142477796Y-111985337D01*
X142418684Y-112016933D01*
X142338642Y-111897141D01*
X142229859Y-111788358D01*
X142101942Y-111702887D01*
X141959809Y-111644013D01*
X141808922Y-111614000D01*
X141655078Y-111614000D01*
X141504191Y-111644013D01*
X141362058Y-111702887D01*
X141234141Y-111788358D01*
X141125358Y-111897141D01*
X141039887Y-112025058D01*
X140981013Y-112167191D01*
X140951000Y-112318078D01*
X140951000Y-112471922D01*
X140981013Y-112622809D01*
X141039887Y-112764942D01*
X141125358Y-112892859D01*
X141166656Y-112934157D01*
X140795500Y-112934157D01*
X140674477Y-112946077D01*
X140558105Y-112981378D01*
X140450856Y-113038704D01*
X140356851Y-113115851D01*
X140279704Y-113209856D01*
X140222378Y-113317105D01*
X140208000Y-113364503D01*
X140193622Y-113317105D01*
X140136296Y-113209856D01*
X140059149Y-113115851D01*
X139965144Y-113038704D01*
X139857895Y-112981378D01*
X139741523Y-112946077D01*
X139620500Y-112934157D01*
X139045500Y-112934157D01*
X138924477Y-112946077D01*
X138808105Y-112981378D01*
X138700856Y-113038704D01*
X138606851Y-113115851D01*
X138572454Y-113157764D01*
X138504144Y-113101704D01*
X138396895Y-113044378D01*
X138280523Y-113009077D01*
X138159500Y-112997157D01*
X137906526Y-112997157D01*
X137261105Y-112351737D01*
X137241343Y-112327657D01*
X137145261Y-112248804D01*
X137040865Y-112193003D01*
X138366869Y-110867000D01*
X147638642Y-110867000D01*
X147705000Y-110933359D01*
G37*
%TD.AperFunction*%
D29*
X145923000Y-107823000D02*
X145943000Y-107823000D01*
X145943000Y-108077000D01*
X145923000Y-108077000D01*
X145923000Y-109270155D01*
X146152890Y-109391476D01*
X146300099Y-109346825D01*
X146562920Y-109221641D01*
X146796269Y-109047588D01*
X146991178Y-108831355D01*
X147140157Y-108581252D01*
X147197772Y-108418832D01*
X147245102Y-108533097D01*
X147379820Y-108734717D01*
X147551283Y-108906180D01*
X147705001Y-109008891D01*
X147705000Y-109605000D01*
X142493368Y-109605000D01*
X142953436Y-109144933D01*
X143134757Y-109181000D01*
X143377243Y-109181000D01*
X143615069Y-109133693D01*
X143839097Y-109040898D01*
X144040717Y-108906180D01*
X144212180Y-108734717D01*
X144346898Y-108533097D01*
X144394228Y-108418832D01*
X144451843Y-108581252D01*
X144600822Y-108831355D01*
X144795731Y-109047588D01*
X145029080Y-109221641D01*
X145291901Y-109346825D01*
X145439110Y-109391476D01*
X145669000Y-109270155D01*
X145669000Y-108077000D01*
X145649000Y-108077000D01*
X145649000Y-107823000D01*
X145669000Y-107823000D01*
X145669000Y-107803000D01*
X145923000Y-107803000D01*
X145923000Y-107823000D01*
%TA.AperFunction,Conductor*%
D31*
G36*
X145923000Y-107823000D02*
G01*
X145943000Y-107823000D01*
X145943000Y-108077000D01*
X145923000Y-108077000D01*
X145923000Y-109270155D01*
X146152890Y-109391476D01*
X146300099Y-109346825D01*
X146562920Y-109221641D01*
X146796269Y-109047588D01*
X146991178Y-108831355D01*
X147140157Y-108581252D01*
X147197772Y-108418832D01*
X147245102Y-108533097D01*
X147379820Y-108734717D01*
X147551283Y-108906180D01*
X147705001Y-109008891D01*
X147705000Y-109605000D01*
X142493368Y-109605000D01*
X142953436Y-109144933D01*
X143134757Y-109181000D01*
X143377243Y-109181000D01*
X143615069Y-109133693D01*
X143839097Y-109040898D01*
X144040717Y-108906180D01*
X144212180Y-108734717D01*
X144346898Y-108533097D01*
X144394228Y-108418832D01*
X144451843Y-108581252D01*
X144600822Y-108831355D01*
X144795731Y-109047588D01*
X145029080Y-109221641D01*
X145291901Y-109346825D01*
X145439110Y-109391476D01*
X145669000Y-109270155D01*
X145669000Y-108077000D01*
X145649000Y-108077000D01*
X145649000Y-107823000D01*
X145669000Y-107823000D01*
X145669000Y-107803000D01*
X145923000Y-107803000D01*
X145923000Y-107823000D01*
G37*
%TD.AperFunction*%
%TD*%
M02*
