%TF.GenerationSoftware,KiCad,Pcbnew,(5.1.10)-1*%
%TF.CreationDate,2021-06-21T20:23:21-05:00*%
%TF.ProjectId,USB_Dual_Supply,5553425f-4475-4616-9c5f-537570706c79,rev?*%
%TF.SameCoordinates,Original*%
%TF.FileFunction,Legend,Bot*%
%TF.FilePolarity,Positive*%
%FSLAX46Y46*%
G04 Gerber Fmt 4.6, Leading zero omitted, Abs format (unit mm)*
G04 Created by KiCad (PCBNEW (5.1.10)-1) date 2021-06-21 20:23:21*
%MOMM*%
%LPD*%
G01*
G04 APERTURE LIST*
%ADD10C,0.150000*%
%ADD11O,1.100000X1.500000*%
%ADD12O,1.350000X1.700000*%
%ADD13R,1.700000X1.700000*%
%ADD14O,1.700000X1.700000*%
G04 APERTURE END LIST*
D10*
X138953380Y-123515380D02*
X138953380Y-122515380D01*
X138620047Y-123229666D01*
X138286714Y-122515380D01*
X138286714Y-123515380D01*
X137810523Y-123515380D02*
X137810523Y-122515380D01*
X137572428Y-122515380D01*
X137429571Y-122563000D01*
X137334333Y-122658238D01*
X137286714Y-122753476D01*
X137239095Y-122943952D01*
X137239095Y-123086809D01*
X137286714Y-123277285D01*
X137334333Y-123372523D01*
X137429571Y-123467761D01*
X137572428Y-123515380D01*
X137810523Y-123515380D01*
X136810523Y-122515380D02*
X136810523Y-123324904D01*
X136762904Y-123420142D01*
X136715285Y-123467761D01*
X136620047Y-123515380D01*
X136429571Y-123515380D01*
X136334333Y-123467761D01*
X136286714Y-123420142D01*
X136239095Y-123324904D01*
X136239095Y-122515380D01*
X135762904Y-123515380D02*
X135762904Y-122515380D01*
X135191476Y-123515380D01*
X135191476Y-122515380D01*
X134715285Y-123515380D02*
X134715285Y-122515380D01*
X134143857Y-123515380D02*
X134572428Y-122943952D01*
X134143857Y-122515380D02*
X134715285Y-123086809D01*
X132905761Y-122515380D02*
X133001000Y-122705857D01*
X132524809Y-122610619D02*
X132477190Y-122563000D01*
X132381952Y-122515380D01*
X132143857Y-122515380D01*
X132048619Y-122563000D01*
X132001000Y-122610619D01*
X131953380Y-122705857D01*
X131953380Y-122801095D01*
X132001000Y-122943952D01*
X132572428Y-123515380D01*
X131953380Y-123515380D01*
X131001000Y-123515380D02*
X131572428Y-123515380D01*
X131286714Y-123515380D02*
X131286714Y-122515380D01*
X131381952Y-122658238D01*
X131477190Y-122753476D01*
X131572428Y-122801095D01*
X148335000Y-110069380D02*
X148335000Y-110878904D01*
X148287380Y-110974142D01*
X148239761Y-111021761D01*
X148144523Y-111069380D01*
X147954047Y-111069380D01*
X147858809Y-111021761D01*
X147811190Y-110974142D01*
X147763571Y-110878904D01*
X147763571Y-110069380D01*
X147335000Y-111021761D02*
X147192142Y-111069380D01*
X146954047Y-111069380D01*
X146858809Y-111021761D01*
X146811190Y-110974142D01*
X146763571Y-110878904D01*
X146763571Y-110783666D01*
X146811190Y-110688428D01*
X146858809Y-110640809D01*
X146954047Y-110593190D01*
X147144523Y-110545571D01*
X147239761Y-110497952D01*
X147287380Y-110450333D01*
X147335000Y-110355095D01*
X147335000Y-110259857D01*
X147287380Y-110164619D01*
X147239761Y-110117000D01*
X147144523Y-110069380D01*
X146906428Y-110069380D01*
X146763571Y-110117000D01*
X146001666Y-110545571D02*
X145858809Y-110593190D01*
X145811190Y-110640809D01*
X145763571Y-110736047D01*
X145763571Y-110878904D01*
X145811190Y-110974142D01*
X145858809Y-111021761D01*
X145954047Y-111069380D01*
X146335000Y-111069380D01*
X146335000Y-110069380D01*
X146001666Y-110069380D01*
X145906428Y-110117000D01*
X145858809Y-110164619D01*
X145811190Y-110259857D01*
X145811190Y-110355095D01*
X145858809Y-110450333D01*
X145906428Y-110497952D01*
X146001666Y-110545571D01*
X146335000Y-110545571D01*
X144573095Y-111069380D02*
X144573095Y-110069380D01*
X144335000Y-110069380D01*
X144192142Y-110117000D01*
X144096904Y-110212238D01*
X144049285Y-110307476D01*
X144001666Y-110497952D01*
X144001666Y-110640809D01*
X144049285Y-110831285D01*
X144096904Y-110926523D01*
X144192142Y-111021761D01*
X144335000Y-111069380D01*
X144573095Y-111069380D01*
X143144523Y-110402714D02*
X143144523Y-111069380D01*
X143573095Y-110402714D02*
X143573095Y-110926523D01*
X143525476Y-111021761D01*
X143430238Y-111069380D01*
X143287380Y-111069380D01*
X143192142Y-111021761D01*
X143144523Y-110974142D01*
X142239761Y-111069380D02*
X142239761Y-110545571D01*
X142287380Y-110450333D01*
X142382619Y-110402714D01*
X142573095Y-110402714D01*
X142668333Y-110450333D01*
X142239761Y-111021761D02*
X142335000Y-111069380D01*
X142573095Y-111069380D01*
X142668333Y-111021761D01*
X142715952Y-110926523D01*
X142715952Y-110831285D01*
X142668333Y-110736047D01*
X142573095Y-110688428D01*
X142335000Y-110688428D01*
X142239761Y-110640809D01*
X141620714Y-111069380D02*
X141715952Y-111021761D01*
X141763571Y-110926523D01*
X141763571Y-110069380D01*
X139906428Y-111069380D02*
X140239761Y-110593190D01*
X140477857Y-111069380D02*
X140477857Y-110069380D01*
X140096904Y-110069380D01*
X140001666Y-110117000D01*
X139954047Y-110164619D01*
X139906428Y-110259857D01*
X139906428Y-110402714D01*
X139954047Y-110497952D01*
X140001666Y-110545571D01*
X140096904Y-110593190D01*
X140477857Y-110593190D01*
X139049285Y-111069380D02*
X139049285Y-110545571D01*
X139096904Y-110450333D01*
X139192142Y-110402714D01*
X139382619Y-110402714D01*
X139477857Y-110450333D01*
X139049285Y-111021761D02*
X139144523Y-111069380D01*
X139382619Y-111069380D01*
X139477857Y-111021761D01*
X139525476Y-110926523D01*
X139525476Y-110831285D01*
X139477857Y-110736047D01*
X139382619Y-110688428D01*
X139144523Y-110688428D01*
X139049285Y-110640809D01*
X138573095Y-111069380D02*
X138573095Y-110402714D01*
X138573095Y-110069380D02*
X138620714Y-110117000D01*
X138573095Y-110164619D01*
X138525476Y-110117000D01*
X138573095Y-110069380D01*
X138573095Y-110164619D01*
X137954047Y-111069380D02*
X138049285Y-111021761D01*
X138096904Y-110926523D01*
X138096904Y-110069380D01*
X136858809Y-111021761D02*
X136715952Y-111069380D01*
X136477857Y-111069380D01*
X136382619Y-111021761D01*
X136335000Y-110974142D01*
X136287380Y-110878904D01*
X136287380Y-110783666D01*
X136335000Y-110688428D01*
X136382619Y-110640809D01*
X136477857Y-110593190D01*
X136668333Y-110545571D01*
X136763571Y-110497952D01*
X136811190Y-110450333D01*
X136858809Y-110355095D01*
X136858809Y-110259857D01*
X136811190Y-110164619D01*
X136763571Y-110117000D01*
X136668333Y-110069380D01*
X136430238Y-110069380D01*
X136287380Y-110117000D01*
X135430238Y-110402714D02*
X135430238Y-111069380D01*
X135858809Y-110402714D02*
X135858809Y-110926523D01*
X135811190Y-111021761D01*
X135715952Y-111069380D01*
X135573095Y-111069380D01*
X135477857Y-111021761D01*
X135430238Y-110974142D01*
X134954047Y-110402714D02*
X134954047Y-111402714D01*
X134954047Y-110450333D02*
X134858809Y-110402714D01*
X134668333Y-110402714D01*
X134573095Y-110450333D01*
X134525476Y-110497952D01*
X134477857Y-110593190D01*
X134477857Y-110878904D01*
X134525476Y-110974142D01*
X134573095Y-111021761D01*
X134668333Y-111069380D01*
X134858809Y-111069380D01*
X134954047Y-111021761D01*
X134049285Y-110402714D02*
X134049285Y-111402714D01*
X134049285Y-110450333D02*
X133954047Y-110402714D01*
X133763571Y-110402714D01*
X133668333Y-110450333D01*
X133620714Y-110497952D01*
X133573095Y-110593190D01*
X133573095Y-110878904D01*
X133620714Y-110974142D01*
X133668333Y-111021761D01*
X133763571Y-111069380D01*
X133954047Y-111069380D01*
X134049285Y-111021761D01*
X133001666Y-111069380D02*
X133096904Y-111021761D01*
X133144523Y-110926523D01*
X133144523Y-110069380D01*
X132715952Y-110402714D02*
X132477857Y-111069380D01*
X132239761Y-110402714D02*
X132477857Y-111069380D01*
X132573095Y-111307476D01*
X132620714Y-111355095D01*
X132715952Y-111402714D01*
%LPC*%
D11*
%TO.C,J1*%
X131667000Y-121559000D03*
X136507000Y-121559000D03*
D12*
X131357000Y-124559000D03*
X136817000Y-124559000D03*
%TD*%
D13*
%TO.C,J2*%
X134366000Y-107950000D03*
D14*
X131826000Y-107950000D03*
%TD*%
D13*
%TO.C,J3*%
X140716000Y-107950000D03*
D14*
X143256000Y-107950000D03*
X145796000Y-107950000D03*
X148336000Y-107950000D03*
%TD*%
%TO.C,J4*%
X148336000Y-123190000D03*
X145796000Y-123190000D03*
X143256000Y-123190000D03*
D13*
X140716000Y-123190000D03*
%TD*%
%TO.C,J5*%
X148336000Y-113030000D03*
D14*
X148336000Y-115570000D03*
X148336000Y-118110000D03*
%TD*%
M02*
