M48
; DRILL file {KiCad (5.1.10)-1} date 06/21/21 19:38:09
; FORMAT={-:-/ absolute / metric / decimal}
; #@! TF.CreationDate,2021-06-21T19:38:09-05:00
; #@! TF.GenerationSoftware,Kicad,Pcbnew,(5.1.10)-1
; #@! TF.FileFunction,Plated,1,2,PTH
FMAT,2
METRIC
T1C0.300
T2C0.400
T3C0.650
T4C0.700
T5C1.000
%
G90
G05
T1
X138.446Y-116.332
X139.446Y-116.332
X140.446Y-116.332
T2
X134.491Y-118.62
X135.255Y-119.634
X136.017Y-109.601
X136.398Y-119.761
X137.287Y-117.221
X137.504Y-115.062
X139.446Y-111.633
X141.732Y-112.395
X143.129Y-120.65
X147.193Y-111.125
T5
X131.826Y-107.95
X134.366Y-107.95
X140.716Y-107.95
X140.716Y-123.19
X143.256Y-107.95
X143.256Y-123.19
X145.796Y-107.95
X145.796Y-123.19
X148.336Y-107.95
X148.336Y-113.03
X148.336Y-115.57
X148.336Y-118.11
X148.336Y-123.19
T3
X131.667Y-121.759G85X131.667Y-121.359
G05
X136.507Y-121.759G85X136.507Y-121.359
G05
T4
X131.357Y-124.809G85X131.357Y-124.309
G05
X136.817Y-124.809G85X136.817Y-124.309
G05
T0
M30
