%FSLAX45Y45*%
G04 Gerber Fmt 4.5, Leading zero omitted, Abs format (unit mm)*
G04 Created by KiCad (PCBNEW (5.1.10)-1) date 2021-06-21 19:38:08*
%MOMM*%
%LPD*%
G01*
G04 APERTURE LIST*
%TA.AperFunction,Profile*%
%ADD10C,0.050000*%
%TD*%
%ADD11C,0.200000*%
%ADD12C,0.300000*%
G04 APERTURE END LIST*
D10*
X13004800Y-12623800D02*
X13004800Y-10617200D01*
X15011400Y-12623800D02*
X13004800Y-12623800D01*
X15011400Y-10617200D02*
X15011400Y-12623800D01*
X13004800Y-10617200D02*
X15011400Y-10617200D01*
D11*
D12*
X13288728Y-13092014D02*
X13288728Y-12792014D01*
X13360157Y-12792014D01*
X13403014Y-12806300D01*
X13431586Y-12834871D01*
X13445871Y-12863443D01*
X13460157Y-12920586D01*
X13460157Y-12963443D01*
X13445871Y-13020586D01*
X13431586Y-13049157D01*
X13403014Y-13077729D01*
X13360157Y-13092014D01*
X13288728Y-13092014D01*
X13588728Y-13092014D02*
X13588728Y-12892014D01*
X13588728Y-12949157D02*
X13603014Y-12920586D01*
X13617300Y-12906300D01*
X13645871Y-12892014D01*
X13674443Y-12892014D01*
X13774443Y-13092014D02*
X13774443Y-12892014D01*
X13774443Y-12792014D02*
X13760157Y-12806300D01*
X13774443Y-12820586D01*
X13788728Y-12806300D01*
X13774443Y-12792014D01*
X13774443Y-12820586D01*
X13960157Y-13092014D02*
X13931586Y-13077729D01*
X13917300Y-13049157D01*
X13917300Y-12792014D01*
X14117300Y-13092014D02*
X14088728Y-13077729D01*
X14074443Y-13049157D01*
X14074443Y-12792014D01*
X14460157Y-13092014D02*
X14460157Y-12792014D01*
X14560157Y-13006300D01*
X14660157Y-12792014D01*
X14660157Y-13092014D01*
X14931586Y-13092014D02*
X14931586Y-12934871D01*
X14917300Y-12906300D01*
X14888728Y-12892014D01*
X14831586Y-12892014D01*
X14803014Y-12906300D01*
X14931586Y-13077729D02*
X14903014Y-13092014D01*
X14831586Y-13092014D01*
X14803014Y-13077729D01*
X14788728Y-13049157D01*
X14788728Y-13020586D01*
X14803014Y-12992014D01*
X14831586Y-12977729D01*
X14903014Y-12977729D01*
X14931586Y-12963443D01*
X15074443Y-12892014D02*
X15074443Y-13192014D01*
X15074443Y-12906300D02*
X15103014Y-12892014D01*
X15160157Y-12892014D01*
X15188728Y-12906300D01*
X15203014Y-12920586D01*
X15217300Y-12949157D01*
X15217300Y-13034871D01*
X15203014Y-13063443D01*
X15188728Y-13077729D01*
X15160157Y-13092014D01*
X15103014Y-13092014D01*
X15074443Y-13077729D01*
X15345871Y-13063443D02*
X15360157Y-13077729D01*
X15345871Y-13092014D01*
X15331586Y-13077729D01*
X15345871Y-13063443D01*
X15345871Y-13092014D01*
X15345871Y-12906300D02*
X15360157Y-12920586D01*
X15345871Y-12934871D01*
X15331586Y-12920586D01*
X15345871Y-12906300D01*
X15345871Y-12934871D01*
M02*
